<svg width="205" height="35" viewBox="0 0 205 35" fill="none" xmlns="http://www.w3.org/2000/svg">
<path d="M0.857147 17.0857C0.857147 10.7786 5.35714 6.625 11.2 6.625C17.0429 6.625 21.5071 10.7786 21.5071 17.0857C21.5071 23.3929 17.0464 27.6214 11.2 27.6214C5.35357 27.6214 0.857147 23.4286 0.857147 17.0857ZM11.2036 23.8143C14.6643 23.8143 16.9321 20.775 16.9321 17.0857C16.9321 13.3964 14.6643 10.3571 11.2036 10.3571C7.74286 10.3571 5.475 13.3964 5.475 17.0857C5.475 20.775 7.74286 23.8143 11.2036 23.8143Z" fill="#131313"/>
<path d="M24.9321 7.16429H29.5464V10.625C30.625 8.31786 32.4322 6.625 35.5071 6.625C40.6607 6.625 42.6607 10.0107 42.6607 14.7393V27.0464H38.0071V15.8179C38.0071 12.8179 37.0857 10.7036 34.275 10.7036C31.4643 10.7036 29.6607 13.05 29.6607 17.9714V27.0464H24.9321V7.16429Z" fill="#131313"/>
<path d="M56.0429 27.6217C50.0429 27.6217 45.9286 23.3538 45.9286 17.0467C45.9286 10.7395 50.1964 6.58594 56.0429 6.58594C62.7714 6.58594 65.6964 11.7395 65.7321 17.5074C65.7321 17.7002 65.7321 18.0467 65.6929 18.3931H50.425C50.8107 21.7395 53 23.8145 56 23.8145C58.1929 23.8145 60.0393 23.0074 60.7286 21.1609H65.4214C64.2286 25.1609 60.8071 27.6217 56.0393 27.6217H56.0429ZM61.1572 15.1645C60.85 12.4717 59.2714 10.2038 56.0036 10.2038C52.9643 10.2038 50.9286 12.2038 50.4643 15.1645H61.1536H61.1572Z" fill="#131313"/>
<path d="M89.6929 17.0464C89.6929 23.3929 85.8071 27.5464 80.3857 27.5464C77 27.5464 74.925 25.3929 74.2321 23.7786H74.1929V34.7393H69.3071V7.16429H74.1143V10.5857H74.1536C74.8071 8.85357 76.9607 6.625 80.4214 6.625C85.8429 6.625 89.6893 10.7393 89.6893 17.0464H89.6929ZM79.425 23.8143C83.1179 23.8143 85.0393 20.8536 85.0393 17.0464C85.0393 13.2393 83.0393 10.3929 79.425 10.3929C75.8107 10.3929 73.7714 13.6214 73.7714 17.0464C73.7714 20.4714 75.5786 23.8143 79.425 23.8143Z" fill="#131313"/>
<path d="M102.15 27.6217C96.15 27.6217 92.0357 23.3538 92.0357 17.0467C92.0357 10.7395 96.3036 6.58594 102.15 6.58594C108.879 6.58594 111.804 11.7395 111.839 17.5074C111.839 17.7002 111.839 18.0467 111.8 18.3931H96.5321C96.9179 21.7395 99.1071 23.8145 102.107 23.8145C104.3 23.8145 106.146 23.0074 106.836 21.1609H111.529C110.336 25.1609 106.914 27.6217 102.146 27.6217H102.15ZM107.264 15.1645C106.957 12.4717 105.379 10.2038 102.111 10.2038C99.0714 10.2038 97.0357 12.2038 96.5714 15.1645H107.261H107.264Z" fill="#131313"/>
<path d="M120.071 10.779C121.15 8.0469 123.264 6.9719 126.071 6.93262V11.3933C125.839 11.3933 124.532 11.3933 123.878 11.6255C122.032 12.0112 120.185 13.0112 120.185 18.0076V27.0433H115.457V7.16119H120.071V10.7755V10.779Z" fill="#131313"/>
<path d="M138.261 27.6214C132.339 27.6214 127.725 23.5071 127.725 17.0857C127.725 10.6643 132.339 6.625 138.261 6.625C143.147 6.625 146.643 9.35357 147.375 13.5464H142.914C142.222 11.5857 140.682 10.3179 138.222 10.3179C134.647 10.3179 132.375 13.3179 132.375 17.125C132.375 20.9321 134.643 23.8536 138.222 23.8536C140.529 23.8536 142.336 22.7786 143.029 20.4679H147.489C146.604 25.0429 143.029 27.6214 138.261 27.6214Z" fill="#131313"/>
<path d="M159.611 27.6217C153.611 27.6217 149.497 23.3538 149.497 17.0467C149.497 10.7395 153.764 6.58594 159.611 6.58594C166.339 6.58594 169.264 11.7395 169.3 17.5074C169.3 17.7002 169.3 18.0467 169.261 18.3931H153.993C154.379 21.7395 156.568 23.8145 159.568 23.8145C161.761 23.8145 163.607 23.0074 164.297 21.1609H168.989C167.797 25.1609 164.375 27.6217 159.607 27.6217H159.611ZM164.725 15.1645C164.418 12.4717 162.839 10.2038 159.572 10.2038C156.532 10.2038 154.497 12.2038 154.032 15.1645H164.722H164.725Z" fill="#131313"/>
<path d="M172.879 7.16429H177.493V10.625C178.571 8.31786 180.379 6.625 183.454 6.625C188.607 6.625 190.607 10.0107 190.607 14.7393V27.0464H185.954V15.8179C185.954 12.8179 185.032 10.7036 182.225 10.7036C179.418 10.7036 177.611 13.05 177.611 17.9714V27.0464H172.882V7.16429H172.879Z" fill="#131313"/>
<path d="M203.372 23.3538H204.639V27.1217H202.372C197.643 27.2002 196.179 24.3538 196.179 20.5074V10.7788H193.025V7.16451H196.179V2.62522L200.793 0.585938V7.16094H204.714V10.7752H200.793V19.8895C200.793 22.1217 201.332 23.3502 203.372 23.3502V23.3538Z" fill="#131313"/>
</svg>
