<svg width="21" height="22" viewBox="0 0 21 22" fill="none" xmlns="http://www.w3.org/2000/svg">
<path d="M1.90625 15.1016C2.0625 14.5547 2.375 14.0469 2.76562 13.6562L14.6406 1.78125C15.6172 0.804688 17.2188 0.804688 18.1953 1.78125L19.7188 3.30469C19.8359 3.42188 19.9531 3.57812 20.0312 3.69531C20.6953 4.67188 20.5781 6 19.7188 6.85938L7.84375 18.7344C7.80469 18.7734 7.72656 18.8125 7.6875 18.8906C7.29688 19.2031 6.86719 19.4375 6.39844 19.5938L3.35156 20.4922L1.67188 21C1.35938 21.0781 1.00781 21 0.773438 20.7266C0.5 20.4922 0.421875 20.1406 0.539062 19.8281L1.00781 18.1484L1.90625 15.1016ZM3.70312 15.6484L3.42969 16.5469L2.80469 18.6953L4.95312 18.0703L5.85156 17.7969C6.125 17.7188 6.32031 17.6016 6.51562 17.4062L15.4609 8.46094L13.0391 6.03906L4.09375 14.9844C4.05469 14.9844 4.05469 15.0234 4.01562 15.0625C3.85938 15.2188 3.78125 15.4141 3.70312 15.6484Z" fill="#B2B2B2"/>
</svg>
