<svg width="30" height="30" viewBox="0 0 30 30" fill="none" xmlns="http://www.w3.org/2000/svg">
<path d="M15 6.875C12.0703 6.875 9.41406 8.4375 7.92969 10.9375C6.48438 13.4766 6.48438 16.5625 7.92969 19.0625C9.41406 21.6016 12.0703 23.125 15 23.125C17.8906 23.125 20.5469 21.6016 22.0312 19.0625C23.4766 16.5625 23.4766 13.4766 22.0312 10.9375C20.5469 8.4375 17.8906 6.875 15 6.875ZM15 25C11.4062 25 8.125 23.125 6.32812 20C4.53125 16.9141 4.53125 13.125 6.32812 10C8.125 6.91406 11.4062 5 15 5C18.5547 5 21.8359 6.91406 23.6328 10C25.4297 13.125 25.4297 16.9141 23.6328 20C21.8359 23.125 18.5547 25 15 25ZM16.25 9.375C16.25 10.0781 15.6641 10.625 15 10.625C14.2969 10.625 13.75 10.0781 13.75 9.375C13.75 8.71094 14.2969 8.125 15 8.125C15.6641 8.125 16.25 8.71094 16.25 9.375ZM15 20.9375V20.9766C13.7891 20.9766 12.8125 19.9609 12.8125 18.7891C12.8125 18.6719 12.8125 18.5547 12.8125 18.4375L8.51562 15.4688C8.08594 15.1953 7.96875 14.6094 8.28125 14.1797C8.55469 13.75 9.14062 13.6328 9.57031 13.9453L13.8672 16.875C14.2188 16.6797 14.5703 16.5625 15 16.5625C16.1719 16.5625 17.1875 17.5781 17.1875 18.75C17.1875 19.9609 16.1719 20.9375 15 20.9375ZM12.5 11.25C12.5 11.9531 11.9141 12.5 11.25 12.5C10.5469 12.5 10 11.9531 10 11.25C10 10.5859 10.5469 10 11.25 10C11.9141 10 12.5 10.5859 12.5 11.25ZM20.625 16.25C19.9219 16.25 19.375 15.7031 19.375 15C19.375 14.3359 19.9219 13.75 20.625 13.75C21.2891 13.75 21.875 14.3359 21.875 15C21.875 15.7031 21.2891 16.25 20.625 16.25ZM20 11.25C20 11.9531 19.4141 12.5 18.75 12.5C18.0469 12.5 17.5 11.9531 17.5 11.25C17.5 10.5859 18.0469 10 18.75 10C19.4141 10 20 10.5859 20 11.25Z" fill="#1C1C1C"/>
</svg>
