<svg width="30" height="30" viewBox="0 0 30 30" fill="none" xmlns="http://www.w3.org/2000/svg">
<path d="M15 9.375C14.6484 9.375 14.375 9.10156 14.375 8.75V8.125C14.375 6.40625 15.7422 5 17.5 5H18.125C18.4375 5 18.75 5.3125 18.75 5.625V6.25C18.75 8.00781 17.3438 9.375 15.625 9.375H15ZM12.5 23.125C12.6562 23.125 13.0078 23.0859 13.4375 22.9297C14.4531 22.6562 15.5078 22.6562 16.5234 22.9297C16.9531 23.0859 17.3047 23.125 17.4609 23.125C17.9297 23.125 18.4375 23.0078 18.9844 22.6172C17.6562 21.0938 16.875 19.1016 16.875 16.875C16.875 15.0781 17.3828 13.4375 18.3203 12.0312C17.8516 12.1484 17.3047 12.3438 16.7969 12.5C15.625 12.9688 14.3359 12.9688 13.1641 12.5C12.6562 12.3438 12.1484 12.1484 11.6406 12.0312C12.5781 13.4375 13.125 15.0781 13.125 16.875C13.125 19.1016 12.3047 21.0938 10.9766 22.6172C11.5234 23.0078 12.0312 23.125 12.5 23.125ZM19.375 10C19.6094 10 19.8828 10.0391 20.1172 10.0781C20.5469 10.1953 20.9766 10.3516 21.3281 10.5859C21.6406 10.8203 21.6016 11.2891 21.2891 11.5234C19.7266 12.8125 18.75 14.7266 18.75 16.875C18.75 19.0234 19.6875 20.8984 21.2109 22.1875C21.4844 22.4219 21.5625 22.8125 21.3281 23.0859C20.1953 24.2969 18.8281 25 17.5 25C17.0312 25 16.4453 24.8828 15.9766 24.7266C15.3125 24.5312 14.6484 24.5312 13.9844 24.7266C13.5156 24.8828 12.9297 25 12.4609 25C11.1328 25 9.76562 24.2969 8.63281 23.0859C8.39844 22.8125 8.47656 22.4219 8.75 22.1875C10.2734 20.8984 11.25 19.0234 11.25 16.875C11.25 14.7266 10.2344 12.8125 8.67188 11.5234C8.35938 11.2891 8.32031 10.8203 8.63281 10.5859C9.02344 10.3516 9.41406 10.1953 9.84375 10.0781C10.1172 10.0391 10.3516 10 10.625 10C11.6797 10 12.9297 10.4297 13.8281 10.7812C14.5703 11.0547 15.3906 11.0547 16.1328 10.7812C17.0312 10.4297 18.2812 10 19.375 10Z" fill="#1C1C1C"/>
</svg>
