<svg width="30" height="30" viewBox="0 0 30 30" fill="none" xmlns="http://www.w3.org/2000/svg">
<path d="M12.8516 6.05469C12.5391 6.48438 12.3047 6.95312 12.1484 7.46094C11.9531 8.00781 11.7969 8.32031 11.6016 8.51562L10.4688 9.64844C9.76562 10.3516 9.375 11.2891 9.375 12.3047V13.9844C9.375 14.2969 9.21875 14.6094 8.98438 14.8438L8.59375 15.2734C7.89062 15.9766 7.5 16.9141 7.5 17.9297V19.7266C7.5 20.0391 7.34375 20.3516 7.10938 20.5859L6.83594 20.8984C6.79688 20.7812 6.79688 20.6641 6.79688 20.5469V20.0391C6.79688 19.4531 6.5625 18.9062 6.17188 18.5156L5.11719 17.5C4.72656 17.0703 4.49219 16.5234 4.49219 15.9375V14.5703C4.49219 14.0625 4.29688 13.5547 4.0625 13.125C3.47656 11.9141 3.67188 10.3906 4.6875 9.375C4.76562 9.29688 4.84375 9.21875 4.92188 9.14062C5.70312 8.51562 6.48438 7.73438 6.99219 6.875C7.14844 6.60156 7.34375 6.36719 7.57812 6.13281C9.02344 4.64844 11.3672 4.64844 12.8516 6.05469ZM24.2969 10C24.3359 9.80469 24.375 9.60938 24.375 9.375C24.375 8.00781 23.2422 6.875 21.875 6.875C21.6406 6.875 21.4453 6.91406 21.25 6.95312C19.8438 7.34375 18.3594 7.34375 17.0703 7.22656C16.9922 7.22656 16.9141 7.1875 16.875 7.1875C16.0547 7.1875 15.3516 7.73438 15.0781 8.47656C14.8828 9.02344 14.5703 9.96094 13.7891 10.7422L12.6562 11.875C12.5391 11.9922 12.5 12.1484 12.5 12.3047V13.9844C12.5 15.1562 12.0312 16.25 11.2109 17.0703L10.7812 17.5C10.6641 17.6172 10.625 17.7734 10.625 17.9297V19.2969L14.375 15.5469V12.1875C14.375 11.6797 14.7656 11.25 15.3125 11.25C15.8203 11.25 16.25 11.6797 16.25 12.1875V13.6719L16.5234 13.3984L20.8984 9.0625C21.25 8.67188 21.8359 8.67188 22.2266 9.0625C22.5781 9.41406 22.5781 10 22.2266 10.3516L19.4531 13.125H20.9375C21.4453 13.125 21.875 13.5547 21.875 14.0625C21.875 14.6094 21.4453 15 20.9375 15H17.5781L15.9766 16.6016L11.9531 20.625H13.3203C13.4766 20.625 13.6328 20.5859 13.75 20.4688L14.1797 20.0391C15 19.2188 16.0938 18.75 17.2656 18.75H18.9453C19.1016 18.75 19.2578 18.7109 19.375 18.5938L20.5078 17.4609C21.2891 16.6797 22.2266 16.3672 22.7734 16.1719C23.5156 15.8984 24.0625 15.1953 24.0625 14.375C24.0625 14.3359 24.0234 14.2578 24.0234 14.1797C23.9062 12.8906 23.9062 11.4062 24.2969 10ZM7.85156 24.7266H7.8125C7.46094 25.1172 6.875 25.1172 6.52344 24.7266C6.13281 24.375 6.13281 23.7891 6.52344 23.3984L8.00781 21.9141C8.47656 21.4453 8.75 20.8203 8.75 20.1562V17.9297C8.75 17.2656 8.98438 16.6406 9.45312 16.1719L9.88281 15.7422C10.3516 15.2734 10.625 14.6484 10.625 13.9844V12.3047C10.625 11.6406 10.8594 11.0156 11.3281 10.5469L12.4609 9.41406C12.8906 8.98438 13.125 8.4375 13.3203 7.85156C13.8281 6.40625 15.1953 5.3125 16.875 5.3125C16.9922 5.3125 17.1094 5.35156 17.2656 5.35156C18.3984 5.46875 19.6484 5.42969 20.7812 5.15625C21.1328 5.07812 21.4844 5 21.875 5C24.2578 5 26.25 6.99219 26.25 9.375C26.25 9.76562 26.1719 10.1562 26.0938 10.4688C25.8203 11.6016 25.7812 12.8516 25.8984 13.9844C25.8984 14.1406 25.9375 14.2578 25.9375 14.375C25.9375 16.0547 24.8438 17.4219 23.3984 17.9688C22.8516 18.125 22.2656 18.3594 21.875 18.7891L20.7031 19.9219C20.2344 20.3906 19.6094 20.6641 18.9453 20.6641H17.2656C16.6016 20.6641 15.9766 20.8984 15.5078 21.3672L15.0781 21.7969C14.6094 22.2656 13.9844 22.5391 13.3203 22.5391H11.0938C10.4297 22.5391 9.80469 22.7734 9.33594 23.2422L7.85156 24.7266Z" fill="#131313"/>
</svg>
