<svg width="30" height="31" viewBox="0 0 30 31" fill="none" xmlns="http://www.w3.org/2000/svg">
<path d="M23.125 15.0294C23.125 12.1388 21.5625 9.48254 19.0625 7.99817C16.5234 6.55286 13.4375 6.55286 10.9375 7.99817C8.39844 9.48254 6.875 12.1388 6.875 15.0294C6.875 17.9591 8.39844 20.6154 10.9375 22.0997C13.4375 23.545 16.5234 23.545 19.0625 22.0997C21.5625 20.6154 23.125 17.9591 23.125 15.0294ZM5 15.0294C5 11.4747 6.875 8.19348 10 6.39661C13.0859 4.59973 16.875 4.59973 20 6.39661C23.0859 8.19348 25 11.4747 25 15.0294C25 18.6232 23.0859 21.9044 20 23.7013C16.875 25.4982 13.0859 25.4982 10 23.7013C6.875 21.9044 5 18.6232 5 15.0294ZM14.0625 9.71692C14.0625 9.20911 14.4531 8.77942 15 8.77942C15.5078 8.77942 15.9375 9.20911 15.9375 9.71692V14.5607L19.2578 16.7482C19.6875 17.0607 19.8047 17.6466 19.5312 18.0763C19.2188 18.506 18.6328 18.6232 18.2031 18.3107L14.4531 15.8107C14.2188 15.6544 14.0625 15.3419 14.0625 15.0294V9.71692Z" fill="#97BF60"/>
</svg>
