<svg width="18" height="16" viewBox="0 0 18 16" fill="none" xmlns="http://www.w3.org/2000/svg">
<path d="M9 0C11.8438 0 14.4688 1.53125 15.9062 4C17.3438 6.5 17.3438 9.53125 15.9062 12C14.4688 14.5 11.8438 16 9 16C6.125 16 3.5 14.5 2.0625 12C0.625 9.53125 0.625 6.5 2.0625 4C3.5 1.53125 6.125 0 9 0ZM8.25 3.75V8C8.25 8.25 8.375 8.5 8.5625 8.625L11.5625 10.625C11.9062 10.875 12.375 10.7812 12.625 10.4375C12.8438 10.0938 12.75 9.625 12.4062 9.375L9.75 7.625V3.75C9.75 3.34375 9.40625 3 9 3C8.5625 3 8.25 3.34375 8.25 3.75Z" fill="#1C1C1C"/>
</svg>
