<svg width="31" height="31" viewBox="0 0 31 31" fill="none" xmlns="http://www.w3.org/2000/svg">
<path d="M9.52344 6.58411L8.9375 12.17V12.7169C8.9375 13.6154 9.60156 14.2794 10.5 14.2794H11.75H13C13.8594 14.2794 14.5625 13.6154 14.5625 12.7169V12.17L13.9375 6.58411C13.8594 6.07629 14.25 5.60754 14.7578 5.56848C15.2656 5.49036 15.7344 5.88098 15.7734 6.38879L16.3984 12.0138L16.4375 12.0529V12.0919V12.7169C16.4375 14.631 14.875 16.1544 13 16.1544H12.6875V24.5919C12.6875 25.1388 12.2578 25.5294 11.75 25.5294C11.2031 25.5294 10.8125 25.1388 10.8125 24.5919V16.1544H10.5C8.58594 16.1544 7.0625 14.631 7.0625 12.7169V12.0919V12.0529V12.0138L7.6875 6.38879C7.72656 5.88098 8.19531 5.49036 8.70312 5.56848C9.21094 5.60754 9.60156 6.07629 9.52344 6.58411ZM12.6875 6.46692V12.0919C12.6875 12.6388 12.2578 13.0294 11.75 13.0294C11.2031 13.0294 10.8125 12.6388 10.8125 12.0919V6.46692C10.8125 5.95911 11.2031 5.52942 11.75 5.52942C12.2578 5.52942 12.6875 5.95911 12.6875 6.46692ZM19.875 12.4044V16.7794C19.875 17.131 20.1484 17.4044 20.5 17.4044H22.375V15.2169V7.71692C22.0625 7.83411 21.7891 8.02942 21.4766 8.30286C20.6953 8.96692 19.875 10.1779 19.875 12.4044ZM22.375 19.2794H20.5C19.0938 19.2794 18 18.1857 18 16.7794V12.4044C18 6.77942 22.375 5.52942 23 5.52942C23.6641 5.52942 24.25 6.11536 24.25 6.77942V15.2169V17.4044V19.2794V24.5919C24.25 25.1388 23.8203 25.5294 23.3125 25.5294C22.7656 25.5294 22.375 25.1388 22.375 24.5919V19.2794Z" fill="#131313"/>
</svg>
