<svg width="30" height="30" viewBox="0 0 30 30" fill="none" xmlns="http://www.w3.org/2000/svg">
<path d="M10.7812 16.875C11.1719 17.3047 11.5625 17.6953 11.9922 18.0469C13.3203 19.1797 14.9609 20 16.875 20C18.75 20 20.3906 19.1797 21.7188 18.0469C22.8906 17.0703 23.7891 15.8984 24.2578 15C23.7891 14.1406 22.8906 12.9688 21.7188 11.9922C20.3906 10.8594 18.75 10 16.875 10C14.9609 10 13.3203 10.8594 11.9922 11.9922C11.5625 12.3438 11.1719 12.7344 10.7812 13.1641C10.2344 13.7891 9.375 13.9453 8.59375 13.6328L6.48438 12.6562L7.30469 14.1016C7.65625 14.6484 7.65625 15.3906 7.30469 15.9375L6.48438 17.3828L8.59375 16.4062C9.375 16.0547 10.2344 16.25 10.7812 16.875ZM3.90625 18.1641L5.70312 15L3.90625 11.875C3.63281 11.4062 3.71094 10.8203 4.0625 10.4297C4.41406 10.0391 5 9.92188 5.50781 10.1172L9.375 11.9141C9.80469 11.4453 10.2734 10.9766 10.7812 10.5469C12.3047 9.25781 14.375 8.125 16.875 8.125C19.3359 8.125 21.4062 9.25781 22.9297 10.5469C24.4531 11.8359 25.5469 13.3594 26.0938 14.4531C26.2891 14.8047 26.2891 15.2344 26.0938 15.5859C25.5469 16.6406 24.4531 18.2031 22.9297 19.4922C21.4062 20.7812 19.3359 21.875 16.875 21.875C14.375 21.875 12.3047 20.7812 10.7812 19.4922C10.2734 19.0625 9.80469 18.5938 9.375 18.125L5.50781 19.9219C5 20.1172 4.41406 20 4.0625 19.6094C3.71094 19.2188 3.63281 18.6328 3.90625 18.1641ZM20 13.75C20.6641 13.75 21.25 14.3359 21.25 15C21.25 15.7031 20.6641 16.25 20 16.25C19.2969 16.25 18.75 15.7031 18.75 15C18.75 14.3359 19.2969 13.75 20 13.75Z" fill="#131313"/>
</svg>
