<svg width="30" height="30" viewBox="0 0 30 30" fill="none" xmlns="http://www.w3.org/2000/svg">
<path d="M8.4375 5H21.5625C21.7969 5 22.0703 5.11719 22.2266 5.3125C22.4219 5.50781 22.5 5.78125 22.4609 6.05469L21.0547 22.4609C20.9375 23.9062 19.7266 25 18.2812 25H11.7188C10.2344 25 9.02344 23.9062 8.90625 22.4609L7.5 6.05469C7.46094 5.78125 7.53906 5.50781 7.73438 5.3125C7.89062 5.11719 8.16406 5 8.4375 5ZM9.72656 10.2734L10.7031 10.8203C11.3672 11.1719 12.1484 11.0938 12.6953 10.625C14.0234 9.57031 15.9375 9.57031 17.2656 10.625C17.8516 11.0938 18.6328 11.1719 19.2578 10.8203L20.2344 10.2734L20.5078 6.875H9.45312L9.72656 10.2734ZM9.92188 12.5L10.7812 22.3047C10.8203 22.7734 11.2109 23.125 11.7188 23.125H18.2812C18.75 23.125 19.1406 22.7734 19.1797 22.3047L20.0391 12.5C18.75 13.1641 17.2266 13.0078 16.0938 12.1094C15.4297 11.6016 14.5312 11.6016 13.8672 12.1094C12.7344 13.0078 11.2109 13.1641 9.92188 12.5Z" fill="#1C1C1C"/>
</svg>
