<svg width="30" height="30" viewBox="0 0 30 30" fill="none" xmlns="http://www.w3.org/2000/svg">
<path d="M22.3047 10.4297C21.9922 9.92188 21.5625 9.41406 21.0938 8.90625C19.5312 7.34375 17.5781 6.60156 16.2891 6.99219C16.2891 6.99219 16.25 7.03125 16.2109 7.03125C16.0938 7.07031 15.9766 7.14844 15.8594 7.22656C15.8203 7.22656 15.7812 7.22656 15.7812 7.26562C15.6641 7.30469 15.625 7.38281 15.5469 7.46094C14.4141 8.59375 15.0781 11.0547 16.9922 13.0078C18.9453 14.9219 21.4062 15.5859 22.5391 14.4922V14.4531C22.8125 14.2188 22.9688 13.8672 23.0469 13.4766C23.125 13.0859 23.125 12.6562 23.0078 12.2266C23.0078 12.1484 23.0078 12.0703 22.9688 11.9922C22.8516 11.4844 22.6172 10.9766 22.3047 10.4297ZM20.1562 16.8359C19.9609 16.7969 19.7656 16.7578 19.6094 16.6797C18.2031 16.3281 16.8359 15.5078 15.6641 14.3359C14.4922 13.1641 13.6719 11.7969 13.3203 10.3906C13.2422 10.2344 13.2031 10.0391 13.1641 9.84375C12.3438 10.8203 11.875 12.1094 11.875 13.4375V16.875C11.875 17.5781 12.4219 18.125 13.125 18.125H16.5625C17.8906 18.125 19.1797 17.6562 20.1562 16.8359ZM13.2812 20C13.0078 20 12.7344 20.1172 12.5391 20.3125C12.1484 20.7422 12.1875 21.3672 12.3438 21.9141C12.4219 22.1484 12.5 22.4219 12.5 22.6562C12.5 23.9844 11.4453 25 10.1562 25C8.82812 25 7.8125 23.9844 7.8125 22.6562C7.8125 22.4219 7.57812 22.1875 7.34375 22.1875C6.01562 22.1875 5 21.1719 5 19.8438C5 18.5547 6.01562 17.5 7.34375 17.5C7.57812 17.5 7.85156 17.5781 8.08594 17.6562C8.63281 17.8125 9.29688 17.8516 9.6875 17.4609C9.88281 17.2656 10 16.9922 10 16.7188V13.4375C10 11.4453 10.7812 9.57031 12.1875 8.16406L14.2188 6.13281C15.4297 4.88281 17.1484 4.88281 18.4766 5.19531C19.8828 5.58594 21.25 6.40625 22.4219 7.57812C22.8516 8.00781 23.2422 8.47656 23.5938 8.98438C24.1406 9.80469 24.5703 10.6641 24.8047 11.5234C24.8828 11.8359 24.9219 12.1875 24.9609 12.5781C25.0391 13.6719 24.8047 14.8438 23.8672 15.7812L21.8359 17.8125C20.4297 19.2188 18.5156 20 16.5625 20H13.2812ZM20.1172 12.0312C19.7656 12.3828 19.0234 12.1875 18.3984 11.6016C17.8125 10.9766 17.6172 10.2344 17.9688 9.88281C18.3203 9.53125 19.0625 9.72656 19.6875 10.3125C20.2734 10.9375 20.4688 11.6797 20.1172 12.0312Z" fill="#1C1C1C"/>
</svg>
