<svg width="30" height="30" viewBox="0 0 30 30" fill="none" xmlns="http://www.w3.org/2000/svg">
<path d="M14.9219 5.89844C16.6797 7.14844 17.0703 9.49219 16.4062 11.6406C18.1641 10.2734 20.4297 9.80469 22.1875 11.0547C24.7266 12.8516 25 16.5625 23.2031 19.2188C20.0781 23.7891 13.5547 26.1719 8.82812 22.8125C4.14062 19.4531 3.98438 12.4219 7.07031 7.85156C8.86719 5.15625 12.3828 4.10156 14.9219 5.89844ZM13.8281 7.46094C12.3438 6.40625 10 6.875 8.63281 8.86719V8.90625C5.89844 12.9297 6.28906 18.7109 9.92188 21.2891C13.5156 23.8672 18.9062 22.1875 21.6406 18.1641C23.0078 16.1328 22.6172 13.6719 21.0938 12.6172C20.1172 11.875 18.2422 12.1484 16.7578 13.9062C16.25 14.6094 15.2734 14.7656 14.5703 14.2578C13.9062 13.75 13.7109 12.8125 14.1797 12.1094C15.3125 10.0781 14.8828 8.16406 13.8281 7.46094Z" fill="#131313"/>
</svg>
