<svg width="30" height="30" viewBox="0 0 30 30" fill="none" xmlns="http://www.w3.org/2000/svg">
<path d="M13.75 8.04688C13.75 8.71094 13.5156 9.375 13.125 9.88281L9.96094 14.1797C9.57031 14.7266 9.375 15.3516 9.375 16.0547V16.25H20.625V16.0547C20.625 15.3516 20.3906 14.7266 20 14.1797L16.8359 9.88281C16.4453 9.375 16.25 8.71094 16.25 8.04688V6.875H13.75V8.04688ZM9.375 21.25V22.5C9.375 22.8516 9.64844 23.125 10 23.125H20C20.3125 23.125 20.625 22.8516 20.625 22.5V21.25H9.375ZM18.125 6.875V8.04688C18.125 8.32031 18.2031 8.55469 18.3594 8.78906L18.9453 9.57031C19.4531 9.0625 20.1562 8.75 20.9375 8.75C22.4609 8.75 23.75 10.0391 23.75 11.5625C23.75 12.6953 23.0469 13.6719 22.1094 14.1406C22.3438 14.7266 22.5 15.3906 22.5 16.0547V22.5C22.5 23.9062 21.3672 25 20 25H10C8.59375 25 7.5 23.9062 7.5 22.5V16.0547C7.5 14.9609 7.8125 13.9453 8.47656 13.0859L11.6016 8.78906C11.7578 8.55469 11.875 8.32031 11.875 8.04688V6.875C11.3281 6.875 10.9375 6.48438 10.9375 5.9375C10.9375 5.42969 11.3281 5 11.875 5H13.75H16.25H18.125C18.6328 5 19.0625 5.42969 19.0625 5.9375C19.0625 6.48438 18.6328 6.875 18.125 6.875ZM20.0781 11.1328L21.0938 12.5C21.5234 12.4219 21.875 12.0312 21.875 11.6016C21.875 11.0547 21.4453 10.6641 20.9375 10.6641C20.5469 10.6641 20.2344 10.8594 20.0781 11.1328Z" fill="#131313"/>
</svg>
