<svg width="30" height="30" viewBox="0 0 30 30" fill="none" xmlns="http://www.w3.org/2000/svg">
<path d="M17.0703 8.125L16.5234 7.1875L16.0547 6.25H21.25C22.6172 6.25 23.75 7.38281 23.75 8.75V21.25C23.75 22.6562 22.6172 23.75 21.25 23.75H8.75C7.34375 23.75 6.25 22.6562 6.25 21.25V8.75C6.25 7.38281 7.34375 6.25 8.75 6.25H13.9453L13.4375 7.1875L12.8906 8.125H8.75C8.39844 8.125 8.125 8.4375 8.125 8.75V16.8359C8.67188 16.7188 9.17969 16.4844 9.64844 16.25C9.92188 16.0938 10.1562 15.8984 10.3906 15.7422C10.8984 15.3516 11.5625 15.3516 12.0703 15.7422C12.3047 15.8984 12.5391 16.0938 12.8125 16.25C13.4375 16.6016 14.2188 16.875 14.9609 16.875C15.7422 16.875 16.5234 16.6016 17.1484 16.25C17.4219 16.0938 17.6562 15.8984 17.8906 15.7422C18.3594 15.3516 19.0625 15.3516 19.5703 15.7422C19.8047 15.8984 20.0391 16.0938 20.3125 16.25C20.7812 16.4844 21.2891 16.7188 21.8359 16.8359L21.875 8.75C21.875 8.4375 21.5625 8.125 21.25 8.125H17.0703ZM8.125 21.25C8.125 21.6016 8.39844 21.875 8.75 21.875H21.25C21.5625 21.875 21.875 21.6016 21.875 21.25V18.7109C20.8984 18.5938 20 18.2031 19.375 17.8516C19.1406 17.7344 18.9062 17.5781 18.7109 17.4609C18.5547 17.5781 18.3203 17.7344 18.0859 17.8516C17.3047 18.2812 16.2109 18.75 14.9609 18.75C13.75 18.75 12.6562 18.2812 11.875 17.8516C11.6406 17.7344 11.4062 17.5781 11.2109 17.4609C11.0547 17.5781 10.8203 17.7344 10.5859 17.8516C9.96094 18.2031 9.0625 18.5938 8.125 18.7109V21.25ZM14.5312 7.77344C14.6094 7.61719 14.8047 7.5 15 7.5C15.1562 7.5 15.3516 7.61719 15.4297 7.77344L16.9141 10.4688C17.0703 10.7812 17.1875 11.1719 17.1875 11.5234V11.6016C17.1875 12.7734 16.1719 13.7891 15 13.7891C13.7891 13.7891 12.8125 12.7734 12.8125 11.6016V11.5234C12.8125 11.1719 12.8906 10.7812 13.0859 10.4688L14.5312 7.77344Z" fill="#131313"/>
</svg>
