<svg width="30" height="30" viewBox="0 0 30 30" fill="none" xmlns="http://www.w3.org/2000/svg">
<path d="M7.30469 24.7266L7.14844 24.8047C5.85938 25.3906 4.33594 24.8047 3.78906 23.5156L2.89062 21.5234C2.61719 20.9375 2.5 20.3125 2.5 19.6875C2.46094 19.1016 2.57812 18.4766 2.8125 17.8906C3.04688 17.2656 3.35938 16.7578 3.78906 16.3281C4.02344 16.0938 4.25781 15.8594 4.53125 15.6641C5.19531 15.1953 5.82031 14.6484 6.09375 13.9062C6.40625 13.1641 6.28906 12.3438 6.13281 11.5625C6.05469 11.25 5.97656 10.8984 5.97656 10.5859C5.97656 9.96094 6.05469 9.375 6.28906 8.75C6.52344 8.16406 6.875 7.61719 7.30469 7.1875C7.69531 6.75781 8.20312 6.36719 8.78906 6.13281L10.7812 5.23438C12.0703 4.64844 13.5938 5.23438 14.1797 6.52344L15.0391 8.51562C14.9219 8.82812 14.8438 9.17969 14.7656 9.53125C14.6094 10.4297 14.3359 11.0547 13.9453 11.4844C13.5156 11.875 12.8906 12.1484 11.9922 12.3047C10.5859 12.5781 9.33594 13.2422 8.28125 14.2578C6.17188 16.3672 6.21094 19.1016 6.21094 21.25C6.21094 21.4844 6.25 21.6797 6.25 21.875C6.25 22.9688 6.64062 23.9844 7.30469 24.7266ZM24.4922 13.5547C25.1953 12.8516 25.625 11.875 25.625 10.7812V8.125C25.625 7.46094 25.0391 6.875 24.375 6.875H21.7188C21.1719 6.875 20.6641 6.99219 20.1953 7.1875C19.7656 7.38281 19.3359 7.65625 18.9453 8.04688C18.5547 8.4375 18.2812 8.86719 18.0859 9.29688C18.0078 9.57031 17.9297 9.80469 17.8516 10.0781V10.1172C17.6562 11.1719 17.2656 12.5781 16.1719 13.7109C15.0781 14.8047 13.6328 15.1953 12.5781 15.3906C12.3047 15.4297 12.0312 15.5078 11.7578 15.625C11.3281 15.8203 10.8984 16.0938 10.5078 16.4844C10.1172 16.8359 9.84375 17.2656 9.64844 17.7344C9.45312 18.2031 9.375 18.7109 9.375 19.2188V21.875C9.375 22.5781 9.92188 23.125 10.625 23.125H13.2812C14.3359 23.125 15.3125 22.7344 16.0156 22.0312L17.2656 23.3203L16.0156 22.0312V21.9922H16.0547C16.4062 21.6016 16.6797 21.1719 16.875 20.7422C16.9922 20.4688 17.0703 20.1953 17.1094 19.9219C17.3047 18.8672 17.6953 17.4219 18.7891 16.3281C19.9219 15.2344 21.3281 14.8438 22.3828 14.6484H22.4219C22.6953 14.6094 22.9297 14.5312 23.2031 14.4141C23.6328 14.2188 24.0625 13.9453 24.4531 13.5547H24.4922ZM25.8203 14.8828L25.7812 14.9219C25.2344 15.4688 24.5703 15.8594 23.9062 16.1328C23.5547 16.2891 23.1641 16.4062 22.7344 16.4844C21.7969 16.6797 20.8203 16.9922 20.1172 17.6562C19.4531 18.3594 19.1406 19.3359 18.9453 20.2734C18.8672 20.6641 18.75 21.0938 18.5938 21.4453C18.3203 22.1094 17.9297 22.7344 17.3828 23.2812C17.3438 23.3203 17.3438 23.3203 17.3047 23.3594C16.2891 24.375 14.8438 25 13.2812 25H10.625C8.86719 25 7.5 23.6328 7.5 21.875V19.2188C7.5 18.4375 7.65625 17.6953 7.92969 17.0312C8.20312 16.3281 8.63281 15.7031 9.17969 15.1562C9.72656 14.6094 10.3516 14.1797 11.0547 13.9062C11.4062 13.75 11.8359 13.6328 12.2266 13.5547C13.1641 13.3594 14.1406 13.0469 14.8438 12.3828C15.5078 11.6797 15.8203 10.7031 16.0156 9.76562C16.0938 9.33594 16.2109 8.94531 16.3672 8.59375C16.6406 7.89062 17.0703 7.26562 17.6172 6.71875C18.1641 6.13281 18.7891 5.74219 19.4922 5.46875C20.1562 5.15625 20.8984 5 21.7188 5H24.375C26.0938 5 27.5 6.40625 27.5 8.125V10.7812C27.5 12.3828 26.8359 13.8281 25.8203 14.8828ZM22.8125 11.0938C22.3828 11.0938 22.0312 10.7422 22.0312 10.3125C22.0312 9.92188 22.3828 9.57031 22.8125 9.57031C23.2031 9.57031 23.5547 9.92188 23.5547 10.3125C23.5547 10.7422 23.2031 11.0938 22.8125 11.0938ZM20.3125 13.5938C19.8828 13.5938 19.5312 13.2422 19.5312 12.8125C19.5312 12.4219 19.8828 12.0703 20.3125 12.0703C20.7031 12.0703 21.0547 12.4219 21.0547 12.8125C21.0547 13.2422 20.7031 13.5938 20.3125 13.5938ZM12.8125 21.0938C12.3828 21.0938 12.0312 20.7422 12.0312 20.3125C12.0312 19.9219 12.3828 19.5703 12.8125 19.5703C13.2031 19.5703 13.5547 19.9219 13.5547 20.3125C13.5547 20.7422 13.2031 21.0938 12.8125 21.0938ZM16.0547 20.3125C16.0547 20.7422 15.7031 21.0938 15.3125 21.0938C14.8828 21.0938 14.5312 20.7422 14.5312 20.3125C14.5312 19.9219 14.8828 19.5703 15.3125 19.5703C15.7031 19.5703 16.0547 19.9219 16.0547 20.3125ZM22.8125 13.5938C22.3828 13.5938 22.0312 13.2422 22.0312 12.8125C22.0312 12.4219 22.3828 12.0703 22.8125 12.0703C23.2031 12.0703 23.5547 12.4219 23.5547 12.8125C23.5547 13.2422 23.2031 13.5938 22.8125 13.5938ZM16.0547 17.8125C16.0547 18.2422 15.7031 18.5938 15.3125 18.5938C14.8828 18.5938 14.5312 18.2422 14.5312 17.8125C14.5312 17.4219 14.8828 17.0703 15.3125 17.0703C15.7031 17.0703 16.0547 17.4219 16.0547 17.8125Z" fill="#131313"/>
</svg>
