<svg width="30" height="30" viewBox="0 0 30 30" fill="none" xmlns="http://www.w3.org/2000/svg">
<path d="M20.1953 23.125C20.4297 23.125 20.625 22.9688 20.625 22.7344C20.625 22.6953 20.625 22.6562 20.5859 22.6562L18.7891 12.5H11.1719L9.375 22.6562C9.375 22.6562 9.375 22.6953 9.375 22.7344C9.375 22.9688 9.53125 23.125 9.76562 23.125H20.1953ZM9.76562 25C8.51562 25 7.5 23.9844 7.5 22.7344C7.5 22.5781 7.5 22.4609 7.5 22.3047L9.84375 9.33594C10.2734 6.83594 12.4609 5 15 5C17.5 5 19.6875 6.83594 20.1172 9.33594L22.4609 22.3047C22.4609 22.4609 22.5 22.5781 22.5 22.7344C22.5 23.9844 21.4453 25 20.1953 25H9.76562ZM15 6.875C14.6484 6.875 14.375 7.1875 14.375 7.5C14.375 7.85156 14.6484 8.125 15 8.125C15.3125 8.125 15.625 7.85156 15.625 7.5C15.625 7.1875 15.3125 6.875 15 6.875ZM12.5 8.75C12.5 9.10156 12.7734 9.375 13.125 9.375C13.4375 9.375 13.75 9.10156 13.75 8.75C13.75 8.4375 13.4375 8.125 13.125 8.125C12.7734 8.125 12.5 8.4375 12.5 8.75ZM16.875 8.125C16.5234 8.125 16.25 8.4375 16.25 8.75C16.25 9.10156 16.5234 9.375 16.875 9.375C17.1875 9.375 17.5 9.10156 17.5 8.75C17.5 8.4375 17.1875 8.125 16.875 8.125Z" fill="#131313"/>
</svg>
