<svg width="30" height="30" viewBox="0 0 30 30" fill="none" xmlns="http://www.w3.org/2000/svg">
<path d="M21.25 6.875C13.2812 6.875 6.875 13.3203 6.875 21.25V23.125H8.75C16.6797 23.125 23.125 16.7188 23.125 8.75V6.875H21.25ZM21.25 5H23.125C24.1406 5 25 5.85938 25 6.875V8.75C25 17.7344 17.6953 25 8.75 25H6.875C5.82031 25 5 24.1797 5 23.125V21.25C5 12.3047 12.2656 5 21.25 5ZM15 12.8125C15.7812 12.8125 16.4844 13.2422 16.875 13.9062C17.2656 14.6094 17.2656 15.4297 16.875 16.0938C16.4844 16.7969 15.7812 17.1875 15 17.1875C14.1797 17.1875 13.4766 16.7969 13.0859 16.0938C12.6953 15.4297 12.6953 14.6094 13.0859 13.9062C13.4766 13.2422 14.1797 12.8125 15 12.8125ZM8.4375 19.375C8.4375 18.5938 8.82812 17.8906 9.53125 17.5C10.1953 17.1094 11.0156 17.1094 11.7188 17.5C12.3828 17.8906 12.8125 18.5938 12.8125 19.375C12.8125 20.1953 12.3828 20.8984 11.7188 21.2891C11.0156 21.6797 10.1953 21.6797 9.53125 21.2891C8.82812 20.8984 8.4375 20.1953 8.4375 19.375ZM19.375 8.4375C20.1562 8.4375 20.8594 8.86719 21.25 9.53125C21.6406 10.2344 21.6406 11.0547 21.25 11.7188C20.8594 12.4219 20.1562 12.8125 19.375 12.8125C18.5547 12.8125 17.8516 12.4219 17.4609 11.7188C17.0703 11.0547 17.0703 10.2344 17.4609 9.53125C17.8516 8.86719 18.5547 8.4375 19.375 8.4375Z" fill="#131313"/>
</svg>
