<svg width="30" height="30" viewBox="0 0 30 30" fill="none" xmlns="http://www.w3.org/2000/svg">
<path d="M19.375 8.75C18.6719 8.75 18.0859 8.39844 17.7344 7.8125C17.3828 7.26562 17.3828 6.52344 17.7344 5.9375C18.0859 5.39062 18.6719 5 19.375 5C20.0391 5 20.625 5.39062 20.9766 5.9375C21.3281 6.52344 21.3281 7.26562 20.9766 7.8125C20.625 8.39844 20.0391 8.75 19.375 8.75ZM15.8203 9.25781L19.5312 10.1953C20.2734 10.3906 20.8594 10.9375 21.0938 11.6797L21.875 14.1797C21.9141 14.2969 22.0312 14.375 22.1484 14.375H24.0625C24.5703 14.375 25 14.8047 25 15.3125C25 15.8594 24.5703 16.25 24.0625 16.25H22.1484C21.2109 16.25 20.3516 15.625 20.0781 14.7266L19.8438 14.0234L18.75 17.3047L20 18.0078C20.625 18.3594 20.9375 19.1406 20.7422 19.8438L19.3359 24.375C19.1797 24.8438 18.6328 25.1172 18.125 24.9609C17.6562 24.8047 17.3828 24.2969 17.5391 23.7891L18.8672 19.5312L15.4297 17.5781C14.4922 17.0703 14.1016 15.9766 14.4141 15L15.7031 11.1719L15.3516 11.0938C15.1172 11.0156 14.8438 11.0156 14.6094 11.0938H14.5312C14.2969 11.1719 14.0625 11.2891 13.9062 11.4453L12.1484 12.9297C11.7578 13.2422 11.1719 13.2031 10.8203 12.8125C10.5078 12.4219 10.5469 11.8359 10.9375 11.4844L12.6562 10C13.0859 9.64844 13.5547 9.41406 14.0625 9.29688L14.1406 9.25781C14.6875 9.14062 15.2734 9.14062 15.8203 9.25781ZM18.5938 11.875L17.5391 11.6016L16.2109 15.5859C16.1328 15.7422 16.2109 15.8984 16.3281 15.9766L17.0703 16.3672L18.5938 11.875ZM13.5156 17.4219C13.8281 17.9297 14.2578 18.3594 14.8047 18.6719L15 18.7891L14.4531 20.2734C14.2188 20.8594 13.6328 21.25 12.9688 21.25H9.6875C9.14062 21.25 8.75 20.8594 8.75 20.3125C8.75 19.8047 9.14062 19.375 9.6875 19.375H12.7734L13.5156 17.4219ZM5.625 8.75H10.625C10.9375 8.75 11.25 9.02344 11.25 9.375C11.25 9.72656 10.9375 10 10.625 10H5.625C5.27344 10 5 9.72656 5 9.375C5 9.02344 5.27344 8.75 5.625 8.75ZM5 11.875C5 11.5234 5.27344 11.25 5.625 11.25H8.125C8.4375 11.25 8.75 11.5234 8.75 11.875C8.75 12.2266 8.4375 12.5 8.125 12.5H5.625C5.27344 12.5 5 12.2266 5 11.875ZM5.625 13.75H10.625C10.9375 13.75 11.25 14.0234 11.25 14.375C11.25 14.7266 10.9375 15 10.625 15H5.625C5.27344 15 5 14.7266 5 14.375C5 14.0234 5.27344 13.75 5.625 13.75Z" fill="#1C1C1C"/>
</svg>
