<svg width="30" height="30" viewBox="0 0 30 30" fill="none" xmlns="http://www.w3.org/2000/svg">
<path d="M21.25 8.75C18.4766 8.75 16.25 11.0156 16.25 13.75C16.25 14.1797 16.2891 14.6094 16.4062 15H14.375V9.375C14.375 9.0625 14.0625 8.75 13.75 8.75C13.3984 8.75 13.125 9.0625 13.125 9.375V14.7656L9.17969 10.8203C8.94531 10.5859 8.51562 10.5859 8.28125 10.8203C8.04688 11.0547 8.04688 11.4844 8.28125 11.7188L11.6016 15H8.75C6.67969 15 5 13.3203 5 11.25C5 9.17969 6.67969 7.5 8.75 7.5C9.0625 7.5 9.41406 7.57812 9.72656 7.65625C10.3906 6.09375 11.9531 5 13.75 5C15.5469 5 17.0703 6.09375 17.7344 7.65625C18.0469 7.57812 18.3984 7.5 18.75 7.5C19.8438 7.5 20.8594 8.00781 21.5234 8.78906C21.4453 8.75 21.3281 8.75 21.25 8.75ZM9.57031 21.5234C10.0781 21.7188 10.4688 22.1484 10.625 22.6953C10.7031 22.9688 10.9375 23.125 11.25 23.125H18.75C19.0234 23.125 19.2578 22.9688 19.3359 22.6953C19.4922 22.1875 19.8828 21.7188 20.3906 21.5234C21.7578 20.8984 22.7734 19.6484 23.0469 18.125H6.91406C7.1875 19.6484 8.20312 20.8984 9.57031 21.5234ZM5 17.3438C5 16.7578 5.46875 16.25 6.05469 16.25H23.9062C24.4922 16.25 24.9609 16.7578 24.9609 17.3438C24.9609 19.9609 23.3984 22.2266 21.1328 23.2422C20.8203 24.2578 19.8828 25 18.75 25H11.25C10.1172 25 9.14062 24.2578 8.82812 23.2422C6.5625 22.2266 5 19.9609 5 17.3438ZM23.125 13.75C23.125 12.7344 22.2656 11.875 21.25 11.875C20.1953 11.875 19.375 12.7344 19.375 13.75C19.375 14.2578 19.5312 14.6875 19.8438 15H17.6953C17.5391 14.6094 17.4609 14.2188 17.4609 13.75C17.4609 11.6797 19.1406 10 21.2109 10C23.2812 10 24.9609 11.6797 24.9609 13.75C24.9609 14.2188 24.9219 14.6094 24.7656 15H22.6172C22.9297 14.6875 23.0859 14.2578 23.0859 13.75H23.125Z" fill="#131313"/>
</svg>
