<svg width="30" height="30" viewBox="0 0 30 30" fill="none" xmlns="http://www.w3.org/2000/svg">
<path d="M15 6.875C15 6.21094 15.3516 5.625 15.9375 5.27344C16.4844 4.92188 17.2266 4.92188 17.8125 5.27344C18.3594 5.625 18.75 6.21094 18.75 6.875C18.75 7.57812 18.3594 8.16406 17.8125 8.51562C17.2266 8.86719 16.4844 8.86719 15.9375 8.51562C15.3516 8.16406 15 7.57812 15 6.875ZM15.4297 11.9141L14.2578 15.4297C14.2188 15.5469 14.2578 15.7031 14.375 15.7812L15 16.2891L16.2891 12.2266C16.2891 12.2266 16.2891 12.2266 16.2891 12.1875C16.0156 12.0703 15.7422 11.9531 15.4297 11.9141ZM17.6953 13.9844L16.5625 17.5781L18.5156 19.1406C18.7891 19.375 18.9844 19.6875 19.0625 20L19.9609 23.8672C20.0781 24.375 19.7656 24.8828 19.2578 25C18.75 25.1172 18.2422 24.8047 18.125 24.2969L17.2656 20.5469L13.2031 17.2266C12.5 16.6406 12.1875 15.7031 12.5 14.8438L13.3984 12.1875C12.4219 12.5391 11.6406 13.2812 11.2109 14.2578L10.8203 15.0781C10.625 15.5469 10.0781 15.7812 9.60938 15.5469C9.14062 15.3516 8.90625 14.8047 9.14062 14.3359L9.49219 13.4766C10.1562 11.9922 11.4453 10.8203 13.0078 10.3125C13.5938 10.1172 14.2188 10 14.8438 10H15.0391C17.0703 10 18.9062 11.3672 19.4531 13.3594L19.8828 14.8438L20.9766 15.8984C21.3281 16.2891 21.3281 16.875 20.9766 17.2266C20.5859 17.6172 20 17.6172 19.6484 17.2266L18.5156 16.0938C18.3203 15.9375 18.1641 15.7031 18.0859 15.4297L17.6953 13.9844ZM11.6797 20.7422L12.6172 18.3984L14.1406 19.6094L13.3984 21.4844C13.3203 21.6797 13.2031 21.875 13.0469 22.0312L10.3516 24.7266C9.96094 25.1172 9.375 25.1172 9.02344 24.7266C8.63281 24.375 8.63281 23.7891 9.02344 23.4375L11.6797 20.7422Z" fill="#1C1C1C"/>
</svg>
