<svg width="25" height="25" viewBox="0 0 25 25" fill="none" xmlns="http://www.w3.org/2000/svg">
<g clip-path="url(#clip0_6962_4974)">
<path d="M1.28391 0.529419L0.00195312 4.38251V10.3985L3.28477 0.529419H1.28391Z" fill="white"/>
<path d="M0.00195312 12.5171V16.4378L1.3061 12.5171H0.00195312Z" fill="white"/>
<path d="M5.29443 0.529419L1.30664 12.517H3.30802L7.2958 0.529419H5.29443Z" fill="white"/>
<path d="M3.31522 12.5171L0.00195312 22.477V24.5295H1.32055L5.31659 12.5171H3.31522Z" fill="white"/>
<path d="M9.30368 0.529419L5.31641 12.517H7.31727L11.3051 0.529419H9.30368Z" fill="white"/>
<path d="M7.3256 12.5171L3.33008 24.5295H5.33094L9.32698 12.5171H7.3256Z" fill="white"/>
<path d="M13.3201 0.529419L9.33228 12.517H11.3337L15.3209 0.529419H13.3201Z" fill="white"/>
<path d="M11.3356 12.517L7.34009 24.5294H9.34095L13.337 12.517H11.3356Z" fill="white"/>
<path d="M17.3237 0.529419L13.3359 12.517H15.3373L19.3246 0.529419H17.3237Z" fill="white"/>
<path d="M15.3454 12.5171L11.3494 24.5295H13.3507L17.3463 12.5171H15.3454Z" fill="white"/>
<path d="M21.3335 0.529419L17.3457 12.517H19.3471L23.3349 0.529419H21.3335Z" fill="white"/>
<path d="M19.3554 12.5171L15.3594 24.5295H17.3608L21.3568 12.5171H19.3554Z" fill="white"/>
<path d="M21.3574 12.517H23.3583L24.8162 8.13392V2.11792L21.3574 12.517Z" fill="white"/>
<path d="M23.3649 12.517L19.3694 24.5294H21.3702L24.8151 14.1731V12.517H23.3649Z" fill="white"/>
<path d="M23.3809 24.5295H24.8166V20.2124L23.3809 24.5295Z" fill="white"/>
</g>
<defs>
<clipPath id="clip0_6962_4974">
<rect width="24.8139" height="24" fill="white" transform="translate(0 0.529419)"/>
</clipPath>
</defs>
</svg>
