<svg width="14" height="13" viewBox="0 0 14 13" fill="none" xmlns="http://www.w3.org/2000/svg">
<path d="M12.9766 1.85156L8.28906 6.53906L12.9375 11.1875C13.3281 11.5391 13.3281 12.125 12.9375 12.4766C12.5859 12.8672 12 12.8672 11.6484 12.4766L6.96094 7.82812L2.3125 12.4766C1.96094 12.8672 1.375 12.8672 1.02344 12.4766C0.632812 12.125 0.632812 11.5391 1.02344 11.1484L5.67188 6.5L1.02344 1.85156C0.632812 1.5 0.632812 0.914062 1.02344 0.523438C1.375 0.171875 1.96094 0.171875 2.35156 0.523438L7 5.21094L11.6484 0.5625C12 0.171875 12.5859 0.171875 12.9766 0.5625C13.3281 0.914062 13.3281 1.5 12.9766 1.85156Z" fill="#3E3E3E"/>
</svg>
