<svg width="32" height="227" viewBox="0 0 32 227" fill="none" xmlns="http://www.w3.org/2000/svg">
      <path d="M0 16C0 7.16344 7.16344 0 16 0C24.8366 0 32 7.16344 32 16V227H0V16Z" fill="url(#paint0_linear_2259_13001)"/>
      <rect width="32" height="171" rx="16" fill="#BCDF84"/>
      <path d="M13.5 17V19H21C22.0938 19 23 19.9062 23 21V27C23 28.125 22.0938 29 21 29H11C9.875 29 9 28.125 9 27V21C9 19.9062 9.875 19 11 19H12V17C12 14.8125 13.7812 13 16 13C17.7812 13 19.2812 14.1875 19.7812 15.7812C19.9062 16.1875 19.6875 16.5938 19.3125 16.7188C18.9062 16.8438 18.5 16.625 18.375 16.25C18.0312 15.25 17.0938 14.5 16 14.5C14.5938 14.5 13.5 15.625 13.5 17ZM10.5 21V27C10.5 27.2812 10.7188 27.5 11 27.5H21C21.25 27.5 21.5 27.2812 21.5 27V21C21.5 20.75 21.25 20.5 21 20.5H11C10.7188 20.5 10.5 20.75 10.5 21Z" fill="#131313"/>
      <path d="M16 78C16.5312 78 17 78.4688 17 79V79.625C19.2812 80.0625 21 82.0938 21 84.5V85.3125C21 86.7188 21.4688 88.0938 22.3438 89.2188L22.8125 89.7812C23 90.0312 23.0312 90.3438 22.9062 90.5938C22.7812 90.8438 22.5312 91 22.25 91H9.75C9.4375 91 9.1875 90.8438 9.0625 90.5938C8.9375 90.3438 8.96875 90.0312 9.15625 89.7812L9.625 89.2188C10.5 88.0938 11 86.7188 11 85.3125V84.5C11 82.0938 12.7188 80.0625 15 79.625V79C15 78.4688 15.4375 78 16 78ZM16 81C14.0625 81 12.5 82.5938 12.5 84.5V85.3125C12.5 86.8125 12.0625 88.25 11.25 89.5H20.7188C19.9062 88.25 19.5 86.8125 19.5 85.3125V84.5C19.5 82.5938 17.9062 81 16 81ZM18 92C18 92.5312 17.7812 93.0625 17.4062 93.4375C17.0312 93.8125 16.5312 94 16 94C15.4688 94 14.9375 93.8125 14.5625 93.4375C14.1875 93.0625 14 92.5312 14 92H16H18Z" fill="#131313"/>
        <path d="M20.5 157V148H18C17.4375 148 17 147.562 17 147V144.5H12C11.7188 144.5 11.5 144.75 11.5 145V157C11.5 157.281 11.7188 157.5 12 157.5H20C20.25 157.5 20.5 157.281 20.5 157ZM10 145C10 143.906 10.875 143 12 143H17.1562C17.6875 143 18.1875 143.219 18.5625 143.594L21.4062 146.438C21.7812 146.812 22 147.312 22 147.844V157C22 158.125 21.0938 159 20 159H12C10.875 159 10 158.125 10 157V145ZM16 149.75C16.3438 149.75 16.625 150.031 16.625 150.375V150.688C16.8438 150.719 17.0625 150.781 17.25 150.812C17.5938 150.906 17.8125 151.25 17.7188 151.562C17.6562 151.906 17.3125 152.125 16.9688 152.031C16.625 151.969 16.2812 151.906 15.9688 151.906C15.7188 151.875 15.4688 151.938 15.2812 152.031C15.125 152.125 15.125 152.188 15.125 152.219C15.125 152.25 15.1562 152.281 15.25 152.344C15.4375 152.438 15.75 152.531 16.1562 152.625C16.5 152.719 16.9688 152.844 17.3125 153.062C17.6875 153.281 18.0938 153.656 18.0938 154.281C18.125 154.938 17.75 155.375 17.3125 155.594C17.0938 155.719 16.8438 155.812 16.5938 155.844V156.156C16.5938 156.5 16.3125 156.781 15.9688 156.781C15.625 156.781 15.3438 156.5 15.3438 156.156V155.812C15.0312 155.781 14.75 155.688 14.5 155.594C14.4375 155.562 14.375 155.562 14.3125 155.531C13.9688 155.438 13.7812 155.094 13.875 154.75C13.9688 154.438 14.3438 154.25 14.6562 154.344C14.75 154.375 14.8125 154.375 14.875 154.406C15.3125 154.531 15.6562 154.625 16 154.656C16.2812 154.656 16.5312 154.594 16.7188 154.5C16.8438 154.438 16.875 154.375 16.875 154.281C16.875 154.281 16.875 154.219 16.7188 154.156C16.5 154.031 16.2188 153.938 15.8125 153.844L15.7812 153.812C15.4375 153.719 15 153.625 14.6562 153.438C14.2812 153.219 13.875 152.875 13.875 152.219C13.8438 151.562 14.2812 151.156 14.6875 150.938C14.9062 150.812 15.125 150.75 15.375 150.719V150.375C15.375 150.031 15.6562 149.75 16 149.75ZM13 146H15.5C15.75 146 16 146.25 16 146.5C16 146.781 15.75 147 15.5 147H13C12.7188 147 12.5 146.781 12.5 146.5C12.5 146.25 12.7188 146 13 146ZM13 148H15.5C15.75 148 16 148.25 16 148.5C16 148.781 15.75 149 15.5 149H13C12.7188 149 12.5 148.781 12.5 148.5C12.5 148.25 12.7188 148 13 148Z" fill="#131313"/>
        <defs>
        <linearGradient id="paint0_linear_2259_13001" x1="16" y1="0" x2="16" y2="227" gradientUnits="userSpaceOnUse">
        <stop offset="0.45" stop-color="#B2B2B2"/>
        <stop offset="1" stop-color="#B2B2B2" stop-opacity="0"/>
        </linearGradient>
        </defs>
          </svg>