<svg width="205" height="35" viewBox="0 0 205 35" fill="none" xmlns="http://www.w3.org/2000/svg">
<path d="M0.857178 17.0857C0.857178 10.7786 5.35717 6.625 11.2 6.625C17.0429 6.625 21.5072 10.7786 21.5072 17.0857C21.5072 23.3929 17.0465 27.6214 11.2 27.6214C5.3536 27.6214 0.857178 23.4286 0.857178 17.0857ZM11.2036 23.8143C14.6643 23.8143 16.9322 20.775 16.9322 17.0857C16.9322 13.3964 14.6643 10.3571 11.2036 10.3571C7.74289 10.3571 5.47503 13.3964 5.47503 17.0857C5.47503 20.775 7.74289 23.8143 11.2036 23.8143Z" fill="#131313"/>
<path d="M24.9321 7.16429H29.5464V10.625C30.625 8.31786 32.4321 6.625 35.5071 6.625C40.6607 6.625 42.6607 10.0107 42.6607 14.7393V27.0464H38.0071V15.8179C38.0071 12.8179 37.0857 10.7036 34.275 10.7036C31.4643 10.7036 29.6607 13.05 29.6607 17.9714V27.0464H24.9321V7.16429Z" fill="#131313"/>
<path d="M56.0429 27.6214C50.0429 27.6214 45.9286 23.3536 45.9286 17.0464C45.9286 10.7393 50.1964 6.58569 56.0429 6.58569C62.7714 6.58569 65.6965 11.7393 65.7322 17.5071C65.7322 17.7 65.7322 18.0464 65.6929 18.3928H50.425C50.8107 21.7393 53 23.8143 56 23.8143C58.1929 23.8143 60.0393 23.0071 60.7286 21.1607H65.4214C64.2286 25.1607 60.8072 27.6214 56.0393 27.6214H56.0429ZM61.1572 15.1643C60.85 12.4714 59.2714 10.2035 56.0036 10.2035C52.9643 10.2035 50.9286 12.2035 50.4643 15.1643H61.1536H61.1572Z" fill="#131313"/>
<path d="M89.6928 17.0464C89.6928 23.3929 85.8071 27.5464 80.3857 27.5464C77 27.5464 74.925 25.3929 74.2321 23.7786H74.1929V34.7393H69.3071V7.16429H74.1143V10.5857H74.1536C74.8071 8.85357 76.9607 6.625 80.4214 6.625C85.8428 6.625 89.6893 10.7393 89.6893 17.0464H89.6928ZM79.425 23.8143C83.1178 23.8143 85.0393 20.8536 85.0393 17.0464C85.0393 13.2393 83.0393 10.3929 79.425 10.3929C75.8107 10.3929 73.7714 13.6214 73.7714 17.0464C73.7714 20.4714 75.5786 23.8143 79.425 23.8143Z" fill="#131313"/>
<path d="M102.15 27.6214C96.1501 27.6214 92.0358 23.3536 92.0358 17.0464C92.0358 10.7393 96.3036 6.58569 102.15 6.58569C108.879 6.58569 111.804 11.7393 111.839 17.5071C111.839 17.7 111.839 18.0464 111.8 18.3928H96.5322C96.9179 21.7393 99.1072 23.8143 102.107 23.8143C104.3 23.8143 106.146 23.0071 106.836 21.1607H111.529C110.336 25.1607 106.914 27.6214 102.146 27.6214H102.15ZM107.264 15.1643C106.957 12.4714 105.379 10.2035 102.111 10.2035C99.0715 10.2035 97.0358 12.2035 96.5715 15.1643H107.261H107.264Z" fill="#131313"/>
<path d="M120.071 10.7786C121.15 8.04641 123.264 6.97141 126.071 6.93213V11.3928C125.839 11.3928 124.532 11.3928 123.878 11.625C122.032 12.0107 120.185 13.0107 120.185 18.0071V27.0428H115.457V7.1607H120.071V10.775V10.7786Z" fill="#131313"/>
<path d="M138.261 27.6214C132.34 27.6214 127.725 23.5071 127.725 17.0857C127.725 10.6643 132.34 6.625 138.261 6.625C143.147 6.625 146.643 9.35357 147.375 13.5464H142.914C142.222 11.5857 140.682 10.3179 138.222 10.3179C134.647 10.3179 132.375 13.3179 132.375 17.125C132.375 20.9321 134.643 23.8536 138.222 23.8536C140.529 23.8536 142.336 22.7786 143.029 20.4679H147.489C146.604 25.0429 143.029 27.6214 138.261 27.6214Z" fill="#131313"/>
<path d="M159.611 27.6214C153.611 27.6214 149.497 23.3536 149.497 17.0464C149.497 10.7393 153.764 6.58569 159.611 6.58569C166.339 6.58569 169.264 11.7393 169.3 17.5071C169.3 17.7 169.3 18.0464 169.261 18.3928H153.993C154.379 21.7393 156.568 23.8143 159.568 23.8143C161.761 23.8143 163.607 23.0071 164.297 21.1607H168.989C167.797 25.1607 164.375 27.6214 159.607 27.6214H159.611ZM164.725 15.1643C164.418 12.4714 162.839 10.2035 159.572 10.2035C156.532 10.2035 154.497 12.2035 154.032 15.1643H164.722H164.725Z" fill="#131313"/>
<path d="M172.879 7.16429H177.493V10.625C178.572 8.31786 180.379 6.625 183.454 6.625C188.607 6.625 190.607 10.0107 190.607 14.7393V27.0464H185.954V15.8179C185.954 12.8179 185.032 10.7036 182.225 10.7036C179.418 10.7036 177.611 13.05 177.611 17.9714V27.0464H172.882V7.16429H172.879Z" fill="#131313"/>
<path d="M203.372 23.3535H204.639V27.1214H202.372C197.643 27.2 196.179 24.3535 196.179 20.5071V10.7786H193.025V7.16426H196.179V2.62498L200.793 0.585693V7.16069H204.714V10.775H200.793V19.8893C200.793 22.1214 201.332 23.35 203.372 23.35V23.3535Z" fill="#131313"/>
</svg>
