<svg width="26" height="19" viewBox="0 0 26 19" fill="none" xmlns="http://www.w3.org/2000/svg">
<path d="M5.125 2.9375C5.125 1.76562 6.10156 0.75 7.3125 0.75H7.9375C9.10938 0.75 10.125 1.76562 10.125 2.9375V8.5625H15.125V2.9375C15.125 1.76562 16.1016 0.75 17.3125 0.75H17.9375C19.1094 0.75 20.125 1.76562 20.125 2.9375V3.5625H21.0625C22.2344 3.5625 23.25 4.57812 23.25 5.75V8.5625H24.1875C24.6953 8.5625 25.125 8.99219 25.125 9.5C25.125 10.0469 24.6953 10.4375 24.1875 10.4375H23.25V13.25C23.25 14.4609 22.2344 15.4375 21.0625 15.4375H20.125V16.0625C20.125 17.2734 19.1094 18.25 17.9375 18.25H17.3125C16.1016 18.25 15.125 17.2734 15.125 16.0625V10.4375H10.125V16.0625C10.125 17.2734 9.10938 18.25 7.9375 18.25H7.3125C6.10156 18.25 5.125 17.2734 5.125 16.0625V15.4375H4.1875C2.97656 15.4375 2 14.4609 2 13.25V10.4375H1.0625C0.515625 10.4375 0.125 10.0469 0.125 9.5C0.125 8.99219 0.515625 8.5625 1.0625 8.5625H2V5.75C2 4.57812 2.97656 3.5625 4.1875 3.5625H5.125V2.9375ZM7 3.5625V4.5V14.5V15.4375V16.0625C7 16.2578 7.11719 16.375 7.3125 16.375H7.9375C8.09375 16.375 8.25 16.2578 8.25 16.0625V2.9375C8.25 2.78125 8.09375 2.625 7.9375 2.625H7.3125C7.11719 2.625 7 2.78125 7 2.9375V3.5625ZM5.125 5.4375H4.1875C3.99219 5.4375 3.875 5.59375 3.875 5.75V13.25C3.875 13.4453 3.99219 13.5625 4.1875 13.5625H5.125V5.4375ZM18.25 14.5V4.5V3.5625V2.9375C18.25 2.78125 18.0938 2.625 17.9375 2.625H17.3125C17.1172 2.625 17 2.78125 17 2.9375V16.0625C17 16.2578 17.1172 16.375 17.3125 16.375H17.9375C18.0938 16.375 18.25 16.2578 18.25 16.0625V15.4375V14.5ZM21.0625 13.5625C21.2188 13.5625 21.375 13.4453 21.375 13.25V5.75C21.375 5.59375 21.2188 5.4375 21.0625 5.4375H20.125V13.5625H21.0625Z" fill="#808080"/>
</svg>
