<svg width="25" height="26" viewBox="0 0 25 26" fill="none" xmlns="http://www.w3.org/2000/svg">
<path d="M9.6875 3.9375V5.5H15.3125V3.9375C15.3125 3.42969 15.7031 3 16.25 3C16.7578 3 17.1875 3.42969 17.1875 3.9375V5.5H18.75C20.1172 5.5 21.25 6.63281 21.25 8V8.625V10.5V20.5C21.25 21.9062 20.1172 23 18.75 23H6.25C4.84375 23 3.75 21.9062 3.75 20.5V10.5V8.625V8C3.75 6.63281 4.84375 5.5 6.25 5.5H7.8125V3.9375C7.8125 3.42969 8.20312 3 8.75 3C9.25781 3 9.6875 3.42969 9.6875 3.9375ZM5.625 10.5V20.5C5.625 20.8516 5.89844 21.125 6.25 21.125H18.75C19.0625 21.125 19.375 20.8516 19.375 20.5V10.5H5.625Z" fill="#B2B2B2"/>
</svg>
