<svg width="18" height="17" viewBox="0 0 18 17" fill="none" xmlns="http://www.w3.org/2000/svg">
<path d="M9 0.529419C11.8438 0.529419 14.4688 2.06067 15.9062 4.52942C17.3438 7.02942 17.3438 10.0607 15.9062 12.5294C14.4688 15.0294 11.8438 16.5294 9 16.5294C6.125 16.5294 3.5 15.0294 2.0625 12.5294C0.625 10.0607 0.625 7.02942 2.0625 4.52942C3.5 2.06067 6.125 0.529419 9 0.529419ZM8.25 4.27942V8.52942C8.25 8.77942 8.375 9.02942 8.5625 9.15442L11.5625 11.1544C11.9062 11.4044 12.375 11.3107 12.625 10.9669C12.8438 10.6232 12.75 10.1544 12.4062 9.90442L9.75 8.15442V4.27942C9.75 3.87317 9.40625 3.52942 9 3.52942C8.5625 3.52942 8.25 3.87317 8.25 4.27942Z" fill="white"/>
</svg>
