<svg width="30" height="30" viewBox="0 0 30 30" fill="none" xmlns="http://www.w3.org/2000/svg">
<path d="M9.80469 20.3125C10.3125 19.9219 10.9766 19.8438 11.5625 20.0391C12.5781 20.4297 13.75 20.625 15 20.625C19.8438 20.625 23.125 17.5 23.125 14.375C23.125 11.2891 19.8438 8.125 15 8.125C10.1172 8.125 6.875 11.2891 6.875 14.375C6.875 15.625 7.34375 16.8359 8.24219 17.8906C8.59375 18.2422 8.75 18.75 8.71094 19.2578C8.67188 19.9609 8.47656 20.625 8.28125 21.2109C8.94531 20.8984 9.49219 20.5469 9.80469 20.3125ZM5.82031 21.875C5.89844 21.7969 5.9375 21.6797 6.01562 21.5625C6.40625 20.9375 6.75781 20.0781 6.83594 19.1016C5.66406 17.7734 5 16.1719 5 14.375C5 9.92188 9.45312 6.25 15 6.25C20.5078 6.25 25 9.92188 25 14.375C25 18.8672 20.5078 22.5 15 22.5C13.5156 22.5 12.1484 22.2656 10.8984 21.8359C10.4688 22.1484 9.6875 22.6172 8.78906 23.0078C8.20312 23.2812 7.53906 23.5156 6.83594 23.6328C6.79688 23.6328 6.75781 23.6719 6.75781 23.6719C6.5625 23.7109 6.40625 23.7109 6.21094 23.75C6.01562 23.75 5.82031 23.7891 5.58594 23.7891C5.35156 23.7891 5.11719 23.6328 5.03906 23.3984C4.92188 23.1641 5 22.8906 5.15625 22.6953C5.3125 22.5391 5.46875 22.3828 5.58594 22.1875C5.66406 22.0703 5.74219 21.9922 5.78125 21.9141V21.875H5.82031Z" fill="#97BF60"/>
</svg>
