<svg width="13" height="14" viewBox="0 0 13 14" fill="none" xmlns="http://www.w3.org/2000/svg">
<path d="M12.4766 2.35156L7.78906 7.03906L12.4375 11.6875C12.8281 12.0391 12.8281 12.625 12.4375 12.9766C12.0859 13.3672 11.5 13.3672 11.1484 12.9766L6.46094 8.32812L1.8125 12.9766C1.46094 13.3672 0.875 13.3672 0.523438 12.9766C0.132812 12.625 0.132812 12.0391 0.523438 11.6484L5.17188 7L0.523438 2.35156C0.132812 2 0.132812 1.41406 0.523438 1.02344C0.875 0.671875 1.46094 0.671875 1.85156 1.02344L6.5 5.71094L11.1484 1.0625C11.5 0.671875 12.0859 0.671875 12.4766 1.0625C12.8281 1.41406 12.8281 2 12.4766 2.35156Z" fill="#575757"/>
</svg>
