<svg width="60" height="60" viewBox="0 0 60 60" fill="none" xmlns="http://www.w3.org/2000/svg">
<path d="M46.8104 59.8357H13.1318C5.94609 59.8357 0.121094 54.0107 0.121094 46.825V13.1465C0.121094 5.96074 5.94609 0.135742 13.1318 0.135742H46.8104C53.9961 0.135742 59.8211 5.96074 59.8211 13.1465V46.825C59.8211 54.0107 53.9961 59.8357 46.8104 59.8357Z" fill="white"/>
<path d="M38.5033 36.8785V10.8999H33.0497V49.0713H38.5033C38.5033 43.0499 43.3855 38.1642 49.4105 38.1642V32.7106C45.2212 32.7106 41.3998 34.2856 38.5033 36.8785ZM21.4355 10.8999H26.889V49.0713H21.4355V23.0928C18.5426 25.682 14.7212 27.2606 10.5283 27.2606V21.807C16.5497 21.807 21.4355 16.9249 21.4355 10.8999Z" fill="#131313"/>
</svg>
