<svg width="30" height="30" viewBox="0 0 30 30" fill="none" xmlns="http://www.w3.org/2000/svg">
<path d="M7.85156 9.96094C7.61719 10.0781 7.5 10.2734 7.5 10.4688C7.5 14.0625 8.98438 20.1953 14.7656 22.9688C14.8828 23.0469 15.0781 23.0469 15.1953 22.9688C20.9766 20.2344 22.4609 14.0625 22.5 10.4688C22.5 10.2734 22.3438 10.0781 22.1484 9.96094L15 6.95312L7.85156 9.96094ZM22.8516 8.24219C23.7109 8.63281 24.375 9.45312 24.375 10.4688C24.3359 14.375 22.7344 21.4453 16.0156 24.6875C15.3516 25 14.6094 25 13.9453 24.6875C7.22656 21.4453 5.625 14.375 5.625 10.4688C5.58594 9.45312 6.25 8.63281 7.10938 8.24219L14.4531 5.11719C14.6094 5.03906 14.8047 5 15 5C15.1562 5 15.3516 5.03906 15.5078 5.11719L22.8516 8.24219ZM15 10C15.5078 10 15.9375 10.4297 15.9375 10.9375V15.3125C15.9375 15.8594 15.5078 16.25 15 16.25C14.4531 16.25 14.0625 15.8594 14.0625 15.3125V10.9375C14.0625 10.4297 14.4531 10 15 10ZM16.25 18.75C16.25 19.4531 15.6641 20 15 20C14.2969 20 13.75 19.4531 13.75 18.75C13.75 18.0859 14.2969 17.5 15 17.5C15.6641 17.5 16.25 18.0859 16.25 18.75Z" fill="#97BF60"/>
</svg>
