<svg width="14" height="17" viewBox="0 0 14 17" fill="none" xmlns="http://www.w3.org/2000/svg">
<path d="M4.5 4.56177V6.06177H9.5V4.56177C9.5 3.18677 8.375 2.06177 7 2.06177C5.59375 2.06177 4.5 3.18677 4.5 4.56177ZM2.5 6.06177V4.56177C2.5 2.09302 4.5 0.0617676 7 0.0617676C9.46875 0.0617676 11.5 2.09302 11.5 4.56177V6.06177H12C13.0938 6.06177 14 6.96802 14 8.06177V14.0618C14 15.1868 13.0938 16.0618 12 16.0618H2C0.875 16.0618 0 15.1868 0 14.0618V8.06177C0 6.96802 0.875 6.06177 2 6.06177H2.5Z" fill="white"/>
</svg>
