<svg width="32" height="33" viewBox="0 0 32 33" fill="none" xmlns="http://www.w3.org/2000/svg">
<rect y="0.529419" width="32" height="32" rx="8" fill="#BCDF84"/>
<path d="M17 11.0294V15.5294H21.5C22.0312 15.5294 22.5 15.9982 22.5 16.5294C22.5 17.0919 22.0312 17.5294 21.5 17.5294H17V22.0294C17 22.5919 16.5312 23.0294 16 23.0294C15.4375 23.0294 15 22.5919 15 22.0294V17.5294H10.5C9.9375 17.5294 9.5 17.0919 9.5 16.5294C9.5 15.9982 9.9375 15.5294 10.5 15.5294H15V11.0294C15 10.4982 15.4375 10.0294 16 10.0294C16.5312 10.0294 17 10.4982 17 11.0294Z" fill="#222B2B"/>
</svg>
