<svg width="18" height="16" viewBox="0 0 18 16" fill="none" xmlns="http://www.w3.org/2000/svg">
<path d="M8.81396 0C11.6577 0 14.2827 1.53125 15.7202 4C17.1577 6.5 17.1577 9.53125 15.7202 12C14.2827 14.5 11.6577 16 8.81396 16C5.93896 16 3.31396 14.5 1.87646 12C0.438965 9.53125 0.438965 6.5 1.87646 4C3.31396 1.53125 5.93896 0 8.81396 0ZM8.06396 3.75V8C8.06396 8.25 8.18896 8.5 8.37646 8.625L11.3765 10.625C11.7202 10.875 12.189 10.7812 12.439 10.4375C12.6577 10.0938 12.564 9.625 12.2202 9.375L9.56396 7.625V3.75C9.56396 3.34375 9.22021 3 8.81396 3C8.37646 3 8.06396 3.34375 8.06396 3.75Z" fill="#131313"/>
</svg>
