<svg width="16" height="21" viewBox="0 0 16 21" fill="none" xmlns="http://www.w3.org/2000/svg">
<path d="M1.4375 0.529419H14.5625C14.7969 0.529419 15.0703 0.646606 15.2266 0.841919C15.4219 1.03723 15.5 1.31067 15.4609 1.58411L14.0547 17.9904C13.9375 19.4357 12.7266 20.5294 11.2812 20.5294H4.71875C3.23438 20.5294 2.02344 19.4357 1.90625 17.9904L0.5 1.58411C0.460938 1.31067 0.539062 1.03723 0.734375 0.841919C0.890625 0.646606 1.16406 0.529419 1.4375 0.529419ZM2.72656 5.80286L3.70312 6.34973C4.36719 6.70129 5.14844 6.62317 5.69531 6.15442C7.02344 5.09973 8.9375 5.09973 10.2656 6.15442C10.8516 6.62317 11.6328 6.70129 12.2578 6.34973L13.2344 5.80286L13.5078 2.40442H2.45312L2.72656 5.80286ZM2.92188 8.02942L3.78125 17.8341C3.82031 18.3029 4.21094 18.6544 4.71875 18.6544H11.2812C11.75 18.6544 12.1406 18.3029 12.1797 17.8341L13.0391 8.02942C11.75 8.69348 10.2266 8.53723 9.09375 7.63879C8.42969 7.13098 7.53125 7.13098 6.86719 7.63879C5.73438 8.53723 4.21094 8.69348 2.92188 8.02942Z" fill="#97BF60"/>
</svg>
