<svg width="26" height="21" viewBox="0 0 26 21" fill="none" xmlns="http://www.w3.org/2000/svg">
<path d="M5.30469 20.2559L5.14844 20.334C3.85938 20.9199 2.33594 20.334 1.78906 19.0449L0.890625 17.0527C0.617188 16.4668 0.5 15.8418 0.5 15.2168C0.460938 14.6309 0.578125 14.0059 0.8125 13.4199C1.04688 12.7949 1.35938 12.2871 1.78906 11.8574C2.02344 11.623 2.25781 11.3887 2.53125 11.1934C3.19531 10.7246 3.82031 10.1777 4.09375 9.43555C4.40625 8.69336 4.28906 7.87305 4.13281 7.0918C4.05469 6.7793 3.97656 6.42773 3.97656 6.11523C3.97656 5.49023 4.05469 4.9043 4.28906 4.2793C4.52344 3.69336 4.875 3.14648 5.30469 2.7168C5.69531 2.28711 6.20312 1.89648 6.78906 1.66211L8.78125 0.763672C10.0703 0.177734 11.5938 0.763672 12.1797 2.05273L13.0391 4.04492C12.9219 4.35742 12.8438 4.70898 12.7656 5.06055C12.6094 5.95898 12.3359 6.58398 11.9453 7.01367C11.5156 7.4043 10.8906 7.67773 9.99219 7.83398C8.58594 8.10742 7.33594 8.77148 6.28125 9.78711C4.17188 11.8965 4.21094 14.6309 4.21094 16.7793C4.21094 17.0137 4.25 17.209 4.25 17.4043C4.25 18.498 4.64062 19.5137 5.30469 20.2559ZM22.4922 9.08398C23.1953 8.38086 23.625 7.4043 23.625 6.31055V3.6543C23.625 2.99023 23.0391 2.4043 22.375 2.4043H19.7188C19.1719 2.4043 18.6641 2.52148 18.1953 2.7168C17.7656 2.91211 17.3359 3.18555 16.9453 3.57617C16.5547 3.9668 16.2812 4.39648 16.0859 4.82617C16.0078 5.09961 15.9297 5.33398 15.8516 5.60742V5.64648C15.6562 6.70117 15.2656 8.10742 14.1719 9.24023C13.0781 10.334 11.6328 10.7246 10.5781 10.9199C10.3047 10.959 10.0312 11.0371 9.75781 11.1543C9.32812 11.3496 8.89844 11.623 8.50781 12.0137C8.11719 12.3652 7.84375 12.7949 7.64844 13.2637C7.45312 13.7324 7.375 14.2402 7.375 14.748V17.4043C7.375 18.1074 7.92188 18.6543 8.625 18.6543H11.2812C12.3359 18.6543 13.3125 18.2637 14.0156 17.5605L15.2656 18.8496L14.0156 17.5605V17.5215H14.0547C14.4062 17.1309 14.6797 16.7012 14.875 16.2715C14.9922 15.998 15.0703 15.7246 15.1094 15.4512C15.3047 14.3965 15.6953 12.9512 16.7891 11.8574C17.9219 10.7637 19.3281 10.373 20.3828 10.1777H20.4219C20.6953 10.1387 20.9297 10.0605 21.2031 9.94336C21.6328 9.74805 22.0625 9.47461 22.4531 9.08398H22.4922ZM23.8203 10.4121L23.7812 10.4512C23.2344 10.998 22.5703 11.3887 21.9062 11.6621C21.5547 11.8184 21.1641 11.9355 20.7344 12.0137C19.7969 12.209 18.8203 12.5215 18.1172 13.1855C17.4531 13.8887 17.1406 14.8652 16.9453 15.8027C16.8672 16.1934 16.75 16.623 16.5938 16.9746C16.3203 17.6387 15.9297 18.2637 15.3828 18.8105C15.3438 18.8496 15.3438 18.8496 15.3047 18.8887C14.2891 19.9043 12.8438 20.5293 11.2812 20.5293H8.625C6.86719 20.5293 5.5 19.1621 5.5 17.4043V14.748C5.5 13.9668 5.65625 13.2246 5.92969 12.5605C6.20312 11.8574 6.63281 11.2324 7.17969 10.6855C7.72656 10.1387 8.35156 9.70898 9.05469 9.43555C9.40625 9.2793 9.83594 9.16211 10.2266 9.08398C11.1641 8.88867 12.1406 8.57617 12.8438 7.91211C13.5078 7.20898 13.8203 6.23242 14.0156 5.29492C14.0938 4.86523 14.2109 4.47461 14.3672 4.12305C14.6406 3.41992 15.0703 2.79492 15.6172 2.24805C16.1641 1.66211 16.7891 1.27148 17.4922 0.998047C18.1562 0.685547 18.8984 0.529297 19.7188 0.529297H22.375C24.0938 0.529297 25.5 1.93555 25.5 3.6543V6.31055C25.5 7.91211 24.8359 9.35742 23.8203 10.4121ZM20.8125 6.62305C20.3828 6.62305 20.0312 6.27148 20.0312 5.8418C20.0312 5.45117 20.3828 5.09961 20.8125 5.09961C21.2031 5.09961 21.5547 5.45117 21.5547 5.8418C21.5547 6.27148 21.2031 6.62305 20.8125 6.62305ZM18.3125 9.12305C17.8828 9.12305 17.5312 8.77148 17.5312 8.3418C17.5312 7.95117 17.8828 7.59961 18.3125 7.59961C18.7031 7.59961 19.0547 7.95117 19.0547 8.3418C19.0547 8.77148 18.7031 9.12305 18.3125 9.12305ZM10.8125 16.623C10.3828 16.623 10.0312 16.2715 10.0312 15.8418C10.0312 15.4512 10.3828 15.0996 10.8125 15.0996C11.2031 15.0996 11.5547 15.4512 11.5547 15.8418C11.5547 16.2715 11.2031 16.623 10.8125 16.623ZM14.0547 15.8418C14.0547 16.2715 13.7031 16.623 13.3125 16.623C12.8828 16.623 12.5312 16.2715 12.5312 15.8418C12.5312 15.4512 12.8828 15.0996 13.3125 15.0996C13.7031 15.0996 14.0547 15.4512 14.0547 15.8418ZM20.8125 9.12305C20.3828 9.12305 20.0312 8.77148 20.0312 8.3418C20.0312 7.95117 20.3828 7.59961 20.8125 7.59961C21.2031 7.59961 21.5547 7.95117 21.5547 8.3418C21.5547 8.77148 21.2031 9.12305 20.8125 9.12305ZM14.0547 13.3418C14.0547 13.7715 13.7031 14.123 13.3125 14.123C12.8828 14.123 12.5312 13.7715 12.5312 13.3418C12.5312 12.9512 12.8828 12.5996 13.3125 12.5996C13.7031 12.5996 14.0547 12.9512 14.0547 13.3418Z" fill="#97BF60"/>
</svg>
