<svg width="26" height="25" viewBox="0 0 26 25" fill="none" xmlns="http://www.w3.org/2000/svg">
<path d="M13 24.5293C8.6875 24.5293 4.75 22.2793 2.59375 18.5293C0.4375 14.8262 0.4375 10.2793 2.59375 6.5293C4.75 2.82617 8.6875 0.529297 13 0.529297C17.2656 0.529297 21.2031 2.82617 23.3594 6.5293C25.5156 10.2793 25.5156 14.8262 23.3594 18.5293C21.2031 22.2793 17.2656 24.5293 13 24.5293ZM11.875 16.6543C11.875 17.3105 12.3438 17.7793 13 17.7793C13.6094 17.7793 14.125 17.3105 14.125 16.6543V13.6543H17.125C17.7344 13.6543 18.25 13.1855 18.25 12.5293C18.25 11.9199 17.7344 11.4043 17.125 11.4043H14.125V8.4043C14.125 7.79492 13.6094 7.2793 13 7.2793C12.3438 7.2793 11.875 7.79492 11.875 8.4043V11.4043H8.875C8.21875 11.4043 7.75 11.9199 7.75 12.5293C7.75 13.1855 8.21875 13.6543 8.875 13.6543H11.875V16.6543Z" fill="#131313"/>
</svg>
