<svg width="30" height="30" viewBox="0 0 30 30" fill="none" xmlns="http://www.w3.org/2000/svg">
<path d="M15 9.375C14.6484 9.375 14.375 9.10156 14.375 8.75V8.125C14.375 6.40625 15.7422 5 17.5 5H18.125C18.4375 5 18.75 5.3125 18.75 5.625V6.25C18.75 8.00781 17.3438 9.375 15.625 9.375H15ZM8.125 16.25C8.125 18.3984 8.78906 20.1562 9.6875 21.4062C10.625 22.6562 11.6797 23.125 12.5 23.125C12.6562 23.125 13.0078 23.0859 13.4766 22.9297C14.4531 22.6562 15.5078 22.6562 16.5234 22.9297C16.9531 23.0859 17.3047 23.125 17.5 23.125C18.2812 23.125 19.3359 22.6562 20.2734 21.4062C21.2109 20.1562 21.875 18.3984 21.875 16.25C21.875 15.0391 21.5625 13.8281 21.0547 13.0078C20.5859 12.2266 20.0391 11.875 19.375 11.875C18.6719 11.875 17.6562 12.1875 16.7969 12.5C15.625 12.9688 14.3359 12.9688 13.1641 12.5C12.3047 12.1875 11.2891 11.875 10.625 11.875C9.92188 11.875 9.375 12.2266 8.90625 13.0078C8.39844 13.8281 8.125 15.0391 8.125 16.25ZM10.625 10C11.6797 10 12.9297 10.4297 13.8281 10.7812C14.5703 11.0547 15.3906 11.0547 16.1328 10.7812C17.0312 10.4297 18.2812 10 19.375 10C22.3438 10 23.75 13.2812 23.75 16.25C23.75 21.25 20.625 25 17.5 25C17.0312 25 16.4453 24.8828 15.9766 24.7266C15.3125 24.5312 14.6484 24.5312 13.9844 24.7266C13.5156 24.8828 12.9297 25 12.5 25C9.375 25 6.25 21.25 6.25 16.25C6.25 13.2812 7.61719 10 10.625 10Z" fill="#1C1C1C"/>
</svg>
