<svg width="30" height="30" viewBox="0 0 30 30" fill="none" xmlns="http://www.w3.org/2000/svg">
<path d="M11.25 7.14844C11.25 5.97656 12.1875 5 13.3594 5C13.5547 5 13.75 5.19531 13.75 5.39062C13.75 6.5625 12.7734 7.5 11.6016 7.5C11.4062 7.5 11.25 7.34375 11.25 7.14844ZM8.125 11.7188C8.125 11.9922 8.125 12.2656 8.16406 12.5H6.28906C6.25 12.2656 6.25 11.9922 6.25 11.7188C6.25 10 7.03125 8.125 8.75 8.125C9.33594 8.125 10.0781 8.35938 10.5859 8.55469C10.9766 8.75 11.4844 8.75 11.875 8.55469C12.3828 8.35938 13.125 8.125 13.7109 8.125C15.4297 8.125 16.2109 10 16.2109 11.7188C16.2109 11.9922 16.2109 12.2656 16.1719 12.5H14.2969C14.3359 12.2656 14.3359 11.9922 14.3359 11.7188C14.3359 11.1328 14.2188 10.5859 14.0234 10.2734C13.9062 10.1172 13.8672 10.0391 13.8281 10.0391C13.8281 10.0391 13.7891 10 13.7109 10C13.6328 10 13.4766 10.0391 13.2422 10.1172C13.0078 10.1562 12.7734 10.2344 12.5781 10.3125C11.7188 10.6641 10.7422 10.6641 9.88281 10.3125C9.6875 10.2344 9.45312 10.1562 9.21875 10.1172C8.98438 10.0391 8.82812 10 8.75 10C8.67188 10 8.67188 10.0391 8.63281 10.0391C8.59375 10.0391 8.55469 10.1172 8.4375 10.2734C8.24219 10.5859 8.125 11.1328 8.125 11.7188ZM21.7969 12.5C21.8359 12.2656 21.8359 11.9922 21.8359 11.7188C21.8359 11.0938 21.7188 10.5859 21.5234 10.2734C21.4062 10.1172 21.3672 10.0391 21.3281 10.0391C21.3281 10.0391 21.2891 10 21.2109 10C21.1328 10 20.9766 10.0391 20.7422 10.0781C20.5078 10.1562 20.2734 10.2344 20.0781 10.3125C19.2188 10.6641 18.2422 10.6641 17.3828 10.3125L17.3438 10.2734C17.1875 9.72656 16.9922 9.14062 16.6797 8.63281C16.6016 8.47656 16.4844 8.28125 16.3281 8.125C16.9141 8.16406 17.5781 8.39844 18.0859 8.55469C18.5156 8.75 18.9844 8.75 19.375 8.55469C19.8828 8.35938 20.625 8.125 21.25 8.125C22.9297 8.125 23.75 10 23.75 11.7188C23.75 11.9922 23.7109 12.2656 23.6719 12.5H21.7969ZM20.8594 5C21.0547 5 21.25 5.19531 21.25 5.39062C21.25 6.5625 20.2734 7.5 19.1016 7.5C18.9062 7.5 18.75 7.34375 18.75 7.14844C18.75 5.97656 19.6875 5 20.8594 5ZM22.8125 15.625H7.1875C6.99219 15.625 6.875 15.7812 6.875 15.9375V18.4375H23.125V15.9375C23.125 15.7812 22.9688 15.625 22.8125 15.625ZM6.875 22.8125C6.875 23.0078 6.99219 23.125 7.1875 23.125H22.8125C22.9688 23.125 23.125 23.0078 23.125 22.8125V20.3125H6.875V22.8125ZM7.1875 13.75H22.8125C23.9844 13.75 25 14.7656 25 15.9375V22.8125C25 24.0234 23.9844 25 22.8125 25H7.1875C5.97656 25 5 24.0234 5 22.8125V15.9375C5 14.7656 5.97656 13.75 7.1875 13.75ZM21.25 17.5C20.8984 17.5 20.625 17.2266 20.625 16.875C20.625 16.5625 20.8984 16.25 21.25 16.25C21.5625 16.25 21.875 16.5625 21.875 16.875C21.875 17.2266 21.5625 17.5 21.25 17.5ZM21.875 21.875C21.875 22.2266 21.5625 22.5 21.25 22.5C20.8984 22.5 20.625 22.2266 20.625 21.875C20.625 21.5625 20.8984 21.25 21.25 21.25C21.5625 21.25 21.875 21.5625 21.875 21.875ZM8.75 17.5C8.39844 17.5 8.125 17.2266 8.125 16.875C8.125 16.5625 8.39844 16.25 8.75 16.25C9.0625 16.25 9.375 16.5625 9.375 16.875C9.375 17.2266 9.0625 17.5 8.75 17.5ZM9.375 21.875C9.375 22.2266 9.0625 22.5 8.75 22.5C8.39844 22.5 8.125 22.2266 8.125 21.875C8.125 21.5625 8.39844 21.25 8.75 21.25C9.0625 21.25 9.375 21.5625 9.375 21.875Z" fill="#1C1C1C"/>
</svg>
