<svg width="30" height="30" viewBox="0 0 30 30" fill="none" xmlns="http://www.w3.org/2000/svg">
<path d="M13.125 15.625C13.125 16.3281 13.6719 16.875 14.375 16.875H15H16.9922C16.9141 16.4844 16.875 16.0547 16.875 15.625C16.875 12.4219 19.2969 9.76562 22.4609 9.41406C21.6016 7.92969 19.9609 6.875 18.125 6.875C15.3516 6.875 13.125 9.14062 13.125 11.875V14.375V15.625ZM11.25 14.375V11.875C11.25 8.08594 14.2969 5 18.125 5C21.4844 5 24.2969 7.46094 24.8828 10.6641C24.9609 11.1328 24.4531 11.4453 24.0234 11.3672C23.7109 11.2891 23.3984 11.25 23.125 11.25C20.7031 11.25 18.75 13.2422 18.75 15.625C18.75 16.4062 18.9062 17.1094 19.2578 17.6953C19.4922 18.125 19.2969 18.6719 18.8281 18.7109C18.5938 18.75 18.3594 18.75 18.125 18.75H15H14.5312C13.8281 18.75 13.2812 19.375 12.8906 19.9219C12.8125 20.0391 12.7344 20.1172 12.6562 20.1953C12.1875 20.6641 12.2266 21.4453 12.4219 22.0703C12.4609 22.2656 12.5 22.4609 12.5 22.6562C12.5 23.9844 11.4453 25 10.1562 25C8.82812 25 7.8125 23.9844 7.8125 22.6562C7.8125 22.4219 7.57812 22.1875 7.34375 22.1875C6.01562 22.1875 5 21.1719 5 19.8438C5 18.5547 6.01562 17.5 7.34375 17.5C7.53906 17.5 7.73438 17.5391 7.92969 17.5781C8.55469 17.7734 9.33594 17.8125 9.80469 17.3438C9.88281 17.2656 9.96094 17.1875 10.0781 17.1094C10.625 16.7188 11.25 16.1719 11.25 15.4688V14.375Z" fill="#1C1C1C"/>
</svg>
