<svg width="30" height="30" viewBox="0 0 30 30" fill="none" xmlns="http://www.w3.org/2000/svg">
<path d="M13.4375 5H16.5625C17.0703 5 17.5 5.42969 17.5 5.9375V8.28125C17.7734 8.35938 18.0469 8.47656 18.3203 8.63281L18.5938 8.75C19.6484 9.33594 20.3125 10.4688 20.3125 11.6797C20.3125 12.3047 20.1172 12.8906 19.8438 13.3594C20.1172 13.8672 20.3125 14.4141 20.3125 15C20.3125 15.7031 20.0781 16.3672 19.6875 16.875C20.0781 17.4219 20.3125 18.0469 20.3125 18.75C20.3125 19.3359 20.1562 19.8828 19.8828 20.3125C20.1562 20.7812 20.3125 21.3281 20.3125 21.875C20.3125 23.6328 18.9062 25 17.1875 25H12.8125C11.0547 25 9.6875 23.6328 9.6875 21.875C9.6875 21.3281 9.80469 20.7812 10.0781 20.3125C9.80469 19.8828 9.6875 19.3359 9.6875 18.75C9.6875 18.0469 9.92188 17.4219 10.3125 16.875C9.92188 16.3672 9.6875 15.7031 9.6875 15C9.6875 14.4141 9.84375 13.8672 10.1172 13.3594C9.84375 12.8906 9.6875 12.3047 9.6875 11.6797C9.6875 10.4688 10.3125 9.33594 11.4062 8.75L11.6406 8.63281C11.9141 8.47656 12.1875 8.35938 12.5 8.28125V5.9375C12.5 5.42969 12.8906 5 13.4375 5ZM11.7188 14.375C11.6016 14.5703 11.5625 14.7656 11.5625 15C11.5625 15.3125 11.6406 15.5469 11.7969 15.7812C12.3047 16.4453 12.3047 17.3438 11.7969 18.0078C11.6406 18.2422 11.5625 18.4766 11.5625 18.7891C11.5625 18.9844 11.6016 19.2188 11.7188 19.4141C12.0703 19.9609 12.0703 20.7031 11.7188 21.2891C11.6016 21.4453 11.5625 21.6797 11.5625 21.9141C11.5625 22.5781 12.1094 23.1641 12.8125 23.1641H17.1875C17.8516 23.1641 18.4375 22.5781 18.4375 21.9141C18.4375 21.6797 18.3594 21.4453 18.2422 21.2891C17.9297 20.7031 17.9297 19.9609 18.2422 19.4141C18.3594 19.2188 18.4375 18.9844 18.4375 18.7891C18.4375 18.4766 18.3203 18.2422 18.1641 18.0078C17.6562 17.3438 17.6562 16.4453 18.1641 15.7812C18.3203 15.5469 18.4375 15.3125 18.4375 15C18.4375 14.7656 18.3594 14.5312 18.2422 14.375C17.8906 13.75 17.8516 13.0078 18.2031 12.4219C18.3594 12.1875 18.4375 11.9531 18.4375 11.6797C18.4375 11.1328 18.125 10.6641 17.6562 10.3906L17.4219 10.2734C17.1484 10.1172 16.7969 10 16.4844 10H13.4766C13.1641 10 12.8125 10.1172 12.5391 10.2734L12.3047 10.3906C11.8359 10.6641 11.5625 11.1328 11.5625 11.6797C11.5625 11.9531 11.6016 12.1875 11.7578 12.4219C12.1094 13.0078 12.1094 13.75 11.7188 14.375ZM14.0625 13.125H15.9375C16.4453 13.125 16.875 13.5547 16.875 14.0625C16.875 14.6094 16.4453 15 15.9375 15H14.0625C13.5156 15 13.125 14.6094 13.125 14.0625C13.125 13.5547 13.5156 13.125 14.0625 13.125ZM13.125 19.0625C13.125 18.5547 13.5156 18.125 14.0625 18.125H15.9375C16.4453 18.125 16.875 18.5547 16.875 19.0625C16.875 19.6094 16.4453 20 15.9375 20H14.0625C13.5156 20 13.125 19.6094 13.125 19.0625Z" fill="#1C1C1C"/>
</svg>
