<svg width="30" height="30" viewBox="0 0 30 30" fill="none" xmlns="http://www.w3.org/2000/svg">
<path d="M17.5 7.8125C17.5 6.67969 18.1641 5.66406 18.5156 5.23438C18.6719 5.07812 18.8281 5 19.0625 5C19.2578 5 19.4531 5.07812 19.5703 5.23438C19.9219 5.70312 20.625 6.75781 20.625 8.125C20.625 9.375 20.3125 9.6875 20.3125 9.6875C20.3125 9.6875 20.625 9.375 21.875 9.375C23.2422 9.375 24.2969 10.0781 24.7656 10.4297C24.9219 10.5469 25 10.7422 25 10.9375C25 11.1719 24.9219 11.3281 24.7656 11.4844C24.3359 11.8359 23.3203 12.5 22.1875 12.5C20.625 12.5 20 11.9141 19.0625 10.9375C18.0859 10 17.5 9.375 17.5 7.8125ZM12.7734 12.7344L14.375 14.375C14.7656 14.7266 14.7656 15.3125 14.375 15.6641C14.0234 16.0547 13.4375 16.0547 13.0859 15.6641L11.5625 14.1797L7.85156 22.1484L12.4219 20.0391L11.8359 19.4141C11.4453 19.0625 11.4453 18.4766 11.8359 18.0859C12.1875 17.7344 12.7734 17.7344 13.1641 18.0859L14.2188 19.1797L15.8984 18.4375C17.0703 17.8906 17.8125 16.7188 17.8125 15.4688C17.8125 13.6719 16.3281 12.1875 14.5312 12.1875C13.9062 12.1875 13.2812 12.3828 12.7734 12.7344ZM6.32812 24.9219C5.9375 25.0781 5.54688 25.0391 5.27344 24.7266C4.96094 24.4531 4.92188 24.0234 5.07812 23.6719L9.88281 13.3203C10.7031 11.4844 12.5391 10.3125 14.5312 10.3125C17.3828 10.3125 19.6875 12.6172 19.6875 15.4688C19.6875 17.4609 18.5156 19.2969 16.6797 20.1172L6.32812 24.9219Z" fill="#131313"/>
</svg>
