<svg width="30" height="30" viewBox="0 0 30 30" fill="none" xmlns="http://www.w3.org/2000/svg">
<path d="M14.375 16.875H18.125C20.8594 16.875 23.125 14.6484 23.125 11.875C23.125 9.14062 20.8594 6.875 18.125 6.875C15.3516 6.875 13.125 9.14062 13.125 11.875V15.625C13.125 16.3281 13.6719 16.875 14.375 16.875ZM12.8906 19.9219C12.8125 20.0391 12.7344 20.1172 12.6562 20.1953C12.1875 20.6641 12.2266 21.4453 12.3828 22.0703C12.4609 22.2656 12.4609 22.4609 12.4609 22.6562C12.4609 23.9844 11.4453 25 10.1172 25C8.82812 25 7.77344 23.9844 7.77344 22.6562C7.77344 22.4219 7.57812 22.1875 7.30469 22.1875C6.01562 22.1875 4.96094 21.1719 4.96094 19.8438C4.96094 18.5547 6.01562 17.5 7.30469 17.5C7.53906 17.5 7.73438 17.5391 7.92969 17.5781C8.55469 17.7734 9.33594 17.8125 9.80469 17.3438C9.88281 17.2656 9.96094 17.1875 10.0781 17.1094C10.625 16.7188 11.25 16.1719 11.25 15.4688V11.875C11.25 8.08594 14.2969 5 18.125 5C21.9141 5 25 8.08594 25 11.875C25 15.7031 21.9141 18.75 18.125 18.75H14.5312C13.8281 18.75 13.2812 19.375 12.8906 19.9219Z" fill="#1C1C1C"/>
</svg>
