<svg width="30" height="30" viewBox="0 0 30 30" fill="none" xmlns="http://www.w3.org/2000/svg">
<path d="M21.2891 10.2344C20.7812 11.2891 20.1562 12.4219 19.4141 13.1641C18.0469 14.5312 16.6797 15.2344 15.4297 15.8594H15.3906C14.1406 16.4844 13.0078 17.0703 11.9141 18.1641C11.25 18.8281 10.5469 20 9.96094 21.2109C10.8594 21.7969 12.0703 22.0312 13.4766 21.8359C15.2734 21.5625 17.2266 20.625 18.9062 18.9453C20.5859 17.2656 21.5234 15.2734 21.7969 13.5156C21.9531 12.2266 21.7969 11.0938 21.2891 10.2344ZM19.9219 8.75C19.0234 8.24219 17.8516 8.00781 16.4844 8.20312C14.6875 8.47656 12.7344 9.41406 11.0547 11.0938C9.375 12.7734 8.4375 14.7266 8.16406 16.5234C8.00781 17.7734 8.16406 18.8672 8.59375 19.7266C9.17969 18.6719 9.84375 17.5781 10.5859 16.875C11.9141 15.5078 13.2812 14.8047 14.5312 14.1797H14.5703C15.8203 13.5547 16.9531 12.9688 18.0859 11.875C18.7109 11.2109 19.375 10 19.9219 8.78906V8.75ZM21.9922 8.00781C24.8828 10.8984 24.1016 16.4062 20.2344 20.2734C16.3672 24.1406 10.8594 24.9219 7.96875 22.0312C5.07812 19.1016 5.85938 13.6328 9.72656 9.76562C13.5938 5.89844 19.1016 5.11719 21.9922 8.00781Z" fill="#131313"/>
</svg>
