<svg width="30" height="30" viewBox="0 0 30 30" fill="none" xmlns="http://www.w3.org/2000/svg">
<path d="M8.125 5.35156V7.8125C8.125 8.125 8.47656 8.24219 8.67188 8.00781L9.45312 6.95312C9.60938 6.75781 9.88281 6.83594 9.96094 7.07031C9.96094 7.1875 10 7.34375 10 7.5V10C10 10.5859 9.80469 11.1328 9.45312 11.5625L10.1953 12.0312C10.6641 12.3438 11.1719 12.5 11.7578 12.5H11.875C11.9922 11.6406 12.5 10.8594 13.125 10.1953V8.16406C13.125 7.53906 12.6562 7.03125 12.0703 6.95312L11.7578 6.875C11.4062 6.83594 11.1719 6.52344 11.25 6.17188C11.2891 5.82031 11.6016 5.58594 11.9531 5.66406L12.2656 5.70312C13.4766 5.89844 14.375 6.95312 14.375 8.16406V9.14062C14.4922 9.0625 14.6094 8.98438 14.7266 8.90625C14.8828 8.82812 15.0781 8.82812 15.2734 8.90625C15.3516 8.98438 15.4688 9.0625 15.625 9.14062V8.16406C15.625 6.95312 16.4844 5.89844 17.6953 5.70312L18.0078 5.66406C18.3594 5.58594 18.6719 5.82031 18.7109 6.17188C18.7891 6.52344 18.5547 6.83594 18.2031 6.875L17.8906 6.95312C17.3047 7.03125 16.875 7.57812 16.875 8.16406V10.1953C17.4609 10.8594 17.9688 11.6406 18.0859 12.5H18.2031C18.7891 12.5 19.3359 12.3438 19.7656 12.0312L20.5078 11.5625C20.1953 11.1328 20 10.5859 20 10V7.5C20 7.34375 20 7.1875 20.0391 7.03125C20.0781 6.79688 20.3516 6.75781 20.5078 6.95312L21.2891 8.00781C21.4844 8.24219 21.875 8.125 21.875 7.8125V5.35156C21.875 5.19531 21.9531 5.07812 22.1094 5.03906C22.2266 5.03906 22.3438 5 22.5 5C23.8672 5 25 6.13281 25 7.5V10C25 11.4062 23.8672 12.5 22.5 12.5H22.4609L20.8203 13.5938C20.0391 14.1016 19.1406 14.375 18.2031 14.375H18.125V15H19.375C19.6875 15 19.9609 14.9609 20.2344 14.8047L21.5625 14.1406C21.875 13.9844 22.2656 14.1016 22.4219 14.4141C22.5781 14.7266 22.4609 15.1172 22.1484 15.2734L20.7812 15.9375C20.3516 16.1719 19.8828 16.25 19.375 16.25H18.125V16.875L20.1953 16.9141C20.3906 16.9141 20.5859 16.875 20.7812 16.7969L22.2656 16.2891C22.6172 16.2109 22.9688 16.3672 23.0859 16.6797C23.1641 17.0312 23.0078 17.3828 22.6953 17.5L21.1719 17.9688C20.8594 18.0859 20.5469 18.125 20.1953 18.125H18.125V18.75C18.6328 18.75 19.1016 18.8672 19.5312 19.1016L20.2734 19.4531C20.5859 19.6094 20.7031 20 20.5469 20.3125C20.3906 20.5859 20 20.7422 19.6875 20.5859L18.9844 20.2344C18.7109 20.0781 18.4375 20 18.125 20L17.1875 22.6172C18.0859 22.8906 18.75 23.75 18.75 24.7266C18.75 24.8828 18.5938 25 18.4375 25H11.5234C11.3672 25 11.25 24.8828 11.25 24.7266C11.25 23.75 11.875 22.8906 12.7734 22.6172L11.875 20H11.8359C11.5234 20 11.25 20.0781 10.9766 20.1953L10.2734 20.5859C9.96094 20.7422 9.57031 20.5859 9.41406 20.2734C9.25781 20 9.375 19.6094 9.6875 19.4531L10.4297 19.1016C10.8594 18.8672 11.3281 18.75 11.8359 18.75H11.875V18.125H9.76562C9.41406 18.125 9.10156 18.0859 8.78906 17.9688L7.30469 17.5C6.95312 17.3828 6.79688 17.0312 6.875 16.6797C6.99219 16.3672 7.34375 16.1719 7.69531 16.2891L9.17969 16.7969C9.375 16.875 9.57031 16.875 9.76562 16.875H11.875V16.25H10.5859C10.0781 16.25 9.60938 16.1719 9.17969 15.9375L7.8125 15.2734C7.53906 15.1172 7.38281 14.7266 7.53906 14.4141C7.69531 14.1016 8.08594 13.9844 8.39844 14.1406L9.72656 14.8047C10 14.9609 10.2734 15 10.5859 15H11.875V14.375H11.7578C10.8203 14.375 9.92188 14.1016 9.14062 13.5938L7.5 12.5C6.09375 12.5 5 11.4062 5 10V7.5C5 6.13281 6.09375 5 7.5 5C7.61719 5 7.73438 5.03906 7.85156 5.03906C8.00781 5.07812 8.125 5.19531 8.125 5.35156ZM15.2344 22.5L16.25 19.6875V14.375V12.8125C16.25 12.5781 16.0938 12.1484 15.625 11.6406C15.4297 11.4062 15.1953 11.2109 15 11.0156C14.7656 11.2109 14.5312 11.4062 14.3359 11.6406C13.8672 12.1484 13.75 12.5781 13.75 12.8125V14.375V19.6875L14.7266 22.5H15.2344Z" fill="#131313"/>
</svg>
