<svg width="30" height="30" viewBox="0 0 30 30" fill="none" xmlns="http://www.w3.org/2000/svg">
<path d="M15 22.5C17.8906 22.5 20.625 19.5703 20.625 16.25C20.625 14.375 20.0391 12.0703 18.9844 10.2734C17.9297 8.47656 16.5625 7.5 15 7.5C13.3984 7.5 12.0312 8.47656 10.9766 10.2734C9.92188 12.0703 9.375 14.375 9.375 16.25C9.375 19.5703 12.0703 22.5 15 22.5ZM7.5 16.25C7.5 11.875 10 5.625 15 5.625C20 5.625 22.5 11.875 22.5 16.25C22.5 20.3906 19.1406 24.375 15 24.375C10.8594 24.375 7.5 20.3906 7.5 16.25ZM14.1406 10.2344C13.4375 10.9375 12.8516 11.9141 12.4609 13.0469C12.0703 14.1406 11.875 15.3125 11.875 16.25C11.875 16.6016 11.5625 16.875 11.25 16.875C10.8984 16.875 10.625 16.6016 10.625 16.25C10.625 15.1562 10.8203 13.8672 11.25 12.6172C11.7188 11.4062 12.3828 10.1953 13.3203 9.33594C13.5547 9.10156 13.9453 9.10156 14.1797 9.375C14.4141 9.60938 14.4141 10 14.1406 10.2344Z" fill="#131313"/>
</svg>
