<svg width="25" height="25" viewBox="0 0 25 25" fill="none" xmlns="http://www.w3.org/2000/svg">
<circle cx="12.5" cy="12.5294" r="11" stroke="#D8D8D8" stroke-width="2"/>
<path d="M12.5 1.52942C13.9445 1.52942 15.3749 1.81394 16.7095 2.36674C18.0441 2.91955 19.2567 3.7298 20.2782 4.75125C21.2996 5.77269 22.1099 6.98532 22.6627 8.3199C23.2155 9.65448 23.5 11.0849 23.5 12.5294C23.5 13.974 23.2155 15.4044 22.6627 16.7389C22.1099 18.0735 21.2996 19.2862 20.2782 20.3076C19.2567 21.329 18.0441 22.1393 16.7095 22.6921C15.3749 23.2449 13.9445 23.5294 12.5 23.5294C11.0555 23.5294 9.62506 23.2449 8.29048 22.6921C6.9559 22.1393 5.74327 21.329 4.72182 20.3076C3.70038 19.2861 2.89012 18.0735 2.33732 16.7389C1.78452 15.4044 1.5 13.974 1.5 12.5294C1.5 11.0849 1.78452 9.65448 2.33733 8.3199C2.89013 6.98531 3.70038 5.77268 4.72183 4.75124C5.74328 3.7298 6.95591 2.91954 8.29049 2.36674C9.62507 1.81394 11.0555 1.52942 12.5 1.52942L12.5 1.52942Z" stroke="#97BF60" stroke-width="2" stroke-linecap="round"/>
<circle cx="12.5" cy="12.5294" r="7.625" fill="#1C1C1C" stroke="#1C1C1C" stroke-width="2"/>
<path d="M14.6883 14.3668V7.27454H13.1996V17.6952H14.6883C14.6883 16.0509 16.0215 14.7177 17.6658 14.7177V13.229C16.5217 13.229 15.4785 13.6595 14.6883 14.3663M10.2226 7.27454H11.7113V17.6952H10.2226V10.603C9.43242 11.3103 8.38919 11.7403 7.24512 11.7407V10.252C8.88947 10.252 10.2226 8.91889 10.2226 7.27454Z" fill="white"/>
</svg>
