<svg width="340" height="12" viewBox="0 0 340 12" fill="none" xmlns="http://www.w3.org/2000/svg">
<g clip-path="url(#clip0_2205_16708)">
<mask id="path-2-inside-1_2205_16708" fill="white">
<path d="M0 0H68V12H0V0Z"/>
</mask>
<path d="M67 0V12H69V0H67Z" fill="#575757" mask="url(#path-2-inside-1_2205_16708)"/>
<path d="M13.6924 10H11.4481V2.72727H13.7918C14.4973 2.72727 15.101 2.87287 15.6029 3.16406C16.1048 3.45289 16.4895 3.86837 16.757 4.41051C17.0245 4.95028 17.1583 5.59659 17.1583 6.34943C17.1583 7.10701 17.0233 7.75923 16.7535 8.30611C16.4836 8.85062 16.0906 9.26965 15.5745 9.56321C15.0584 9.8544 14.431 10 13.6924 10ZM12.3287 9.21875H13.6356C14.2369 9.21875 14.7352 9.10275 15.1306 8.87074C15.526 8.63873 15.8207 8.30848 16.0148 7.87997C16.209 7.45147 16.306 6.94129 16.306 6.34943C16.306 5.76231 16.2101 5.25687 16.0184 4.8331C15.8266 4.40696 15.5402 4.08026 15.159 3.85298C14.7778 3.62334 14.3032 3.50852 13.735 3.50852H12.3287V9.21875ZM20.8089 10.1136C20.2833 10.1136 19.8299 9.99763 19.4488 9.76562C19.07 9.53125 18.7776 9.20455 18.5716 8.78551C18.368 8.36411 18.2662 7.87405 18.2662 7.31534C18.2662 6.75663 18.368 6.2642 18.5716 5.83807C18.7776 5.40956 19.0641 5.07576 19.431 4.83665C19.8003 4.59517 20.2312 4.47443 20.7236 4.47443C21.0077 4.47443 21.2883 4.52178 21.5653 4.61648C21.8422 4.71117 22.0944 4.86506 22.3216 5.07812C22.5489 5.28883 22.73 5.56818 22.865 5.91619C22.9999 6.2642 23.0674 6.69271 23.0674 7.2017V7.55682H18.8628V6.83239H22.2151C22.2151 6.52462 22.1536 6.25 22.0305 6.00852C21.9097 5.76705 21.7369 5.57647 21.512 5.43679C21.2894 5.29711 21.0267 5.22727 20.7236 5.22727C20.3898 5.22727 20.101 5.31013 19.8572 5.47585C19.6157 5.6392 19.4298 5.85227 19.2996 6.11506C19.1694 6.37784 19.1043 6.65956 19.1043 6.96023V7.44318C19.1043 7.85511 19.1753 8.20431 19.3174 8.49077C19.4618 8.77486 19.6618 8.99148 19.9175 9.14062C20.1732 9.28741 20.4703 9.3608 20.8089 9.3608C21.029 9.3608 21.2279 9.33002 21.4055 9.26847C21.5854 9.20455 21.7404 9.10985 21.8706 8.98438C22.0009 8.85653 22.1015 8.69792 22.1725 8.50852L22.9822 8.7358C22.8969 9.01042 22.7537 9.25189 22.5525 9.46023C22.3512 9.66619 22.1027 9.82718 21.8067 9.94318C21.5108 10.0568 21.1782 10.1136 20.8089 10.1136ZM28.2059 5.76705L27.453 5.98011C27.4057 5.85464 27.3358 5.73272 27.2435 5.61435C27.1536 5.49361 27.0305 5.39418 26.8742 5.31605C26.718 5.23793 26.5179 5.19886 26.2741 5.19886C25.9403 5.19886 25.6621 5.2758 25.4395 5.42969C25.2194 5.5812 25.1093 5.77415 25.1093 6.00852C25.1093 6.21686 25.185 6.38139 25.3366 6.50213C25.4881 6.62287 25.7248 6.72348 26.0468 6.80398L26.8564 7.00284C27.3441 7.12121 27.7075 7.30232 27.9466 7.54616C28.1858 7.78764 28.3053 8.09896 28.3053 8.48011C28.3053 8.79261 28.2153 9.07197 28.0354 9.31818C27.8579 9.56439 27.6093 9.75852 27.2897 9.90057C26.9701 10.0426 26.5984 10.1136 26.1746 10.1136C25.6183 10.1136 25.1578 9.9929 24.7932 9.75142C24.4287 9.50994 24.1978 9.1572 24.1008 8.69318L24.8962 8.49432C24.972 8.78788 25.1152 9.00805 25.3259 9.15483C25.539 9.30161 25.8171 9.375 26.1604 9.375C26.551 9.375 26.8612 9.29214 27.0908 9.12642C27.3228 8.95833 27.4388 8.7571 27.4388 8.52273C27.4388 8.33333 27.3725 8.17472 27.24 8.04688C27.1074 7.91667 26.9038 7.8196 26.6292 7.75568L25.7201 7.54261C25.2206 7.42424 24.8536 7.24077 24.6192 6.99219C24.3872 6.74124 24.2712 6.42756 24.2712 6.05114C24.2712 5.74337 24.3576 5.47112 24.5305 5.23438C24.7056 4.99763 24.9436 4.81179 25.2442 4.67685C25.5473 4.5419 25.8905 4.47443 26.2741 4.47443C26.8138 4.47443 27.2376 4.5928 27.5454 4.82955C27.8555 5.06629 28.0757 5.37879 28.2059 5.76705ZM31.172 10.1278C30.8263 10.1278 30.5126 10.0627 30.2309 9.93253C29.9492 9.79995 29.7255 9.60938 29.5597 9.3608C29.394 9.10985 29.3112 8.80682 29.3112 8.4517C29.3112 8.1392 29.3727 7.88589 29.4958 7.69176C29.6189 7.49527 29.7835 7.34138 29.9894 7.23011C30.1954 7.11884 30.4227 7.03598 30.6713 6.98153C30.9222 6.92472 31.1743 6.87973 31.4276 6.84659C31.7591 6.80398 32.0278 6.77202 32.2338 6.75071C32.4421 6.72704 32.5936 6.68797 32.6883 6.63352C32.7854 6.57907 32.8339 6.48437 32.8339 6.34943V6.32102C32.8339 5.97064 32.738 5.69839 32.5463 5.50426C32.3569 5.31013 32.0692 5.21307 31.6833 5.21307C31.2832 5.21307 30.9695 5.30066 30.7423 5.47585C30.515 5.65104 30.3552 5.83807 30.2629 6.03693L29.4674 5.75284C29.6095 5.4214 29.7989 5.16335 30.0356 4.97869C30.2747 4.79167 30.5351 4.66146 30.8169 4.58807C31.1009 4.51231 31.3803 4.47443 31.6549 4.47443C31.8301 4.47443 32.0313 4.49574 32.2586 4.53835C32.4883 4.5786 32.7096 4.66264 32.9227 4.79048C33.1381 4.91832 33.3169 5.11127 33.4589 5.36932C33.6009 5.62737 33.672 5.97301 33.672 6.40625V10H32.8339V9.26136H32.7913C32.7345 9.37973 32.6398 9.50639 32.5072 9.64134C32.3746 9.77628 32.1982 9.8911 31.9781 9.9858C31.7579 10.0805 31.4892 10.1278 31.172 10.1278ZM31.2998 9.375C31.6312 9.375 31.9106 9.3099 32.1379 9.17969C32.3675 9.04948 32.5403 8.88139 32.6563 8.67543C32.7747 8.46946 32.8339 8.25284 32.8339 8.02557V7.25852C32.7984 7.30114 32.7203 7.3402 32.5995 7.37571C32.4811 7.40885 32.3438 7.43845 32.1876 7.46449C32.0337 7.48816 31.8834 7.50947 31.7366 7.52841C31.5922 7.54498 31.475 7.55919 31.385 7.57102C31.1672 7.59943 30.9636 7.6456 30.7742 7.70952C30.5872 7.77107 30.4357 7.86458 30.3197 7.99006C30.2061 8.11316 30.1492 8.28125 30.1492 8.49432C30.1492 8.78551 30.257 9.00568 30.4724 9.15483C30.6902 9.30161 30.966 9.375 31.2998 9.375ZM35.5461 12.0455C35.404 12.0455 35.2774 12.0336 35.1661 12.0099C35.0548 11.9886 34.9779 11.9673 34.9353 11.946L35.1483 11.2074C35.3519 11.2595 35.5319 11.2784 35.6881 11.2642C35.8444 11.25 35.9829 11.1802 36.1036 11.0547C36.2267 10.9316 36.3392 10.7315 36.441 10.4545L36.5972 10.0284L34.5802 4.54545H35.4893L36.9949 8.89205H37.0518L38.5574 4.54545H39.4665L37.1512 10.7955C37.047 11.0772 36.918 11.3104 36.7641 11.495C36.6102 11.6821 36.4315 11.8205 36.2279 11.9105C36.0267 12.0005 35.7994 12.0455 35.5461 12.0455ZM44.0102 7.76989V4.54545H44.8483V10H44.0102V9.0767H43.9534C43.8256 9.35369 43.6267 9.58925 43.3568 9.78338C43.0869 9.97514 42.746 10.071 42.3341 10.071C41.9932 10.071 41.6901 9.99645 41.425 9.8473C41.1598 9.69579 40.9515 9.46851 40.8 9.16548C40.6485 8.86009 40.5727 8.47538 40.5727 8.01136V4.54545H41.4108V7.95455C41.4108 8.35227 41.522 8.66951 41.7446 8.90625C41.9695 9.14299 42.2559 9.26136 42.604 9.26136C42.8123 9.26136 43.0242 9.2081 43.2396 9.10156C43.4574 8.99503 43.6397 8.83168 43.7865 8.61151C43.9356 8.39134 44.0102 8.1108 44.0102 7.76989ZM47.2213 6.71875V10H46.3833V4.54545H47.1929V5.39773H47.2639C47.3918 5.12074 47.5859 4.8982 47.8463 4.73011C48.1067 4.55966 48.4429 4.47443 48.8548 4.47443C49.2242 4.47443 49.5473 4.55019 49.8243 4.7017C50.1013 4.85085 50.3167 5.07812 50.4706 5.38352C50.6245 5.68655 50.7014 6.07008 50.7014 6.53409V10H49.8634V6.59091C49.8634 6.16241 49.7521 5.8286 49.5296 5.58949C49.307 5.34801 49.0016 5.22727 48.6134 5.22727C48.3459 5.22727 48.1067 5.28527 47.896 5.40128C47.6877 5.51728 47.5232 5.68655 47.4024 5.90909C47.2817 6.13163 47.2213 6.40152 47.2213 6.71875ZM54.4488 10.1136C53.9564 10.1136 53.5243 9.99645 53.1526 9.76207C52.7833 9.5277 52.4945 9.19981 52.2861 8.77841C52.0802 8.35701 51.9772 7.86458 51.9772 7.30114C51.9772 6.73295 52.0802 6.23698 52.2861 5.81321C52.4945 5.38944 52.7833 5.06037 53.1526 4.82599C53.5243 4.59162 53.9564 4.47443 54.4488 4.47443C54.9412 4.47443 55.3721 4.59162 55.7414 4.82599C56.1131 5.06037 56.4019 5.38944 56.6079 5.81321C56.8162 6.23698 56.9204 6.73295 56.9204 7.30114C56.9204 7.86458 56.8162 8.35701 56.6079 8.77841C56.4019 9.19981 56.1131 9.5277 55.7414 9.76207C55.3721 9.99645 54.9412 10.1136 54.4488 10.1136ZM54.4488 9.3608C54.8228 9.3608 55.1306 9.26491 55.3721 9.07315C55.6135 8.88139 55.7923 8.62926 55.9083 8.31676C56.0243 8.00426 56.0823 7.66572 56.0823 7.30114C56.0823 6.93655 56.0243 6.59683 55.9083 6.28196C55.7923 5.96709 55.6135 5.71259 55.3721 5.51847C55.1306 5.32434 54.8228 5.22727 54.4488 5.22727C54.0747 5.22727 53.767 5.32434 53.5255 5.51847C53.284 5.71259 53.1053 5.96709 52.9893 6.28196C52.8733 6.59683 52.8153 6.93655 52.8153 7.30114C52.8153 7.66572 52.8733 8.00426 52.9893 8.31676C53.1053 8.62926 53.284 8.88139 53.5255 9.07315C53.767 9.26491 54.0747 9.3608 54.4488 9.3608Z" fill="#575757"/>
<mask id="path-5-inside-2_2205_16708" fill="white">
<path d="M68 0H136V12H68V0Z"/>
</mask>
<path d="M135 0V12H137V0H135Z" fill="#575757" mask="url(#path-5-inside-2_2205_16708)"/>
<path d="M80.9817 10H80.0584L82.7289 2.72727H83.638L86.3084 10H85.3851L83.2118 3.87784H83.155L80.9817 10ZM81.3226 7.15909H85.0442V7.94034H81.3226V7.15909ZM88.1657 2.72727V10H87.3276V2.72727H88.1657ZM89.7006 10V4.54545H90.5103V5.39773H90.5813C90.695 5.10653 90.8784 4.88045 91.1317 4.71946C91.3851 4.55611 91.6893 4.47443 92.0444 4.47443C92.4042 4.47443 92.7037 4.55611 92.9428 4.71946C93.1843 4.88045 93.3725 5.10653 93.5075 5.39773H93.5643C93.704 5.116 93.9135 4.89228 94.1928 4.72656C94.4722 4.55848 94.8072 4.47443 95.1978 4.47443C95.6855 4.47443 96.0844 4.62713 96.3945 4.93253C96.7047 5.23556 96.8597 5.70786 96.8597 6.34943V10H96.0217V6.34943C96.0217 5.94697 95.9116 5.65933 95.6914 5.48651C95.4712 5.31368 95.212 5.22727 94.9137 5.22727C94.5302 5.22727 94.2331 5.34328 94.0224 5.57528C93.8117 5.80492 93.7063 6.09612 93.7063 6.44886V10H92.854V6.2642C92.854 5.95407 92.7534 5.70431 92.5522 5.51491C92.351 5.32315 92.0917 5.22727 91.7745 5.22727C91.5567 5.22727 91.3531 5.28527 91.1637 5.40128C90.9767 5.51728 90.8252 5.67827 90.7092 5.88423C90.5955 6.08783 90.5387 6.32339 90.5387 6.59091V10H89.7006ZM101.83 7.76989V4.54545H102.668V10H101.83V9.0767H101.773C101.645 9.35369 101.446 9.58925 101.176 9.78338C100.906 9.97514 100.565 10.071 100.153 10.071C99.8125 10.071 99.5095 9.99645 99.2443 9.8473C98.9792 9.69579 98.7708 9.46851 98.6193 9.16548C98.4678 8.86009 98.392 8.47538 98.392 8.01136V4.54545H99.2301V7.95455C99.2301 8.35227 99.3414 8.66951 99.5639 8.90625C99.7888 9.14299 100.075 9.26136 100.423 9.26136C100.632 9.26136 100.844 9.2081 101.059 9.10156C101.277 8.99503 101.459 8.83168 101.606 8.61151C101.755 8.39134 101.83 8.1108 101.83 7.76989ZM106.49 10.1136C105.964 10.1136 105.511 9.99763 105.129 9.76562C104.751 9.53125 104.458 9.20455 104.252 8.78551C104.049 8.36411 103.947 7.87405 103.947 7.31534C103.947 6.75663 104.049 6.2642 104.252 5.83807C104.458 5.40956 104.745 5.07576 105.112 4.83665C105.481 4.59517 105.912 4.47443 106.404 4.47443C106.688 4.47443 106.969 4.52178 107.246 4.61648C107.523 4.71117 107.775 4.86506 108.002 5.07812C108.23 5.28883 108.411 5.56818 108.546 5.91619C108.681 6.2642 108.748 6.69271 108.748 7.2017V7.55682H104.544V6.83239H107.896C107.896 6.52462 107.834 6.25 107.711 6.00852C107.59 5.76705 107.418 5.57647 107.193 5.43679C106.97 5.29711 106.707 5.22727 106.404 5.22727C106.07 5.22727 105.782 5.31013 105.538 5.47585C105.296 5.6392 105.11 5.85227 104.98 6.11506C104.85 6.37784 104.785 6.65956 104.785 6.96023V7.44318C104.785 7.85511 104.856 8.20431 104.998 8.49077C105.142 8.77486 105.343 8.99148 105.598 9.14062C105.854 9.28741 106.151 9.3608 106.49 9.3608C106.71 9.3608 106.909 9.33002 107.086 9.26847C107.266 9.20455 107.421 9.10985 107.551 8.98438C107.682 8.85653 107.782 8.69792 107.853 8.50852L108.663 8.7358C108.578 9.01042 108.434 9.25189 108.233 9.46023C108.032 9.66619 107.783 9.82718 107.487 9.94318C107.191 10.0568 106.859 10.1136 106.49 10.1136ZM110.023 10V4.54545H110.833V5.36932H110.889C110.989 5.09943 111.169 4.88045 111.429 4.71236C111.69 4.54427 111.983 4.46023 112.31 4.46023C112.371 4.46023 112.448 4.46141 112.541 4.46378C112.633 4.46615 112.703 4.4697 112.75 4.47443V5.3267C112.722 5.3196 112.657 5.30895 112.555 5.29474C112.455 5.27817 112.35 5.26989 112.239 5.26989C111.974 5.26989 111.737 5.32552 111.529 5.43679C111.323 5.54569 111.159 5.69721 111.039 5.89134C110.92 6.0831 110.861 6.30208 110.861 6.5483V10H110.023ZM113.587 10V9.3608L116.684 5.38352V5.3267H113.687V4.54545H117.763V5.21307L114.752 9.16193V9.21875H117.863V10H113.587ZM121.213 10.1136C120.721 10.1136 120.289 9.99645 119.917 9.76207C119.548 9.5277 119.259 9.19981 119.051 8.77841C118.845 8.35701 118.742 7.86458 118.742 7.30114C118.742 6.73295 118.845 6.23698 119.051 5.81321C119.259 5.38944 119.548 5.06037 119.917 4.82599C120.289 4.59162 120.721 4.47443 121.213 4.47443C121.706 4.47443 122.137 4.59162 122.506 4.82599C122.878 5.06037 123.167 5.38944 123.373 5.81321C123.581 6.23698 123.685 6.73295 123.685 7.30114C123.685 7.86458 123.581 8.35701 123.373 8.77841C123.167 9.19981 122.878 9.5277 122.506 9.76207C122.137 9.99645 121.706 10.1136 121.213 10.1136ZM121.213 9.3608C121.587 9.3608 121.895 9.26491 122.137 9.07315C122.378 8.88139 122.557 8.62926 122.673 8.31676C122.789 8.00426 122.847 7.66572 122.847 7.30114C122.847 6.93655 122.789 6.59683 122.673 6.28196C122.557 5.96709 122.378 5.71259 122.137 5.51847C121.895 5.32434 121.587 5.22727 121.213 5.22727C120.839 5.22727 120.532 5.32434 120.29 5.51847C120.049 5.71259 119.87 5.96709 119.754 6.28196C119.638 6.59683 119.58 6.93655 119.58 7.30114C119.58 7.66572 119.638 8.00426 119.754 8.31676C119.87 8.62926 120.049 8.88139 120.29 9.07315C120.532 9.26491 120.839 9.3608 121.213 9.3608Z" fill="#575757"/>
<mask id="path-8-inside-3_2205_16708" fill="white">
<path d="M136 0H204V12H136V0Z"/>
</mask>
<path d="M203 0V12H205V0H203Z" fill="#575757" mask="url(#path-8-inside-3_2205_16708)"/>
<path d="M158.657 5H157.776C157.724 4.74669 157.633 4.52415 157.503 4.33239C157.375 4.14062 157.219 3.97964 157.034 3.84943C156.852 3.71686 156.649 3.61742 156.427 3.55114C156.204 3.48485 155.972 3.4517 155.731 3.4517C155.29 3.4517 154.891 3.56297 154.534 3.78551C154.179 4.00805 153.896 4.33594 153.685 4.76918C153.477 5.20241 153.373 5.7339 153.373 6.36364C153.373 6.99337 153.477 7.52486 153.685 7.9581C153.896 8.39134 154.179 8.71922 154.534 8.94176C154.891 9.1643 155.29 9.27557 155.731 9.27557C155.972 9.27557 156.204 9.24242 156.427 9.17614C156.649 9.10985 156.852 9.0116 157.034 8.88139C157.219 8.74882 157.375 8.58665 157.503 8.39489C157.633 8.20076 157.724 7.97822 157.776 7.72727H158.657C158.59 8.09896 158.47 8.43158 158.295 8.72514C158.119 9.0187 157.902 9.26847 157.641 9.47443C157.381 9.67803 157.088 9.8331 156.764 9.93963C156.442 10.0462 156.098 10.0994 155.731 10.0994C155.11 10.0994 154.559 9.94792 154.076 9.64489C153.593 9.34186 153.213 8.91098 152.936 8.35227C152.659 7.79356 152.52 7.13068 152.52 6.36364C152.52 5.59659 152.659 4.93371 152.936 4.375C153.213 3.81629 153.593 3.38542 154.076 3.08239C154.559 2.77936 155.11 2.62784 155.731 2.62784C156.098 2.62784 156.442 2.68111 156.764 2.78764C157.088 2.89418 157.381 3.05043 157.641 3.25639C157.902 3.45999 158.119 3.70857 158.295 4.00213C158.47 4.29332 158.59 4.62595 158.657 5ZM162.182 10.1136C161.69 10.1136 161.258 9.99645 160.886 9.76207C160.517 9.5277 160.228 9.19981 160.02 8.77841C159.814 8.35701 159.711 7.86458 159.711 7.30114C159.711 6.73295 159.814 6.23698 160.02 5.81321C160.228 5.38944 160.517 5.06037 160.886 4.82599C161.258 4.59162 161.69 4.47443 162.182 4.47443C162.675 4.47443 163.105 4.59162 163.475 4.82599C163.846 5.06037 164.135 5.38944 164.341 5.81321C164.55 6.23698 164.654 6.73295 164.654 7.30114C164.654 7.86458 164.55 8.35701 164.341 8.77841C164.135 9.19981 163.846 9.5277 163.475 9.76207C163.105 9.99645 162.675 10.1136 162.182 10.1136ZM162.182 9.3608C162.556 9.3608 162.864 9.26491 163.105 9.07315C163.347 8.88139 163.526 8.62926 163.642 8.31676C163.758 8.00426 163.816 7.66572 163.816 7.30114C163.816 6.93655 163.758 6.59683 163.642 6.28196C163.526 5.96709 163.347 5.71259 163.105 5.51847C162.864 5.32434 162.556 5.22727 162.182 5.22727C161.808 5.22727 161.5 5.32434 161.259 5.51847C161.017 5.71259 160.839 5.96709 160.723 6.28196C160.607 6.59683 160.549 6.93655 160.549 7.30114C160.549 7.66572 160.607 8.00426 160.723 8.31676C160.839 8.62926 161.017 8.88139 161.259 9.07315C161.5 9.26491 161.808 9.3608 162.182 9.3608ZM165.933 10V4.54545H166.743V5.39773H166.814C166.927 5.10653 167.111 4.88045 167.364 4.71946C167.617 4.55611 167.922 4.47443 168.277 4.47443C168.637 4.47443 168.936 4.55611 169.175 4.71946C169.417 4.88045 169.605 5.10653 169.74 5.39773H169.797C169.936 5.116 170.146 4.89228 170.425 4.72656C170.705 4.55848 171.04 4.47443 171.43 4.47443C171.918 4.47443 172.317 4.62713 172.627 4.93253C172.937 5.23556 173.092 5.70786 173.092 6.34943V10H172.254V6.34943C172.254 5.94697 172.144 5.65933 171.924 5.48651C171.704 5.31368 171.444 5.22727 171.146 5.22727C170.763 5.22727 170.465 5.34328 170.255 5.57528C170.044 5.80492 169.939 6.09612 169.939 6.44886V10H169.086V6.2642C169.086 5.95407 168.986 5.70431 168.785 5.51491C168.583 5.32315 168.324 5.22727 168.007 5.22727C167.789 5.22727 167.586 5.28527 167.396 5.40128C167.209 5.51728 167.058 5.67827 166.942 5.88423C166.828 6.08783 166.771 6.32339 166.771 6.59091V10H165.933ZM174.624 10V4.54545H175.463V10H174.624ZM175.051 3.63636C174.887 3.63636 174.746 3.58073 174.628 3.46946C174.512 3.35819 174.454 3.22443 174.454 3.06818C174.454 2.91193 174.512 2.77817 174.628 2.6669C174.746 2.55563 174.887 2.5 175.051 2.5C175.214 2.5 175.354 2.55563 175.47 2.6669C175.588 2.77817 175.647 2.91193 175.647 3.06818C175.647 3.22443 175.588 3.35819 175.47 3.46946C175.354 3.58073 175.214 3.63636 175.051 3.63636ZM179.057 10.1136C178.603 10.1136 178.201 9.99882 177.853 9.76918C177.505 9.53717 177.233 9.21046 177.037 8.78906C176.84 8.36529 176.742 7.86458 176.742 7.28693C176.742 6.71402 176.84 6.21686 177.037 5.79545C177.233 5.37405 177.507 5.04853 177.857 4.81889C178.207 4.58925 178.612 4.47443 179.071 4.47443C179.426 4.47443 179.707 4.53362 179.913 4.65199C180.121 4.76799 180.28 4.90057 180.389 5.04972C180.5 5.1965 180.587 5.31723 180.648 5.41193H180.719V2.72727H181.557V10H180.748V9.16193H180.648C180.587 9.26136 180.499 9.38684 180.385 9.53835C180.272 9.6875 180.109 9.82126 179.899 9.93963C179.688 10.0556 179.408 10.1136 179.057 10.1136ZM179.171 9.3608C179.507 9.3608 179.791 9.2732 180.023 9.09801C180.255 8.92045 180.431 8.67543 180.552 8.36293C180.673 8.04806 180.733 7.68466 180.733 7.27273C180.733 6.86553 180.674 6.50923 180.556 6.20384C180.437 5.89607 180.262 5.65696 180.03 5.48651C179.798 5.31368 179.512 5.22727 179.171 5.22727C178.816 5.22727 178.52 5.31842 178.283 5.50071C178.049 5.68063 177.872 5.92566 177.754 6.2358C177.638 6.54356 177.58 6.8892 177.58 7.27273C177.58 7.66098 177.639 8.01373 177.757 8.33097C177.878 8.64583 178.056 8.89678 178.29 9.08381C178.527 9.26847 178.82 9.3608 179.171 9.3608ZM184.814 10.1278C184.468 10.1278 184.154 10.0627 183.873 9.93253C183.591 9.79995 183.367 9.60938 183.201 9.3608C183.036 9.10985 182.953 8.80682 182.953 8.4517C182.953 8.1392 183.014 7.88589 183.137 7.69176C183.261 7.49527 183.425 7.34138 183.631 7.23011C183.837 7.11884 184.064 7.03598 184.313 6.98153C184.564 6.92472 184.816 6.87973 185.069 6.84659C185.401 6.80398 185.669 6.77202 185.875 6.75071C186.084 6.72704 186.235 6.68797 186.33 6.63352C186.427 6.57907 186.475 6.48437 186.475 6.34943V6.32102C186.475 5.97064 186.38 5.69839 186.188 5.50426C185.998 5.31013 185.711 5.21307 185.325 5.21307C184.925 5.21307 184.611 5.30066 184.384 5.47585C184.157 5.65104 183.997 5.83807 183.904 6.03693L183.109 5.75284C183.251 5.4214 183.44 5.16335 183.677 4.97869C183.916 4.79167 184.177 4.66146 184.458 4.58807C184.743 4.51231 185.022 4.47443 185.297 4.47443C185.472 4.47443 185.673 4.49574 185.9 4.53835C186.13 4.5786 186.351 4.66264 186.564 4.79048C186.78 4.91832 186.958 5.11127 187.1 5.36932C187.243 5.62737 187.314 5.97301 187.314 6.40625V10H186.475V9.26136H186.433C186.376 9.37973 186.281 9.50639 186.149 9.64134C186.016 9.77628 185.84 9.8911 185.62 9.9858C185.4 10.0805 185.131 10.1278 184.814 10.1278ZM184.941 9.375C185.273 9.375 185.552 9.3099 185.779 9.17969C186.009 9.04948 186.182 8.88139 186.298 8.67543C186.416 8.46946 186.475 8.25284 186.475 8.02557V7.25852C186.44 7.30114 186.362 7.3402 186.241 7.37571C186.123 7.40885 185.985 7.43845 185.829 7.46449C185.675 7.48816 185.525 7.50947 185.378 7.52841C185.234 7.54498 185.117 7.55919 185.027 7.57102C184.809 7.59943 184.605 7.6456 184.416 7.70952C184.229 7.77107 184.077 7.86458 183.961 7.99006C183.848 8.11316 183.791 8.28125 183.791 8.49432C183.791 8.78551 183.899 9.00568 184.114 9.15483C184.332 9.30161 184.608 9.375 184.941 9.375Z" fill="#575757"/>
<mask id="path-11-inside-4_2205_16708" fill="white">
<path d="M204 0H272V12H204V0Z"/>
</mask>
<path d="M271 0V12H273V0H271Z" fill="#575757" mask="url(#path-11-inside-4_2205_16708)"/>
<path d="M216.718 2.72727H217.769L220.24 8.7642H220.326L222.797 2.72727H223.848V10H223.024V4.47443H222.953L220.681 10H219.885L217.612 4.47443H217.541V10H216.718V2.72727ZM227.787 10.1136C227.262 10.1136 226.808 9.99763 226.427 9.76562C226.049 9.53125 225.756 9.20455 225.55 8.78551C225.347 8.36411 225.245 7.87405 225.245 7.31534C225.245 6.75663 225.347 6.2642 225.55 5.83807C225.756 5.40956 226.043 5.07576 226.41 4.83665C226.779 4.59517 227.21 4.47443 227.702 4.47443C227.986 4.47443 228.267 4.52178 228.544 4.61648C228.821 4.71117 229.073 4.86506 229.3 5.07812C229.527 5.28883 229.709 5.56818 229.843 5.91619C229.978 6.2642 230.046 6.69271 230.046 7.2017V7.55682H225.841V6.83239H229.194C229.194 6.52462 229.132 6.25 229.009 6.00852C228.888 5.76705 228.715 5.57647 228.491 5.43679C228.268 5.29711 228.005 5.22727 227.702 5.22727C227.368 5.22727 227.08 5.31013 226.836 5.47585C226.594 5.6392 226.408 5.85227 226.278 6.11506C226.148 6.37784 226.083 6.65956 226.083 6.96023V7.44318C226.083 7.85511 226.154 8.20431 226.296 8.49077C226.44 8.77486 226.64 8.99148 226.896 9.14062C227.152 9.28741 227.449 9.3608 227.787 9.3608C228.008 9.3608 228.206 9.33002 228.384 9.26847C228.564 9.20455 228.719 9.10985 228.849 8.98438C228.979 8.85653 229.08 8.69792 229.151 8.50852L229.961 8.7358C229.875 9.01042 229.732 9.25189 229.531 9.46023C229.33 9.66619 229.081 9.82718 228.785 9.94318C228.489 10.0568 228.157 10.1136 227.787 10.1136ZM231.321 10V4.54545H232.13V5.36932H232.187C232.287 5.09943 232.467 4.88045 232.727 4.71236C232.987 4.54427 233.281 4.46023 233.608 4.46023C233.669 4.46023 233.746 4.46141 233.839 4.46378C233.931 4.46615 234.001 4.4697 234.048 4.47443V5.3267C234.02 5.3196 233.955 5.30895 233.853 5.29474C233.753 5.27817 233.648 5.26989 233.537 5.26989C233.272 5.26989 233.035 5.32552 232.826 5.43679C232.62 5.54569 232.457 5.69721 232.336 5.89134C232.218 6.0831 232.159 6.30208 232.159 6.5483V10H231.321ZM235.041 10V4.54545H235.88V10H235.041ZM235.468 3.63636C235.304 3.63636 235.163 3.58073 235.045 3.46946C234.929 3.35819 234.871 3.22443 234.871 3.06818C234.871 2.91193 234.929 2.77817 235.045 2.6669C235.163 2.55563 235.304 2.5 235.468 2.5C235.631 2.5 235.771 2.55563 235.887 2.6669C236.005 2.77817 236.064 2.91193 236.064 3.06818C236.064 3.22443 236.005 3.35819 235.887 3.46946C235.771 3.58073 235.631 3.63636 235.468 3.63636ZM239.701 10.1136C239.176 10.1136 238.723 9.99763 238.341 9.76562C237.963 9.53125 237.67 9.20455 237.464 8.78551C237.261 8.36411 237.159 7.87405 237.159 7.31534C237.159 6.75663 237.261 6.2642 237.464 5.83807C237.67 5.40956 237.957 5.07576 238.324 4.83665C238.693 4.59517 239.124 4.47443 239.616 4.47443C239.9 4.47443 240.181 4.52178 240.458 4.61648C240.735 4.71117 240.987 4.86506 241.214 5.07812C241.441 5.28883 241.623 5.56818 241.758 5.91619C241.892 6.2642 241.96 6.69271 241.96 7.2017V7.55682H237.755V6.83239H241.108C241.108 6.52462 241.046 6.25 240.923 6.00852C240.802 5.76705 240.629 5.57647 240.405 5.43679C240.182 5.29711 239.919 5.22727 239.616 5.22727C239.282 5.22727 238.994 5.31013 238.75 5.47585C238.508 5.6392 238.322 5.85227 238.192 6.11506C238.062 6.37784 237.997 6.65956 237.997 6.96023V7.44318C237.997 7.85511 238.068 8.20431 238.21 8.49077C238.354 8.77486 238.554 8.99148 238.81 9.14062C239.066 9.28741 239.363 9.3608 239.701 9.3608C239.922 9.3608 240.12 9.33002 240.298 9.26847C240.478 9.20455 240.633 9.10985 240.763 8.98438C240.893 8.85653 240.994 8.69792 241.065 8.50852L241.875 8.7358C241.79 9.01042 241.646 9.25189 241.445 9.46023C241.244 9.66619 240.995 9.82718 240.699 9.94318C240.403 10.0568 240.071 10.1136 239.701 10.1136ZM244.073 6.71875V10H243.235V4.54545H244.044V5.39773H244.116C244.243 5.12074 244.437 4.8982 244.698 4.73011C244.958 4.55966 245.294 4.47443 245.706 4.47443C246.076 4.47443 246.399 4.55019 246.676 4.7017C246.953 4.85085 247.168 5.07812 247.322 5.38352C247.476 5.68655 247.553 6.07008 247.553 6.53409V10H246.715V6.59091C246.715 6.16241 246.604 5.8286 246.381 5.58949C246.159 5.34801 245.853 5.22727 245.465 5.22727C245.197 5.22727 244.958 5.28527 244.748 5.40128C244.539 5.51728 244.375 5.68655 244.254 5.90909C244.133 6.13163 244.073 6.40152 244.073 6.71875ZM251.144 10.1136C250.69 10.1136 250.288 9.99882 249.94 9.76918C249.592 9.53717 249.32 9.21046 249.123 8.78906C248.927 8.36529 248.829 7.86458 248.829 7.28693C248.829 6.71402 248.927 6.21686 249.123 5.79545C249.32 5.37405 249.593 5.04853 249.944 4.81889C250.294 4.58925 250.699 4.47443 251.158 4.47443C251.513 4.47443 251.794 4.53362 252 4.65199C252.208 4.76799 252.367 4.90057 252.476 5.04972C252.587 5.1965 252.673 5.31723 252.735 5.41193H252.806V2.72727H253.644V10H252.834V9.16193H252.735C252.673 9.26136 252.586 9.38684 252.472 9.53835C252.359 9.6875 252.196 9.82126 251.986 9.93963C251.775 10.0556 251.494 10.1136 251.144 10.1136ZM251.258 9.3608C251.594 9.3608 251.878 9.2732 252.11 9.09801C252.342 8.92045 252.518 8.67543 252.639 8.36293C252.76 8.04806 252.82 7.68466 252.82 7.27273C252.82 6.86553 252.761 6.50923 252.643 6.20384C252.524 5.89607 252.349 5.65696 252.117 5.48651C251.885 5.31368 251.599 5.22727 251.258 5.22727C250.903 5.22727 250.607 5.31842 250.37 5.50071C250.136 5.68063 249.959 5.92566 249.841 6.2358C249.725 6.54356 249.667 6.8892 249.667 7.27273C249.667 7.66098 249.726 8.01373 249.844 8.33097C249.965 8.64583 250.143 8.89678 250.377 9.08381C250.614 9.26847 250.907 9.3608 251.258 9.3608ZM256.9 10.1278C256.555 10.1278 256.241 10.0627 255.959 9.93253C255.678 9.79995 255.454 9.60938 255.288 9.3608C255.123 9.10985 255.04 8.80682 255.04 8.4517C255.04 8.1392 255.101 7.88589 255.224 7.69176C255.347 7.49527 255.512 7.34138 255.718 7.23011C255.924 7.11884 256.151 7.03598 256.4 6.98153C256.651 6.92472 256.903 6.87973 257.156 6.84659C257.488 6.80398 257.756 6.77202 257.962 6.75071C258.171 6.72704 258.322 6.68797 258.417 6.63352C258.514 6.57907 258.562 6.48437 258.562 6.34943V6.32102C258.562 5.97064 258.467 5.69839 258.275 5.50426C258.085 5.31013 257.798 5.21307 257.412 5.21307C257.012 5.21307 256.698 5.30066 256.471 5.47585C256.244 5.65104 256.084 5.83807 255.991 6.03693L255.196 5.75284C255.338 5.4214 255.527 5.16335 255.764 4.97869C256.003 4.79167 256.264 4.66146 256.545 4.58807C256.829 4.51231 257.109 4.47443 257.383 4.47443C257.559 4.47443 257.76 4.49574 257.987 4.53835C258.217 4.5786 258.438 4.66264 258.651 4.79048C258.867 4.91832 259.045 5.11127 259.187 5.36932C259.329 5.62737 259.4 5.97301 259.4 6.40625V10H258.562V9.26136H258.52C258.463 9.37973 258.368 9.50639 258.236 9.64134C258.103 9.77628 257.927 9.8911 257.707 9.9858C257.486 10.0805 257.218 10.1278 256.9 10.1278ZM257.028 9.375C257.36 9.375 257.639 9.3099 257.866 9.17969C258.096 9.04948 258.269 8.88139 258.385 8.67543C258.503 8.46946 258.562 8.25284 258.562 8.02557V7.25852C258.527 7.30114 258.449 7.3402 258.328 7.37571C258.21 7.40885 258.072 7.43845 257.916 7.46449C257.762 7.48816 257.612 7.50947 257.465 7.52841C257.321 7.54498 257.204 7.55919 257.114 7.57102C256.896 7.59943 256.692 7.6456 256.503 7.70952C256.316 7.77107 256.164 7.86458 256.048 7.99006C255.935 8.11316 255.878 8.28125 255.878 8.49432C255.878 8.78551 255.985 9.00568 256.201 9.15483C256.419 9.30161 256.695 9.375 257.028 9.375Z" fill="#575757"/>
<path d="M300.443 5H299.562C299.51 4.74669 299.419 4.52415 299.289 4.33239C299.161 4.14062 299.005 3.97964 298.82 3.84943C298.638 3.71686 298.435 3.61742 298.213 3.55114C297.99 3.48485 297.758 3.4517 297.517 3.4517C297.076 3.4517 296.678 3.56297 296.32 3.78551C295.965 4.00805 295.682 4.33594 295.471 4.76918C295.263 5.20241 295.159 5.7339 295.159 6.36364C295.159 6.99337 295.263 7.52486 295.471 7.9581C295.682 8.39134 295.965 8.71922 296.32 8.94176C296.678 9.1643 297.076 9.27557 297.517 9.27557C297.758 9.27557 297.99 9.24242 298.213 9.17614C298.435 9.10985 298.638 9.0116 298.82 8.88139C299.005 8.74882 299.161 8.58665 299.289 8.39489C299.419 8.20076 299.51 7.97822 299.562 7.72727H300.443C300.377 8.09896 300.256 8.43158 300.081 8.72514C299.906 9.0187 299.688 9.26847 299.427 9.47443C299.167 9.67803 298.874 9.8331 298.55 9.93963C298.228 10.0462 297.884 10.0994 297.517 10.0994C296.897 10.0994 296.345 9.94792 295.862 9.64489C295.379 9.34186 294.999 8.91098 294.722 8.35227C294.445 7.79356 294.307 7.13068 294.307 6.36364C294.307 5.59659 294.445 4.93371 294.722 4.375C294.999 3.81629 295.379 3.38542 295.862 3.08239C296.345 2.77936 296.897 2.62784 297.517 2.62784C297.884 2.62784 298.228 2.68111 298.55 2.78764C298.874 2.89418 299.167 3.05043 299.427 3.25639C299.688 3.45999 299.906 3.70857 300.081 4.00213C300.256 4.29332 300.377 4.62595 300.443 5ZM304.039 10.1136C303.514 10.1136 303.06 9.99763 302.679 9.76562C302.3 9.53125 302.008 9.20455 301.802 8.78551C301.599 8.36411 301.497 7.87405 301.497 7.31534C301.497 6.75663 301.599 6.2642 301.802 5.83807C302.008 5.40956 302.295 5.07576 302.661 4.83665C303.031 4.59517 303.462 4.47443 303.954 4.47443C304.238 4.47443 304.519 4.52178 304.796 4.61648C305.073 4.71117 305.325 4.86506 305.552 5.07812C305.779 5.28883 305.96 5.56818 306.095 5.91619C306.23 6.2642 306.298 6.69271 306.298 7.2017V7.55682H302.093V6.83239H305.446C305.446 6.52462 305.384 6.25 305.261 6.00852C305.14 5.76705 304.967 5.57647 304.742 5.43679C304.52 5.29711 304.257 5.22727 303.954 5.22727C303.62 5.22727 303.331 5.31013 303.088 5.47585C302.846 5.6392 302.66 5.85227 302.53 6.11506C302.4 6.37784 302.335 6.65956 302.335 6.96023V7.44318C302.335 7.85511 302.406 8.20431 302.548 8.49077C302.692 8.77486 302.892 8.99148 303.148 9.14062C303.404 9.28741 303.701 9.3608 304.039 9.3608C304.259 9.3608 304.458 9.33002 304.636 9.26847C304.816 9.20455 304.971 9.10985 305.101 8.98438C305.231 8.85653 305.332 8.69792 305.403 8.50852L306.213 8.7358C306.127 9.01042 305.984 9.25189 305.783 9.46023C305.582 9.66619 305.333 9.82718 305.037 9.94318C304.741 10.0568 304.409 10.1136 304.039 10.1136ZM308.411 6.71875V10H307.573V4.54545H308.382V5.39773H308.453C308.581 5.12074 308.775 4.8982 309.036 4.73011C309.296 4.55966 309.632 4.47443 310.044 4.47443C310.414 4.47443 310.737 4.55019 311.014 4.7017C311.291 4.85085 311.506 5.07812 311.66 5.38352C311.814 5.68655 311.891 6.07008 311.891 6.53409V10H311.053V6.59091C311.053 6.16241 310.942 5.8286 310.719 5.58949C310.496 5.34801 310.191 5.22727 309.803 5.22727C309.535 5.22727 309.296 5.28527 309.085 5.40128C308.877 5.51728 308.713 5.68655 308.592 5.90909C308.471 6.13163 308.411 6.40152 308.411 6.71875ZM315.027 10.1278C314.682 10.1278 314.368 10.0627 314.086 9.93253C313.805 9.79995 313.581 9.60938 313.415 9.3608C313.249 9.10985 313.167 8.80682 313.167 8.4517C313.167 8.1392 313.228 7.88589 313.351 7.69176C313.474 7.49527 313.639 7.34138 313.845 7.23011C314.051 7.11884 314.278 7.03598 314.527 6.98153C314.778 6.92472 315.03 6.87973 315.283 6.84659C315.615 6.80398 315.883 6.77202 316.089 6.75071C316.298 6.72704 316.449 6.68797 316.544 6.63352C316.641 6.57907 316.689 6.48437 316.689 6.34943V6.32102C316.689 5.97064 316.593 5.69839 316.402 5.50426C316.212 5.31013 315.925 5.21307 315.539 5.21307C315.139 5.21307 314.825 5.30066 314.598 5.47585C314.37 5.65104 314.211 5.83807 314.118 6.03693L313.323 5.75284C313.465 5.4214 313.654 5.16335 313.891 4.97869C314.13 4.79167 314.391 4.66146 314.672 4.58807C314.956 4.51231 315.236 4.47443 315.51 4.47443C315.686 4.47443 315.887 4.49574 316.114 4.53835C316.344 4.5786 316.565 4.66264 316.778 4.79048C316.994 4.91832 317.172 5.11127 317.314 5.36932C317.456 5.62737 317.527 5.97301 317.527 6.40625V10H316.689V9.26136H316.647C316.59 9.37973 316.495 9.50639 316.363 9.64134C316.23 9.77628 316.054 9.8911 315.834 9.9858C315.613 10.0805 315.345 10.1278 315.027 10.1278ZM315.155 9.375C315.487 9.375 315.766 9.3099 315.993 9.17969C316.223 9.04948 316.396 8.88139 316.512 8.67543C316.63 8.46946 316.689 8.25284 316.689 8.02557V7.25852C316.654 7.30114 316.576 7.3402 316.455 7.37571C316.337 7.40885 316.199 7.43845 316.043 7.46449C315.889 7.48816 315.739 7.50947 315.592 7.52841C315.448 7.54498 315.33 7.55919 315.241 7.57102C315.023 7.59943 314.819 7.6456 314.63 7.70952C314.443 7.77107 314.291 7.86458 314.175 7.99006C314.062 8.11316 314.005 8.28125 314.005 8.49432C314.005 8.78551 314.112 9.00568 314.328 9.15483C314.546 9.30161 314.821 9.375 315.155 9.375Z" fill="#575757"/>
</g>
<defs>
<clipPath id="clip0_2205_16708">
<rect width="340" height="12" rx="6" fill="white"/>
</clipPath>
</defs>
</svg>
