<svg width="30" height="30" viewBox="0 0 30 30" fill="none" xmlns="http://www.w3.org/2000/svg">
<path d="M24.2969 6.32812C23.75 7.53906 22.8516 8.63281 22.0703 9.41406C23.3594 9.45312 24.3359 10.1172 24.7656 10.4297C24.9219 10.5469 25 10.7422 25 10.9375C25 11.1719 24.9219 11.3281 24.7656 11.4844C24.3359 11.8359 23.3203 12.5 22.1875 12.5C20.625 12.5 20 11.9141 19.0625 10.9375C18.0859 10 17.5 9.375 17.5 7.8125C17.5 6.67969 18.1641 5.66406 18.5156 5.23438C18.6719 5.07812 18.8281 5 19.0625 5C19.2578 5 19.4531 5.07812 19.5703 5.23438C19.9219 5.70312 20.625 6.75781 20.625 8.125C20.625 8.16406 20.625 8.20312 20.625 8.20312C20.625 8.20312 20.6641 8.16406 20.7031 8.125C21.4062 7.42188 22.1484 6.52344 22.5781 5.58594C22.7734 5.11719 23.3203 4.88281 23.7891 5.07812C24.2578 5.3125 24.4922 5.85938 24.2969 6.32812ZM12.5 9.375C10.1562 9.375 6.875 11.8359 6.875 18.125C6.875 20.4688 7.30469 21.5625 7.85156 22.1484C8.4375 22.6953 9.53125 23.125 11.875 23.125C18.1641 23.125 20.625 19.8438 20.625 17.5C20.625 16.7188 20.3125 15.8984 19.6875 15.3125L14.6875 10.3125C14.1016 9.6875 13.2812 9.375 12.5 9.375ZM12.5 7.5C13.75 7.53906 15.0391 8.00781 16.0156 8.98438L21.0156 13.9844C21.9922 14.9609 22.5 16.25 22.5 17.5C22.5 21.25 18.75 25 11.875 25C6.875 25 5 23.125 5 18.125C5 11.25 8.75 7.5 12.5 7.5ZM12.3828 11.0547C12.6172 11.2891 12.5 11.9141 12.0312 12.3828C11.5625 12.8516 10.9375 12.9688 10.7031 12.7344C10.4688 12.5 10.5859 11.875 11.0547 11.4062C11.5234 10.9375 12.1484 10.8203 12.3828 11.0547ZM14.2188 14.8828C13.75 15.3516 13.125 15.4688 12.8906 15.2344C12.6562 15 12.7734 14.375 13.2422 13.9062C13.7109 13.4375 14.3359 13.3203 14.5703 13.5547C14.8047 13.7891 14.6875 14.4141 14.2188 14.8828ZM12.9688 18.0078C12.5 18.4766 11.875 18.5938 11.6406 18.3594C11.4062 18.125 11.5234 17.5 11.9922 17.0312C12.4609 16.5625 13.0859 16.4453 13.3203 16.6797C13.5547 16.9141 13.4375 17.5391 12.9688 18.0078ZM11.7188 21.1328C11.25 21.6016 10.625 21.7188 10.3906 21.4844C10.1562 21.25 10.2734 20.625 10.7422 20.1562C11.2109 19.6875 11.8359 19.5703 12.0703 19.8047C12.3047 20.0391 12.1875 20.6641 11.7188 21.1328ZM15.5078 18.5547C15.7422 18.7891 15.625 19.4141 15.1562 19.8828C14.6875 20.3516 14.0625 20.4688 13.8281 20.2344C13.5938 20 13.7109 19.375 14.1797 18.9062C14.6484 18.4375 15.2734 18.3203 15.5078 18.5547ZM16.4453 15.4297C16.6797 15.6641 16.5625 16.2891 16.0938 16.7578C15.625 17.2266 15 17.3438 14.7656 17.1094C14.5312 16.875 14.6484 16.25 15.1172 15.7812C15.5859 15.3125 16.2109 15.1953 16.4453 15.4297ZM18.5938 18.9453C18.125 19.4141 17.5 19.5312 17.2656 19.2969C17.0312 19.0625 17.1484 18.4375 17.6172 17.9688C18.0859 17.5 18.7109 17.3828 18.9453 17.6172C19.1797 17.8516 19.0625 18.4766 18.5938 18.9453ZM11.0938 15.8203C10.625 16.2891 10 16.4062 9.76562 16.1719C9.53125 15.9375 9.64844 15.3125 10.1172 14.8438C10.5859 14.375 11.2109 14.2578 11.4453 14.4922C11.6797 14.7266 11.5625 15.3516 11.0938 15.8203ZM10.1953 17.9297C10.4297 18.1641 10.3125 18.7891 9.84375 19.2578C9.375 19.7266 8.75 19.8438 8.51562 19.6094C8.28125 19.375 8.39844 18.75 8.86719 18.2812C9.33594 17.8125 9.96094 17.6953 10.1953 17.9297Z" fill="#131313"/>
</svg>
