<svg width="30" height="30" viewBox="0 0 30 30" fill="none" xmlns="http://www.w3.org/2000/svg">
<path d="M8.4375 5H21.5625C21.7969 5 22.0703 5.11719 22.2266 5.3125C22.4219 5.50781 22.5 5.78125 22.4609 6.05469L21.0547 22.4609C20.9375 23.9062 19.7266 25 18.2812 25H11.7188C10.2344 25 9.02344 23.9062 8.90625 22.4609L7.5 6.05469C7.46094 5.78125 7.53906 5.50781 7.73438 5.3125C7.89062 5.11719 8.16406 5 8.4375 5ZM9.72656 10H20.2734L20.5078 6.875H9.45312L9.72656 10ZM9.88281 11.875L10.7812 22.3047C10.8203 22.7734 11.2109 23.125 11.7188 23.125H18.2812C18.75 23.125 19.1406 22.7734 19.1797 22.3047L20.0781 11.875H9.88281Z" fill="#1C1C1C"/>
</svg>
