<svg width="30" height="30" viewBox="0 0 30 30" fill="none" xmlns="http://www.w3.org/2000/svg">
<path d="M22.5 6.875C21.6016 6.875 20.9375 7.57812 20.9375 8.4375V9.0625H21.5625C22.4219 9.0625 23.125 8.39844 23.125 7.5V6.875H22.5ZM19.1406 7.69531C19.4922 6.17188 20.8594 5 22.5 5H24.0625C24.5703 5 25 5.42969 25 5.9375V7.5C25 9.14062 23.8281 10.5078 22.3047 10.8594C22.8516 11.0938 23.3594 11.4453 23.8281 11.9141L24.4922 12.5781C24.8438 12.9297 24.8438 13.5156 24.4922 13.9062L23.8281 14.5703C23.1641 15.2344 22.3438 15.625 21.4844 15.7812C21.7578 16.1328 21.7188 16.6406 21.4062 16.9922L20.7422 17.6562C20.0781 18.3203 19.2578 18.7109 18.3984 18.8672C18.6719 19.2188 18.6328 19.7266 18.3203 20.0781L17.6562 20.7422C15.9375 22.4609 13.1641 22.4609 11.4453 20.7422L11.0156 20.3125L6.60156 24.7266C6.21094 25.1172 5.625 25.1172 5.27344 24.7266C4.88281 24.375 4.88281 23.7891 5.27344 23.4375L9.6875 18.9844L9.25781 18.5547C7.53906 16.8359 7.53906 14.0625 9.25781 12.3438L9.92188 11.6797C10.2344 11.3672 10.7422 11.3281 11.1328 11.6016C11.2891 10.7422 11.6797 9.92188 12.3438 9.25781L13.0078 8.59375C13.3203 8.28125 13.8672 8.24219 14.2188 8.51562C14.375 7.65625 14.7656 6.83594 15.4297 6.17188L16.0938 5.50781C16.4453 5.15625 17.0703 5.15625 17.4219 5.50781L18.0859 6.17188C18.5547 6.60156 18.9062 7.14844 19.1406 7.69531ZM16.7578 11.0156L17.1484 11.4062C17.9688 10.1953 17.8125 8.55469 16.7578 7.5C15.7812 8.47656 15.7812 10.0391 16.7578 11.0156ZM13.6719 14.1016L14.0625 14.5312C14.8828 13.3203 14.7266 11.6406 13.6719 10.5859C12.6953 11.5625 12.6953 13.125 13.6719 14.1016ZM10.5859 17.2266L10.9766 17.6172C11.7578 16.4062 11.6406 14.7266 10.5859 13.6719C9.60938 14.6484 9.60938 16.25 10.5859 17.2266ZM16.3281 19.4141C15.2344 18.3594 13.5938 18.2031 12.3828 19.0234L12.7734 19.4141C13.75 20.3906 15.3516 20.3906 16.3281 19.4141ZM19.4141 16.3281C18.3594 15.2734 16.6797 15.1172 15.4688 15.9375L15.8594 16.3281C16.8359 17.3047 18.4375 17.3047 19.4141 16.3281ZM22.5 13.2422C21.4453 12.1484 19.8047 12.0312 18.5547 12.8516L18.9844 13.2422C19.9609 14.2188 21.5234 14.2188 22.5 13.2422Z" fill="#1C1C1C"/>
</svg>
