<svg width="30" height="30" viewBox="0 0 30 30" fill="none" xmlns="http://www.w3.org/2000/svg">
<path d="M11.875 7.1875C11.875 6.67969 12.2656 6.25 12.8125 6.25H13.4375C13.9453 6.25 14.375 6.67969 14.375 7.1875C14.375 7.73438 13.9453 8.125 13.4375 8.125H12.8125C12.2656 8.125 11.875 7.73438 11.875 7.1875ZM12.8125 9.0625H13.4375C13.9453 9.0625 14.375 9.49219 14.375 10C14.375 10.5469 13.9453 10.9375 13.4375 10.9375H12.8125C12.2656 10.9375 11.875 10.5469 11.875 10C11.875 9.49219 12.2656 9.0625 12.8125 9.0625ZM7.1875 11.875H7.8125C8.32031 11.875 8.75 12.3047 8.75 12.8125C8.75 13.3594 8.32031 13.75 7.8125 13.75H7.1875C6.64062 13.75 6.25 13.3594 6.25 12.8125C6.25 12.3047 6.64062 11.875 7.1875 11.875ZM10.625 21.4453C10.7031 21.7188 10.9375 21.875 11.25 21.875H18.75C19.0234 21.875 19.2578 21.7188 19.3359 21.4453C19.4922 20.8984 19.8828 20.4688 20.3906 20.2734C21.7578 19.6484 22.7734 18.3984 23.0469 16.875H6.91406C7.1875 18.3984 8.20312 19.6484 9.57031 20.2734C10.0781 20.4688 10.4688 20.9375 10.625 21.4453ZM6.05469 15L23.9062 15.0391C24.4922 15.0391 25 15.5078 25 16.0938C25 18.7109 23.3984 20.9766 21.1328 21.9922C20.8203 23.0078 19.8828 23.75 18.75 23.75H11.25C10.1172 23.75 9.14062 23.0078 8.82812 21.9922C6.5625 20.9766 5 18.7109 5 16.0938C5 15.5078 5.46875 15 6.05469 15ZM13.75 12.8125C13.75 12.3047 14.1406 11.875 14.6875 11.875H15.3125C15.8203 11.875 16.25 12.3047 16.25 12.8125C16.25 13.3594 15.8203 13.75 15.3125 13.75H14.6875C14.1406 13.75 13.75 13.3594 13.75 12.8125ZM10 12.8125C10 12.3047 10.3906 11.875 10.9375 11.875H11.5625C12.0703 11.875 12.5 12.3047 12.5 12.8125C12.5 13.3594 12.0703 13.75 11.5625 13.75H10.9375C10.3906 13.75 10 13.3594 10 12.8125ZM9.0625 9.0625H9.6875C10.1953 9.0625 10.625 9.49219 10.625 10C10.625 10.5469 10.1953 10.9375 9.6875 10.9375H9.0625C8.51562 10.9375 8.125 10.5469 8.125 10C8.125 9.49219 8.51562 9.0625 9.0625 9.0625ZM17.5 12.8125C17.5 12.3047 17.8906 11.875 18.4375 11.875H19.0625C19.5703 11.875 20 12.3047 20 12.8125C20 13.3594 19.5703 13.75 19.0625 13.75H18.4375C17.8906 13.75 17.5 13.3594 17.5 12.8125ZM16.5625 9.0625H17.1875C17.6953 9.0625 18.125 9.49219 18.125 10C18.125 10.5469 17.6953 10.9375 17.1875 10.9375H16.5625C16.0156 10.9375 15.625 10.5469 15.625 10C15.625 9.49219 16.0156 9.0625 16.5625 9.0625ZM21.25 12.8125C21.25 12.3047 21.6406 11.875 22.1875 11.875H22.8125C23.3203 11.875 23.75 12.3047 23.75 12.8125C23.75 13.3594 23.3203 13.75 22.8125 13.75H22.1875C21.6406 13.75 21.25 13.3594 21.25 12.8125ZM20.3125 9.0625H20.9375C21.4453 9.0625 21.875 9.49219 21.875 10C21.875 10.5469 21.4453 10.9375 20.9375 10.9375H20.3125C19.7656 10.9375 19.375 10.5469 19.375 10C19.375 9.49219 19.7656 9.0625 20.3125 9.0625ZM16.5625 6.25H17.1875C17.6953 6.25 18.125 6.67969 18.125 7.1875C18.125 7.73438 17.6953 8.125 17.1875 8.125H16.5625C16.0156 8.125 15.625 7.73438 15.625 7.1875C15.625 6.67969 16.0156 6.25 16.5625 6.25Z" fill="#131313"/>
</svg>
