<svg width="30" height="30" viewBox="0 0 30 30" fill="none" xmlns="http://www.w3.org/2000/svg">
<path d="M3.98438 5.23438L11.2891 10.9375C11.5234 10.3125 11.875 9.72656 12.3438 9.25781L13.0078 8.59375C13.3203 8.28125 13.8672 8.24219 14.2188 8.51562C14.375 7.65625 14.7656 6.83594 15.4297 6.17188L16.0938 5.50781C16.4453 5.11719 17.0703 5.11719 17.4219 5.50781L18.0859 6.17188C18.5547 6.60156 18.9062 7.14844 19.1406 7.69531C19.4922 6.17188 20.8594 5 22.5 5H24.0625C24.5703 5 25 5.42969 25 5.9375V7.5C25 9.14062 23.8281 10.5078 22.3047 10.8594C22.8516 11.1328 23.3594 11.4453 23.8281 11.9141L24.4922 12.5781C24.8438 12.9297 24.8438 13.5156 24.4922 13.9062L23.8281 14.5703C23.1641 15.2344 22.3438 15.625 21.4844 15.7812C21.7578 16.1328 21.7188 16.6406 21.4062 16.9922L20.7422 17.6562C20.5859 17.7734 20.4688 17.8906 20.3125 18.0078L27.1094 23.3594C27.5391 23.6719 27.6172 24.2578 27.2656 24.6484C26.9531 25.0781 26.3672 25.1562 25.9766 24.8047L2.85156 6.67969C2.42188 6.36719 2.34375 5.78125 2.69531 5.39062C3.00781 4.96094 3.59375 4.88281 3.98438 5.23438ZM12.9297 12.2266L14.4922 13.4375C14.7266 12.4609 14.4531 11.3672 13.6719 10.5859C13.2031 11.0547 12.9688 11.6406 12.9297 12.2266ZM17.0312 15.4297L18.75 16.7969C18.9844 16.6797 19.2188 16.5234 19.4141 16.3281C18.75 15.6641 17.8906 15.3516 17.0312 15.4297ZM9.25781 18.5547C7.89062 17.1484 7.61719 15.1172 8.4375 13.4766L9.96094 14.6484C9.6875 15.5469 9.88281 16.5234 10.5859 17.2266L10.9766 17.6172C11.3281 17.0703 11.4844 16.4844 11.4844 15.8594L15 18.6328C14.1406 18.3594 13.1641 18.5156 12.3828 19.0234L12.7734 19.4141C13.7109 20.3516 15.1953 20.3906 16.1719 19.5703L17.6562 20.7422C15.9375 22.4609 13.1641 22.4609 11.4453 20.7422L11.0156 20.3125L6.5625 24.7266C6.21094 25.1172 5.625 25.1172 5.27344 24.7266C4.88281 24.375 4.88281 23.7891 5.27344 23.3984L9.6875 18.9844L9.25781 18.5547ZM22.5 6.875C21.6016 6.875 20.9375 7.57812 20.9375 8.4375V9.0625H21.5625C22.4219 9.0625 23.125 8.39844 23.125 7.5V6.875H22.5ZM16.7578 11.0156L17.1484 11.4062C17.9688 10.1953 17.8125 8.55469 16.7578 7.5C15.7812 8.47656 15.7812 10.0391 16.7578 11.0156ZM22.5 13.2422C21.4453 12.1484 19.7656 12.0312 18.5547 12.8516L18.9844 13.2422C19.9609 14.2188 21.5234 14.2188 22.5 13.2422Z" fill="#131313"/>
</svg>
