<svg width="30" height="30" viewBox="0 0 30 30" fill="none" xmlns="http://www.w3.org/2000/svg">
<path d="M15 6.875C15 6.21094 15.3516 5.625 15.9375 5.27344C16.4844 4.92188 17.2266 4.92188 17.8125 5.27344C18.3594 5.625 18.75 6.21094 18.75 6.875C18.75 7.57812 18.3594 8.16406 17.8125 8.51562C17.2266 8.86719 16.4844 8.86719 15.9375 8.51562C15.3516 8.16406 15 7.57812 15 6.875ZM11.6406 9.25781C12.1875 9.14062 12.7734 9.14062 13.3203 9.25781L17.0312 10.1953C17.7734 10.3906 18.3594 10.9375 18.5938 11.6797L19.375 14.1797C19.4141 14.2969 19.5312 14.375 19.6484 14.375H21.5625C22.0703 14.375 22.5 14.8047 22.5 15.3125C22.5 15.8594 22.0703 16.25 21.5625 16.25H19.6484C18.7109 16.25 17.8516 15.625 17.5781 14.7266L17.3438 14.0234L16.25 17.3047L17.5 18.0078C18.1641 18.3594 18.4375 19.1406 18.2422 19.8438L16.7969 24.375C16.6406 24.8438 16.1328 25.1172 15.625 24.9609C15.1562 24.8438 14.8828 24.2969 15.0391 23.7891L16.3672 19.5312L12.9297 17.5781C11.9922 17.0703 11.6016 15.9766 11.9141 15L13.2031 11.1719L12.8516 11.0938C12.6172 11.0156 12.3438 11.0156 12.1094 11.0938H12.0312C11.7969 11.1719 11.5625 11.2891 11.4062 11.4453L9.64844 12.9297C9.25781 13.2422 8.67188 13.2031 8.32031 12.8125C8.00781 12.4219 8.04688 11.8359 8.4375 11.4844L10.1562 10C10.5859 9.64844 11.0547 9.41406 11.5625 9.25781H11.6406ZM14.5703 16.3672L16.0938 11.875L15.0391 11.6016L13.7109 15.5859C13.6328 15.7422 13.7109 15.8984 13.8281 15.9375L14.5703 16.3672ZM10.2734 19.375L11.0156 17.4219C11.3281 17.9297 11.7578 18.3594 12.3047 18.6719L12.5 18.7891L11.9531 20.2734C11.7188 20.8594 11.1328 21.25 10.4688 21.25H7.1875C6.64062 21.25 6.25 20.8594 6.25 20.3125C6.25 19.8047 6.64062 19.375 7.1875 19.375H10.2734Z" fill="#131313"/>
</svg>
