<svg width="30" height="30" viewBox="0 0 30 30" fill="none" xmlns="http://www.w3.org/2000/svg">
<path d="M23.5938 15.0781C21.6406 17.0312 18.0859 16.6406 15.6641 14.2188C13.2031 11.7578 12.8125 8.20312 14.7656 6.25C16.7188 4.29688 20.2734 4.6875 22.7344 7.14844C25.1562 9.57031 25.5469 13.125 23.5938 15.0781ZM21.7969 13.2812C21.0156 12.3438 20.0391 11.9922 18.8672 11.5625L18.8281 11.5234C17.7734 11.1719 16.4844 10.7031 15.4297 9.57031C15.4297 10.5859 15.8984 11.7969 16.9922 12.8906C18.9062 14.8438 21.1719 14.7266 22.1875 13.8672C22.0703 13.6328 21.9141 13.4375 21.7969 13.2812ZM21.4062 8.47656C19.4531 6.52344 17.1875 6.60156 16.1719 7.5C16.3281 7.73438 16.4453 7.92969 16.6016 8.08594C17.3828 9.02344 18.3203 9.375 19.4922 9.80469H19.5703C20.625 10.1953 21.875 10.625 22.9688 11.7969C22.9297 10.7422 22.5 9.57031 21.4062 8.47656ZM10 22.4219C10.0781 21.2109 9.6875 20.3125 9.14062 19.1797L9.10156 19.1016C8.63281 18.0859 8.04688 16.875 8.08594 15.3125C7.38281 16.0547 6.875 17.2266 6.875 18.75C6.875 21.5234 8.51562 23.0469 9.88281 23.125C9.92188 22.8906 9.96094 22.6562 10 22.4219ZM13.125 18.75C13.125 16.0156 11.4453 14.4922 10.1172 14.4141C10.0391 14.6484 10 14.8828 9.96094 15.0781C9.88281 16.3281 10.3125 17.2266 10.8203 18.3594L10.8594 18.3984C11.3281 19.4531 11.9141 20.6641 11.875 22.2266C12.5781 21.4844 13.125 20.3125 13.125 18.75ZM10 25C7.22656 25 5 22.2266 5 18.75C5 15.3125 7.22656 12.5 10 12.5C12.7344 12.5 15 15.3125 15 18.75C15 22.2266 12.7344 25 10 25Z" fill="#131313"/>
</svg>
