<svg width="30" height="30" viewBox="0 0 30 30" fill="none" xmlns="http://www.w3.org/2000/svg">
<path d="M14.5703 20.625L10.2344 11.9922C9.6875 12.8516 9.375 13.9062 9.375 15C9.375 17.9688 11.6406 20.3906 14.5703 20.625ZM11.6016 10.5078L16.5625 20.4297C17.2266 20.2344 17.8125 19.9219 18.3594 19.4922L13.4375 9.60938C12.7344 9.80469 12.1484 10.1172 11.6016 10.5078ZM15.4297 9.41406L19.7266 18.0469C20.2734 17.1484 20.625 16.1328 20.625 15C20.625 12.0703 18.3203 9.64844 15.4297 9.41406ZM15 7.5C18.4375 7.5 21.3281 9.84375 22.1875 12.9688L25.7812 11.0547C26.2109 10.8594 26.7188 10.9766 26.9922 11.3281C27.2656 11.7188 27.2266 12.2266 26.9141 12.5391L25.7422 13.7109L26.875 14.1406C27.2266 14.2578 27.5 14.6094 27.5 15C27.5 15.3906 27.2266 15.7422 26.875 15.8984L25.7422 16.3281L26.9141 17.4609C27.2266 17.8125 27.2656 18.3203 26.9922 18.7109C26.7188 19.0625 26.2109 19.1797 25.7812 18.9844L22.1875 17.0703C21.3281 20.1953 18.4375 22.5 15 22.5C11.5625 22.5 8.63281 20.1953 7.77344 17.0703L4.17969 18.9844C3.75 19.1797 3.24219 19.0625 2.96875 18.7109C2.69531 18.3203 2.73438 17.8125 3.08594 17.4609L4.21875 16.3281L3.08594 15.8984C2.73438 15.7422 2.5 15.3906 2.5 15C2.5 14.6094 2.73438 14.2578 3.08594 14.1406L4.21875 13.7109L3.08594 12.5391C2.73438 12.2266 2.69531 11.7188 2.96875 11.3281C3.24219 10.9766 3.75 10.8594 4.17969 11.0547L7.77344 12.9688C8.63281 9.84375 11.5625 7.5 15 7.5Z" fill="#131313"/>
</svg>
