<svg width="30" height="31" viewBox="0 0 30 31" fill="none" xmlns="http://www.w3.org/2000/svg">
<path d="M15.1172 7.49036C14.8438 7.56848 14.6094 7.64661 14.375 7.68567V9.59973C15.7031 9.91223 16.6406 10.4591 17.4609 10.8888V10.9279C18.5156 11.5138 19.2578 11.9044 20.625 11.9044C21.6016 11.9044 23.0469 11.7872 24.2188 11.3575C25.3906 10.8888 25.625 10.42 25.625 10.0294C25.625 9.59973 25.2344 8.81848 23.6719 8.03723C22.2266 7.33411 20.3516 6.90442 18.75 6.90442C17.7344 6.90442 16.3672 7.17786 15.1172 7.49036ZM12.5 11.2794V9.40442V6.27942C12.5 6.27942 16.25 5.02942 18.75 5.02942C22.5 5.02942 27.5 6.90442 27.5 10.0294C27.5 13.1544 22.8125 13.7794 20.625 13.7794C18.75 13.7794 17.6562 13.1544 16.5625 12.5294C15.4688 11.9044 14.375 11.2794 12.5 11.2794ZM7.5 8.77942C7.5 7.41223 8.59375 6.27942 10 6.27942H11.25V11.2794H10C8.59375 11.2794 7.5 10.1857 7.5 8.77942ZM10.1172 22.6075C11.3672 22.92 12.7344 23.1544 13.75 23.1544C15.3516 23.1544 17.2266 22.7638 18.6719 22.0607C20.2344 21.2794 20.625 20.4982 20.625 20.0294C20.625 19.6779 20.3906 19.2091 19.2188 18.7404C18.0469 18.3107 16.6016 18.1544 15.625 18.1544C14.2578 18.1544 13.5156 18.5841 12.4609 19.17V19.2091C11.6406 19.6388 10.7031 20.1857 9.375 20.4982V22.4122C9.60938 22.4513 9.84375 22.5294 10.1172 22.6075ZM7.5 18.7794C9.375 18.7794 10.4688 18.1544 11.5625 17.5294C12.6562 16.9044 13.75 16.2794 15.625 16.2794C17.8125 16.2794 22.5 16.9044 22.5 20.0294C22.5 23.1544 17.5 25.0294 13.75 25.0294C11.25 25.0294 7.5 23.7794 7.5 23.7794V20.6544V18.7794ZM2.5 21.2794C2.5 19.9122 3.59375 18.7794 5 18.7794H6.25V23.7794H5C3.59375 23.7794 2.5 22.6857 2.5 21.2794Z" fill="#97BF60"/>
</svg>
