<svg width="31" height="31" viewBox="0 0 31 31" fill="none" xmlns="http://www.w3.org/2000/svg">
<path d="M24.7969 6.85754C24.25 8.06848 23.3516 9.16223 22.5703 9.94348C23.8594 9.98254 24.8359 10.6466 25.2656 10.9591C25.4219 11.0763 25.5 11.2716 25.5 11.4669C25.5 11.7013 25.4219 11.8575 25.2656 12.0138C24.8359 12.3654 23.8203 13.0294 22.6875 13.0294C21.125 13.0294 20.5 12.4435 19.5625 11.4669C18.5859 10.5294 18 9.90442 18 8.34192C18 7.20911 18.6641 6.19348 19.0156 5.76379C19.1719 5.60754 19.3281 5.52942 19.5625 5.52942C19.7578 5.52942 19.9531 5.60754 20.0703 5.76379C20.4219 6.23254 21.125 7.28723 21.125 8.65442C21.125 8.69348 21.125 8.73254 21.125 8.73254C21.125 8.73254 21.1641 8.69348 21.2031 8.65442C21.9062 7.95129 22.6484 7.05286 23.0781 6.11536C23.2734 5.64661 23.8203 5.41223 24.2891 5.60754C24.7578 5.84192 24.9922 6.38879 24.7969 6.85754ZM13 9.90442C10.6562 9.90442 7.375 12.3654 7.375 18.6544C7.375 20.9982 7.80469 22.0919 8.35156 22.6779C8.9375 23.2247 10.0312 23.6544 12.375 23.6544C18.6641 23.6544 21.125 20.3732 21.125 18.0294C21.125 17.2482 20.8125 16.4279 20.1875 15.8419L15.1875 10.8419C14.6016 10.2169 13.7812 9.90442 13 9.90442ZM13 8.02942C14.25 8.06848 15.5391 8.53723 16.5156 9.51379L21.5156 14.5138C22.4922 15.4904 23 16.7794 23 18.0294C23 21.7794 19.25 25.5294 12.375 25.5294C7.375 25.5294 5.5 23.6544 5.5 18.6544C5.5 11.7794 9.25 8.02942 13 8.02942ZM12.8828 11.5841C13.1172 11.8185 13 12.4435 12.5312 12.9122C12.0625 13.381 11.4375 13.4982 11.2031 13.2638C10.9688 13.0294 11.0859 12.4044 11.5547 11.9357C12.0234 11.4669 12.6484 11.3497 12.8828 11.5841ZM14.7188 15.4122C14.25 15.881 13.625 15.9982 13.3906 15.7638C13.1562 15.5294 13.2734 14.9044 13.7422 14.4357C14.2109 13.9669 14.8359 13.8497 15.0703 14.0841C15.3047 14.3185 15.1875 14.9435 14.7188 15.4122ZM13.4688 18.5372C13 19.006 12.375 19.1232 12.1406 18.8888C11.9062 18.6544 12.0234 18.0294 12.4922 17.5607C12.9609 17.0919 13.5859 16.9747 13.8203 17.2091C14.0547 17.4435 13.9375 18.0685 13.4688 18.5372ZM12.2188 21.6622C11.75 22.131 11.125 22.2482 10.8906 22.0138C10.6562 21.7794 10.7734 21.1544 11.2422 20.6857C11.7109 20.2169 12.3359 20.0997 12.5703 20.3341C12.8047 20.5685 12.6875 21.1935 12.2188 21.6622ZM16.0078 19.0841C16.2422 19.3185 16.125 19.9435 15.6562 20.4122C15.1875 20.881 14.5625 20.9982 14.3281 20.7638C14.0938 20.5294 14.2109 19.9044 14.6797 19.4357C15.1484 18.9669 15.7734 18.8497 16.0078 19.0841ZM16.9453 15.9591C17.1797 16.1935 17.0625 16.8185 16.5938 17.2872C16.125 17.756 15.5 17.8732 15.2656 17.6388C15.0312 17.4044 15.1484 16.7794 15.6172 16.3107C16.0859 15.8419 16.7109 15.7247 16.9453 15.9591ZM19.0938 19.4747C18.625 19.9435 18 20.0607 17.7656 19.8263C17.5312 19.5919 17.6484 18.9669 18.1172 18.4982C18.5859 18.0294 19.2109 17.9122 19.4453 18.1466C19.6797 18.381 19.5625 19.006 19.0938 19.4747ZM11.5938 16.3497C11.125 16.8185 10.5 16.9357 10.2656 16.7013C10.0312 16.4669 10.1484 15.8419 10.6172 15.3732C11.0859 14.9044 11.7109 14.7872 11.9453 15.0216C12.1797 15.256 12.0625 15.881 11.5938 16.3497ZM10.6953 18.4591C10.9297 18.6935 10.8125 19.3185 10.3438 19.7872C9.875 20.256 9.25 20.3732 9.01562 20.1388C8.78125 19.9044 8.89844 19.2794 9.36719 18.8107C9.83594 18.3419 10.4609 18.2247 10.6953 18.4591Z" fill="#131313"/>
</svg>
