<svg width="30" height="30" viewBox="0 0 30 30" fill="none" xmlns="http://www.w3.org/2000/svg">
<path d="M15.9375 23.125H18.4375C18.4766 23.125 18.5156 23.1641 18.5547 23.1641C18.9844 23.2031 19.375 23.5938 19.375 24.0625C19.375 24.5703 18.9844 24.9609 18.5547 25C18.5156 25 18.4766 25 18.4375 25H15H11.5625H11.5234C11.4844 25 11.4453 25 11.4062 25C10.9766 24.9609 10.625 24.5703 10.625 24.0625C10.625 23.5938 10.9766 23.2031 11.4062 23.1641C11.4453 23.1641 11.5234 23.125 11.5625 23.125H14.0625V18.6719C12.3047 18.3984 10.8594 17.3047 10.0781 15.8203C9.53125 14.8438 9.25781 13.75 9.375 12.5391L10 5.58594C10.0391 5.27344 10.3125 5 10.625 5H10.9375H19.0625H19.3359C19.6484 5 19.9219 5.27344 19.9609 5.58594L20.5859 12.5391C20.7031 13.75 20.4297 14.8438 19.8828 15.8203C19.1016 17.3047 17.6562 18.3984 15.9375 18.6719V23.125ZM11.7969 6.875L11.5234 10H18.4375L18.1641 6.875H11.7969ZM11.4062 11.875L11.3281 12.9297C11.1328 15.0781 12.8516 16.875 15 16.875C17.1484 16.875 18.8281 15.0781 18.6719 12.9297L18.5938 11.875H11.4062Z" fill="#131313"/>
</svg>
