<svg width="30" height="31" viewBox="0 0 30 31" fill="none" xmlns="http://www.w3.org/2000/svg">
<path d="M7.5 8.96692C7.5 7.79504 8.47656 6.77942 9.6875 6.77942H10.3125C11.4844 6.77942 12.5 7.79504 12.5 8.96692V14.5919H17.5V8.96692C17.5 7.79504 18.4766 6.77942 19.6875 6.77942H20.3125C21.4844 6.77942 22.5 7.79504 22.5 8.96692V9.59192H23.4375C24.6094 9.59192 25.625 10.6075 25.625 11.7794V14.5919H26.5625C27.0703 14.5919 27.5 15.0216 27.5 15.5294C27.5 16.0763 27.0703 16.4669 26.5625 16.4669H25.625V19.2794C25.625 20.4904 24.6094 21.4669 23.4375 21.4669H22.5V22.0919C22.5 23.3029 21.4844 24.2794 20.3125 24.2794H19.6875C18.4766 24.2794 17.5 23.3029 17.5 22.0919V16.4669H12.5V22.0919C12.5 23.3029 11.4844 24.2794 10.3125 24.2794H9.6875C8.47656 24.2794 7.5 23.3029 7.5 22.0919V21.4669H6.5625C5.35156 21.4669 4.375 20.4904 4.375 19.2794V16.4669H3.4375C2.89062 16.4669 2.5 16.0763 2.5 15.5294C2.5 15.0216 2.89062 14.5919 3.4375 14.5919H4.375V11.7794C4.375 10.6075 5.35156 9.59192 6.5625 9.59192H7.5V8.96692ZM9.375 9.59192V10.5294V20.5294V21.4669V22.0919C9.375 22.2872 9.49219 22.4044 9.6875 22.4044H10.3125C10.4688 22.4044 10.625 22.2872 10.625 22.0919V8.96692C10.625 8.81067 10.4688 8.65442 10.3125 8.65442H9.6875C9.49219 8.65442 9.375 8.81067 9.375 8.96692V9.59192ZM7.5 11.4669H6.5625C6.36719 11.4669 6.25 11.6232 6.25 11.7794V19.2794C6.25 19.4747 6.36719 19.5919 6.5625 19.5919H7.5V11.4669ZM20.625 20.5294V10.5294V9.59192V8.96692C20.625 8.81067 20.4688 8.65442 20.3125 8.65442H19.6875C19.4922 8.65442 19.375 8.81067 19.375 8.96692V22.0919C19.375 22.2872 19.4922 22.4044 19.6875 22.4044H20.3125C20.4688 22.4044 20.625 22.2872 20.625 22.0919V21.4669V20.5294ZM23.4375 19.5919C23.5938 19.5919 23.75 19.4747 23.75 19.2794V11.7794C23.75 11.6232 23.5938 11.4669 23.4375 11.4669H22.5V19.5919H23.4375Z" fill="#97BF60"/>
</svg>
