<svg width="22" height="16" viewBox="0 0 22 16" fill="none" xmlns="http://www.w3.org/2000/svg">
<path d="M1.875 11.7793C1.875 12.834 2.69531 13.6543 3.75 13.6543H11.25C12.2656 13.6543 13.125 12.834 13.125 11.7793V2.4043H1.875V11.7793ZM0 1.7793C0 1.11523 0.546875 0.529297 1.25 0.529297H13.75H16.25C18.9844 0.529297 21.25 2.79492 21.25 5.5293C21.25 8.30273 18.9844 10.5293 16.25 10.5293H15V11.7793C15 13.8496 13.3203 15.5293 11.25 15.5293H3.75C1.67969 15.5293 0 13.8496 0 11.7793V1.7793ZM15 8.6543H16.25C17.9688 8.6543 19.375 7.28711 19.375 5.5293C19.375 3.81055 17.9688 2.4043 16.25 2.4043H15V8.6543Z" fill="#97BF60"/>
</svg>
