<?xml version="1.0" standalone="no"?>
<!DOCTYPE svg PUBLIC "-//W3C//DTD SVG 20010904//EN"
 "http://www.w3.org/TR/2001/REC-SVG-20010904/DTD/svg10.dtd">
<svg version="1.0" xmlns="http://www.w3.org/2000/svg"
 width="1417.000000pt" height="1417.000000pt" viewBox="0 0 1417.000000 1417.000000"
 preserveAspectRatio="xMidYMid meet">
<metadata>
Created by potrace 1.16, written by Peter Selinger 2001-2019
</metadata>
<g transform="translate(0.000000,1417.000000) scale(0.100000,-0.100000)"
fill="#000000" stroke="none">
<path d="M9601 12534 c-28 -25 -51 -52 -51 -59 0 -30 -34 -25 -70 10 -36 35
-39 36 -91 29 -84 -11 -114 -49 -181 -233 -33 -91 -73 -105 -147 -52 -54 39
-84 38 -129 -4 -51 -46 -102 -124 -102 -157 0 -14 18 -60 40 -103 l40 -77 -29
-37 c-40 -51 -51 -75 -51 -110 0 -27 6 -33 48 -51 109 -47 133 -72 133 -136 0
-159 -1 -175 -22 -221 -12 -27 -40 -66 -63 -88 -97 -94 -99 -128 -14 -247 21
-28 30 -108 16 -126 -22 -26 -2 -123 41 -205 23 -42 41 -84 41 -91 0 -17 -32
-80 -42 -84 -11 -5 -10 -72 1 -72 5 0 12 -9 16 -20 3 -10 21 -28 40 -40 31
-19 33 -24 28 -58 -3 -20 -5 -44 -5 -52 1 -33 22 -95 41 -121 24 -32 26 -52 8
-71 -31 -32 -78 -123 -88 -170 -11 -47 -9 -56 12 -96 l24 -43 -41 -37 c-22
-20 -67 -59 -98 -86 -100 -86 -167 -211 -168 -312 0 -50 5 -68 27 -103 15 -22
33 -41 39 -41 7 0 31 -14 54 -31 43 -32 75 -33 86 -2 8 21 -9 40 -44 48 -16 3
-47 26 -69 50 -37 40 -41 49 -41 97 0 29 7 64 14 78 8 14 23 41 33 60 18 35
70 92 156 169 80 71 104 125 72 167 -30 40 -11 110 53 195 23 31 42 66 42 78
0 13 -14 54 -30 91 -25 56 -30 80 -28 131 3 61 3 62 -39 99 -24 21 -43 45 -43
54 0 9 11 38 24 64 l24 48 -25 60 c-14 32 -37 91 -51 130 -24 68 -25 75 -12
128 17 70 5 117 -45 176 -51 62 -47 80 42 171 l55 57 15 108 c8 60 12 138 10
174 -5 63 -7 66 -52 107 -26 23 -62 44 -80 47 -18 4 -35 13 -38 20 -6 15 17
66 37 81 37 29 37 50 -4 133 -22 45 -40 93 -40 108 0 46 65 123 104 124 11 0
46 -9 79 -21 106 -38 145 -14 186 109 29 89 71 161 103 178 44 23 75 18 92
-14 8 -15 26 -34 40 -42 34 -18 65 -2 113 57 47 57 72 57 113 -2 20 -29 40
-82 60 -157 38 -148 45 -172 64 -205 8 -15 27 -55 41 -88 15 -33 33 -67 41
-76 16 -18 81 -166 96 -219 5 -19 14 -60 19 -90 43 -259 43 -266 42 -489 -2
-169 -6 -244 -19 -300 -37 -168 -77 -309 -105 -373 -16 -36 -29 -69 -29 -72 0
-4 -16 -29 -35 -57 -19 -28 -35 -56 -35 -63 0 -13 -121 -219 -143 -245 -8 -9
-25 -36 -38 -59 -43 -78 -54 -96 -94 -155 -22 -32 -53 -79 -69 -105 -41 -68
-99 -136 -193 -227 -46 -45 -83 -86 -83 -92 0 -16 -100 -90 -160 -119 -52 -25
-127 -31 -123 -9 5 22 55 152 74 192 27 56 37 117 18 111 -18 -6 -34 -38 -82
-163 -51 -131 -54 -145 -33 -157 9 -5 16 -15 16 -23 0 -19 54 -35 87 -26 55
16 158 71 186 98 15 16 51 55 80 87 28 33 65 71 82 85 54 47 96 95 132 151 20
30 38 57 42 60 7 6 19 24 60 95 16 28 34 55 39 61 6 6 17 24 26 40 9 16 24 41
34 56 91 141 175 287 263 455 21 41 51 113 55 131 1 8 6 21 10 30 8 20 14 39
19 67 2 11 8 33 14 48 6 16 9 32 6 37 -3 5 -1 11 5 15 6 4 8 11 4 16 -3 5 0
26 7 47 15 44 16 48 27 134 11 89 6 506 -6 532 -8 16 -28 130 -38 211 -1 15
-15 68 -21 85 -4 8 -5 20 -4 27 1 6 -3 14 -9 18 -5 3 -10 17 -10 31 0 13 -4
24 -9 24 -5 0 -11 8 -14 18 -15 47 -35 91 -58 127 -53 83 -118 228 -124 278
-11 97 -52 209 -96 261 -5 6 -17 20 -27 32 -32 38 -48 36 -101 -12z"/>
<path d="M9665 12300 c-8 -14 45 -102 59 -97 17 6 9 46 -17 77 -24 31 -33 35
-42 20z"/>
<path d="M9464 12237 c-11 -29 21 -76 119 -178 144 -151 172 -184 212 -258 69
-130 111 -196 125 -196 27 0 22 34 -13 87 -19 29 -56 91 -82 138 -25 47 -57
96 -69 110 -13 14 -27 32 -32 41 -5 10 -46 55 -90 102 -45 47 -96 104 -114
126 -35 43 -47 49 -56 28z"/>
<path d="M9387 12053 c-15 -14 -3 -31 79 -118 46 -49 101 -112 122 -139 20
-26 49 -62 65 -78 15 -16 27 -33 27 -37 0 -4 9 -16 21 -27 11 -10 41 -52 66
-94 26 -41 52 -82 59 -90 30 -38 107 -202 123 -265 23 -87 47 -96 45 -18 -1
41 -15 80 -62 184 -34 72 -75 150 -92 172 -17 23 -48 69 -69 102 -36 55 -195
250 -288 352 -21 23 -48 46 -61 52 -27 13 -27 13 -35 4z"/>
<path d="M9185 12009 c-15 -24 10 -59 102 -139 166 -144 223 -201 301 -302 47
-62 82 -98 93 -98 11 0 19 5 19 10 0 6 -3 10 -8 10 -4 0 -17 21 -29 48 -24 52
-167 216 -265 303 -35 32 -92 84 -127 118 -66 63 -75 68 -86 50z"/>
<path d="M9240 11705 c-19 -23 -3 -48 48 -79 59 -34 157 -130 215 -211 51 -70
72 -89 87 -80 17 10 -34 91 -104 164 -199 208 -226 231 -246 206z"/>
<path d="M6424 11480 c-42 -9 -107 -46 -161 -91 -43 -36 -133 -181 -133 -214
0 -7 -11 -29 -25 -49 -26 -38 -54 -124 -62 -191 -3 -22 -10 -46 -16 -53 -12
-16 -12 -159 1 -175 5 -7 10 -19 10 -27 0 -8 3 -26 6 -40 3 -14 8 -35 10 -47
3 -12 10 -32 17 -45 7 -13 14 -27 15 -33 0 -5 2 -13 4 -17 1 -5 3 -11 4 -15 1
-5 10 -21 20 -38 58 -91 93 -138 127 -169 20 -19 49 -60 63 -90 14 -30 31 -58
36 -61 6 -4 19 -24 30 -46 11 -21 35 -52 53 -68 47 -42 140 -111 152 -112 57
-4 182 -64 214 -103 7 -9 18 -16 23 -16 5 0 28 -13 51 -29 54 -36 157 -69 227
-72 211 -7 198 -9 284 49 43 28 82 52 86 52 13 0 50 51 50 70 0 11 17 37 38
58 54 55 68 89 108 262 30 134 18 312 -31 425 -7 17 -25 62 -40 100 -15 39
-30 75 -34 80 -4 6 -16 32 -26 59 -10 27 -29 65 -42 84 -12 19 -23 38 -23 43
0 14 -265 275 -327 322 -110 82 -201 128 -301 152 -9 3 -43 14 -76 25 -66 24
-261 36 -332 20z m346 -80 c94 -25 155 -50 240 -97 79 -44 246 -188 285 -245
12 -18 36 -43 53 -55 35 -26 99 -130 132 -213 12 -30 28 -68 37 -85 8 -16 31
-77 50 -135 45 -135 54 -255 29 -386 -36 -186 -75 -247 -182 -283 -106 -35
-307 -54 -330 -31 -10 10 -83 41 -199 85 -105 39 -267 148 -379 254 -60 57
-173 220 -254 367 -51 92 -106 300 -106 399 0 157 90 325 216 407 45 28 64 34
133 39 104 7 194 1 275 -21z m-656 -487 c3 -10 12 -54 20 -98 36 -188 66 -265
162 -408 32 -49 71 -106 85 -128 89 -133 325 -317 488 -380 42 -16 88 -36 103
-45 42 -23 129 -51 184 -58 35 -5 79 -1 148 13 55 12 103 21 108 21 25 0 -10
-22 -88 -54 -73 -31 -97 -36 -162 -36 -41 0 -92 5 -111 11 -94 29 -170 64
-238 109 -41 27 -124 68 -184 91 -95 37 -117 50 -172 103 -46 44 -76 85 -109
151 -26 50 -61 104 -78 120 -37 35 -96 121 -126 185 -66 138 -86 282 -58 397
7 27 21 30 28 6z"/>
<path d="M6473 11376 c-49 -10 -94 -37 -167 -98 -40 -33 -96 -146 -78 -157 9
-5 11 -30 7 -87 -5 -71 -3 -85 21 -139 29 -65 38 -93 59 -170 35 -134 79 -214
191 -354 98 -120 180 -199 230 -222 23 -10 47 -26 54 -34 7 -8 16 -15 21 -15
4 0 45 -18 91 -39 46 -21 101 -47 123 -56 164 -69 352 -62 414 17 48 60 74
160 79 303 4 113 1 142 -18 215 -39 146 -103 258 -225 395 -39 44 -89 102
-111 130 -57 73 -60 76 -163 159 -96 79 -202 137 -281 155 -57 13 -179 12
-247 -3z m307 -66 c129 -53 193 -106 183 -150 -7 -36 -40 -125 -73 -200 -15
-36 -34 -86 -40 -112 -7 -27 -16 -48 -21 -48 -7 0 -119 223 -119 237 0 3 -43
70 -96 150 -76 114 -94 147 -83 154 26 17 179 -2 249 -31z m-260 -70 c91 -138
130 -200 130 -208 0 -5 11 -25 24 -45 13 -19 27 -44 31 -56 3 -11 30 -64 60
-118 32 -58 50 -102 45 -107 -6 -5 -33 2 -68 17 -33 15 -69 27 -80 27 -58 0
-270 87 -315 129 -50 46 -57 70 -57 195 l0 115 36 37 c41 40 108 75 139 71 11
-1 35 -26 55 -57z m562 -156 c24 -31 74 -89 112 -128 68 -71 126 -146 126
-165 0 -12 -17 -17 -95 -30 -69 -11 -345 -12 -345 -2 0 15 69 199 99 263 17
37 31 79 31 93 0 41 26 30 72 -31z m-669 -303 c116 -53 138 -61 168 -61 16 0
46 -7 66 -15 19 -8 44 -15 53 -15 19 0 80 -31 80 -41 0 -3 -19 -15 -42 -28
-128 -67 -205 -113 -220 -132 -10 -12 -24 -19 -32 -16 -15 6 -116 206 -116
230 0 8 -7 31 -15 50 -15 38 -19 57 -10 57 3 0 33 -13 68 -29z m980 -113 c54
-126 66 -182 68 -298 1 -121 -4 -157 -34 -241 -27 -74 -53 -96 -127 -109 -54
-8 -171 2 -215 20 -110 44 -248 105 -261 115 -16 11 -16 19 -6 66 6 30 14 121
17 204 4 82 9 153 12 158 6 10 63 -49 63 -63 0 -5 15 -26 33 -49 42 -53 70
-97 125 -201 25 -47 51 -92 57 -100 7 -8 19 -28 28 -45 18 -36 62 -85 77 -85
19 0 10 39 -19 82 -16 24 -49 80 -72 123 -38 72 -100 168 -190 295 -42 59 -71
111 -66 117 6 5 93 -38 187 -93 91 -52 153 -84 165 -84 6 0 44 -20 85 -45 85
-51 113 -57 108 -22 -2 17 -35 38 -159 102 -86 44 -171 89 -190 100 -19 12
-60 31 -91 44 -96 39 -70 52 87 46 111 -5 232 10 255 31 8 8 17 14 21 14 4 0
23 -37 42 -82z m-600 -91 c6 -17 -18 -375 -26 -383 -12 -13 -91 57 -190 168
l-68 77 84 40 c47 21 106 55 132 75 51 39 60 43 68 23z"/>
<path d="M9280 11442 c0 -11 11 -39 25 -63 13 -24 40 -74 59 -110 40 -76 62
-100 72 -75 7 18 -54 144 -91 188 -14 16 -28 40 -31 54 -7 28 -34 33 -34 6z"/>
<path d="M9746 11342 c-8 -14 6 -55 62 -179 82 -181 101 -252 112 -425 0 -15
28 -8 34 8 19 49 -2 167 -54 309 -17 47 -102 243 -119 274 -9 18 -27 25 -35
13z"/>
<path d="M9655 11173 c23 -60 82 -261 96 -328 7 -33 12 -140 13 -237 1 -127 5
-181 14 -190 27 -27 33 9 35 193 1 197 -5 240 -54 399 -37 120 -68 180 -92
180 -14 0 -17 -5 -12 -17z"/>
<path d="M9454 11118 c4 -13 13 -51 21 -85 8 -34 19 -72 25 -84 7 -12 20 -49
30 -83 17 -57 33 -104 50 -151 41 -109 55 -214 52 -395 -1 -85 -3 -177 -4
-205 -2 -39 0 -50 13 -53 13 -2 19 12 30 65 16 85 16 346 0 433 -14 74 -57
235 -71 265 -23 50 -63 161 -81 223 -17 61 -38 92 -62 92 -5 0 -6 -10 -3 -22z"/>
<path d="M9184 11075 c-9 -22 8 -57 65 -135 26 -36 54 -81 61 -100 32 -85 62
-140 77 -140 20 0 13 36 -26 135 -28 69 -122 216 -156 245 -12 10 -16 9 -21
-5z"/>
<path d="M9190 10687 c0 -27 40 -149 69 -210 11 -23 27 -69 37 -102 21 -72 27
-81 44 -60 10 12 10 25 1 62 -12 47 -90 251 -118 306 -17 33 -33 35 -33 4z"/>
<path d="M9420 10647 c0 -7 9 -36 19 -65 11 -30 23 -86 26 -125 3 -40 10 -88
15 -107 5 -19 6 -51 2 -70 -4 -19 -5 -123 -2 -230 4 -164 7 -195 20 -195 18 0
19 14 22 345 1 135 0 256 -4 270 -11 42 -50 154 -59 173 -11 20 -39 23 -39 4z"/>
<path d="M9335 10098 c3 -67 11 -131 17 -141 12 -23 5 -142 -12 -207 -7 -25
-14 -69 -17 -98 -4 -48 -3 -53 13 -50 14 2 22 25 38 108 23 121 25 201 8 355
-15 140 -19 155 -38 155 -14 0 -15 -15 -9 -122z"/>
<path d="M9219 9903 c-6 -15 -15 -62 -19 -103 -13 -123 -57 -327 -79 -368 -17
-32 6 -71 24 -42 7 12 43 131 51 167 2 12 9 34 14 48 35 92 57 314 32 323 -6
2 -17 -9 -23 -25z"/>
<path d="M6026 9002 c-3 -6 -1 -14 5 -17 14 -9 20 -2 10 14 -6 8 -11 9 -15 3z"/>
<path d="M4880 8493 c-25 -8 -50 -19 -56 -24 -8 -6 -26 -3 -50 10 -39 19 -184
29 -184 12 0 -4 -18 -28 -41 -54 -35 -39 -50 -48 -97 -58 -30 -6 -77 -8 -104
-5 -51 7 -76 -1 -116 -38 -23 -20 -23 -25 -17 -123 l7 -102 -31 -27 c-56 -47
-95 -134 -93 -208 1 -27 -32 -76 -43 -64 -3 2 0 18 5 35 24 67 -37 251 -94
288 -20 13 -33 14 -73 6 -84 -18 -107 -25 -155 -54 l-47 -28 -35 39 c-55 60
-152 70 -234 24 -27 -15 -72 -105 -72 -143 0 -24 -21 -60 -57 -97 -7 -7 -13
-22 -13 -32 0 -10 -4 -21 -9 -25 -5 -3 -7 -21 -4 -40 4 -23 2 -35 -6 -35 -6 0
-11 -16 -11 -35 0 -19 4 -35 10 -35 5 0 7 -7 4 -15 -4 -8 -1 -15 5 -15 6 0 11
-13 11 -29 0 -36 -31 -58 -100 -71 -28 -5 -59 -14 -70 -20 -10 -5 -31 -10 -45
-10 -14 0 -35 -5 -46 -10 -10 -6 -40 -15 -66 -20 -61 -13 -59 -12 -118 -34
-93 -34 -200 -80 -216 -93 -8 -7 -21 -13 -27 -13 -7 0 -20 -4 -30 -9 -61 -33
-123 -61 -133 -61 -6 0 -27 -13 -46 -30 -18 -16 -41 -30 -49 -30 -13 0 -137
-75 -189 -115 -10 -8 -22 -15 -26 -15 -3 0 -30 -33 -60 -72 -29 -40 -57 -74
-61 -76 -4 -2 -8 -9 -8 -16 0 -7 -11 -29 -24 -48 -32 -48 -65 -147 -73 -219
-7 -74 15 -156 69 -249 21 -36 38 -68 38 -73 0 -10 53 -88 83 -122 12 -13 35
-40 51 -60 27 -34 176 -115 212 -115 8 0 32 -11 54 -25 22 -14 46 -25 55 -25
8 0 44 -13 78 -30 35 -16 69 -30 75 -30 19 0 145 -53 175 -73 15 -10 33 -20
40 -21 7 -1 18 -5 25 -9 6 -5 12 -5 12 -1 0 3 11 -1 24 -9 30 -20 104 -40 231
-63 55 -10 105 -22 112 -26 6 -5 37 -12 67 -15 48 -5 54 -8 44 -21 -11 -12 -5
-22 35 -58 45 -40 173 -110 220 -118 12 -3 22 -5 22 -6 0 -1 7 -3 15 -5 8 -2
47 -15 85 -29 39 -14 80 -25 92 -26 12 0 24 -4 27 -9 3 -4 25 -13 48 -19 200
-51 537 -121 638 -132 69 -8 104 -15 160 -31 42 -12 291 -24 490 -23 374 1
1211 29 1299 43 40 6 48 5 48 -8 0 -9 -4 -22 -10 -28 -5 -7 -7 -13 -3 -13 4 0
0 -12 -7 -27 -8 -16 -20 -59 -26 -97 -7 -39 -15 -75 -19 -80 -11 -17 -14 -77
-14 -251 0 -170 5 -261 16 -272 3 -3 6 -28 6 -54 0 -26 5 -60 11 -76 13 -32
22 -78 21 -110 0 -13 5 -23 11 -23 6 0 8 -3 4 -6 -3 -3 3 -20 13 -36 10 -17
16 -36 13 -43 -2 -8 7 -33 21 -57 15 -24 38 -68 53 -98 31 -64 102 -159 121
-159 6 -1 12 -5 12 -11 0 -5 16 -20 36 -33 l35 -25 3 -148 c2 -104 8 -163 20
-196 8 -26 17 -62 18 -80 1 -18 6 -39 11 -45 5 -7 7 -20 3 -28 -3 -8 -1 -15 4
-15 6 0 10 -7 10 -15 0 -18 35 -127 55 -170 7 -16 30 -68 50 -115 41 -95 82
-177 100 -200 7 -8 38 -64 70 -125 32 -60 72 -130 88 -155 17 -25 45 -67 63
-94 38 -56 140 -166 154 -166 6 0 18 -13 29 -30 10 -16 20 -28 23 -25 2 2 20
-10 39 -28 19 -17 67 -52 108 -77 40 -25 94 -59 120 -75 60 -39 87 -52 138
-65 23 -6 45 -15 48 -20 3 -6 23 -10 44 -10 21 0 54 -7 74 -15 19 -8 50 -15
69 -17 18 -1 39 -6 47 -12 15 -11 23 -13 105 -21 32 -3 64 -9 69 -12 19 -11
268 -3 361 12 49 8 93 12 97 9 5 -3 42 2 82 10 41 9 94 17 118 20 71 6 163 33
334 99 17 7 42 19 55 28 14 9 34 19 46 23 11 3 49 26 84 51 35 25 70 45 77 45
7 0 13 5 13 10 0 6 6 10 13 10 6 0 37 20 67 45 30 25 80 62 110 84 30 21 93
78 139 126 62 65 86 84 92 74 5 -8 9 -17 9 -20 0 -4 10 -7 23 -7 30 -1 57 -7
90 -21 16 -6 35 -11 43 -11 12 0 14 -167 17 -1202 l2 -1203 3 1203 c1 793 5
1202 12 1202 7 0 10 -407 10 -1200 l0 -1200 30 0 30 0 -2 1200 -3 1200 23 0
22 0 2 -1202 3 -1203 2 1199 c3 1239 2 1215 41 1216 9 0 12 -248 12 -1205 l0
-1205 30 0 30 0 -2 1210 c-2 666 0 1210 5 1210 4 0 7 -544 7 -1210 l0 -1210
25 0 25 0 0 1209 c0 958 -3 1210 -12 1214 -8 3 -6 6 4 6 17 1 18 -65 21 -1216
l2 -1218 3 1218 2 1217 26 10 c14 6 35 9 47 9 17 -1 18 -2 5 -6 -17 -4 -18
-71 -18 -1224 0 -1212 0 -1219 20 -1219 20 0 20 7 20 1229 l0 1229 25 4 c13 3
27 3 30 0 3 -3 5 -558 5 -1234 0 -1085 2 -1228 15 -1228 13 0 15 144 15 1234
0 978 -3 1235 -12 1239 -8 3 -6 6 5 6 16 1 17 -64 17 -1239 0 -1235 0 -1240
20 -1240 20 0 20 5 20 1248 l0 1247 30 13 30 12 0 -1260 0 -1260 35 0 35 0 3
1273 2 1272 3 -1272 c2 -1124 4 -1273 17 -1273 13 0 15 148 15 1269 0 1007 -3
1270 -12 1274 -7 2 8 7 35 11 26 4 59 14 75 22 15 7 37 14 49 14 12 0 24 4 27
9 4 5 24 12 46 16 22 4 42 11 46 16 3 5 10 6 16 3 6 -4 13 -3 17 2 3 5 42 27
86 49 44 22 89 48 99 57 11 10 24 18 28 18 5 0 21 8 36 19 91 63 334 222 402
262 55 33 67 42 125 92 18 15 38 27 43 27 6 0 16 9 22 20 6 11 16 20 24 20 7
0 31 16 53 35 23 19 46 35 52 35 6 0 11 5 11 10 0 6 4 10 10 10 5 0 23 14 38
30 16 17 32 30 36 30 10 0 157 153 182 190 13 19 37 54 54 78 16 23 30 45 30
47 0 2 14 28 31 57 54 91 176 322 184 348 1 3 4 12 7 20 14 41 29 110 33 155
9 102 6 308 -3 314 -6 3 -14 20 -18 36 -4 17 -11 36 -17 43 -5 7 -8 15 -5 18
15 15 -197 225 -241 239 -10 3 -26 14 -36 25 -10 11 -24 20 -32 20 -7 0 -13 4
-13 9 0 9 -67 29 -125 36 -16 2 -52 8 -80 14 -27 5 -97 10 -155 10 -92 0 -144
-4 -300 -22 -76 -9 -151 -29 -196 -53 -46 -24 -54 -25 -173 -21 -70 3 -162 12
-206 21 -86 17 -126 25 -165 31 -14 2 -27 4 -30 5 -3 1 -25 1 -50 0 l-45 -1 0
63 c0 59 2 64 30 83 16 11 32 20 35 20 3 0 16 8 30 17 14 9 46 26 72 38 26 11
50 25 53 30 11 18 89 53 135 62 46 8 75 15 75 18 0 1 7 3 16 5 29 5 61 44 54
66 -7 21 -25 24 -53 10 -22 -12 -230 -47 -262 -44 -13 1 -47 -4 -74 -12 -26
-8 -52 -13 -56 -10 -4 3 -10 -2 -14 -10 -3 -8 -12 -15 -21 -15 -12 0 -15 17
-16 93 -1 50 0 97 1 102 2 6 3 19 2 30 0 11 -1 324 -1 695 -1 527 2 677 12
685 13 11 22 25 81 135 l41 75 1064 -3 c703 -1 1068 1 1075 8 7 7 -344 10
-1061 10 l-1071 0 24 58 23 57 1060 3 c1053 2 1061 2 1061 22 0 20 -7 20
-1061 20 -704 0 -1058 3 -1054 10 4 7 368 10 1061 10 l1054 0 0 35 0 35 -1056
0 c-940 0 -1055 2 -1052 15 3 14 121 15 1056 15 l1052 0 0 55 0 55 -1055 -2
-1054 -3 -23 60 c-12 33 -35 83 -50 112 -15 28 -28 62 -29 75 0 18 -2 20 -7 6
-6 -14 -11 -11 -32 20 -14 20 -30 41 -37 45 -7 4 -13 15 -13 22 0 8 -4 14 -9
12 -17 -4 -70 43 -65 58 4 8 1 15 -5 15 -6 0 -11 -4 -11 -9 0 -5 -10 -4 -22 1
-22 11 -23 15 -20 130 3 101 1 118 -12 118 -14 0 -16 -18 -17 -112 -1 -77 -4
-102 -9 -78 l-7 35 -3 -30 c-2 -25 -3 -26 -7 -7 -5 25 -23 30 -23 7 0 -14 -3
-13 -25 1 -23 15 -25 22 -25 100 0 49 -4 84 -10 84 -6 0 -10 -36 -10 -87 0
-107 -13 -100 -21 10 l-6 82 -1 -77 c-1 -43 -4 -78 -7 -78 -2 0 -19 9 -37 20
-30 18 -34 26 -39 77 l-6 58 -1 -57 c-2 -47 -5 -56 -17 -52 -11 4 -15 21 -15
55 0 42 -3 49 -20 49 -17 0 -20 -7 -20 -41 0 -24 -4 -38 -10 -34 -5 3 -10 22
-10 41 0 24 -5 34 -15 34 -10 0 -15 -10 -15 -30 0 -16 -4 -30 -10 -30 -5 0
-10 14 -10 30 0 23 -4 30 -20 30 -15 0 -20 -7 -21 -27 l-1 -28 -8 30 c-6 24
-8 26 -9 8 -1 -28 -21 -31 -21 -3 0 15 -7 20 -24 20 -14 0 -28 -5 -31 -10 -4
-7 -11 -7 -18 -2 -7 5 -128 10 -271 11 -224 1 -257 -1 -252 -14 4 -11 -2 -15
-19 -15 -16 0 -25 6 -25 15 0 8 -4 15 -10 15 -5 0 -10 -7 -10 -15 0 -8 -4 -15
-10 -15 -5 0 -10 7 -10 15 0 10 -10 15 -29 15 -23 0 -31 -5 -34 -22 l-4 -23
-2 23 c-2 35 -29 27 -34 -10 l-4 -33 -1 33 c-3 44 -20 41 -25 -5 l-4 -38 -1
38 c-1 20 -6 37 -12 37 -5 0 -10 -17 -10 -37 0 -58 -10 -82 -31 -80 -16 1 -19
9 -19 59 0 56 -1 58 -26 58 -25 0 -25 -1 -23 -65 1 -40 -2 -70 -9 -77 -9 -9
-12 6 -12 65 0 61 -3 77 -15 77 -11 0 -15 -18 -18 -77 l-3 -78 -2 78 c-2 69
-4 77 -22 77 -17 0 -20 -8 -23 -87 l-3 -88 -2 88 -2 87 -61 0 -60 0 3 -110 c2
-61 0 -110 -4 -110 -5 0 -8 50 -8 110 0 149 -18 143 -23 -7 l-3 -118 -2 118
c-2 96 -5 117 -17 117 -12 0 -15 -22 -17 -127 l-2 -128 -6 130 -6 130 -4 -129
c-4 -91 -9 -131 -17 -134 -10 -3 -13 27 -13 127 0 81 -4 131 -10 131 -6 0 -10
-50 -10 -129 0 -91 -4 -132 -13 -139 -24 -20 -64 -24 -89 -9 -12 8 -34 18 -48
22 -14 4 -43 15 -65 25 -22 10 -64 23 -94 28 -69 13 -215 5 -260 -14 -55 -23
-61 -19 -61 34 0 31 -7 55 -20 72 -11 14 -20 31 -20 38 0 6 -4 12 -10 12 -5 0
-10 6 -10 13 0 16 -119 167 -132 167 -5 0 -39 14 -76 31 -61 29 -112 46 -197
68 -16 4 -52 6 -80 5 -27 -2 -88 -5 -135 -7 -144 -8 -343 -27 -380 -36 -19 -6
-64 -15 -100 -22 -36 -7 -83 -18 -105 -26 -22 -8 -56 -16 -75 -19 -39 -6 -94
-21 -125 -34 -11 -5 -48 -18 -83 -30 -35 -11 -91 -35 -125 -52 -34 -17 -64
-30 -67 -29 -19 6 -91 -21 -240 -91 -25 -12 -51 -23 -58 -24 -8 -1 -21 -9 -30
-16 -10 -8 -37 -23 -62 -33 -85 -35 -149 -67 -161 -81 -6 -8 -18 -14 -26 -14
-18 0 -135 -51 -143 -61 -3 -4 -19 -11 -35 -15 -17 -4 -50 -18 -74 -31 -54
-28 -71 -29 -71 -3 0 31 -43 93 -87 123 -29 20 -51 27 -87 27 -49 0 -106 29
-106 53 0 7 -13 27 -28 44 l-27 33 -65 -11 c-36 -6 -70 -16 -77 -21 -11 -9
-53 22 -53 40 0 4 -18 26 -40 50 l-39 42 -85 0 c-80 0 -87 -2 -119 -30 -77
-67 -92 -108 -104 -277 -2 -40 -8 -73 -12 -73 -8 0 -57 60 -82 100 -37 60 -62
142 -60 197 2 67 17 98 73 148 42 39 43 40 39 98 l-3 60 37 -7 36 -7 -6 34
c-6 32 -5 35 25 41 43 8 112 7 126 -2 6 -4 14 -24 17 -46 9 -56 32 -85 91
-111 64 -28 79 -46 82 -93 4 -96 38 -109 40 -16 2 86 -18 119 -87 151 -61 28
-79 52 -79 104 0 34 -41 79 -74 80 -12 0 -41 2 -66 4 -25 2 -65 -3 -90 -12z
m-111 -83 c12 -6 16 -25 17 -69 1 -57 -1 -63 -32 -90 -39 -35 -74 -99 -74
-138 0 -61 -8 -69 -73 -83 -121 -24 -127 -24 -217 16 -126 55 -122 50 -127
143 -4 77 -3 80 24 99 22 15 51 20 131 25 l103 5 60 57 60 58 56 -7 c31 -4 63
-11 72 -16z m3306 -131 c109 -36 137 -50 175 -85 56 -53 114 -160 105 -196 -4
-15 -2 -29 4 -33 17 -10 2 -83 -27 -140 -25 -49 -89 -137 -171 -240 -22 -27
-53 -67 -68 -87 -15 -20 -39 -43 -53 -52 -14 -8 -59 -49 -100 -91 -41 -42
-102 -95 -135 -117 -33 -23 -76 -54 -95 -70 -91 -77 -216 -156 -330 -210 -69
-32 -147 -70 -175 -84 -375 -191 -508 -255 -580 -277 -83 -26 -214 -56 -320
-72 -147 -24 -234 -43 -290 -64 -88 -33 -322 -81 -396 -81 -31 0 -94 -6 -140
-14 -46 -8 -118 -13 -159 -12 -41 2 -230 6 -420 10 -421 8 -445 10 -476 41
-76 76 26 121 311 140 98 6 234 25 415 56 63 11 156 25 205 30 139 14 297 52
445 107 41 16 113 41 160 57 47 16 112 41 145 57 33 15 65 28 72 28 20 0 165
72 233 116 36 23 103 63 149 90 96 56 114 83 132 192 11 66 10 73 -14 125 -42
92 -77 100 -252 60 -75 -17 -237 -90 -350 -158 -102 -61 -527 -272 -583 -289
-26 -8 -122 -49 -214 -90 -170 -77 -492 -190 -628 -220 -41 -9 -91 -21 -111
-26 -20 -6 -50 -10 -66 -10 -17 0 -48 -6 -70 -14 -52 -18 -194 -35 -323 -37
-158 -3 -186 -1 -210 19 -21 17 -22 22 -11 53 9 27 25 43 74 71 34 20 85 44
112 53 28 9 68 25 90 35 33 16 269 120 340 150 11 5 52 23 90 40 39 18 102 45
140 60 39 16 108 51 155 79 109 64 271 152 380 206 47 23 153 81 236 128 216
122 287 157 484 238 96 39 180 75 185 79 17 14 277 142 350 172 39 16 111 44
161 62 50 19 100 38 111 45 29 15 173 65 263 91 41 12 86 25 100 30 29 10 233
52 270 55 123 12 275 27 320 34 119 17 216 6 355 -40z m-2904 -189 c10 -6 33
-37 49 -70 26 -52 34 -60 66 -66 22 -4 45 -2 59 6 13 7 40 13 61 14 34 1 41
-3 67 -43 34 -49 85 -76 130 -67 36 7 105 -29 131 -69 29 -44 18 -67 -50 -100
-33 -16 -71 -37 -85 -46 -37 -25 -288 -164 -387 -215 -48 -25 -109 -59 -136
-75 -27 -16 -50 -28 -52 -27 -1 2 -13 51 -25 108 -21 106 -53 204 -72 228 -6
8 -13 54 -15 104 -8 159 34 274 111 308 47 21 118 25 148 10z m-1553 -30 c23
-17 42 -35 42 -42 0 -27 57 -91 101 -113 46 -24 59 -40 59 -74 0 -36 31 -119
47 -125 29 -11 37 10 19 47 -9 19 -16 42 -16 51 0 8 -9 40 -20 70 -15 40 -28
57 -49 66 -37 15 -85 65 -76 79 11 19 77 48 138 61 46 11 62 11 80 1 39 -21
87 -115 87 -171 0 -14 -11 -52 -25 -85 -39 -95 -32 -268 15 -355 10 -19 32
-71 48 -115 26 -73 28 -84 16 -120 -29 -95 -32 -113 -28 -171 6 -85 -4 -92
-102 -75 -41 7 -87 19 -102 26 -15 8 -44 17 -65 20 -42 7 -98 51 -141 113 -14
21 -44 92 -67 158 -22 65 -49 134 -59 151 -31 52 -35 122 -14 223 10 50 21 90
24 90 4 0 24 -26 46 -57 21 -32 63 -84 92 -115 28 -32 52 -65 52 -75 0 -33 50
-68 64 -44 9 14 -53 122 -95 166 -21 22 -64 83 -97 135 -51 83 -68 101 -130
143 l-72 48 15 36 c28 67 50 81 126 82 36 1 55 -6 87 -29z m709 -37 c119 -65
177 -77 246 -48 20 8 48 15 62 15 32 0 72 -38 80 -77 11 -47 46 -105 95 -159
26 -27 51 -64 54 -81 4 -18 14 -37 23 -44 8 -7 20 -25 25 -39 22 -55 77 -264
72 -272 -3 -4 -20 -15 -37 -24 -18 -9 -44 -28 -59 -41 -31 -29 -43 -25 -64 25
-29 71 -90 117 -133 100 -14 -5 -47 -11 -73 -13 -41 -3 -55 1 -106 35 l-59 38
11 58 c14 74 13 196 -3 252 -28 99 -110 148 -236 140 -50 -3 -75 -1 -76 6 -7
66 59 152 118 155 7 1 34 -11 60 -26z m4411 -129 c42 -9 105 -29 140 -46 l63
-30 -64 -71 c-63 -72 -117 -146 -130 -180 -4 -10 -12 -17 -18 -15 -10 3 -21
29 -78 191 -31 87 -47 110 -57 83 -12 -30 4 -99 41 -179 20 -44 34 -81 32 -84
-3 -2 -22 0 -42 6 -39 11 -91 5 -113 -12 -7 -5 -15 -8 -17 -5 -3 3 -7 54 -9
114 -3 60 -9 125 -15 144 -19 62 -17 66 57 83 88 20 118 20 210 1z m-5270 -30
c17 -14 32 -33 32 -43 0 -17 -29 -94 -49 -132 -11 -20 -4 -153 10 -199 6 -19
20 -54 32 -77 11 -24 18 -46 14 -49 -3 -3 -22 7 -41 22 -40 32 -86 125 -86
172 0 24 -6 34 -27 44 -24 11 -29 23 -40 83 -17 93 -1 158 40 163 21 3 27 9
27 29 0 22 3 24 28 18 15 -3 42 -18 60 -31z m872 -48 c44 -16 75 -61 91 -132
10 -46 10 -67 -5 -137 -29 -139 -35 -154 -80 -209 -71 -88 -85 -128 -43 -128
16 0 30 14 52 51 28 48 82 99 104 99 5 0 32 -11 59 -25 54 -27 118 -32 170
-14 27 9 36 8 62 -11 16 -12 30 -26 30 -32 0 -6 7 -19 16 -29 22 -25 14 -41
-32 -63 -22 -11 -47 -23 -56 -27 -10 -5 -26 -9 -35 -9 -10 0 -27 -7 -37 -15
-10 -8 -49 -24 -85 -36 -36 -12 -82 -32 -101 -44 -19 -12 -46 -25 -60 -30 -14
-4 -75 -33 -136 -65 -71 -38 -115 -56 -124 -50 -33 20 -39 202 -9 280 27 71
25 98 -15 189 -57 132 -65 154 -76 218 -12 69 -8 82 41 143 62 76 177 109 269
76z m4675 -76 c8 -16 20 -64 26 -107 17 -121 14 -148 -14 -125 -7 6 -55 16
-107 22 -110 13 -132 18 -128 31 4 12 127 158 162 191 31 31 40 30 61 -12z
m87 -77 c34 -53 53 -120 51 -177 -1 -53 -46 -188 -69 -207 -8 -6 -14 -16 -14
-22 0 -5 -16 -30 -36 -54 -85 -104 -320 -166 -426 -112 -26 13 -51 19 -68 15
l-27 -5 -7 91 c-9 133 -7 350 3 344 5 -3 39 -10 76 -15 37 -6 70 -12 72 -15 3
-3 -2 -18 -12 -33 -10 -15 -39 -90 -65 -166 l-47 -138 38 -25 c47 -29 94 -31
157 -5 26 11 74 30 106 43 45 17 78 42 136 98 102 101 126 161 117 288 -4 48
-9 97 -13 110 -9 32 0 27 28 -15z m182 12 c3 -8 3 -28 0 -43 -4 -19 1 -36 17
-56 21 -27 26 -28 77 -23 52 6 57 4 89 -28 31 -31 46 -85 23 -85 -5 0 -57 -23
-114 -50 -111 -54 -146 -85 -219 -193 -29 -43 -44 -57 -63 -57 -33 0 -31 22 7
78 38 57 84 171 99 248 11 52 10 66 -8 121 -21 67 -19 73 29 92 35 14 56 13
63 -4z m-5943 -175 c4 -8 13 -35 19 -60 15 -56 74 -115 130 -130 28 -8 44 -19
56 -41 15 -30 15 -31 -25 -67 -35 -33 -61 -71 -108 -164 -12 -23 -21 -28 -52
-28 -20 0 -55 -9 -76 -21 -22 -12 -67 -31 -100 -43 -67 -24 -195 -95 -195
-109 0 -5 -14 -22 -30 -39 -105 -104 -91 -270 33 -396 63 -64 161 -139 240
-181 31 -17 74 -41 95 -55 109 -69 284 -127 427 -141 39 -4 78 -12 87 -17 32
-16 247 -54 468 -83 63 -8 142 -19 175 -25 89 -15 304 -29 630 -41 160 -6 362
-14 450 -18 134 -6 1005 2 1267 11 76 3 77 3 59 -17 -19 -22 -27 -34 -102
-145 -28 -41 -64 -86 -82 -100 l-32 -25 -235 -1 c-129 0 -244 -3 -255 -7 -11
-3 -83 -9 -160 -12 -77 -3 -230 -10 -340 -15 -284 -14 -426 -12 -546 6 -57 8
-117 13 -134 11 -16 -2 -68 2 -114 9 -47 8 -132 16 -190 19 -106 5 -165 11
-421 45 -80 11 -217 27 -305 35 -209 21 -334 42 -425 72 -25 8 -74 19 -110 24
-58 7 -147 25 -250 49 -91 21 -179 41 -215 49 -22 4 -94 34 -159 66 -65 32
-133 61 -150 66 -57 15 -142 46 -262 99 -65 28 -136 59 -157 68 -60 25 -137
122 -214 267 l-68 130 1 85 c0 67 6 99 28 155 14 38 34 77 44 86 9 9 28 35 42
58 14 24 38 58 53 76 76 90 408 269 727 391 36 14 143 45 239 69 95 24 176 47
179 50 11 11 55 0 63 -15z m5549 -26 c34 -8 68 -13 77 -10 21 8 63 -4 63 -18
0 -20 -74 -113 -115 -146 l-38 -30 -11 22 c-6 13 -17 41 -25 63 -8 22 -25 56
-37 75 -44 64 -26 73 86 44z m-137 -66 c20 -37 52 -88 72 -112 36 -44 36 -44
13 -51 -13 -4 -54 -23 -91 -41 -70 -35 -133 -44 -154 -23 -9 9 -6 23 11 58 13
25 34 78 47 116 21 63 56 131 64 123 2 -2 19 -33 38 -70z m1029 25 c18 -15 40
-37 48 -48 8 -11 35 -39 60 -62 54 -51 52 -59 -40 -121 -143 -96 -172 -130
-185 -213 -7 -45 -6 -47 36 -81 47 -40 45 -53 -9 -68 -21 -5 -53 -26 -72 -45
-31 -32 -35 -42 -33 -87 0 -27 6 -55 12 -61 19 -19 12 -56 -14 -73 -24 -16
-27 -16 -48 3 -12 11 -39 30 -59 42 -21 13 -38 25 -38 28 0 3 13 33 30 67 34
70 60 164 60 217 0 46 -24 90 -65 118 -36 25 -161 66 -229 76 -33 5 -46 12
-46 24 0 22 35 77 68 107 33 30 158 95 227 118 27 10 55 22 62 28 19 15 144
57 175 57 15 1 41 -11 60 -26z m278 -227 c95 -40 170 -94 258 -186 134 -138
150 -174 132 -302 -21 -154 -90 -253 -250 -356 -199 -128 -208 -132 -455 -239
-43 -19 -84 -38 -90 -42 -16 -12 -172 -61 -194 -61 -11 0 -23 -4 -26 -10 -10
-16 -35 -12 -66 13 -16 12 -58 45 -93 72 -84 65 -95 82 -61 95 16 6 25 17 25
30 0 38 20 60 83 91 71 37 86 52 87 94 0 23 -9 38 -41 66 -53 45 -48 72 18
100 55 23 75 19 109 -27 17 -22 35 -34 51 -34 33 0 80 26 93 51 15 27 15 98 1
112 -14 14 -14 52 -1 77 5 10 36 28 67 40 67 25 82 36 94 68 11 29 -3 58 -33
68 -34 10 -58 34 -58 59 0 36 54 99 126 147 38 25 82 60 98 77 17 17 33 31 37
31 4 0 44 -15 89 -34z m-6451 -80 c66 -88 104 -120 168 -140 32 -10 70 -24 84
-32 31 -16 87 -26 160 -28 50 -1 54 -3 57 -27 3 -22 -2 -28 -25 -34 -41 -10
-143 -58 -143 -67 0 -4 -15 -15 -32 -24 -52 -26 -76 -53 -93 -105 -19 -56 -24
-58 -108 -27 -117 43 -188 140 -217 296 -10 58 -9 64 15 109 14 26 25 52 25
58 0 19 40 75 54 75 7 0 32 -24 55 -54z m5479 -50 c15 -8 59 -24 98 -35 91
-26 133 -62 144 -122 16 -83 -24 -183 -117 -297 -51 -63 -210 -164 -338 -217
-97 -39 -116 -44 -160 -39 -81 10 -81 12 -18 97 68 90 152 215 173 257 21 42
30 37 31 -17 1 -89 9 -204 14 -214 4 -5 14 -9 24 -9 25 0 30 35 20 128 -13
118 -21 112 141 112 132 0 139 1 145 21 4 12 2 26 -4 32 -13 13 -185 10 -250
-4 -24 -5 -46 -7 -50 -4 -3 4 31 41 75 83 153 146 208 240 96 165 -45 -31
-212 -208 -212 -226 0 -7 -4 -6 -10 3 -5 8 -10 52 -10 98 0 65 -3 82 -15 82
-34 0 -44 -67 -24 -160 6 -28 8 -54 5 -57 -3 -3 -24 11 -47 31 -24 20 -48 36
-54 36 -6 0 -30 9 -54 21 l-42 20 -42 -37 c-104 -92 -207 -214 -207 -245 0
-23 -16 -25 -24 -2 -6 14 -11 12 -35 -11 -16 -16 -32 -43 -35 -62 -4 -18 -11
-36 -17 -40 -44 -27 8 104 73 186 51 64 147 153 240 223 71 55 357 197 394
197 10 0 26 5 34 10 20 13 27 12 58 -4z m-491 -37 c24 -10 61 -19 83 -19 45 0
53 -16 15 -30 -45 -17 -139 -81 -192 -131 -43 -41 -73 -60 -73 -46 0 1 16 38
35 82 19 44 38 101 41 128 7 53 9 54 91 16z m789 -14 c28 -12 61 -35 73 -51
20 -25 22 -36 17 -84 -7 -55 -27 -124 -48 -164 -6 -11 -52 -65 -102 -119 -98
-106 -209 -188 -345 -257 -69 -34 -85 -39 -103 -29 -20 11 -19 13 23 28 101
39 261 141 329 211 55 56 135 189 148 246 19 85 -20 208 -77 245 -25 15 25 0
85 -26z m-5965 -135 c24 -97 74 -190 120 -223 53 -38 50 -51 -8 -42 -118 16
-133 13 -172 -33 -38 -46 -43 -72 -44 -269 0 -40 -2 -73 -4 -73 -9 0 -100 56
-158 97 -120 84 -171 147 -196 247 -10 39 -9 54 5 89 17 46 84 122 131 150 17
9 46 27 65 40 40 25 207 86 230 84 10 -2 21 -25 31 -67z m7542 -1308 c8 -11 9
-14 0 -9 -6 4 -18 21 -27 37 -8 17 -10 28 -5 25 5 -4 10 233 11 612 l3 618 2
-634 c3 -487 6 -638 16 -649z m-2300 1224 c3 -8 33 -24 66 -37 34 -13 61 -27
61 -31 0 -4 -19 -12 -42 -19 -24 -6 -47 -14 -53 -18 -5 -4 -32 -16 -60 -26
-27 -10 -78 -33 -113 -52 -35 -18 -66 -33 -68 -33 -12 0 -1 21 24 46 15 16 52
58 82 94 76 92 92 104 103 76z m-1139 -130 c-3 -50 -12 -111 -20 -136 -9 -25
-22 -81 -30 -125 -7 -44 -21 -105 -29 -135 -16 -54 -15 -121 0 -169 6 -18 5
-23 -6 -19 -31 10 -81 151 -103 290 -15 91 -15 98 4 156 11 34 40 101 65 151
35 68 52 92 73 99 43 15 52 -5 46 -112z m3348 -450 c-2 -532 -1 -565 15 -569
10 -3 3 -5 -14 -6 l-33 -1 0 560 c0 522 1 560 18 569 9 6 17 11 17 11 0 0 -1
-254 -3 -564z m-42 -26 c0 -367 -3 -560 -10 -560 -11 0 -15 1102 -3 1113 3 4
8 7 10 7 2 0 3 -252 3 -560z m-71 -568 c-9 -15 -10 -15 -5 1 3 10 7 258 8 550
l3 532 2 -533 c2 -371 0 -539 -8 -550z m-48 -76 c-10 -12 -26 -41 -35 -66 -14
-38 -16 -40 -11 -11 3 18 5 287 5 597 0 369 3 564 10 564 7 0 10 -189 10 -546
0 -485 2 -545 15 -534 13 11 15 88 17 569 l3 556 2 -554 c3 -534 2 -555 -16
-575z m-1990 1032 c-27 -40 -66 -92 -87 -116 l-39 -43 -94 21 c-52 11 -110 20
-128 20 -46 0 -35 13 34 40 32 13 83 37 113 54 72 40 199 93 227 95 20 1 18
-5 -26 -71z m1923 -1188 c4 25 10 41 12 35 2 -5 -5 -44 -15 -85 l-19 -75 1
665 2 665 5 -625 c3 -390 8 -608 14 -580z m-37 -217 c-10 -43 -24 -42 -45 5
-16 35 -17 92 -12 702 l5 665 5 -680 5 -680 5 685 5 685 5 -705 5 -705 3 711
c1 391 5 714 10 718 10 10 19 -1361 9 -1401z m-7038 1386 c61 -8 90 -8 108 0
19 9 30 8 52 -4 28 -14 29 -16 34 -117 3 -57 11 -160 17 -231 7 -70 10 -130 7
-133 -6 -7 -62 5 -212 44 -84 22 -107 33 -143 66 -63 58 -76 88 -67 155 4 31
8 86 10 123 2 57 6 71 26 88 28 23 55 24 168 9z m4656 -66 c-4 -10 -9 -25 -12
-35 -5 -15 -31 -28 -63 -28 -8 0 2 16 25 40 41 42 62 52 50 23z m2289 -1212
c7 -9 16 -23 21 -31 4 -8 -5 0 -21 18 l-29 34 5 596 5 597 3 -599 c2 -484 5
-603 16 -615z m-1193 1147 c47 -38 45 -41 -53 -97 -50 -30 -64 -43 -72 -71 -5
-19 -15 -38 -20 -42 -17 -12 -63 -9 -74 5 -6 6 -33 21 -61 31 -27 11 -48 23
-46 26 2 4 33 21 69 39 35 18 95 57 132 87 37 30 72 54 76 54 5 0 27 -14 49
-32z m1108 -505 l-1 -518 -24 50 c-13 28 -24 59 -24 70 0 12 -4 25 -10 31 -16
16 -28 103 -19 142 6 27 4 43 -6 59 -12 18 -15 75 -13 325 l3 303 5 -310 5
-310 3 312 c1 192 6 314 12 318 6 4 11 -141 13 -417 l2 -423 3 431 c1 335 5
433 15 437 9 3 11 -94 9 -470 -1 -299 1 -480 8 -491 6 -11 9 148 10 481 0 273
2 497 5 497 3 0 5 -233 4 -517z m-1985 469 c3 -4 -16 -22 -42 -40 -26 -17 -81
-54 -122 -83 -93 -63 -121 -75 -238 -104 -51 -13 -99 -28 -106 -34 -6 -5 -27
-10 -46 -11 -47 -1 -171 33 -167 45 5 15 94 73 157 102 90 41 321 116 380 123
81 10 178 11 184 2z m94 -64 c7 -7 29 -14 50 -15 114 -7 390 -85 479 -135 28
-16 71 -46 95 -66 23 -21 72 -61 108 -90 36 -29 75 -65 88 -80 102 -122 142
-194 188 -335 26 -82 27 -90 11 -98 -23 -13 -21 -36 3 -49 32 -17 24 -32 -13
-25 -38 7 -282 -39 -305 -57 -13 -12 -45 -22 -138 -47 -18 -5 -46 -16 -64 -25
-33 -16 -80 -22 -80 -9 0 4 10 27 22 52 29 61 36 140 13 174 -24 37 -50 42
-81 18 -15 -12 -32 -21 -39 -21 -22 0 -62 -39 -100 -97 -21 -32 -55 -80 -75
-108 -21 -27 -41 -61 -45 -75 -4 -14 -19 -47 -33 -75 -26 -53 -36 -155 -19
-203 l9 -24 -39 20 c-83 44 -267 102 -321 102 -13 0 -32 5 -42 10 -32 17 -301
24 -388 10 -87 -13 -171 -35 -220 -56 -18 -8 -45 -14 -61 -14 -16 0 -34 -7
-41 -16 -18 -21 6 -44 65 -64 60 -20 61 -35 3 -37 -26 -1 -62 -8 -80 -16 -18
-9 -55 -25 -81 -36 -176 -75 -439 -413 -487 -625 -5 -25 -17 -63 -25 -83 -14
-37 -31 -133 -42 -241 -3 -29 -9 -55 -14 -58 -24 -14 -150 128 -196 221 -46
91 -106 291 -123 407 -16 107 -26 350 -19 428 17 170 67 358 128 478 30 60 43
72 56 52 3 -5 16 -10 29 -10 20 0 69 54 102 115 19 35 73 63 132 71 35 4 80
20 119 41 35 19 63 33 63 30 0 -8 -98 -209 -145 -297 -25 -47 -52 -109 -61
-139 -16 -52 -15 -55 2 -68 10 -7 22 -13 27 -13 5 0 41 31 80 69 98 95 183
163 237 190 85 43 108 68 160 171 65 130 90 197 90 242 0 43 14 56 38 35 9 -8
42 -23 72 -33 56 -19 100 -21 335 -13 99 4 116 2 165 -20 66 -29 145 -51 183
-51 23 0 27 4 27 29 0 22 -12 40 -45 72 -25 24 -52 47 -60 52 -28 15 -15 25
53 37 37 6 106 24 153 40 47 16 132 36 190 43 l104 13 0 29 c0 25 -8 33 -69
66 -38 20 -89 40 -113 44 -24 3 -69 13 -99 21 -30 7 -75 15 -100 16 -57 2 -64
13 -22 34 18 9 48 30 67 47 58 50 115 69 139 45z m1725 -653 c-9 -32 -11 26
-12 301 -1 187 2 344 7 348 13 13 18 -604 5 -649z m-29 244 c-1 -214 -5 -393
-8 -396 -3 -4 -6 169 -6 384 0 325 3 403 14 403 1 0 0 -176 0 -391z m-47 -346
c-1 -131 -2 -24 -2 237 0 261 1 368 2 238 2 -131 2 -345 0 -475z m-17 241 c0
-301 -3 -453 -10 -449 -6 4 -10 165 -10 449 0 391 2 456 17 456 2 0 3 -205 3
-456z m-118 -11 c2 -210 0 -379 -4 -375 -4 4 -9 179 -10 389 -2 210 0 379 4
375 4 -4 9 -179 10 -389z m-30 -121 c2 -133 0 -242 -4 -242 -5 0 -7 168 -6
373 1 204 4 314 5 242 2 -71 4 -239 5 -373z m-39 -213 c-5 -5 -6 150 -3 344
l5 352 3 -344 c1 -190 -1 -348 -5 -352z m-1598 671 c28 -5 75 -13 105 -18 85
-15 143 -33 134 -41 -5 -5 -51 -14 -101 -21 -51 -7 -98 -19 -104 -26 -6 -8
-21 -14 -33 -14 -11 0 -41 -7 -66 -16 -24 -8 -78 -19 -119 -24 -71 -8 -78 -7
-131 21 -30 15 -66 37 -80 49 -33 26 -19 35 75 51 38 6 75 15 81 20 13 10 105
26 154 27 19 0 58 -3 85 -8z m1575 -330 c0 -319 -1 -339 -17 -333 -10 4 -21
10 -24 15 -3 5 -29 11 -57 13 -28 3 -70 9 -94 14 -24 4 -56 8 -73 7 -46 -3
-63 10 -79 62 -8 26 -22 65 -31 86 -9 22 -19 48 -20 58 -4 19 -66 119 -106
171 -12 15 -20 29 -18 31 17 11 92 37 124 42 22 4 56 14 75 24 19 10 73 35
120 56 47 21 110 51 140 66 30 15 56 28 58 28 1 0 2 -153 2 -340z m-2196 280
c20 -7 26 -16 26 -41 0 -28 2 -31 23 -24 77 24 93 20 172 -40 33 -24 80 -51
104 -60 58 -19 161 -98 147 -112 -2 -3 -31 7 -63 22 -99 46 -146 56 -226 50
-39 -3 -87 -9 -106 -13 -51 -11 -176 4 -225 26 -24 12 -54 37 -70 60 -54 79
-80 65 -77 -40 2 -86 -22 -164 -93 -304 -48 -95 -79 -125 -156 -158 -20 -8
-56 -33 -80 -56 -25 -23 -57 -50 -72 -61 -43 -31 -36 -4 23 103 29 51 64 120
79 153 31 67 137 239 185 300 18 22 44 61 59 87 18 31 37 50 58 57 18 6 40 19
50 28 32 29 188 44 242 23z m-424 -90 c0 -6 -50 -66 -111 -133 -116 -128 -199
-193 -259 -203 -28 -4 -94 -25 -132 -42 -43 -19 95 164 176 232 35 31 96 65
177 101 127 56 149 63 149 45z m2960 -234 c0 -3 -4 -8 -10 -11 -5 -3 -10 -1
-10 4 0 6 5 11 10 11 6 0 10 -2 10 -4z m600 -208 c27 -29 35 -64 20 -83 -27
-32 -190 -51 -190 -21 0 28 47 82 90 104 54 27 54 27 80 0z m-566 -98 c30 -83
44 -110 127 -232 30 -46 63 -103 72 -128 17 -43 17 -45 -7 -80 -29 -44 -21
-66 19 -56 36 9 89 62 81 81 -3 9 8 52 24 98 16 45 36 120 45 166 8 47 17 87
20 89 2 3 11 -1 19 -8 16 -13 107 -10 139 4 32 15 19 -20 -35 -91 -29 -38 -68
-90 -86 -116 -53 -75 -77 -181 -52 -228 19 -34 35 -21 47 39 17 82 22 104 25
107 12 12 163 100 203 119 71 33 197 68 208 57 11 -11 -13 -27 -166 -108 -70
-36 -129 -76 -159 -106 -42 -42 -48 -53 -48 -90 0 -41 -2 -43 -49 -65 -32 -14
-68 -22 -105 -22 -31 0 -56 -3 -56 -7 1 -24 25 -35 103 -47 84 -14 184 -53
208 -82 9 -12 6 -14 -20 -14 -27 0 -32 -3 -29 -21 2 -16 17 -26 61 -39 74 -23
78 -27 116 -107 26 -54 91 -226 91 -240 0 -10 -62 30 -67 43 -5 13 -146 124
-157 124 -3 0 -16 10 -30 23 -30 27 -70 48 -165 84 -62 23 -78 34 -99 68 -14
22 -41 59 -61 82 -19 24 -40 57 -45 75 -25 75 -146 98 -483 92 -111 -2 -193 0
-193 6 0 13 99 57 167 75 67 18 298 35 364 28 34 -4 50 -1 62 11 35 36 -3 52
-169 71 -69 9 -129 45 -264 163 -189 166 -184 162 -223 162 -41 0 -67 8 -67
21 0 15 72 10 142 -10 121 -35 275 -123 378 -217 92 -84 117 -97 140 -69 9 11
6 27 -19 79 -45 95 -73 244 -55 291 10 24 19 9 48 -75z m-1383 18 c3 -36 -4
-83 -17 -114 -15 -36 -72 -122 -107 -161 -11 -12 -25 -31 -31 -42 -6 -10 -27
-47 -48 -82 -20 -35 -41 -90 -48 -121 -12 -60 -22 -68 -55 -45 -12 9 -14 16
-7 21 7 4 9 28 6 69 -5 53 -2 72 23 133 39 95 92 186 148 257 60 76 133 121
136 85z m1276 -20 c-3 -7 -5 -2 -5 12 0 14 2 19 5 13 2 -7 2 -19 0 -25z m734
-76 c-6 -12 -11 -43 -11 -70 0 -48 -1 -50 -51 -81 -73 -45 -83 -39 -35 24 15
19 15 19 9 -4 -3 -13 -2 -22 3 -20 62 29 64 31 64 78 l0 46 -20 -32 c-11 -18
-22 -33 -25 -33 -2 0 5 15 16 33 11 17 28 44 37 59 19 30 29 30 13 0z m-726
-40 c0 -24 4 -36 13 -34 6 1 12 -2 12 -8 0 -13 -6 -13 -28 1 -13 8 -16 21 -14
51 5 48 17 40 17 -10z m-421 2 c34 -21 95 -70 137 -109 42 -40 97 -85 123
-100 58 -34 61 -55 6 -55 -43 0 -171 -36 -210 -59 -37 -21 -98 -50 -131 -60
-47 -15 -73 -43 -64 -70 7 -25 16 -25 400 -26 286 0 335 -10 376 -72 134 -202
152 -221 226 -242 36 -10 196 -99 258 -144 48 -34 163 -131 246 -207 49 -44
63 -52 77 -44 28 18 25 36 -19 108 -23 38 -55 109 -70 156 -16 48 -42 117 -59
155 -36 80 -36 85 -7 85 24 0 133 30 183 51 30 12 34 11 61 -17 60 -61 168
-230 207 -324 73 -175 109 -517 72 -690 -8 -36 -17 -92 -21 -125 -15 -125
-124 -368 -263 -590 -70 -111 -250 -257 -437 -355 -55 -29 -104 -56 -110 -60
-5 -4 -26 -10 -45 -14 -19 -3 -66 -13 -105 -22 -38 -8 -92 -19 -120 -24 -27
-5 -77 -14 -110 -20 -63 -12 -165 -8 -250 10 -27 6 -58 12 -67 13 -10 1 -18 3
-18 4 0 2 19 27 43 56 47 58 139 205 158 253 21 53 71 258 85 349 8 50 14 142
15 205 0 99 -4 125 -26 190 -15 41 -33 113 -42 159 -11 65 -29 113 -79 215
-134 271 -231 426 -291 466 -21 13 -54 37 -73 52 -19 14 -71 43 -115 63 -44
20 -93 42 -108 50 -16 8 -33 15 -39 15 -6 0 -44 16 -84 35 -40 19 -79 35 -87
35 -8 0 -43 9 -77 20 -84 27 -210 27 -210 0 0 -11 75 -40 103 -40 43 0 96 -26
144 -70 27 -25 78 -65 113 -90 78 -54 206 -179 282 -275 124 -155 173 -291
213 -595 31 -227 5 -396 -84 -560 -22 -41 -67 -129 -100 -195 -33 -66 -71
-137 -85 -158 -14 -20 -37 -61 -50 -90 -71 -149 -265 -338 -444 -433 -25 -13
-50 -28 -56 -32 -10 -8 -83 -40 -236 -102 -125 -51 -150 -60 -177 -60 -15 0
-50 -7 -78 -16 -78 -25 -424 -25 -580 -1 -66 10 -130 19 -143 19 -13 0 -55 18
-95 40 -40 22 -96 53 -125 69 -29 16 -76 47 -103 69 -28 22 -54 40 -57 40 -15
1 -171 159 -228 230 -60 74 -100 139 -157 255 -16 33 -45 81 -63 106 -19 26
-34 51 -34 57 0 6 -14 37 -31 69 -129 246 -236 698 -200 842 22 86 60 272 71
345 4 28 14 71 23 96 8 25 21 63 27 85 32 111 193 343 306 441 108 93 178 127
314 149 80 13 86 13 130 -6 72 -33 148 -58 260 -85 91 -23 118 -25 203 -19 54
3 110 10 123 16 14 5 40 9 59 9 19 0 45 4 59 10 14 5 26 6 26 2 0 -4 7 -113
14 -242 11 -183 12 -246 3 -287 -7 -28 -15 -55 -20 -59 -4 -4 -7 -18 -7 -30 0
-13 -4 -26 -10 -29 -18 -11 -12 -47 7 -43 21 4 43 46 73 140 20 60 21 80 16
215 -3 81 -10 186 -17 233 -17 125 -17 122 14 133 25 8 33 5 60 -21 18 -17 70
-54 116 -82 123 -76 203 -84 357 -35 39 13 96 33 125 46 67 28 234 141 274
185 17 19 57 49 90 67 48 26 60 38 60 57 0 21 -4 25 -30 24 -52 -2 -128 -15
-180 -30 -27 -8 -68 -14 -90 -13 -22 0 -87 -2 -145 -5 -276 -15 -257 -13 -370
-55 -30 -12 -58 -21 -62 -21 -16 0 -7 27 39 119 52 103 97 146 181 177 26 9
92 33 147 54 194 72 309 95 509 99 l119 2 61 -37z m1136 -326 l-4 -63 -6 50
-5 49 -32 -41 c-38 -47 -39 -50 -15 -56 9 -3 5 -4 -10 -4 -16 1 -28 4 -28 8 0
5 99 119 104 119 1 0 -1 -28 -4 -62z m-2900 2 c52 -5 120 -13 150 -18 30 -6
87 -15 125 -22 39 -7 88 -21 109 -32 22 -11 61 -27 88 -35 27 -8 48 -19 46
-25 -7 -21 -144 -52 -344 -80 -74 -10 -90 -9 -165 11 -165 43 -194 51 -224 65
-16 7 -65 25 -107 41 -108 38 -106 42 29 79 94 26 144 29 293 16z m1420 -49
c0 -17 -154 -132 -228 -170 -71 -36 -232 -83 -306 -88 -66 -5 -77 -3 -136 26
-74 37 -150 96 -150 117 0 26 28 14 39 -16 5 -16 14 -30 20 -30 20 0 41 13 41
25 0 43 207 105 350 105 97 0 283 18 312 30 30 12 58 12 58 1z m1685 -96 c55
-9 127 -20 159 -24 33 -3 61 -11 63 -16 3 -11 -166 -96 -227 -115 -23 -6 -53
-7 -85 -1 -40 7 -56 18 -94 59 -25 28 -68 62 -96 76 -33 16 -45 26 -35 30 53
19 172 15 315 -9z m-1550 -365 c11 -5 60 -27 109 -50 206 -94 269 -169 460
-545 59 -118 77 -163 82 -210 4 -33 20 -96 35 -139 27 -74 29 -91 29 -220 0
-132 -24 -322 -45 -355 -4 -7 -14 -40 -21 -74 -14 -57 -88 -224 -107 -238 -4
-3 -22 -26 -40 -52 -51 -72 -153 -193 -199 -235 -135 -123 -404 -302 -548
-365 -114 -49 -252 -94 -340 -109 -58 -10 -240 -20 -205 -12 11 3 34 11 50 19
40 18 156 62 231 89 34 12 68 27 75 33 8 6 37 22 66 37 86 43 249 162 303 222
125 138 191 238 310 469 36 72 72 139 78 150 68 123 113 242 137 362 14 71 15
102 5 220 -31 379 -83 535 -244 732 -117 143 -172 197 -263 257 -46 29 -83 55
-83 58 0 4 87 -26 125 -44z m1305 -1990 c-8 -5 -19 -10 -25 -10 -5 0 -3 5 5
10 8 5 20 10 25 10 6 0 3 -5 -5 -10z"/>
<path d="M7040 8073 c-192 -31 -422 -135 -383 -174 7 -7 28 -3 69 14 95 39
201 74 319 103 61 15 125 35 142 44 l33 17 -38 7 c-20 3 -41 5 -47 5 -5 -1
-48 -8 -95 -16z"/>
<path d="M7510 7917 c-19 -13 -71 -39 -116 -59 -78 -33 -223 -130 -291 -194
-36 -34 -36 -64 -1 -64 10 0 61 33 112 74 109 87 160 120 200 130 72 18 196
136 143 136 -7 0 -28 -11 -47 -23z"/>
<path d="M7103 7904 c-18 -7 -63 -19 -102 -24 -103 -16 -196 -52 -196 -76 0
-25 44 -30 87 -10 18 9 77 24 130 35 106 20 148 40 148 71 0 23 -21 25 -67 4z"/>
<path d="M7776 7728 c-4 -68 -8 -136 -9 -153 -2 -24 2 -30 18 -30 26 0 32 31
34 167 1 112 -3 138 -24 138 -8 0 -14 -35 -19 -122z"/>
<path d="M7585 7760 c-8 -16 -20 -76 -26 -132 -12 -111 -12 -112 -54 -205 -28
-61 -28 -93 -2 -93 14 0 55 81 75 150 12 40 42 242 42 283 0 35 -16 34 -35 -3z"/>
<path d="M6430 7734 c0 -18 16 -42 55 -80 31 -30 62 -54 70 -54 25 0 17 -19
-10 -26 -15 -4 -25 -13 -25 -24 0 -27 14 -32 47 -18 15 6 73 12 128 12 98 1
102 2 164 39 60 36 65 37 87 22 22 -14 24 -21 21 -99 l-2 -85 -80 -72 c-66
-60 -82 -80 -90 -115 -12 -52 -19 -59 -70 -76 -42 -14 -54 -40 -21 -46 26 -5
98 18 114 37 6 8 12 27 12 41 0 36 30 74 128 160 58 51 82 80 82 96 0 12 -4
26 -10 29 -5 3 -10 29 -10 56 0 27 -6 65 -14 84 -28 65 -79 71 -170 20 -60
-33 -68 -35 -160 -35 -64 0 -95 4 -91 10 4 6 -15 32 -42 58 -26 27 -56 58 -65
70 -24 30 -48 28 -48 -4z"/>
<path d="M6046 7692 c-60 -48 -159 -184 -154 -211 6 -28 25 -21 51 16 14 21
68 83 121 138 53 55 96 101 96 103 0 1 -12 2 -27 2 -18 0 -49 -17 -87 -48z"/>
<path d="M6199 7637 c-36 -30 -81 -119 -77 -153 5 -47 25 -37 57 28 17 35 42
76 56 92 14 16 25 35 25 43 0 20 -32 15 -61 -10z"/>
<path d="M7357 7593 c-8 -10 -19 -31 -23 -48 -4 -16 -10 -34 -14 -40 -14 -21
-51 -137 -45 -143 16 -16 43 23 82 118 41 96 47 130 25 130 -5 0 -16 -8 -25
-17z"/>
<path d="M6979 7284 c-20 -24 -2 -43 75 -78 121 -55 142 -62 160 -47 19 16 4
51 -22 51 -10 0 -22 4 -27 9 -6 5 -47 25 -92 44 -69 29 -84 33 -94 21z"/>
<path d="M6668 7003 c-46 -4 -66 -22 -52 -45 7 -10 258 -3 276 8 16 10 8 32
-14 38 -23 6 -126 5 -210 -1z"/>
<path d="M6424 6855 c-20 -50 168 -104 262 -76 71 22 114 44 114 58 0 12 -17
13 -92 8 -84 -6 -142 -1 -245 21 -26 5 -34 3 -39 -11z"/>
<path d="M7810 4696 c-232 -41 -401 -143 -492 -299 -65 -111 -114 -217 -130
-282 -70 -270 -88 -400 -87 -627 0 -159 43 -371 100 -493 28 -59 115 -164 212
-255 27 -25 79 -76 115 -115 137 -143 252 -255 290 -280 46 -31 129 -55 189
-55 34 0 46 5 67 31 14 17 26 37 26 45 0 19 20 18 36 -3 13 -17 15 -17 28 0
34 44 79 333 57 367 -20 29 -51 -42 -51 -116 0 -44 -16 -101 -26 -91 -3 3 -5
48 -5 101 1 87 -1 97 -23 123 -23 26 -29 28 -120 31 -107 4 -98 -3 -110 87 -8
57 -33 85 -112 125 -63 33 -70 39 -82 80 -8 25 -15 50 -17 57 -2 6 -28 30 -57
53 -84 67 -96 102 -53 160 14 19 25 44 25 57 0 36 -26 80 -59 99 -50 29 -56
57 -26 122 14 31 32 63 39 72 7 8 28 43 46 78 l34 63 -22 68 c-41 125 -23 164
86 189 54 12 102 43 102 67 0 6 11 22 24 34 24 23 25 23 76 6 28 -9 63 -27 78
-39 75 -61 152 -106 183 -106 14 0 40 11 58 24 30 22 40 24 101 19 l68 -6 30
64 c57 119 59 144 22 261 -73 227 -171 294 -430 296 -63 0 -149 -5 -190 -12z
m80 -213 c-1 -5 -7 -19 -15 -33 -8 -14 -14 -37 -15 -52 0 -34 -16 -44 -29 -19
-12 22 -15 94 -4 104 9 9 63 9 63 0z m260 -197 c-8 -8 -13 -7 -20 4 -15 23
-12 53 8 91 l17 34 3 -59 c2 -34 -2 -64 -8 -70z m-580 -34 c0 -11 -8 -13 -32
-8 -43 8 -55 21 -38 40 11 14 15 14 41 -1 16 -10 29 -24 29 -31z m-176 -441
c9 -15 -23 -36 -36 -23 -5 5 -7 15 -4 21 9 13 33 14 40 2z m-38 -463 c8 -13
-39 -58 -62 -58 -19 0 -18 35 2 54 18 19 50 21 60 4z m222 -320 c13 -17 -41
-138 -62 -138 -26 0 -27 35 -1 93 24 56 43 69 63 45z m222 -357 c7 -26 5 -36
-11 -52 -11 -11 -24 -17 -29 -14 -13 8 -13 57 0 91 13 32 26 24 40 -25z"/>
<path d="M8855 4606 c-17 -7 -50 -39 -74 -70 -68 -91 -93 -191 -47 -191 15 0
23 11 31 45 12 47 58 121 95 155 12 11 31 32 42 48 18 26 18 27 1 27 -10 -1
-32 -7 -48 -14z"/>
<path d="M9065 4361 c-98 -16 -138 -35 -192 -91 -43 -45 -55 -65 -64 -110 -28
-137 30 -298 121 -333 19 -8 64 -20 99 -27 60 -13 206 -85 229 -113 8 -10 24
-49 74 -180 11 -28 61 -77 80 -77 19 0 68 -42 68 -58 0 -19 -39 -62 -89 -100
-39 -30 -61 -80 -61 -142 0 -61 -42 -122 -95 -140 -65 -21 -89 -38 -121 -82
-17 -24 -59 -61 -94 -83 -35 -22 -107 -82 -159 -134 -124 -122 -130 -125 -188
-115 -62 10 -77 7 -139 -22 -28 -13 -58 -24 -66 -24 -8 0 -35 -15 -60 -34 -59
-45 -135 -189 -119 -227 5 -13 12 -41 16 -61 6 -41 58 -93 103 -105 61 -15
264 -4 303 17 10 6 27 10 37 10 35 0 203 69 241 99 20 16 59 40 86 54 126 62
222 119 244 145 13 15 68 74 122 132 102 110 202 235 255 319 31 50 40 89 77
356 18 136 16 360 -5 412 -10 22 -22 72 -28 110 -6 37 -23 104 -37 148 -56
175 -119 260 -259 350 -99 65 -147 85 -233 101 -81 14 -85 14 -146 5z m250
-297 c6 -44 -6 -70 -29 -61 -12 5 -15 16 -10 54 8 70 13 82 24 62 5 -9 12 -33
15 -55z m-281 34 c9 -36 7 -78 -4 -78 -5 0 -10 8 -10 19 0 10 -3 33 -6 50 -7
36 10 43 20 9z m536 -158 c0 -17 -79 -92 -92 -88 -24 8 -19 30 17 63 35 34 75
46 75 25z m60 -296 c0 -46 -52 -73 -79 -40 -9 11 -6 18 15 35 31 25 64 27 64
5z m30 -314 c0 -6 -7 -22 -16 -35 -17 -26 -39 -31 -64 -15 -13 9 -11 14 13 35
28 25 67 34 67 15z m-90 -272 c20 -37 3 -57 -35 -40 -32 15 -41 37 -25 58 18
21 42 14 60 -18z m-213 -264 c1 -5 -4 -18 -12 -28 -21 -28 -42 -7 -23 23 13
21 29 23 35 5z m-258 -226 c12 -31 2 -50 -23 -46 -21 3 -32 28 -22 54 8 22 36
17 45 -8z m-361 -194 c1 -10 -2 -26 -8 -34 -15 -23 -34 3 -26 35 8 29 30 29
34 -1z"/>
<path d="M8662 4060 c-18 -30 -25 -99 -14 -145 5 -22 22 -85 37 -140 20 -75
28 -136 33 -244 5 -101 11 -146 19 -149 26 -8 35 51 30 198 -4 125 -9 156 -33
225 -22 64 -28 99 -28 175 -1 76 -4 95 -16 98 -8 1 -21 -7 -28 -18z"/>
<path d="M8355 3980 c-14 -22 -25 -42 -25 -45 0 -10 29 -5 37 8 4 6 17 17 27
23 28 15 30 31 7 44 -18 9 -24 5 -46 -30z"/>
<path d="M8250 3865 c-38 -24 -110 -110 -110 -131 0 -7 -13 -23 -29 -37 -50
-42 -103 -205 -115 -351 -12 -146 73 -362 181 -457 35 -30 38 -31 41 -13 3 18
-15 57 -81 179 -9 17 -23 46 -30 65 -8 19 -20 49 -27 65 -19 43 -20 187 -3
280 20 108 57 180 180 352 24 34 40 63 36 66 -4 3 -24 -5 -43 -18z"/>
<path d="M8657 3193 c-4 -3 -7 -17 -7 -30 0 -14 -5 -33 -10 -44 -9 -15 -7 -21
6 -26 24 -9 44 23 44 69 0 36 -15 50 -33 31z"/>
<path d="M8529 2995 c-31 -24 -69 -61 -84 -82 -16 -21 -31 -40 -35 -43 -19
-17 -80 -120 -86 -145 -4 -16 -15 -46 -26 -65 -10 -19 -18 -42 -18 -50 0 -9
-4 -20 -10 -26 -14 -14 -16 -82 -3 -95 19 -19 43 -2 43 29 0 88 98 283 179
355 17 15 31 31 31 36 0 6 18 31 40 56 36 42 51 76 33 74 -5 0 -33 -20 -64
-44z"/>
<path d="M11698 7203 c292 -2 772 -2 1065 0 292 1 53 2 -533 2 -586 0 -825 -1
-532 -2z"/>
<path d="M13277 7163 c-12 -11 -8 -7163 3 -7163 7 0 10 1202 10 3585 0 1972
-1 3585 -3 3585 -2 0 -7 -3 -10 -7z"/>
<path d="M2676 5068 c-8 -11 -12 -27 -9 -35 3 -7 -1 -21 -10 -31 -8 -9 -40
-67 -71 -128 l-56 -111 -57 -7 c-32 -4 -101 -11 -153 -16 -52 -5 -124 -14
-160 -20 -36 -5 -98 -12 -139 -16 -41 -3 -79 -8 -85 -11 -6 -4 -31 -8 -56 -9
-119 -7 -266 -25 -290 -34 -3 -1 -9 -2 -13 -1 -4 1 -17 -8 -29 -18 -11 -11
-33 -23 -49 -26 -15 -3 -41 -19 -57 -34 -16 -16 -35 -30 -42 -33 -8 -2 -14
-27 -17 -62 -4 -53 -1 -64 30 -115 18 -31 40 -72 47 -91 13 -34 34 -69 85
-140 13 -19 66 -73 116 -120 50 -47 120 -113 155 -147 35 -34 64 -60 64 -57 0
3 17 -7 37 -23 41 -31 95 -66 156 -102 20 -13 37 -27 37 -33 0 -6 7 -8 15 -4
8 3 15 1 15 -4 0 -6 5 -10 11 -10 6 0 17 -7 25 -15 9 -8 26 -15 38 -15 12 0
32 -9 43 -19 12 -11 23 -17 27 -14 3 3 18 1 33 -5 24 -9 188 -60 218 -69 124
-33 292 -48 342 -29 18 7 27 0 60 -41 21 -27 41 -48 44 -48 4 0 34 -25 67 -55
98 -90 152 -135 163 -135 6 0 16 -8 23 -17 7 -10 16 -15 19 -11 4 3 7 1 7 -6
0 -7 4 -10 9 -6 5 3 12 1 15 -4 3 -5 50 -30 103 -56 54 -26 118 -60 143 -75
25 -15 59 -31 75 -35 43 -12 44 -12 50 -15 3 -1 8 -3 13 -5 4 -1 14 -4 22 -8
8 -3 22 -6 30 -6 8 0 31 -3 50 -7 19 -4 45 -7 58 -8 12 0 22 -4 22 -8 0 -3 18
-4 40 -1 22 3 40 1 40 -4 0 -5 61 -10 135 -10 92 -2 135 1 135 9 0 7 22 9 69
4 46 -4 72 -2 77 5 3 6 15 9 25 6 10 -3 26 1 35 8 10 7 25 10 35 8 9 -3 20 0
23 5 3 6 15 8 26 5 11 -3 20 0 20 6 0 5 6 8 14 5 8 -3 25 0 38 7 13 7 25 14
28 14 3 1 22 9 44 18 21 9 42 17 47 17 18 0 112 62 196 129 157 126 187 154
258 238 150 179 167 249 93 393 -27 53 -63 102 -104 144 -52 53 -78 70 -161
105 -184 79 -183 78 -203 124 -10 23 -21 61 -25 85 -4 23 -18 56 -32 72 -40
49 -305 170 -371 170 -45 0 -59 14 -43 43 7 14 10 30 7 36 -4 6 -3 11 2 11 5
0 7 11 4 25 -2 14 0 25 4 25 5 0 8 20 6 45 -3 28 0 45 7 45 14 0 14 45 1 70
-5 10 -12 60 -14 110 -2 61 -8 95 -17 100 -17 11 -129 24 -136 16 -3 -3 -11
-2 -18 4 -7 6 -20 4 -37 -4 -15 -8 -29 -12 -32 -9 -6 7 -108 -17 -122 -29 -7
-5 -16 -8 -20 -7 -5 1 -11 0 -14 -1 -12 -4 -40 -8 -119 -14 -46 -4 -91 -12
-100 -17 -9 -5 -65 -16 -126 -24 -60 -9 -126 -18 -145 -22 -19 -3 -57 -6 -85
-8 -55 -2 -95 -13 -95 -26 0 -4 -16 -5 -35 -2 -20 3 -41 1 -49 -6 -17 -14 -57
-8 -82 13 -11 8 -45 36 -76 62 -32 25 -58 50 -58 55 0 5 -6 9 -14 9 -8 0 -27
15 -42 33 -15 17 -30 32 -33 32 -3 0 -16 10 -28 22 -18 18 -27 21 -47 13 -13
-5 -27 -6 -30 -3 -15 16 -57 10 -70 -9z m116 -55 c18 -15 58 -49 88 -76 30
-27 70 -60 90 -73 45 -31 121 -84 185 -129 152 -109 250 -174 335 -222 92 -53
151 -96 105 -78 -88 35 -291 105 -303 105 -8 0 -30 7 -50 16 -63 27 -75 32
-144 53 -37 12 -80 21 -97 21 -38 0 -198 83 -234 122 -32 34 -33 55 -7 172 13
57 13 59 -10 76 -13 10 -20 22 -16 29 11 17 21 14 58 -16z m-91 -125 c-22 -62
-9 -148 26 -173 13 -10 15 -24 10 -76 -4 -37 0 -121 8 -199 13 -113 21 -149
52 -222 31 -73 43 -90 70 -103 18 -9 35 -20 38 -25 3 -5 -2 -34 -10 -65 -16
-55 -16 -57 7 -103 17 -34 44 -63 100 -105 71 -53 78 -62 108 -135 48 -116 89
-188 113 -200 12 -6 39 -18 60 -26 20 -8 37 -19 37 -24 0 -5 32 -49 70 -98
121 -154 95 -138 221 -130 106 6 111 5 167 -21 39 -19 75 -28 113 -29 31 -1
78 -9 106 -18 27 -9 74 -17 104 -18 58 -1 150 24 169 48 7 7 19 14 27 14 8 0
42 16 76 37 34 20 71 41 82 47 36 20 105 79 105 90 0 11 9 21 87 93 52 48 113
124 113 141 0 7 -7 15 -16 19 -11 4 -41 -20 -100 -81 l-83 -87 -139 139 c-77
77 -158 165 -182 196 -23 32 -85 106 -139 165 -119 134 -152 180 -161 231 -4
22 -6 40 -5 40 2 0 26 -16 55 -35 29 -19 55 -35 60 -35 4 0 39 -21 78 -47 122
-83 497 -353 522 -376 8 -7 86 -66 172 -130 86 -64 159 -121 163 -126 7 -13
-26 -116 -51 -157 -71 -116 -214 -214 -389 -268 -33 -10 -84 -27 -114 -38 -84
-29 -339 -44 -502 -30 -71 7 -151 18 -177 26 -26 8 -72 21 -102 30 -30 9 -68
25 -85 37 -16 11 -73 40 -125 65 -141 67 -212 114 -339 224 -35 30 -85 73
-111 95 -104 88 -256 298 -305 420 -46 116 -75 212 -85 283 -6 37 -14 92 -20
122 -5 30 -9 127 -9 215 1 88 1 173 0 188 0 26 96 242 123 276 9 12 12 10 14
-8 2 -12 -1 -36 -7 -53z m1531 53 c5 -4 13 -34 19 -66 21 -111 -10 -368 -55
-456 -10 -19 -26 -55 -36 -81 -17 -41 -86 -148 -95 -148 -9 0 -82 45 -102 63
-31 27 -29 35 18 82 38 39 59 86 59 135 0 14 9 43 20 65 26 53 54 151 47 167
-2 8 -1 54 4 103 6 69 5 96 -6 117 -7 15 -10 30 -6 33 8 8 123 -4 133 -14z
m-167 -13 c-2 -7 -6 -80 -9 -163 -5 -171 -15 -211 -49 -201 -12 4 -68 13 -123
20 -56 7 -106 16 -111 19 -10 7 -158 41 -263 62 -195 38 -222 46 -284 84 -36
23 -37 25 -20 38 10 7 29 13 43 13 14 0 50 4 80 10 31 5 110 19 176 30 66 12
143 25 170 31 28 5 95 15 150 23 102 15 118 18 170 35 44 14 75 13 70 -1z
m-1550 -241 c0 -10 -11 -24 -25 -31 -128 -64 -240 -123 -355 -185 -22 -11 -47
-21 -55 -21 -8 0 -32 -11 -52 -25 -20 -14 -43 -25 -50 -25 -16 0 -62 -28 -157
-93 -66 -46 -72 -48 -103 -38 -64 21 -86 50 -108 135 -11 44 -20 103 -20 132
0 69 10 74 165 86 66 5 192 17 280 28 88 11 194 22 235 26 41 3 107 12 145 19
86 16 100 15 100 -8z m360 -62 c39 -19 97 -40 130 -46 127 -23 631 -200 683
-240 13 -10 48 -23 78 -30 78 -17 69 -41 -21 -53 -27 -4 -63 -11 -80 -16 -76
-22 -117 -30 -205 -40 -52 -6 -108 -14 -125 -19 -16 -5 -57 -14 -90 -21 -33
-7 -80 -18 -105 -25 -110 -32 -191 -24 -243 23 -31 28 -64 107 -76 179 -23
147 -35 323 -23 323 4 0 39 -16 77 -35z m630 -9 c39 -8 120 -26 180 -40 61
-14 151 -30 200 -35 97 -11 115 -23 115 -71 0 -15 -7 -42 -16 -59 -17 -33 -82
-100 -98 -101 -4 0 -24 14 -43 30 -18 17 -39 30 -45 30 -5 0 -26 14 -45 30
-18 17 -39 30 -45 30 -7 0 -37 20 -67 44 -31 24 -81 56 -111 71 -48 24 -104
61 -135 88 -11 9 -7 8 110 -17z m-993 -93 c5 -125 2 -144 -33 -182 -16 -18
-29 -36 -29 -41 0 -8 -53 -125 -118 -260 -14 -30 -39 -73 -54 -94 -15 -21 -28
-49 -28 -60 0 -30 -27 -66 -50 -66 -10 0 -20 3 -22 8 -1 4 -23 18 -47 31 -72
38 -158 104 -175 133 -9 15 -37 51 -62 80 -25 29 -58 77 -74 106 l-29 53 47
34 c45 34 82 53 237 125 169 78 256 124 335 175 47 30 88 55 91 55 4 0 9 -43
11 -97z m-974 0 c-7 -52 28 -190 59 -235 26 -39 66 -62 123 -73 32 -6 38 -12
58 -64 22 -56 87 -145 167 -225 51 -52 140 -111 216 -144 55 -24 60 -24 77 -9
26 24 33 22 78 -19 58 -53 134 -101 179 -113 22 -7 90 -15 152 -18 l111 -6 36
-43 c20 -23 36 -48 36 -53 0 -22 -139 -7 -275 29 -195 51 -448 154 -470 191
-4 5 -25 19 -48 31 -57 29 -107 70 -277 227 -164 152 -180 173 -257 326 -30
61 -61 117 -69 126 -8 8 -14 20 -14 25 0 12 46 57 75 72 37 21 48 15 43 -25z
m986 -280 c8 -67 33 -198 45 -233 33 -95 82 -205 117 -265 23 -38 40 -72 38
-74 -14 -15 -228 20 -274 44 -36 19 -170 124 -170 134 0 4 16 31 35 61 20 30
49 82 65 115 36 74 100 221 100 228 0 18 21 57 29 53 4 -3 11 -31 15 -63z
m1360 -2 c3 -4 -6 -19 -19 -31 -14 -13 -25 -31 -25 -39 0 -9 -11 -34 -25 -56
-13 -22 -25 -46 -25 -53 0 -8 -16 -41 -36 -75 -20 -34 -51 -87 -67 -117 -109
-196 -241 -383 -278 -393 -27 -7 -110 20 -140 46 -27 23 -55 73 -110 195 -29
66 -41 80 -114 138 -104 82 -119 111 -94 183 11 31 11 31 83 31 46 0 103 9
156 24 119 33 171 44 275 56 101 12 280 54 340 81 45 20 71 23 79 10z m9 -258
c7 -196 23 -440 38 -589 14 -142 10 -167 -31 -184 -27 -11 -34 -10 -70 14 -55
36 -103 45 -180 30 -105 -19 -110 -17 -202 101 -21 26 -38 51 -38 56 0 4 16
17 34 29 86 53 349 468 417 658 6 17 15 32 19 32 4 0 10 -66 13 -147z m148
-48 c68 -73 127 -142 191 -226 31 -41 105 -120 163 -177 105 -101 106 -102 99
-139 -7 -41 -22 -56 -114 -111 -181 -110 -248 -132 -329 -104 -25 8 -51 16
-58 18 -9 2 -9 12 -1 41 7 28 6 78 -7 198 -10 88 -19 196 -20 240 -2 44 -8
114 -14 155 -6 41 -10 109 -11 150 l0 75 28 -35 c15 -19 48 -57 73 -85z"/>
<path d="M5560 2749 c-30 -4 -145 -7 -255 -6 -129 1 -212 -3 -235 -10 -60 -20
-134 -35 -167 -34 -18 1 -33 -3 -33 -9 0 -5 -6 -7 -14 -4 -8 3 -17 0 -21 -5
-3 -6 -11 -9 -16 -6 -5 4 -9 1 -9 -5 0 -6 -4 -8 -10 -5 -5 3 -10 1 -10 -5 0
-6 -3 -9 -7 -7 -5 2 -21 -4 -38 -14 -16 -10 -41 -24 -55 -31 -28 -14 -158
-115 -178 -138 -7 -8 -40 -55 -74 -103 -54 -78 -189 -217 -210 -217 -4 0 -24
-18 -44 -40 -20 -22 -40 -40 -44 -40 -5 0 -30 -10 -57 -22 -26 -12 -52 -22
-58 -22 -10 -1 -15 -4 -54 -36 -13 -11 -31 -20 -41 -20 -20 0 -40 -19 -40 -40
0 -19 55 -82 64 -73 3 3 6 1 6 -5 0 -7 11 -12 25 -12 14 0 25 -4 25 -10 0 -5
7 -7 15 -4 8 4 15 1 15 -5 0 -6 5 -11 11 -11 15 0 187 -73 251 -107 15 -8 33
-13 40 -12 14 2 42 -6 71 -22 10 -5 22 -7 27 -4 6 4 10 2 10 -3 0 -9 79 -39
93 -34 4 1 7 -3 7 -9 0 -7 10 -9 25 -7 14 3 25 1 25 -5 0 -5 9 -7 20 -4 11 3
20 2 20 -2 0 -4 17 -8 38 -9 20 0 66 -4 102 -7 86 -9 386 -9 430 0 19 4 61 7
93 8 31 0 57 5 57 10 0 5 10 7 22 4 12 -4 28 -1 35 5 7 6 24 8 38 6 14 -3 28
-2 30 3 3 4 16 6 30 3 13 -2 27 1 30 7 4 6 19 7 36 4 18 -4 29 -2 29 4 0 6 6
8 14 5 8 -3 17 -1 20 4 3 6 15 8 26 5 11 -3 28 -2 37 3 29 12 49 14 238 20
145 5 190 3 232 -9 37 -11 54 -12 62 -4 26 26 2 71 -46 87 -18 7 -61 47 -108
103 -94 109 -165 178 -176 171 -5 -3 -9 0 -9 5 0 6 -4 11 -9 11 -14 0 -91 53
-91 62 0 12 -65 39 -98 41 -43 4 -35 24 18 48 27 12 50 27 50 31 0 5 5 6 10 3
6 -3 10 -1 10 5 0 16 85 51 104 44 9 -3 16 -1 16 5 0 6 7 8 15 5 8 -4 15 -1
15 5 0 7 6 11 14 9 7 -2 74 27 147 63 175 87 204 99 239 99 17 0 30 5 30 11 0
5 5 7 10 4 6 -4 17 -1 25 5 8 6 19 9 25 5 5 -3 10 -1 10 4 0 6 3 10 8 9 15 -3
62 15 62 24 0 5 5 6 10 3 16 -10 12 21 -4 34 -8 7 -59 19 -113 28 -54 9 -109
24 -123 33 -14 10 -31 15 -37 13 -7 -3 -13 0 -13 6 0 6 -7 8 -15 5 -8 -4 -15
-2 -15 4 0 10 -30 23 -64 27 -10 1 -21 6 -25 11 -3 5 -10 9 -16 10 -5 0 -31
10 -57 22 -25 12 -70 27 -99 32 -61 12 -299 11 -379 -1z m400 -64 c34 -7 75
-24 215 -90 39 -18 86 -35 105 -38 19 -3 49 -10 65 -17 38 -14 25 -23 -66 -44
-36 -8 -96 -30 -135 -50 -138 -69 -254 -119 -304 -130 -9 -2 -46 -21 -84 -43
-37 -21 -93 -52 -124 -70 -31 -18 -66 -33 -77 -33 -11 0 -35 -9 -52 -20 -41
-25 -136 -47 -239 -55 -43 -4 -104 -13 -134 -21 -30 -8 -82 -17 -115 -20 -80
-7 -100 -10 -165 -28 -30 -8 -104 -20 -165 -26 -168 -18 -318 -30 -340 -29
-11 1 -29 1 -40 1 -196 -5 -240 -5 -240 3 0 5 24 18 54 30 102 39 281 207 390
367 47 70 164 165 256 208 74 35 104 45 255 88 43 12 102 15 265 14 116 0 235
3 265 8 62 9 357 6 410 -5z m-308 -584 c79 -17 199 -97 327 -217 44 -42 81
-82 81 -89 0 -7 7 -18 15 -25 8 -7 15 -16 15 -21 0 -5 -55 -9 -122 -10 -128
-1 -173 -5 -323 -33 -93 -18 -261 -44 -330 -52 -22 -2 -62 -7 -90 -11 -61 -8
-344 -8 -440 0 -132 11 -272 49 -460 125 -60 25 -123 49 -140 53 -56 16 -190
78 -185 86 3 5 86 8 185 9 201 0 520 31 725 69 41 7 127 21 190 30 244 34 324
49 398 76 43 16 86 26 97 23 11 -3 36 -9 57 -13z"/>
<path d="M11125 1290 c0 -712 1 -1004 2 -647 2 356 2 938 0 1295 -1 356 -2 64
-2 -648z"/>
<path d="M10835 1250 c0 -690 1 -973 2 -627 2 345 2 909 0 1255 -1 345 -2 62
-2 -628z"/>
<path d="M10703 2453 c-10 -4 -13 -259 -13 -1229 0 -1081 2 -1224 15 -1224 13
0 15 143 15 1230 0 677 -1 1230 -2 1229 -2 0 -9 -3 -15 -6z"/>
<path d="M10615 1220 c0 -674 1 -949 2 -613 2 337 2 889 0 1225 -1 337 -2 62
-2 -612z"/>
<path d="M10585 1215 c0 -671 1 -944 2 -607 2 338 2 887 0 1220 -1 334 -2 58
-2 -613z"/>
<path d="M10400 1200 c0 -793 3 -1200 10 -1200 7 0 10 407 10 1200 0 793 -3
1200 -10 1200 -7 0 -10 -407 -10 -1200z"/>
<path d="M10345 1195 c0 -660 1 -931 2 -603 2 328 2 868 0 1200 -1 332 -2 63
-2 -597z"/>
<path d="M4980 1516 c0 -10 9 -16 21 -16 24 0 21 23 -4 28 -10 2 -17 -3 -17
-12z"/>
</g>
</svg>
