<svg width="20" height="21" viewBox="0 0 20 21" fill="none" xmlns="http://www.w3.org/2000/svg">
<path d="M16.25 4.2793C13.4766 4.2793 11.25 6.54492 11.25 9.2793C11.25 9.70898 11.2891 10.1387 11.4062 10.5293H9.375V4.9043C9.375 4.5918 9.0625 4.2793 8.75 4.2793C8.39844 4.2793 8.125 4.5918 8.125 4.9043V10.2949L4.17969 6.34961C3.94531 6.11523 3.51562 6.11523 3.28125 6.34961C3.04688 6.58398 3.04688 7.01367 3.28125 7.24805L6.60156 10.5293H3.75C1.67969 10.5293 0 8.84961 0 6.7793C0 4.70898 1.67969 3.0293 3.75 3.0293C4.0625 3.0293 4.41406 3.10742 4.72656 3.18555C5.39062 1.62305 6.95312 0.529297 8.75 0.529297C10.5469 0.529297 12.0703 1.62305 12.7344 3.18555C13.0469 3.10742 13.3984 3.0293 13.75 3.0293C14.8438 3.0293 15.8594 3.53711 16.5234 4.31836C16.4453 4.2793 16.3281 4.2793 16.25 4.2793ZM4.57031 17.0527C5.07812 17.248 5.46875 17.6777 5.625 18.2246C5.70312 18.498 5.9375 18.6543 6.25 18.6543H13.75C14.0234 18.6543 14.2578 18.498 14.3359 18.2246C14.4922 17.7168 14.8828 17.248 15.3906 17.0527C16.7578 16.4277 17.7734 15.1777 18.0469 13.6543H1.91406C2.1875 15.1777 3.20312 16.4277 4.57031 17.0527ZM0 12.873C0 12.2871 0.46875 11.7793 1.05469 11.7793H18.9062C19.4922 11.7793 19.9609 12.2871 19.9609 12.873C19.9609 15.4902 18.3984 17.7559 16.1328 18.7715C15.8203 19.7871 14.8828 20.5293 13.75 20.5293H6.25C5.11719 20.5293 4.14062 19.7871 3.82812 18.7715C1.5625 17.7559 0 15.4902 0 12.873ZM18.125 9.2793C18.125 8.26367 17.2656 7.4043 16.25 7.4043C15.1953 7.4043 14.375 8.26367 14.375 9.2793C14.375 9.78711 14.5312 10.2168 14.8438 10.5293H12.6953C12.5391 10.1387 12.4609 9.74805 12.4609 9.2793C12.4609 7.20898 14.1406 5.5293 16.2109 5.5293C18.2812 5.5293 19.9609 7.20898 19.9609 9.2793C19.9609 9.74805 19.9219 10.1387 19.7656 10.5293H17.6172C17.9297 10.2168 18.0859 9.78711 18.0859 9.2793H18.125Z" fill="#97BF60"/>
</svg>
