<svg width="18" height="17" viewBox="0 0 18 17" fill="none" xmlns="http://www.w3.org/2000/svg">
<path d="M12.3125 1.1543C13.0938 0.373047 14.375 0.373047 15.1562 1.1543L16.375 2.37305C17.1562 3.1543 17.1562 4.43555 16.375 5.2168L14.875 6.7168L10.8125 2.6543L12.3125 1.1543ZM10.0938 3.37305L14.1562 7.43555L6.875 14.7168C6.5625 15.0293 6.15625 15.2793 5.71875 15.4043L1.9375 16.5293C1.6875 16.5918 1.40625 16.5293 1.21875 16.3105C1 16.123 0.9375 15.8418 1.03125 15.5918L2.125 11.8105C2.25 11.373 2.5 10.9668 2.8125 10.6543L10.0938 3.37305Z" fill="#222B2B"/>
</svg>
