<svg width="18" height="21" viewBox="0 0 18 21" fill="none" xmlns="http://www.w3.org/2000/svg">
<path d="M3.02344 1.58411L2.4375 7.17004V7.71692C2.4375 8.61536 3.10156 9.27942 4 9.27942H5.25H6.5C7.35938 9.27942 8.0625 8.61536 8.0625 7.71692V7.17004L7.4375 1.58411C7.35938 1.07629 7.75 0.607544 8.25781 0.568481C8.76562 0.490356 9.23438 0.880981 9.27344 1.38879L9.89844 7.01379L9.9375 7.05286V7.09192V7.71692C9.9375 9.63098 8.375 11.1544 6.5 11.1544H6.1875V19.5919C6.1875 20.1388 5.75781 20.5294 5.25 20.5294C4.70312 20.5294 4.3125 20.1388 4.3125 19.5919V11.1544H4C2.08594 11.1544 0.5625 9.63098 0.5625 7.71692V7.09192V7.05286V7.01379L1.1875 1.38879C1.22656 0.880981 1.69531 0.490356 2.20312 0.568481C2.71094 0.607544 3.10156 1.07629 3.02344 1.58411ZM6.1875 1.46692V7.09192C6.1875 7.63879 5.75781 8.02942 5.25 8.02942C4.70312 8.02942 4.3125 7.63879 4.3125 7.09192V1.46692C4.3125 0.959106 4.70312 0.529419 5.25 0.529419C5.75781 0.529419 6.1875 0.959106 6.1875 1.46692ZM13.375 7.40442V11.7794C13.375 12.131 13.6484 12.4044 14 12.4044H15.875V10.2169V2.71692C15.5625 2.83411 15.2891 3.02942 14.9766 3.30286C14.1953 3.96692 13.375 5.17786 13.375 7.40442ZM15.875 14.2794H14C12.5938 14.2794 11.5 13.1857 11.5 11.7794V7.40442C11.5 1.77942 15.875 0.529419 16.5 0.529419C17.1641 0.529419 17.75 1.11536 17.75 1.77942V10.2169V12.4044V14.2794V19.5919C17.75 20.1388 17.3203 20.5294 16.8125 20.5294C16.2656 20.5294 15.875 20.1388 15.875 19.5919V14.2794Z" fill="#131313"/>
</svg>
