<svg width="21" height="21" viewBox="0 0 21 21" fill="none" xmlns="http://www.w3.org/2000/svg">
<path d="M19.7969 1.85754C19.25 3.06848 18.3516 4.16223 17.5703 4.94348C18.8594 4.98254 19.8359 5.64661 20.2656 5.95911C20.4219 6.07629 20.5 6.27161 20.5 6.46692C20.5 6.70129 20.4219 6.85754 20.2656 7.01379C19.8359 7.36536 18.8203 8.02942 17.6875 8.02942C16.125 8.02942 15.5 7.44348 14.5625 6.46692C13.5859 5.52942 13 4.90442 13 3.34192C13 2.20911 13.6641 1.19348 14.0156 0.763794C14.1719 0.607544 14.3281 0.529419 14.5625 0.529419C14.7578 0.529419 14.9531 0.607544 15.0703 0.763794C15.4219 1.23254 16.125 2.28723 16.125 3.65442C16.125 3.69348 16.125 3.73254 16.125 3.73254C16.125 3.73254 16.1641 3.69348 16.2031 3.65442C16.9062 2.95129 17.6484 2.05286 18.0781 1.11536C18.2734 0.646606 18.8203 0.412231 19.2891 0.607544C19.7578 0.841919 19.9922 1.38879 19.7969 1.85754ZM8 4.90442C5.65625 4.90442 2.375 7.36536 2.375 13.6544C2.375 15.9982 2.80469 17.0919 3.35156 17.6779C3.9375 18.2247 5.03125 18.6544 7.375 18.6544C13.6641 18.6544 16.125 15.3732 16.125 13.0294C16.125 12.2482 15.8125 11.4279 15.1875 10.8419L10.1875 5.84192C9.60156 5.21692 8.78125 4.90442 8 4.90442ZM8 3.02942C9.25 3.06848 10.5391 3.53723 11.5156 4.51379L16.5156 9.51379C17.4922 10.4904 18 11.7794 18 13.0294C18 16.7794 14.25 20.5294 7.375 20.5294C2.375 20.5294 0.5 18.6544 0.5 13.6544C0.5 6.77942 4.25 3.02942 8 3.02942ZM7.88281 6.58411C8.11719 6.81848 8 7.44348 7.53125 7.91223C7.0625 8.38098 6.4375 8.49817 6.20312 8.26379C5.96875 8.02942 6.08594 7.40442 6.55469 6.93567C7.02344 6.46692 7.64844 6.34973 7.88281 6.58411ZM9.71875 10.4122C9.25 10.881 8.625 10.9982 8.39062 10.7638C8.15625 10.5294 8.27344 9.90442 8.74219 9.43567C9.21094 8.96692 9.83594 8.84973 10.0703 9.08411C10.3047 9.31848 10.1875 9.94348 9.71875 10.4122ZM8.46875 13.5372C8 14.006 7.375 14.1232 7.14062 13.8888C6.90625 13.6544 7.02344 13.0294 7.49219 12.5607C7.96094 12.0919 8.58594 11.9747 8.82031 12.2091C9.05469 12.4435 8.9375 13.0685 8.46875 13.5372ZM7.21875 16.6622C6.75 17.131 6.125 17.2482 5.89062 17.0138C5.65625 16.7794 5.77344 16.1544 6.24219 15.6857C6.71094 15.2169 7.33594 15.0997 7.57031 15.3341C7.80469 15.5685 7.6875 16.1935 7.21875 16.6622ZM11.0078 14.0841C11.2422 14.3185 11.125 14.9435 10.6562 15.4122C10.1875 15.881 9.5625 15.9982 9.32812 15.7638C9.09375 15.5294 9.21094 14.9044 9.67969 14.4357C10.1484 13.9669 10.7734 13.8497 11.0078 14.0841ZM11.9453 10.9591C12.1797 11.1935 12.0625 11.8185 11.5938 12.2872C11.125 12.756 10.5 12.8732 10.2656 12.6388C10.0312 12.4044 10.1484 11.7794 10.6172 11.3107C11.0859 10.8419 11.7109 10.7247 11.9453 10.9591ZM14.0938 14.4747C13.625 14.9435 13 15.0607 12.7656 14.8263C12.5312 14.5919 12.6484 13.9669 13.1172 13.4982C13.5859 13.0294 14.2109 12.9122 14.4453 13.1466C14.6797 13.381 14.5625 14.006 14.0938 14.4747ZM6.59375 11.3497C6.125 11.8185 5.5 11.9357 5.26562 11.7013C5.03125 11.4669 5.14844 10.8419 5.61719 10.3732C6.08594 9.90442 6.71094 9.78723 6.94531 10.0216C7.17969 10.256 7.0625 10.881 6.59375 11.3497ZM5.69531 13.4591C5.92969 13.6935 5.8125 14.3185 5.34375 14.7872C4.875 15.256 4.25 15.3732 4.01562 15.1388C3.78125 14.9044 3.89844 14.2794 4.36719 13.8107C4.83594 13.3419 5.46094 13.2247 5.69531 13.4591Z" fill="#131313"/>
</svg>
