<svg width="24" height="21" viewBox="0 0 24 21" fill="none" xmlns="http://www.w3.org/2000/svg">
<path d="M3.875 1.4668C3.875 2.52148 4.26562 2.99023 4.85156 3.69336H4.89062C5.51562 4.39648 6.375 5.33398 6.375 7.0918C6.375 7.63867 5.94531 8.0293 5.4375 8.0293C4.89062 8.0293 4.5 7.63867 4.5 7.0918C4.5 6.07617 4.07031 5.60742 3.48438 4.9043H3.44531C2.82031 4.16211 2 3.26367 2 1.4668C2 0.958984 2.39062 0.529297 2.9375 0.529297C3.44531 0.529297 3.875 0.958984 3.875 1.4668ZM8.25 1.4668C8.25 2.52148 8.64062 2.99023 9.22656 3.69336H9.26562C9.89062 4.39648 10.75 5.33398 10.75 7.0918C10.75 7.63867 10.3203 8.0293 9.8125 8.0293C9.26562 8.0293 8.875 7.63867 8.875 7.0918C8.875 6.07617 8.44531 5.60742 7.85938 4.9043H7.82031C7.19531 4.16211 6.375 3.26367 6.375 1.4668C6.375 0.958984 6.76562 0.529297 7.3125 0.529297C7.82031 0.529297 8.25 0.958984 8.25 1.4668ZM16.375 4.9043C18.3281 4.9043 20.0078 6.23242 20.5547 8.0293H12.1562C12.7031 6.23242 14.3828 4.9043 16.375 4.9043ZM0.125 11.4668C0.125 10.959 0.515625 10.5293 1.0625 10.5293H2.07812C2.35156 9.82617 3.05469 9.2793 3.875 9.2793H20.125C20.9062 9.2793 21.6094 9.82617 21.8828 10.5293H22.9375C23.4453 10.5293 23.875 10.959 23.875 11.4668C23.875 12.0137 23.4453 12.4043 22.9375 12.4043H21.8828C21.4531 15.4121 19.5 17.9512 16.8438 19.1621C16.5312 19.9824 15.7109 20.5293 14.7734 20.5293H9.14844C8.25 20.5293 7.42969 19.9824 7.11719 19.1621C4.46094 17.9512 2.50781 15.4121 2.07812 12.4043H1.0625C0.515625 12.4043 0.125 12.0137 0.125 11.4668ZM8.875 18.459C8.91406 18.5762 9.03125 18.6543 9.1875 18.6543H14.8125C14.9297 18.6543 15.0469 18.5762 15.0859 18.459C15.2812 18.0293 15.6328 17.6387 16.0625 17.4434C18.4453 16.3496 20.125 13.9668 20.125 11.1543H3.875C3.875 13.9668 5.51562 16.3496 7.89844 17.4434C8.36719 17.6387 8.67969 18.0293 8.875 18.459Z" fill="#97BF60"/>
</svg>
