<?xml version="1.0" standalone="no"?>
<!DOCTYPE svg PUBLIC "-//W3C//DTD SVG 20010904//EN"
 "http://www.w3.org/TR/2001/REC-SVG-20010904/DTD/svg10.dtd">
<svg version="1.0" xmlns="http://www.w3.org/2000/svg"
 width="1417.000000pt" height="1417.000000pt" viewBox="0 0 1417.000000 1417.000000"
 preserveAspectRatio="xMidYMid meet">
<metadata>
Created by potrace 1.16, written by Peter Selinger 2001-2019
</metadata>
<g transform="translate(0.000000,1417.000000) scale(0.100000,-0.100000)"
fill="#000000" stroke="none">
<path d="M5952 12728 c-19 -19 -15 -28 32 -72 36 -35 48 -56 74 -136 16 -52
38 -129 46 -170 9 -41 25 -115 35 -163 11 -49 24 -94 29 -100 5 -7 12 -28 16
-47 3 -19 17 -56 31 -82 14 -26 25 -54 25 -63 0 -9 18 -47 40 -84 22 -37 40
-74 40 -82 0 -8 16 -30 35 -49 19 -19 35 -42 35 -52 0 -21 39 -67 143 -171 76
-75 159 -130 242 -160 22 -8 49 -18 60 -23 11 -4 28 -9 38 -10 10 -2 28 -10
40 -18 12 -8 40 -17 62 -21 101 -16 134 -24 188 -43 32 -11 70 -30 83 -43 32
-30 64 -102 64 -145 0 -43 24 -58 62 -38 15 8 33 11 41 8 30 -11 35 18 22 126
-8 58 -21 126 -29 151 l-16 47 33 53 c38 64 137 212 146 219 18 15 42 89 46
148 3 37 8 81 10 97 5 30 -15 169 -25 183 -2 1 -3 5 -4 10 -1 4 -5 13 -9 19
-4 7 -16 36 -26 65 -19 56 -59 125 -101 174 -30 34 -144 125 -180 141 -92 43
-171 72 -205 77 -54 6 -107 16 -125 24 -15 5 -41 9 -97 15 -16 1 -33 6 -40 10
-7 4 -24 5 -38 1 -14 -3 -33 -3 -42 1 -26 12 -37 14 -204 39 -194 30 -320 69
-460 142 -71 36 -98 41 -117 22z m161 -98 c39 -23 139 -60 182 -66 17 -3 68
-13 115 -24 172 -38 327 -67 435 -80 172 -20 369 -77 455 -129 145 -88 230
-221 267 -416 19 -98 8 -226 -25 -295 -26 -53 -119 -206 -162 -267 -29 -40
-30 -44 -16 -76 7 -19 17 -54 20 -78 4 -24 12 -73 18 -108 11 -58 11 -64 -7
-77 -22 -16 -45 -3 -45 26 0 26 -28 89 -58 127 -39 53 -74 68 -241 104 -97 21
-210 60 -307 104 -30 14 -57 25 -60 25 -3 0 -28 19 -55 42 -108 91 -159 148
-215 241 -16 27 -37 61 -46 75 -38 58 -111 211 -138 292 -16 47 -45 153 -65
235 -47 203 -58 242 -83 299 -33 74 -28 81 31 46z"/>
<path d="M6190 12524 c0 -45 254 -312 285 -300 24 9 10 28 -107 146 -104 106
-178 170 -178 154z"/>
<path d="M6594 12149 c-9 -15 104 -128 241 -243 134 -112 231 -220 276 -304
47 -89 63 -116 85 -149 10 -15 28 -49 41 -75 12 -27 29 -48 38 -48 22 0 19 22
-12 77 -14 26 -40 75 -58 108 -119 223 -142 252 -387 475 -142 129 -211 179
-224 159z"/>
<path d="M9490 12290 c-44 -13 -124 -57 -162 -90 -53 -45 -74 -84 -93 -167
-15 -68 -15 -77 1 -143 14 -57 26 -81 61 -120 80 -89 113 -100 318 -104 44 -1
90 -5 102 -9 28 -10 52 -87 54 -177 2 -49 8 -74 25 -102 27 -42 47 -55 99 -64
100 -16 181 68 209 215 14 74 7 229 -14 291 -16 48 -73 184 -80 190 -3 3 -23
27 -45 55 -65 81 -125 135 -150 135 -7 0 -16 4 -20 9 -3 6 -36 26 -73 46 -56
31 -79 37 -137 40 -38 2 -81 0 -95 -5z m200 -84 c93 -46 131 -72 197 -137 106
-105 161 -241 165 -410 4 -174 -36 -264 -123 -275 -39 -5 -49 -3 -73 18 -26
22 -29 31 -32 105 -4 96 -24 152 -69 191 -31 28 -37 29 -174 36 -160 7 -200
20 -246 80 -29 38 -55 113 -55 157 0 76 22 132 73 186 27 29 57 53 67 53 9 0
25 7 36 15 32 26 166 15 234 -19z"/>
<path d="M12470 11040 c0 -5 5 -10 10 -10 6 0 10 5 10 10 0 6 -4 10 -10 10 -5
0 -10 -4 -10 -10z"/>
<path d="M8575 10850 c-2 -4 -26 -15 -52 -25 -26 -10 -66 -33 -88 -51 -33 -26
-42 -30 -52 -19 -7 8 -32 17 -56 20 -46 7 -94 -13 -148 -62 -22 -20 -33 -23
-62 -18 -41 8 -75 -13 -112 -68 -20 -29 -25 -46 -38 -122 -2 -11 -16 -39 -31
-62 -24 -36 -26 -46 -18 -76 8 -27 6 -48 -9 -93 -25 -74 -24 -116 1 -139 13
-12 20 -31 20 -56 0 -26 8 -47 27 -69 23 -28 31 -31 62 -27 20 3 44 8 54 12
14 6 17 2 17 -27 0 -56 19 -72 86 -74 40 -1 68 4 91 17 46 26 48 24 24 -15
-30 -48 -27 -79 10 -110 26 -22 40 -26 97 -26 42 1 74 6 86 15 16 12 22 11 51
-10 26 -21 45 -25 106 -27 66 -2 81 1 121 25 59 35 92 74 113 137 9 27 22 50
28 50 16 1 57 37 88 80 49 66 60 170 23 211 -16 18 -15 22 15 78 17 32 31 72
31 88 0 49 -95 193 -128 193 -11 0 -13 8 -8 35 8 42 -13 92 -56 136 -23 23
-38 29 -72 29 -23 0 -48 -6 -55 -12 -11 -10 -14 -10 -18 -1 -9 25 -40 56 -59
60 -49 9 -85 10 -89 3z m93 -56 c22 -15 29 -49 14 -69 -4 -6 -20 -19 -35 -28
-27 -17 -31 -18 -70 -2 -29 12 -55 14 -89 10 -28 -4 -48 -3 -48 3 0 21 71 65
145 88 53 17 57 17 83 -2z m172 -63 c35 -34 47 -75 30 -96 -17 -21 -25 -19
-40 10 -7 14 -32 32 -57 41 -23 9 -43 21 -43 26 0 9 59 48 73 48 5 0 21 -13
37 -29z m-460 -31 l25 -19 -22 -23 -23 -22 -24 23 c-22 21 -31 23 -83 17 l-58
-7 30 25 c39 33 117 36 155 6z m172 -42 c24 -19 26 -72 4 -96 -36 -40 -196
-38 -196 2 0 29 116 105 161 106 8 0 22 -6 31 -12z m214 -23 c26 -11 33 -20
39 -55 10 -60 -4 -67 -58 -29 -28 19 -60 33 -82 34 -46 3 -52 10 -29 36 36 40
60 43 130 14z m-626 -10 c11 -13 9 -20 -9 -38 -11 -13 -21 -32 -21 -43 0 -39
-14 -47 -54 -30 -20 8 -36 20 -36 26 0 12 27 68 42 88 14 17 63 15 78 -3z
m179 -9 c28 -34 -34 -104 -105 -117 -71 -13 -82 4 -41 66 33 52 120 82 146 51z
m641 -110 c0 -7 9 -21 21 -32 38 -34 42 -51 24 -105 -20 -59 -32 -66 -74 -45
-69 36 -70 1 -2 -61 54 -49 67 -82 56 -139 -6 -34 -67 -114 -87 -114 -5 0 -29
16 -53 35 -31 26 -45 46 -50 73 -4 20 -12 43 -17 50 -8 9 -8 20 1 38 23 51 6
115 -37 138 -19 11 -18 14 36 86 32 42 62 85 68 95 16 29 54 35 87 13 15 -11
27 -25 27 -32z m-252 19 c33 -9 42 -35 27 -72 -17 -41 -46 -59 -122 -74 -52
-11 -66 -11 -89 1 -33 18 -40 35 -26 65 20 44 126 99 172 90 8 -2 25 -6 38
-10z m-262 -49 c1 0 4 -30 6 -64 4 -60 3 -64 -19 -73 -41 -15 -64 -10 -94 22
-35 38 -36 53 -4 95 23 30 28 32 67 27 24 -3 44 -6 44 -7z m-171 -68 c-2 -42
-7 -63 -16 -66 -8 -3 -26 -13 -41 -23 -51 -36 -138 -16 -138 32 0 31 59 89 90
89 15 0 43 7 61 15 19 8 37 14 40 15 4 0 5 -28 4 -62z m-187 38 c3 -3 -4 -16
-15 -29 -11 -12 -26 -32 -32 -45 -9 -17 -19 -22 -39 -20 -23 2 -28 9 -30 36
-5 50 22 75 71 69 21 -3 41 -8 45 -11z m625 -140 c45 -41 46 -59 7 -96 -22
-21 -45 -30 -84 -35 -83 -11 -91 -7 -94 47 -4 64 10 85 66 102 65 20 64 20
105 -18z m-223 -25 c-1 -65 -12 -88 -56 -110 -59 -28 -156 -29 -201 -1 -18 11
-33 27 -33 35 0 9 19 34 43 56 33 32 47 38 67 33 63 -15 109 -16 131 -1 25 18
49 12 49 -12z m-428 -8 c23 -21 23 -27 -5 -68 -18 -26 -26 -32 -35 -23 -8 8
-18 9 -36 1 -17 -8 -27 -8 -35 0 -15 15 -14 31 3 72 13 31 19 35 52 35 21 0
46 -7 56 -17z m103 -40 c-18 -42 -16 -59 9 -82 34 -32 33 -44 -5 -58 -26 -10
-35 -9 -56 4 -22 15 -24 21 -18 61 9 61 14 72 39 82 32 13 39 12 31 -7z m349
-90 c4 -4 -2 -14 -14 -23 -13 -10 -23 -33 -29 -68 -13 -83 -55 -101 -145 -62
-49 20 -53 30 -32 69 10 17 29 28 67 38 30 8 70 22 89 33 39 21 53 24 64 13z
m240 -19 c14 -55 -86 -124 -180 -124 -44 0 -54 10 -54 54 0 42 25 64 77 64 27
0 64 7 83 16 50 22 67 20 74 -10z m-701 -34 c10 -16 22 -30 28 -30 18 0 9 -18
-13 -23 -43 -12 -112 45 -86 71 21 21 53 13 71 -18z m192 -65 c0 -66 -2 -75
-20 -79 -12 -3 -34 -2 -50 3 -27 7 -30 12 -27 42 1 21 10 40 23 49 16 12 74
58 74 60 0 0 0 -34 0 -75z m585 -15 c24 -24 25 -32 3 -94 -13 -35 -31 -59 -68
-88 l-50 -40 -70 7 c-84 8 -99 22 -89 80 10 60 21 75 55 75 30 0 142 51 154
70 10 16 44 11 65 -10z m-315 -62 c3 -13 2 -41 -2 -63 -11 -54 -62 -81 -130
-69 -60 12 -75 34 -47 71 15 20 34 30 65 35 24 4 52 17 63 28 27 26 44 25 51
-2z"/>
<path d="M5813 10570 c-50 -26 -65 -57 -63 -136 1 -33 -1 -86 -5 -119 -5 -45
-3 -67 8 -89 9 -17 14 -45 12 -68 -4 -33 1 -44 29 -76 33 -36 34 -40 30 -102
-6 -93 -6 -94 -16 -106 -4 -6 -6 -18 -3 -26 7 -19 -77 -182 -147 -284 -29 -44
-76 -115 -103 -159 -27 -44 -55 -86 -63 -94 -8 -8 -24 -30 -37 -50 -13 -20
-35 -49 -50 -66 -74 -86 -115 -130 -164 -177 -29 -29 -70 -73 -90 -98 -44 -56
-193 -194 -241 -225 -19 -12 -41 -34 -49 -49 -8 -14 -22 -26 -31 -26 -10 0
-23 -6 -29 -14 -7 -8 -40 -29 -74 -47 -34 -17 -78 -44 -97 -58 -62 -47 -304
-154 -373 -165 -20 -3 -45 -10 -55 -15 -50 -26 -73 -33 -103 -36 -19 -2 -34
-4 -34 -5 0 -1 -9 -4 -20 -6 -49 -7 -185 -35 -235 -48 -108 -29 -469 -62 -563
-52 -34 4 -71 8 -82 10 -159 24 -193 31 -372 71 -41 9 -138 17 -244 19 -117 3
-184 8 -200 17 -13 7 -26 12 -29 12 -3 0 -16 4 -30 10 -38 16 -52 19 -84 17
-71 -2 -162 -74 -237 -188 -49 -74 -50 -78 -45 -137 4 -50 9 -64 33 -84 15
-13 28 -27 28 -30 1 -3 7 -23 14 -44 24 -71 80 -159 169 -264 48 -57 89 -109
91 -116 5 -16 82 -89 124 -119 17 -12 58 -44 90 -69 64 -51 243 -154 316 -181
182 -67 195 -70 293 -71 54 -1 98 -4 98 -7 0 -3 -13 -14 -29 -25 -17 -10 -40
-37 -52 -60 -12 -22 -33 -53 -45 -70 -32 -42 -65 -132 -69 -185 -5 -62 19
-130 60 -170 l34 -33 38 19 c56 29 118 95 138 147 16 42 18 110 4 154 -3 9 52
13 216 18 211 5 332 14 440 34 162 29 232 43 340 71 66 18 136 36 156 40 44
11 129 58 129 72 0 11 -40 4 -125 -22 -214 -67 -502 -122 -725 -140 -166 -13
-288 -14 -384 -5 -71 7 -82 11 -104 36 -13 16 -31 29 -39 29 -29 0 -6 25 47
53 30 15 61 27 68 27 16 0 142 44 170 59 10 5 89 28 177 51 226 59 235 62 380
115 208 76 353 124 445 147 47 11 124 40 171 64 47 24 90 44 95 44 5 0 26 11
46 25 20 14 58 33 85 44 40 16 240 144 393 251 97 68 290 255 367 355 38 49
110 157 150 225 32 53 61 133 78 213 28 134 94 357 120 404 14 27 60 93 101
148 147 195 167 235 199 400 16 83 6 195 -26 281 -26 70 -21 84 31 84 42 0 80
26 80 55 0 18 1 18 -74 -1 -63 -16 -126 -14 -196 8 -110 34 -158 53 -185 76
-37 30 -78 89 -71 101 3 5 -1 34 -9 65 -8 31 -15 75 -15 98 0 46 4 46 90 12
33 -13 74 -19 150 -19 142 -1 174 4 178 33 3 22 -13 28 -58 24 -8 -1 -67 -2
-130 -3 -117 0 -156 9 -202 49 -24 20 -23 74 1 96 17 15 36 17 155 13 145 -5
150 -6 216 -66 19 -18 45 -39 58 -48 12 -8 22 -19 22 -24 0 -5 16 -30 36 -56
21 -27 44 -64 52 -83 24 -57 52 -188 52 -243 0 -29 12 -93 26 -142 41 -143 74
-278 74 -303 0 -42 38 -176 70 -245 42 -92 73 -211 65 -247 -5 -22 -1 -37 14
-56 12 -15 21 -24 21 -21 0 3 16 -1 35 -9 19 -7 46 -14 60 -14 16 0 25 -6 25
-15 0 -18 -5 -18 -29 -5 -38 20 -152 31 -206 20 -56 -12 -143 -68 -212 -138
-21 -21 -61 -55 -90 -76 -98 -70 -120 -172 -52 -242 35 -36 160 -101 244 -127
28 -9 93 -25 145 -36 52 -11 181 -38 285 -61 182 -38 201 -40 455 -49 158 -6
287 -6 320 0 109 17 346 38 417 36 60 -2 76 1 102 20 35 27 123 63 152 63 10
0 43 13 72 29 28 16 70 32 92 36 22 4 46 12 54 18 7 6 55 32 105 57 77 38 96
53 124 94 56 84 43 146 -49 230 -48 43 -55 47 -97 44 -43 -3 -75 -28 -35 -28
27 0 103 -50 136 -89 41 -49 38 -109 -7 -158 -40 -44 -123 -91 -135 -77 -5 5
-12 19 -16 32 -5 16 -2 22 9 22 23 0 48 56 48 106 0 55 -41 147 -76 169 -23
15 -26 24 -26 77 l0 60 48 -7 c120 -17 142 -26 230 -93 151 -114 173 -148 180
-274 3 -67 0 -98 -14 -137 -27 -77 -63 -108 -234 -199 -73 -39 -97 -62 -65
-62 16 0 125 55 205 104 25 15 59 44 77 64 40 46 59 38 86 -34 34 -88 12 -160
-74 -241 -61 -58 -56 -55 -188 -110 -160 -66 -240 -93 -282 -93 -41 0 -77 -26
-60 -43 6 -6 20 -6 42 2 17 6 42 11 55 11 26 0 205 60 249 84 17 9 35 16 41
16 18 0 119 58 139 80 25 28 42 25 61 -11 26 -52 6 -164 -35 -196 -78 -61
-350 -169 -476 -188 -22 -4 -49 -10 -60 -15 -42 -17 -165 -33 -290 -36 -141
-5 -183 -10 -169 -24 14 -13 232 -20 289 -9 28 5 68 12 90 14 46 6 208 42 245
55 14 5 45 14 70 20 25 6 100 38 166 71 121 61 122 61 148 43 66 -43 148 -211
165 -336 6 -46 18 -139 27 -208 12 -91 19 -239 23 -545 8 -615 7 -655 -12
-950 -9 -148 -21 -342 -27 -430 -15 -242 -21 -267 -116 -461 -80 -164 -86
-173 -154 -232 -75 -65 -223 -154 -330 -197 -36 -15 -85 -35 -110 -46 -60 -25
-210 -59 -263 -59 -23 0 -58 -4 -76 -10 -19 -5 -66 -12 -105 -15 -39 -3 -107
-10 -151 -15 -44 -6 -159 -8 -255 -6 -96 2 -226 4 -288 5 l-113 1 -28 59 c-39
82 -94 157 -141 189 -22 15 -89 63 -150 107 -80 59 -138 92 -212 122 -187 75
-284 88 -432 56 -65 -14 -80 -15 -84 -4 -7 20 -111 137 -184 208 l-65 62 -12
103 c-6 57 -16 156 -21 221 -5 64 -11 121 -14 125 -2 4 -7 122 -11 262 -3 140
-10 275 -15 300 -5 25 -9 100 -10 168 l0 123 38 -7 c61 -10 74 -24 78 -79 2
-34 -2 -55 -12 -66 -13 -15 -14 -37 -4 -171 18 -255 24 -291 58 -350 58 -100
96 -121 222 -119 104 1 130 -13 169 -89 37 -74 104 -120 176 -120 28 0 78 9
111 20 35 12 99 23 160 27 93 5 105 4 149 -18 27 -13 83 -57 126 -96 42 -40
80 -73 84 -73 3 0 21 -10 38 -23 50 -37 135 -67 187 -67 52 0 207 37 289 70
35 13 75 20 122 20 80 0 110 13 149 65 27 36 153 133 231 176 36 20 68 28 136
33 108 9 163 -8 249 -76 116 -90 128 -98 148 -98 12 0 37 9 56 20 123 70 171
90 218 90 40 0 53 5 74 28 28 29 53 95 43 112 -11 19 -24 10 -44 -28 -24 -46
-46 -68 -56 -52 -12 19 6 68 36 99 37 39 37 53 -3 90 -30 28 -32 33 -19 53 32
52 61 108 61 119 0 7 -7 21 -17 31 -13 15 -14 24 -6 52 12 40 3 61 -33 70 -19
5 -25 13 -23 29 1 12 -2 31 -6 41 -5 11 -3 31 5 50 7 17 16 69 21 116 10 96 1
117 -55 122 -30 3 -31 4 -34 61 -2 46 -7 60 -25 72 -12 8 -31 30 -42 51 -17
32 -17 38 -4 48 67 51 139 216 139 317 0 59 -40 230 -65 278 -17 35 -90 101
-110 101 -8 0 -15 4 -15 10 0 17 43 39 100 51 76 16 115 42 141 95 19 39 20
49 9 70 -16 28 -30 31 -30 7 -1 -10 -13 -36 -28 -58 -25 -36 -35 -42 -107 -60
-44 -11 -87 -25 -96 -30 -34 -21 -78 -159 -79 -245 0 -55 -20 -115 -47 -142
-19 -18 -25 -19 -57 -8 -39 13 -67 45 -111 127 -15 29 -38 62 -51 74 -23 22
-103 43 -127 33 -8 -3 -30 -39 -51 -80 -42 -85 -56 -94 -147 -94 -115 0 -163
-40 -208 -175 -17 -50 -44 -133 -62 -185 -37 -112 -67 -173 -106 -217 -15 -17
-36 -43 -46 -56 -10 -13 -42 -37 -72 -52 -73 -37 -124 -32 -238 24 -81 39 -90
46 -147 124 -34 45 -66 89 -73 97 -7 8 -25 32 -40 52 -37 48 -72 59 -171 52
-70 -5 -85 -3 -113 15 -26 16 -33 30 -46 88 -9 37 -21 118 -27 178 -13 128
-27 179 -68 261 -58 115 -172 190 -304 200 -87 7 -244 45 -306 76 -25 12 -62
37 -81 55 -42 40 -61 31 -43 -20 16 -45 15 -54 -8 -87 -13 -19 -20 -43 -19
-72 0 -24 -7 -65 -16 -93 -32 -95 -34 -115 -20 -163 24 -83 23 -97 -13 -130
l-32 -30 21 -45 22 -45 -26 -32 c-34 -39 -34 -60 -2 -90 30 -28 31 -44 5 -77
-30 -38 -26 -75 10 -95 38 -22 38 -33 -1 -53 -22 -12 -29 -21 -24 -33 16 -38
13 -49 -25 -92 l-39 -45 -1 145 c0 80 5 235 10 345 5 110 12 271 15 359 3 87
8 163 11 168 3 5 7 64 8 131 2 132 14 172 60 202 21 14 30 13 122 -21 134 -48
149 -53 229 -70 263 -54 587 -88 695 -73 41 6 101 12 132 13 66 2 98 21 55 31
-36 9 -55 9 -175 -4 -75 -8 -125 -9 -185 -1 -45 6 -120 13 -166 15 -46 2 -88
8 -94 14 -6 6 -29 11 -51 11 -70 0 -156 20 -350 82 -171 55 -193 65 -232 102
-55 53 -52 79 15 108 25 12 56 25 68 31 17 8 33 6 60 -6 124 -51 379 -115 507
-127 293 -26 515 -21 503 13 -2 7 -13 11 -23 9 -39 -7 -224 -4 -369 6 -241 17
-582 109 -696 188 -42 29 -66 86 -55 130 8 32 23 30 98 -12 68 -39 188 -87
188 -75 0 11 -50 46 -110 76 -149 75 -215 153 -194 228 15 51 38 46 112 -26
50 -48 91 -76 162 -109 131 -63 310 -97 310 -60 0 5 -37 17 -82 26 -174 37
-329 129 -406 241 -47 67 -54 105 -33 180 18 68 119 187 180 212 62 26 194 63
229 63 21 0 32 5 32 14 0 19 -24 27 -57 17 -15 -5 -62 -16 -104 -25 -119 -27
-190 -69 -250 -151 -29 -39 -60 -88 -70 -110 -20 -43 -26 -149 -9 -175 7 -11
0 -23 -26 -46 -31 -29 -34 -37 -34 -86 0 -42 6 -64 24 -91 21 -30 22 -38 11
-47 -20 -17 -30 -95 -15 -129 6 -16 29 -43 51 -60 50 -41 50 -57 -1 -64 -23
-3 -56 -17 -75 -32 -51 -38 -48 -76 8 -130 l44 -42 -28 -31 c-15 -17 -33 -50
-39 -74 -6 -24 -15 -55 -19 -70 -5 -16 -5 -30 1 -36 7 -7 6 -60 -1 -154 -10
-132 -31 -556 -31 -620 0 -24 -13 -36 -89 -85 -158 -103 -280 -172 -304 -172
-11 -1 -43 -14 -73 -31 -88 -48 -242 -103 -389 -139 -22 -5 -86 -21 -142 -34
-55 -14 -106 -28 -112 -31 -10 -7 -36 -10 -286 -41 -66 -8 -142 -19 -170 -24
-27 -5 -97 -12 -155 -15 -91 -6 -120 -3 -220 19 -63 14 -133 30 -155 34 -77
17 -309 92 -322 105 -3 3 -14 6 -23 6 -9 0 -57 20 -106 44 -101 50 -146 60
-152 35 -2 -12 28 -31 110 -71 62 -31 138 -64 168 -73 30 -10 70 -27 88 -37
19 -10 50 -21 70 -23 37 -4 55 -8 82 -17 8 -3 49 -13 90 -23 41 -9 82 -19 90
-22 8 -4 22 -5 32 -4 9 1 31 -4 50 -12 24 -10 66 -13 153 -10 179 6 199 7 210
14 10 7 66 15 170 24 89 8 138 16 198 31 12 3 40 7 62 10 22 3 54 9 71 15 17
5 40 11 50 14 10 2 35 9 54 14 19 6 35 11 35 10 0 -6 283 81 334 103 24 10 51
20 60 21 9 2 34 12 56 23 22 12 67 31 100 44 61 25 139 69 261 151 38 25 74
48 79 52 8 4 11 -79 12 -261 0 -147 4 -292 8 -322 4 -30 8 -83 9 -117 0 -33 4
-64 7 -67 3 -3 4 -88 3 -188 -2 -100 0 -186 3 -192 7 -10 8 -21 17 -131 3 -38
8 -90 11 -115 3 -25 7 -69 9 -98 2 -29 6 -56 10 -59 3 -4 6 -16 6 -27 -1 -18
-2 -19 -10 -5 -5 9 -25 20 -44 23 -19 4 -45 15 -57 25 -35 26 -210 93 -230 88
-10 -3 -20 0 -22 6 -2 8 -38 12 -105 12 -56 0 -102 4 -102 8 0 5 -8 7 -17 6
-10 -1 -29 1 -43 5 -14 3 -65 2 -115 -4 -49 -5 -112 -12 -140 -15 -27 -2 -63
-8 -79 -11 -48 -10 -160 -65 -174 -86 -7 -10 -18 -18 -24 -18 -11 0 -24 -10
-75 -60 -14 -14 -40 -55 -59 -92 -19 -38 -38 -68 -43 -68 -12 0 -44 -78 -47
-113 -1 -15 -6 -40 -12 -55 -12 -32 -34 -135 -31 -148 1 -5 1 -11 0 -14 -1 -3
-4 -20 -6 -39 -1 -18 -9 -37 -16 -42 -12 -8 -11 -11 1 -19 12 -7 12 -12 2 -22
-14 -14 -16 -54 -2 -63 6 -3 10 -19 10 -35 0 -15 5 -30 10 -32 6 -2 12 -26 14
-53 5 -69 7 -73 45 -135 18 -30 34 -59 35 -66 1 -6 9 -23 19 -37 18 -28 23
-67 8 -67 -17 0 -94 -57 -135 -99 -22 -22 -43 -38 -47 -35 -4 2 -15 -8 -23
-23 -8 -15 -18 -26 -23 -24 -4 2 -24 -23 -43 -56 -19 -34 -50 -79 -68 -102
-18 -23 -30 -46 -26 -52 3 -6 2 -14 -3 -18 -14 -9 -61 -157 -68 -218 -4 -29
-11 -55 -16 -59 -5 -3 -9 -14 -9 -25 0 -10 -4 -19 -8 -19 -12 0 -15 -150 -3
-164 6 -7 13 -40 15 -74 3 -35 10 -71 16 -82 5 -10 10 -32 10 -48 0 -27 54
-161 69 -172 4 -3 16 -21 27 -40 19 -36 84 -116 147 -183 20 -20 50 -63 67
-95 17 -31 55 -82 85 -114 51 -53 58 -56 111 -61 38 -3 68 0 93 10 35 15 105
18 186 8 22 -3 61 -8 88 -11 26 -3 55 -3 65 1 9 4 55 9 102 10 47 2 114 6 150
10 88 9 284 69 341 105 26 16 50 26 53 23 3 -4 6 0 6 7 0 7 3 11 6 8 5 -6 21
7 97 80 l38 36 25 -25 c13 -13 32 -32 42 -42 9 -11 35 -38 57 -62 24 -26 77
-62 135 -93 52 -27 112 -59 132 -70 21 -12 45 -19 53 -16 8 4 15 1 15 -6 0 -7
7 -10 15 -6 8 3 15 1 15 -5 0 -6 7 -9 15 -5 8 3 15 2 15 -3 0 -5 108 -8 240
-8 132 0 240 3 240 7 0 4 11 5 25 2 14 -2 25 0 25 7 0 5 7 8 15 5 8 -4 15 -2
15 4 0 6 9 8 20 5 11 -3 20 0 20 6 0 5 7 8 15 5 8 -4 21 -1 29 5 7 6 15 9 18
6 3 -3 34 8 69 25 35 17 80 39 99 48 19 9 40 22 47 29 7 6 30 17 50 23 21 7
48 19 61 27 12 7 27 11 32 8 6 -3 10 -1 10 5 0 7 7 10 15 6 8 -3 15 -1 15 4 0
6 6 10 14 10 7 0 19 6 26 14 6 8 18 12 26 9 8 -3 24 4 35 16 18 19 53 27 102
23 17 -2 101 39 122 59 5 5 16 9 25 9 27 0 114 47 148 80 17 17 32 27 32 23 0
-4 6 -1 13 8 12 16 110 85 115 81 1 -1 10 6 21 16 10 9 50 37 90 61 70 43 87
60 194 191 119 147 216 309 248 417 11 37 24 75 28 83 9 17 7 107 -3 131 -4 9
-6 20 -4 25 6 21 -43 104 -89 150 -106 107 -239 204 -277 204 -9 0 -16 5 -16
10 0 6 -3 9 -7 9 -16 -3 -73 23 -73 34 0 6 -3 8 -6 4 -4 -3 -20 1 -36 9 -17 9
-42 18 -57 20 -14 3 -35 11 -46 18 -11 7 -36 16 -55 19 -19 4 -66 17 -104 28
-62 20 -85 21 -220 16 -83 -3 -169 -11 -191 -18 -22 -6 -69 -13 -105 -14 -36
-1 -72 -4 -80 -8 -11 -5 -21 5 -36 36 l-21 43 266 -4 c250 -3 398 6 576 33 11
2 45 6 75 10 72 8 109 13 140 20 14 3 38 8 54 10 15 3 45 13 65 21 20 8 70 26
111 40 41 14 95 37 120 52 75 44 196 107 225 118 11 3 34 6 52 5 17 -1 56 4
85 12 80 23 146 37 169 37 12 0 35 6 52 13 41 18 156 48 181 48 19 0 146 57
156 70 3 4 70 39 150 78 80 40 163 83 185 97 22 13 50 29 63 34 12 5 28 14 35
20 28 24 103 70 114 70 6 0 13 4 15 8 4 12 87 66 126 83 17 8 32 17 32 21 0 5
6 8 13 8 8 0 24 9 37 20 13 11 28 20 35 20 13 0 108 61 113 72 2 5 9 8 16 8 7
0 21 10 32 21 10 12 48 45 84 74 73 59 135 119 183 178 17 21 37 44 42 51 26
29 105 139 105 146 0 5 23 35 51 67 28 32 59 74 70 94 10 21 24 43 31 50 7 8
19 32 27 54 7 22 22 58 32 80 32 72 41 128 41 252 0 101 -4 129 -21 169 -33
73 -67 112 -124 140 -29 15 -54 30 -57 34 -13 19 -119 48 -210 58 -95 10 -404
3 -515 -12 -16 -2 -59 -7 -95 -11 -35 -3 -68 -9 -73 -12 -5 -3 -46 -9 -90 -14
-69 -7 -164 -35 -302 -89 -11 -5 -61 -17 -112 -29 -64 -14 -128 -38 -213 -81
-66 -33 -124 -58 -129 -56 -4 3 -8 150 -9 328 -1 235 -6 352 -17 428 -9 58
-18 137 -20 175 -8 153 -65 319 -141 412 -36 44 -37 45 -23 86 8 23 14 79 14
123 0 67 -4 86 -20 104 -15 17 -17 24 -7 38 25 36 42 86 48 146 5 51 3 70 -15
109 -12 27 -31 57 -43 69 -16 16 -18 25 -11 42 15 32 8 186 -10 229 -9 20 -14
37 -12 37 2 0 -6 17 -18 38 -34 59 -140 146 -284 232 -36 21 -53 38 -53 51 0
11 5 17 10 14 6 -3 10 -1 10 4 0 6 -7 11 -15 11 -9 0 -25 19 -35 43 l-19 42
37 6 37 6 -41 2 c-34 1 -47 8 -77 42 -36 39 -37 43 -39 122 l-2 82 -6 -80 -6
-80 -2 78 c-2 95 -21 103 -24 10 l-2 -68 -6 70 -6 70 -2 -68 c-2 -86 -21 -81
-24 6 l-1 62 -7 -55 -7 -55 -1 53 c-2 48 -4 52 -27 52 -22 0 -25 -5 -26 -37
l-2 -38 -7 40 -6 40 -6 -35 -5 -35 -1 33 c-2 36 -21 44 -23 10 -1 -22 -1 -22
-8 2 l-8 25 -5 -25 c-5 -23 -5 -23 -7 -2 -1 25 -41 32 -41 7 0 -8 -4 -15 -10
-15 -5 0 -10 6 -10 13 0 10 -36 13 -170 13 -93 0 -170 -4 -170 -8 0 -4 -9 -8
-20 -8 -11 0 -20 5 -20 10 0 6 -4 10 -10 10 -5 0 -10 -7 -10 -15 0 -8 -7 -15
-15 -15 -8 0 -15 7 -15 15 0 22 -17 18 -23 -5 -3 -11 -12 -20 -21 -20 -9 0
-16 8 -16 20 0 15 -7 20 -25 20 -18 0 -25 -5 -25 -20 0 -11 -6 -20 -14 -20 -9
0 -12 7 -9 20 4 16 0 20 -21 20 -20 0 -26 -5 -27 -22 -1 -22 -1 -22 -9 2 -8
24 -8 24 -9 3 -1 -28 -21 -31 -21 -3 0 13 -7 20 -20 20 -11 0 -20 -6 -20 -12
0 -8 -3 -9 -8 -3 -4 6 -20 17 -36 25 -16 8 -33 24 -38 35 -13 28 -50 53 -89
61 -57 10 -113 11 -126 2 -6 -5 -17 -8 -25 -7 -22 5 -71 -27 -100 -65 -27 -34
-28 -34 -58 -20 -30 15 -36 15 -120 -12 -8 -3 -16 -4 -18 -2 -1 2 -7 -4 -12
-12 -7 -10 -10 -11 -10 -2 0 8 -17 12 -51 12 l-50 0 1 -47 c3 -75 -3 -84 -11
-18 -6 59 -6 58 -4 -15 3 -69 1 -76 -16 -76 -17 0 -19 8 -19 78 0 112 -20 99
-22 -14 l-2 -93 -6 95 -6 95 -2 -102 c-3 -139 -20 -143 -25 -6 l-3 108 -2
-124 c-1 -68 -5 -121 -8 -118 -4 4 -6 58 -5 122 1 100 -1 115 -15 115 -13 0
-15 -11 -12 -70 2 -41 -1 -65 -6 -60 -5 5 -8 36 -7 70 1 55 -12 84 -21 43 -4
-16 -22 54 -65 252 -14 64 -45 169 -60 205 -3 8 -7 22 -8 30 -1 8 -7 33 -13
55 -6 22 -11 63 -10 90 1 49 -33 199 -54 240 -6 11 -28 40 -48 65 -21 25 -44
59 -53 76 -9 17 -31 43 -49 58 -96 78 -122 96 -141 97 -12 0 -29 2 -37 3 -8 2
-60 6 -115 10 -89 6 -105 4 -142 -14z m115 -596 c17 -8 71 -24 119 -36 48 -11
93 -22 100 -24 18 -5 73 -191 73 -245 0 -53 -21 -169 -44 -243 -15 -49 -75
-145 -126 -201 -15 -16 -33 -41 -40 -54 -7 -13 -28 -44 -48 -70 -19 -25 -46
-69 -59 -98 -23 -50 -95 -297 -127 -435 -18 -76 -78 -204 -125 -262 -17 -21
-31 -42 -31 -47 0 -14 -111 -143 -208 -243 -87 -88 -205 -184 -280 -226 -15
-8 -31 -20 -37 -26 -5 -5 -30 -23 -54 -40 -24 -16 -62 -41 -85 -57 -23 -15
-66 -39 -96 -53 -81 -37 -113 -53 -130 -63 -44 -26 -207 -101 -220 -101 -8 0
-42 -9 -74 -20 -33 -11 -69 -20 -81 -20 -11 0 -43 -11 -71 -23 -27 -13 -67
-28 -89 -34 -49 -13 -88 -27 -180 -64 -87 -35 -219 -79 -238 -79 -7 0 -63 -16
-123 -35 -60 -19 -120 -35 -134 -35 -14 -1 -72 -20 -130 -43 l-105 -42 -142 7
c-138 6 -196 18 -298 63 -16 7 -41 16 -55 20 -27 9 -127 61 -148 77 -7 6 -25
18 -41 27 -117 67 -244 168 -289 230 -20 28 -74 96 -120 151 -46 56 -96 128
-112 161 -16 33 -36 69 -45 79 -19 21 -13 40 12 40 38 0 122 52 179 112 33 34
63 69 65 76 3 10 16 3 42 -21 81 -74 250 -136 517 -191 259 -54 267 -55 365
-67 50 -5 131 -16 180 -23 50 -7 149 -12 220 -12 108 1 130 4 130 16 0 8 -7
16 -15 17 -8 1 -76 6 -150 13 -74 6 -182 18 -240 26 -272 37 -324 45 -330 49
-4 2 -31 9 -61 14 -87 16 -152 30 -189 41 -182 52 -279 87 -345 125 -43 25
-85 45 -92 45 -11 0 -12 12 -7 53 4 28 9 54 11 57 2 2 18 -2 36 -9 21 -9 92
-15 207 -17 119 -3 191 -9 225 -19 28 -9 79 -20 115 -25 36 -5 108 -17 160
-27 121 -22 456 -24 590 -3 155 25 207 34 227 41 12 5 64 16 115 24 198 35
572 180 693 269 17 12 55 37 85 55 114 70 338 277 547 506 142 156 158 178
295 385 164 247 234 386 249 493 6 42 15 77 19 77 4 0 21 -7 38 -16z m1425
-500 c32 -4 52 -13 62 -27 14 -20 13 -23 -14 -48 -16 -14 -35 -44 -41 -66 -9
-27 -20 -43 -41 -52 -19 -8 -32 -23 -37 -44 -9 -34 -6 -34 -102 -21 -41 5 -48
3 -74 -25 l-30 -31 -26 25 c-39 38 -78 41 -122 12 l-36 -25 -6 23 c-3 12 -20
37 -36 55 l-31 33 31 32 c20 20 54 39 101 54 76 24 118 22 120 -7 1 -9 2 -24
3 -32 0 -8 10 -15 20 -15 14 0 23 12 32 45 16 53 64 107 102 116 15 3 32 7 37
9 6 2 17 2 25 0 8 -2 36 -7 63 -11z m-503 -97 c0 -2 -10 -12 -22 -23 l-23 -19
19 23 c18 21 26 27 26 19z m661 -19 c25 -30 24 -41 -7 -77 -31 -37 -40 -38
-69 -7 -12 13 -27 25 -35 28 -11 3 -11 8 0 28 28 53 79 66 111 28z m59 -130
c0 -3 -13 -9 -30 -13 -43 -9 -38 -33 6 -37 47 -4 61 -25 48 -74 -8 -33 -14
-39 -54 -50 -43 -13 -46 -12 -69 11 -23 23 -24 25 -8 43 10 11 17 35 17 58 0
33 6 43 38 66 34 24 51 23 52 -4z m-144 -3 c8 -11 14 -33 12 -50 -2 -23 -12
-35 -43 -51 -22 -12 -50 -25 -62 -28 -19 -6 -22 -3 -21 21 0 15 -1 33 -3 38
-5 18 12 75 26 82 27 15 76 8 91 -12z m-594 -12 c24 -22 24 -69 -1 -83 -26
-14 -74 -13 -89 2 -30 30 1 98 45 98 15 0 35 -7 45 -17z m1326 -9 c26 -18 28
-42 7 -70 -8 -10 -15 -29 -15 -41 0 -32 -60 -47 -106 -28 -80 33 -56 130 37
148 45 8 54 7 77 -9z m-1135 -46 c31 -15 41 -46 27 -82 -11 -29 -45 -46 -94
-46 -40 0 -62 22 -70 70 -10 54 -3 58 95 68 8 1 27 -4 42 -10z m231 -9 c29
-23 32 -44 14 -85 -17 -37 -60 -54 -111 -42 -57 13 -66 23 -60 66 10 75 97
108 157 61z m1090 -1 c14 -53 7 -95 -19 -112 -33 -21 -50 -20 -85 6 -22 16
-30 30 -30 54 0 36 17 53 63 64 53 13 64 11 71 -12z m-444 -27 c17 -15 30 -32
30 -37 0 -16 -74 -84 -91 -84 -47 0 -68 106 -27 134 32 23 54 20 88 -13z
m-203 -89 l14 -34 -23 16 c-28 20 -43 20 -65 1 -10 -9 -35 -29 -55 -46 -21
-17 -38 -38 -38 -46 0 -33 32 -82 61 -92 32 -11 34 -16 15 -50 l-13 -23 -23
31 c-12 18 -43 42 -68 54 -53 26 -63 42 -30 52 32 10 38 23 38 78 l0 47 44 0
c37 0 48 5 64 28 11 15 23 38 27 51 l8 25 15 -29 c8 -16 21 -44 29 -63z m740
45 c61 -81 68 -177 15 -199 -15 -7 -28 -13 -30 -14 -2 -1 4 -14 13 -28 13 -20
22 -24 45 -20 40 9 76 -19 94 -73 9 -26 16 -57 16 -69 0 -25 -19 -74 -29 -74
-3 0 -16 16 -29 36 -20 31 -28 35 -55 32 -18 -3 -39 -8 -49 -12 -11 -5 -21 1
-34 23 -11 19 -36 38 -66 51 -42 18 -48 24 -48 50 0 31 -22 60 -46 60 -18 0
-18 -11 1 -36 22 -29 18 -62 -11 -89 -51 -47 -116 -19 -116 50 0 34 13 48 64
63 51 16 80 51 88 107 5 36 8 40 37 43 18 2 45 16 63 32 24 22 30 36 30 69 0
23 3 41 8 41 4 0 21 -20 39 -43z m-1618 -3 c8 -7 -19 -55 -34 -61 -23 -8 -95
27 -95 47 0 9 3 20 7 23 6 7 114 -2 122 -9z m614 -19 c31 -28 50 -70 42 -95
-6 -18 -74 -52 -87 -44 -4 3 -5 24 -2 48 5 32 2 50 -12 70 -15 24 -15 29 -3
37 21 13 31 11 62 -16z m621 -53 c3 -5 -6 -20 -19 -32 -14 -13 -25 -34 -25
-46 0 -24 -32 -48 -52 -42 -6 2 -17 26 -24 53 -12 51 -9 69 22 99 14 14 19 14
54 -4 21 -11 41 -24 44 -28z m-1173 21 c8 -9 29 -22 48 -30 32 -14 32 -15 15
-34 -37 -41 -123 -9 -107 40 3 9 7 22 9 29 5 17 19 15 35 -5z m464 -4 c4 -6 4
-26 1 -45 -7 -35 -32 -57 -76 -67 -22 -5 -27 -2 -36 28 -10 31 -9 36 12 50 13
8 27 15 32 15 5 0 15 7 22 15 15 18 36 20 45 4z m853 -9 c36 -30 39 -71 7
-108 -23 -27 -34 -32 -71 -32 -52 0 -57 8 -46 70 6 35 15 49 41 67 40 27 40
27 69 3z m-1070 -31 c53 -26 62 -34 62 -58 0 -35 -18 -58 -51 -66 -24 -6 -26
-3 -42 53 -9 32 -23 65 -32 72 -16 14 -20 30 -7 30 5 0 37 -14 70 -31z m558
-6 c32 -42 -4 -103 -61 -103 -61 0 -71 37 -23 87 35 37 64 42 84 16z m164 -16
l30 11 -3 -54 c-2 -29 -6 -56 -9 -59 -13 -13 -79 -17 -92 -6 -24 20 -30 69
-12 96 14 22 19 23 36 13 15 -10 27 -10 50 -1z m-799 -36 c15 -52 -1 -94 -42
-112 -28 -11 -32 -10 -65 22 -40 39 -43 56 -10 69 13 5 32 20 43 34 28 40 60
34 74 -13z m-360 -5 c130 -24 185 -64 240 -176 l31 -64 -23 -55 c-29 -71 -36
-181 -15 -241 8 -24 13 -46 10 -49 -2 -3 -19 0 -37 7 -17 6 -61 16 -97 21
-304 47 -554 150 -576 237 -9 36 30 106 78 142 24 17 79 61 123 97 48 39 98
71 125 80 56 17 50 17 141 1z m1029 -66 c0 -5 -5 -10 -11 -10 -5 0 -7 5 -4 10
3 6 8 10 11 10 2 0 4 -4 4 -10z m190 -31 c-7 -11 -14 -18 -17 -15 -3 3 0 12 7
21 18 21 23 19 10 -6z m125 1 c10 -11 20 -41 23 -69 4 -42 1 -50 -19 -65 -58
-40 -116 -5 -106 64 11 81 61 115 102 70z m-298 -57 c-9 -21 -19 -55 -23 -75
-7 -43 -16 -46 -43 -19 -43 43 -35 131 12 131 12 0 29 5 37 10 26 16 35 -6 17
-47z m141 10 c16 -31 2 -92 -25 -113 -66 -52 -118 2 -78 80 25 49 85 68 103
33z m-860 -30 c-4 -22 -38 -30 -38 -10 0 14 13 24 33 26 5 1 7 -7 5 -16z
m1327 -68 c34 -33 33 -78 -1 -110 -50 -47 -93 -25 -108 55 -5 29 -2 37 21 57
36 29 58 29 88 -2z m-221 -20 c11 -8 30 -15 43 -15 56 0 28 -101 -30 -108 -45
-6 -67 14 -67 59 0 40 14 79 28 79 4 0 16 -7 26 -15z m-139 -75 c3 -10 1 -30
-5 -45 -9 -24 -14 -27 -42 -21 -36 7 -78 42 -78 64 0 7 10 26 22 41 l23 27 37
-25 c21 -13 40 -32 43 -41z m533 6 c28 -41 28 -63 0 -93 -32 -34 -71 -30 -103
10 -24 32 -24 36 -12 73 10 27 21 40 38 44 36 9 52 2 77 -34z m-805 -6 c-19
-32 -33 -39 -33 -16 0 8 -3 21 -6 30 -5 13 1 16 25 16 l32 0 -18 -30z m95 8
c5 -7 13 -35 17 -62 8 -54 0 -66 -47 -66 -49 0 -64 66 -27 114 22 28 41 33 57
14z m288 -102 c16 -2 33 -4 37 -5 13 -2 37 -67 37 -99 0 -25 -6 -31 -41 -45
-37 -15 -44 -15 -71 -1 -37 19 -51 57 -43 118 8 64 13 71 35 51 10 -9 31 -18
46 -19z m159 18 c17 -11 35 -14 64 -9 34 6 41 3 51 -14 14 -28 -2 -59 -36 -67
-37 -10 -95 3 -117 25 -18 17 -19 23 -7 50 15 36 13 36 45 15z m-307 -58 c16
-10 15 -81 -1 -94 -6 -6 -24 -13 -38 -17 -51 -13 -78 53 -44 103 16 22 55 26
83 8z m-136 -89 c9 -28 14 -55 11 -59 -7 -12 -53 -9 -53 3 0 6 -13 22 -30 36
-28 23 -38 52 -23 66 3 4 22 7 42 7 35 0 37 -2 53 -53z m-94 -65 c2 -7 -6 -12
-17 -12 -21 0 -27 11 -14 24 9 9 26 2 31 -12z m-1622 -797 c42 -32 95 -51 168
-60 l57 -7 -7 -47 c-14 -97 -24 -113 -94 -151 -49 -27 -67 -42 -73 -65 -15
-50 -24 -60 -49 -57 -15 1 -33 -7 -48 -23 -34 -36 -47 -31 -53 18 -3 23 -9 56
-12 74 -5 21 0 50 14 88 12 32 23 83 25 115 2 31 9 66 15 78 6 11 11 30 11 41
0 27 6 26 46 -4z m385 -100 c96 -13 198 -96 238 -195 13 -33 28 -105 37 -185
8 -71 19 -144 24 -161 8 -24 5 -45 -17 -104 -14 -41 -39 -92 -55 -114 -15 -21
-28 -45 -28 -53 0 -24 -39 -53 -72 -53 -55 0 -76 10 -103 50 -15 21 -43 46
-63 56 -33 15 -46 16 -115 6 -95 -14 -122 -32 -189 -124 -31 -43 -64 -76 -88
-88 -21 -11 -45 -29 -53 -40 -12 -17 -18 -19 -45 -9 -18 6 -32 15 -32 20 0 4
13 23 30 42 20 23 27 40 24 54 -4 15 1 26 20 38 34 23 33 36 -10 81 -31 33
-34 41 -25 61 6 13 18 26 26 29 23 9 18 30 -15 67 -36 41 -36 48 -9 73 21 19
22 45 4 115 -6 24 -3 28 29 39 19 6 51 22 70 35 31 21 36 22 47 8 11 -12 9
-27 -10 -79 -14 -40 -21 -74 -17 -90 12 -45 56 -105 86 -116 23 -7 34 -22 49
-61 20 -56 31 -61 44 -22 6 18 3 37 -14 70 -12 25 -26 45 -30 45 -18 0 -77 62
-83 86 -4 14 0 51 8 82 8 31 18 78 21 103 7 57 46 105 100 123 52 17 86 79 90
163 1 32 3 59 4 61 0 1 19 0 41 -3 22 -3 58 -7 81 -10z m2399 -166 c17 -17 39
-48 49 -68 24 -46 61 -190 61 -234 0 -41 -41 -166 -71 -213 -29 -48 -102 -101
-162 -119 -83 -25 -82 -26 -83 68 0 100 -24 184 -70 254 -44 67 -43 78 3 47
49 -33 79 -39 110 -23 44 24 71 85 83 189 14 115 18 130 35 130 7 0 27 -14 45
-31z m-392 -109 c34 -51 28 -65 -16 -35 -20 13 -52 27 -70 31 -43 9 -50 23
-23 45 20 16 26 17 54 6 18 -8 42 -28 55 -47z m-1600 -442 c34 -8 42 -14 36
-27 -4 -9 -9 -31 -12 -48 -4 -28 -8 -33 -32 -33 -34 0 -60 -9 -60 -21 0 -5 11
-9 25 -9 14 0 39 -13 57 -29 l33 -29 -31 -39 c-36 -44 -83 -56 -115 -27 -23
21 -24 38 -3 74 21 34 12 69 -12 49 -24 -20 -47 -71 -46 -102 1 -23 -3 -27
-16 -22 -9 4 -31 9 -48 12 -27 4 -35 0 -56 -28 -33 -44 -42 -85 -28 -120 10
-22 9 -32 -6 -55 -26 -39 -24 -121 4 -161 22 -32 20 -43 -9 -43 -11 0 -19 11
-23 34 -4 18 -21 53 -38 77 -45 62 -47 107 -10 220 17 52 32 103 34 114 3 18
10 20 65 17 54 -3 64 -1 83 20 37 40 109 159 116 192 10 47 15 51 33 22 11
-18 30 -30 59 -38z m167 -18 c-3 -5 -10 -10 -16 -10 -5 0 -9 5 -9 10 0 6 7 10
16 10 8 0 12 -4 9 -10z m69 -11 c28 -22 35 -59 11 -59 -14 0 -55 54 -55 73 0
13 17 8 44 -14z m-77 -31 c30 -28 29 -38 -6 -72 -21 -20 -37 -27 -57 -24 -26
3 -29 7 -32 41 -4 43 9 64 41 70 12 2 24 5 26 6 3 0 15 -9 28 -21z m-585 -58
c27 -27 29 -34 23 -71 -4 -22 -20 -75 -35 -117 -42 -118 -45 -154 -14 -223 15
-33 31 -59 35 -59 12 0 39 -55 39 -77 -1 -10 -15 -27 -33 -38 -17 -11 -48 -43
-67 -70 -19 -28 -62 -77 -96 -110 -65 -64 -84 -92 -84 -123 0 -33 -25 -45 -75
-38 -53 8 -96 41 -120 92 -47 100 -63 498 -23 581 7 15 43 50 79 77 41 32 75
68 92 98 39 70 107 107 200 108 41 0 53 -5 79 -30z m2395 -12 c13 -21 13 -98
1 -163 -13 -69 -24 -95 -41 -95 -7 0 -35 -11 -63 -24 -57 -26 -68 -47 -80
-139 -12 -97 -40 -99 -50 -4 -6 57 -10 66 -51 103 l-43 42 48 80 c44 73 59
103 76 155 4 13 16 17 48 17 24 0 61 9 83 19 48 23 61 25 72 9z m-1658 -12
c16 -19 -20 -92 -50 -101 -34 -11 -68 3 -75 31 -14 55 90 113 125 70z m-174
-113 c20 -19 14 -67 -12 -95 -26 -29 -113 -22 -113 9 0 23 70 103 90 103 10 0
26 -7 35 -17z m237 -18 c10 -22 8 -29 -17 -55 -32 -33 -78 -40 -110 -16 -16
12 -17 16 -6 30 7 9 19 16 25 16 7 0 23 11 36 25 30 32 57 32 72 0z m68 -15
c0 -5 -4 -10 -10 -10 -5 0 -10 5 -10 10 0 6 5 10 10 10 6 0 10 -4 10 -10z
m1610 -74 c6 -6 26 -9 45 -8 40 3 39 5 20 -42 -9 -20 -13 -47 -9 -60 3 -15 -3
-40 -16 -65 -14 -28 -19 -49 -13 -64 4 -12 7 -38 8 -57 0 -29 5 -36 30 -44 17
-6 32 -11 33 -12 2 -2 -1 -19 -8 -39 -10 -31 -9 -39 4 -54 21 -23 21 -24 -19
-84 -43 -63 -43 -78 -6 -110 l29 -24 -23 -49 c-14 -27 -25 -57 -25 -66 0 -31
-12 -48 -34 -48 -30 -1 -101 -35 -146 -70 -57 -45 -85 -40 -166 26 -38 31 -79
61 -91 67 -13 6 -23 19 -23 30 0 11 -11 39 -24 61 -21 36 -22 48 -16 103 8 62
35 146 70 213 13 25 24 34 38 32 11 -2 22 4 25 12 3 8 21 22 41 31 40 19 43
26 56 113 5 35 16 72 25 82 9 10 43 27 75 39 44 16 61 28 64 44 3 12 10 47 17
77 l13 55 8 -40 c5 -22 13 -44 18 -49z m-2232 52 c18 -18 15 -49 -8 -85 -32
-52 -80 -39 -80 22 0 59 54 97 88 63z m62 -14 c0 -8 -5 -12 -10 -9 -6 4 -8 11
-5 16 9 14 15 11 15 -7z m1012 -11 c10 -9 18 -26 18 -37 0 -49 71 -135 133
-161 23 -10 58 -25 77 -34 40 -18 144 -22 239 -9 69 9 139 42 200 95 22 18 44
33 49 33 16 0 81 -78 88 -105 9 -37 -4 -93 -26 -108 -11 -8 -29 -35 -40 -60
-23 -52 -25 -53 -46 -32 -32 31 -155 12 -266 -42 -49 -23 -81 -34 -87 -28 -6
6 -13 28 -16 50 -6 34 -2 47 24 85 32 47 38 74 21 85 -15 9 -35 -10 -66 -63
-22 -38 -27 -57 -26 -106 1 -32 6 -64 11 -70 20 -26 22 -69 4 -112 -16 -39
-22 -44 -50 -44 -25 0 -46 12 -88 50 -53 48 -57 50 -98 44 -23 -4 -54 -13 -69
-20 -39 -20 -62 -18 -53 4 26 63 16 157 -20 201 -25 29 -32 57 -16 63 5 2 25
23 45 46 31 37 36 51 36 93 0 67 -31 129 -65 129 -31 0 -31 -8 1 -51 47 -62
18 -147 -68 -204 -48 -32 -48 -60 -1 -90 45 -28 66 -76 58 -128 -7 -39 -16
-52 -105 -143 -11 -12 -20 -31 -20 -43 0 -15 -6 -21 -21 -21 -17 0 -19 4 -13
18 5 9 9 45 9 79 -1 77 -20 103 -77 103 -38 0 -38 0 -38 40 0 23 -7 54 -15 69
-13 26 -13 30 1 42 27 22 44 66 44 112 0 41 2 45 30 51 44 8 56 42 41 112 -7
30 -10 58 -8 61 3 3 21 -1 40 -8 45 -16 112 2 164 42 42 34 41 34 65 12z
m-702 -8 c0 -9 11 -27 25 -41 14 -14 25 -27 25 -29 0 -12 -38 -2 -59 15 -17
15 -22 26 -17 45 7 27 26 34 26 10z m324 -1 c8 -20 -2 -56 -18 -66 -16 -11
-78 -10 -95 1 -12 8 -13 15 -3 35 10 22 37 34 103 45 4 1 10 -6 13 -15z m-544
-39 c14 -38 4 -50 -52 -64 -51 -14 -67 -8 -68 25 0 16 34 44 66 54 43 12 44
12 54 -15z m61 -48 c-13 -13 -26 -3 -16 12 3 6 11 8 17 5 6 -4 6 -10 -1 -17z
m137 0 c21 -22 22 -26 7 -60 -8 -20 -15 -48 -15 -61 0 -19 -7 -27 -25 -32 -44
-11 -76 8 -92 55 -17 50 -10 64 43 83 19 6 34 18 34 25 0 20 24 15 48 -10z
m428 -12 c8 -44 0 -65 -25 -65 -30 0 -43 31 -30 69 16 44 46 42 55 -4z m-291
-5 c4 -6 11 -8 16 -5 13 9 79 -17 79 -30 0 -7 -15 -28 -32 -48 -28 -31 -42
-38 -86 -43 l-54 -7 7 59 c7 57 23 84 51 84 7 0 16 -5 19 -10z m-465 -47 c0
-13 -3 -13 -15 -3 -8 7 -15 19 -15 27 0 13 3 13 15 3 8 -7 15 -19 15 -27z
m-61 -14 c24 -33 28 -46 20 -60 -11 -21 -52 -35 -69 -24 -22 14 -31 56 -20 91
15 45 32 43 69 -7z m201 -9 c0 -10 5 -30 11 -44 19 -41 4 -74 -39 -87 -58 -17
-95 -9 -106 24 -13 37 17 95 53 103 14 3 33 9 41 14 25 15 40 11 40 -10z m487
0 c-4 -17 -1 -20 16 -18 18 2 24 -4 32 -36 13 -52 -17 -109 -59 -114 -34 -4
-76 31 -76 64 0 25 39 89 68 110 23 18 25 17 19 -6z m-132 -136 c8 -46 -7 -64
-63 -71 -32 -4 -42 -2 -50 13 -11 21 -2 54 19 71 12 10 38 17 75 22 7 0 15
-15 19 -35z m-515 -21 c0 -17 -11 -16 -39 4 -23 16 -23 17 -5 30 16 12 20 11
31 -4 7 -9 13 -23 13 -30z m331 21 c8 -9 14 -29 15 -45 1 -15 5 -40 8 -55 6
-22 0 -32 -34 -64 -37 -34 -40 -40 -30 -64 14 -37 -3 -66 -37 -66 -14 0 -42
-5 -62 -11 -34 -10 -39 -9 -70 20 -18 17 -37 31 -42 31 -4 0 -6 37 -2 82 7 93
16 106 93 133 25 8 59 24 75 35 37 24 68 26 86 4z m-358 -78 c30 -13 57 -28
61 -34 6 -10 -7 -91 -19 -124 -5 -12 7 -30 40 -63 l47 -45 -36 -41 c-45 -48
-56 -76 -56 -135 0 -28 -4 -44 -12 -44 -7 0 -26 -7 -43 -16 -16 -9 -55 -17
-85 -18 -73 -1 -121 28 -161 100 -27 46 -90 103 -131 116 -20 7 4 49 61 106
31 31 75 84 98 118 39 56 64 75 133 98 29 9 50 6 103 -18z m680 -38 c26 -31
22 -82 -9 -107 -35 -28 -65 -26 -93 3 -20 21 -22 31 -16 63 12 65 22 76 63 68
21 -3 45 -15 55 -27z m-161 -50 c-6 -66 -33 -108 -71 -108 -52 0 -65 38 -32
100 12 21 31 39 52 46 55 20 57 19 51 -38z m1263 9 c4 -13 -1 -51 -9 -84 -22
-84 -20 -151 4 -188 11 -16 20 -32 20 -35 0 -3 -48 -5 -108 -5 -86 0 -116 -4
-151 -20 -30 -13 -46 -16 -48 -8 -2 6 -20 37 -39 69 l-35 58 21 57 c12 31 36
70 53 87 52 49 160 87 259 91 21 1 29 -5 33 -22z m-1010 -104 c46 -22 57 -68
26 -112 -26 -36 -50 -45 -86 -31 -64 24 -75 93 -22 134 38 31 37 30 82 9z
m-195 -28 c22 -11 30 -23 30 -41 0 -32 29 -94 47 -101 7 -3 13 -13 13 -22 0
-10 -18 3 -48 35 -26 28 -61 59 -79 68 -32 16 -35 32 -10 64 12 15 12 15 47
-3z m655 -47 c34 -41 62 -57 100 -58 39 -1 66 -23 98 -84 26 -47 27 -66 5 -66
-13 0 -72 -47 -167 -135 -39 -36 -78 -65 -86 -65 -16 0 -19 6 -29 51 -3 15
-21 45 -40 68 -41 49 -58 119 -54 212 3 62 4 64 43 86 58 33 97 30 130 -9z
m-215 -104 c6 -117 31 -191 85 -256 14 -16 23 -33 20 -38 -3 -4 -29 -11 -58
-15 -28 -4 -60 -12 -71 -17 -43 -23 -245 -67 -283 -62 -65 9 -66 11 -41 45 21
28 23 41 23 151 0 119 0 121 27 141 21 16 40 20 91 18 56 -1 69 2 95 24 17 14
34 39 37 56 8 35 40 72 58 66 8 -2 14 -42 17 -113z m-2328 -410 c48 -37 68
-47 101 -48 51 -2 71 -13 124 -65 25 -26 50 -41 65 -41 53 0 131 -32 173 -71
42 -39 68 -95 89 -189 3 -14 59 -80 124 -148 113 -116 120 -126 131 -179 15
-75 14 -108 -4 -143 -14 -27 -14 -36 2 -95 15 -58 16 -67 3 -75 -24 -15 -50
-11 -56 8 -17 52 -47 122 -60 138 -8 11 -28 38 -44 62 -32 44 -47 52 -56 27
-6 -13 12 -46 88 -157 21 -32 25 -59 6 -40 -7 7 -20 12 -29 12 -15 0 -67 61
-111 132 -12 18 -29 28 -57 33 -56 9 -87 37 -123 109 -26 53 -135 187 -203
252 -12 11 -46 26 -77 32 -41 10 -65 23 -96 53 -23 22 -42 46 -42 53 0 7 -32
43 -71 80 -39 37 -68 70 -65 73 9 10 139 -38 172 -63 17 -13 36 -24 42 -24 6
0 34 -20 62 -45 48 -43 82 -56 94 -36 3 5 -20 33 -52 62 -60 55 -165 113 -262
144 -80 26 -200 77 -206 87 -3 5 12 30 34 56 45 54 72 63 176 57 64 -4 72 -7
128 -51z m-343 24 c-7 -13 -23 -40 -36 -60 -21 -34 -26 -37 -48 -28 -17 7 -46
5 -90 -4 -58 -12 -70 -19 -108 -62 -23 -26 -55 -59 -70 -73 -42 -37 -63 -78
-82 -156 -15 -59 -16 -79 -6 -135 7 -36 23 -87 37 -114 14 -26 31 -83 39 -125
16 -89 53 -162 98 -190 18 -11 43 -32 55 -46 13 -15 38 -33 55 -40 18 -7 78
-57 134 -110 102 -96 103 -96 170 -107 43 -6 97 -25 147 -50 74 -37 81 -39
142 -33 34 4 116 2 181 -5 113 -12 120 -11 166 9 34 15 69 21 117 21 64 0 70
2 94 31 49 57 60 88 47 129 -15 52 -15 52 26 30 51 -27 88 -25 118 5 29 28 31
54 9 119 -15 44 -15 50 1 86 13 30 16 53 11 93 -12 104 -29 133 -145 248
l-109 107 -28 89 c-22 74 -34 95 -71 131 -53 52 -101 82 -128 82 -44 0 -92 22
-133 60 -53 49 -84 66 -141 73 -26 3 -52 14 -65 27 l-21 22 58 -7 c136 -16
363 -120 478 -219 108 -93 212 -219 253 -307 28 -58 67 -161 96 -249 18 -54
27 -232 22 -406 -2 -71 -31 -123 -73 -135 -15 -3 -40 -16 -55 -28 -45 -32
-178 -67 -299 -78 -127 -12 -463 -7 -515 7 -19 6 -46 10 -59 10 -29 0 -182 72
-241 114 -25 18 -70 46 -100 63 -74 42 -177 141 -241 233 -29 41 -59 81 -67
89 -26 27 -110 219 -128 295 -17 74 -17 80 1 171 15 79 25 104 57 146 21 28
38 56 38 61 0 19 63 90 114 127 69 50 144 80 261 105 44 9 46 7 34 -16z m-20
-167 c72 -33 101 -54 177 -128 49 -48 97 -101 105 -117 18 -36 100 -91 159
-106 38 -9 60 -27 142 -113 57 -59 98 -110 98 -122 0 -11 15 -43 33 -72 33
-53 82 -83 135 -83 13 0 25 -8 29 -17 3 -10 21 -39 39 -64 19 -26 52 -77 73
-114 l40 -68 -29 -42 -29 -42 -78 -6 c-43 -3 -100 -13 -127 -23 -40 -14 -58
-15 -105 -6 -31 5 -103 9 -161 8 -105 -2 -105 -2 -196 41 -50 24 -98 43 -105
43 -47 0 -95 28 -181 103 -51 46 -134 115 -185 155 -100 80 -118 109 -133 215
-5 31 -23 88 -42 125 -37 75 -43 144 -19 238 10 44 25 64 96 136 70 70 89 84
109 81 13 -3 32 0 43 6 24 14 14 16 112 -28z m1556 -285 c88 -31 232 -91 255
-108 231 -168 255 -190 314 -291 98 -167 122 -218 146 -313 23 -89 26 -144 8
-144 -7 0 -25 6 -39 14 -45 23 -160 40 -276 41 l-113 0 0 50 c0 28 -7 77 -15
109 -15 57 -15 59 6 74 19 13 20 16 5 24 -9 5 -25 7 -35 3 -13 -4 -31 10 -70
54 l-51 60 46 27 c35 21 43 29 31 35 -9 5 -32 3 -58 -6 l-43 -16 -39 46 c-21
25 -52 52 -68 61 -16 8 -29 18 -29 22 0 11 67 32 133 43 33 5 63 11 68 15 13
8 11 34 -3 39 -14 5 -128 -23 -193 -48 -36 -14 -41 -14 -63 4 -13 10 -40 22
-60 25 -20 4 -50 15 -67 26 -16 10 -42 18 -56 18 -21 0 -29 9 -50 58 -13 31
-24 61 -24 67 0 5 32 17 70 27 88 21 175 16 270 -16z m-2054 -249 c52 -129 72
-167 113 -217 25 -30 60 -78 79 -107 65 -98 140 -173 212 -215 39 -23 95 -58
125 -78 100 -66 224 -119 303 -130 114 -15 434 -21 522 -11 163 20 238 39 318
81 50 26 77 35 77 27 0 -7 -14 -39 -30 -69 -33 -61 -61 -79 -145 -98 -28 -6
-70 -21 -95 -35 -26 -13 -95 -41 -155 -61 l-110 -38 -200 -2 -200 -3 -115 38
c-63 21 -153 50 -200 64 -98 31 -196 86 -249 139 -58 60 -113 158 -107 190 4
20 0 31 -14 41 -10 7 -26 33 -36 57 -10 25 -33 71 -51 103 -27 45 -40 86 -60
192 -14 76 -22 146 -19 161 8 32 15 26 37 -29z m124 -622 c39 -78 138 -184
194 -208 14 -6 33 -16 41 -22 23 -18 116 -51 205 -75 44 -11 89 -25 100 -30
56 -26 101 -40 148 -46 30 -4 61 -15 74 -26 17 -16 49 -23 145 -34 68 -8 146
-18 173 -23 28 -6 80 -10 117 -10 l67 -1 -28 -77 c-15 -43 -36 -127 -46 -188
-10 -60 -22 -121 -27 -135 -18 -45 -26 -160 -17 -228 6 -37 12 -91 14 -121 2
-30 7 -66 10 -81 5 -22 -1 -33 -33 -62 -46 -42 -137 -102 -184 -121 -40 -17
-203 -61 -278 -76 -77 -15 -338 -16 -441 -1 -74 10 -91 9 -124 -4 -20 -9 -41
-16 -46 -16 -11 0 -11 62 1 120 5 25 14 86 20 136 6 54 22 125 40 175 42 116
62 180 57 185 -9 9 -58 -17 -54 -29 2 -6 -9 -38 -25 -70 -43 -86 -65 -170 -72
-272 -4 -49 -11 -108 -16 -130 -5 -22 -10 -57 -10 -77 0 -30 -4 -38 -18 -38
-27 0 -113 89 -146 150 -16 30 -61 89 -99 131 -137 152 -177 231 -212 420 -29
157 -30 183 -10 281 53 256 96 359 205 487 45 52 174 162 208 178 15 6 27 12
28 12 0 1 18 -33 39 -74z m2550 -4 c97 -26 207 -89 242 -139 113 -165 147
-228 154 -286 11 -87 -10 -116 -128 -171 -69 -33 -96 -51 -107 -73 -9 -17 -29
-40 -45 -51 -32 -23 -141 -61 -174 -61 -30 0 -209 -61 -238 -81 -14 -10 -51
-28 -82 -39 -31 -12 -59 -26 -63 -31 -3 -5 -36 -25 -73 -44 -52 -25 -99 -39
-190 -54 -114 -19 -185 -42 -240 -78 -23 -15 -23 -17 -7 -28 18 -14 49 -9 82
12 12 7 89 27 172 43 147 29 220 56 287 105 17 13 41 26 54 30 13 4 62 25 109
46 46 22 121 48 166 60 171 42 199 55 269 123 43 42 82 70 114 82 26 9 64 32
83 50 l35 33 46 -42 c57 -52 66 -81 73 -231 4 -94 2 -125 -10 -155 -9 -20 -22
-57 -30 -83 -19 -63 -50 -115 -124 -208 -61 -79 -104 -112 -205 -160 -27 -13
-69 -37 -93 -53 -85 -57 -270 -127 -407 -152 -76 -14 -442 -6 -501 11 -59 17
-111 40 -134 60 -8 7 -42 22 -75 34 -48 18 -75 38 -137 100 -42 43 -86 81 -97
85 -10 3 -26 16 -35 29 -15 24 -15 24 29 30 56 9 190 67 218 95 19 19 20 22 6
36 -14 14 -18 14 -41 -4 -14 -11 -65 -37 -114 -57 -49 -19 -95 -38 -101 -41
-9 -3 -13 5 -13 26 0 16 -8 52 -17 78 -22 63 -22 193 0 253 9 25 23 91 32 147
18 117 66 265 101 306 13 15 26 43 30 62 3 19 13 40 21 47 8 7 19 22 24 35 4
12 28 32 51 44 24 12 51 29 61 38 63 55 215 125 307 140 124 20 212 43 270 69
100 46 298 52 445 13z"/>
<path d="M5525 8462 c-60 -49 -134 -101 -163 -117 -55 -30 -79 -51 -68 -62 10
-10 126 52 181 97 28 22 77 61 110 86 64 49 77 63 69 76 -9 14 -17 9 -129 -80z"/>
<path d="M5065 8175 c-16 -7 -51 -21 -76 -30 -26 -8 -66 -28 -90 -44 -24 -15
-133 -56 -241 -92 -124 -40 -198 -69 -198 -77 0 -20 80 -6 180 33 47 18 117
42 155 55 62 20 167 65 275 118 19 9 36 25 38 35 4 20 -3 20 -43 2z"/>
<path d="M4295 7904 c-11 -3 -47 -9 -80 -15 -33 -6 -89 -19 -125 -29 -36 -10
-107 -20 -158 -23 -68 -3 -98 -8 -109 -20 -15 -15 -15 -17 2 -23 30 -12 260
16 382 46 113 28 148 44 137 61 -5 9 -14 10 -49 3z"/>
<path d="M5604 4749 c-9 -16 64 -87 102 -99 23 -8 48 -32 85 -83 54 -75 147
-177 161 -177 22 0 2 46 -51 116 -92 123 -130 162 -185 190 -28 14 -60 34 -72
45 -23 22 -30 23 -40 8z"/>
<path d="M4832 4758 c-19 -19 -14 -38 11 -47 42 -16 120 -70 136 -94 45 -68
60 -88 120 -155 52 -59 72 -74 108 -83 24 -7 46 -15 49 -20 9 -15 44 -10 51 7
8 21 -18 41 -68 54 -41 11 -99 68 -181 175 -69 91 -65 87 -138 134 -70 46 -71
46 -88 29z"/>
<path d="M5360 4286 c0 -18 12 -26 74 -48 27 -10 57 -25 67 -34 20 -18 39 -11
39 14 0 20 -36 44 -100 66 -56 20 -80 20 -80 2z"/>
<path d="M5590 4122 c0 -41 95 -92 171 -92 34 0 60 -6 78 -19 40 -28 131 -33
131 -6 0 15 -17 20 -54 16 -11 -1 -26 4 -35 11 -41 33 -79 47 -123 44 -37 -3
-54 2 -88 25 -41 28 -80 38 -80 21z"/>
<path d="M6972 4334 c-12 -8 -22 -19 -22 -25 0 -22 120 5 128 29 6 18 -79 15
-106 -4z"/>
<path d="M7045 4100 c-11 -4 -39 -14 -62 -21 -56 -16 -60 -43 -5 -36 114 16
188 40 177 58 -7 11 -82 11 -110 -1z"/>
<path d="M4605 3597 c-8 -13 -24 -52 -36 -88 -11 -35 -25 -68 -30 -73 -11 -12
-12 -56 -1 -56 4 0 13 12 20 28 6 15 30 61 52 102 22 41 40 83 40 93 0 25 -27
21 -45 -6z"/>
<path d="M4977 3448 c-29 -39 -47 -73 -47 -87 0 -20 29 -11 41 12 7 12 23 35
35 50 13 16 24 35 24 43 0 25 -28 15 -53 -18z"/>
<path d="M5294 3402 c-21 -13 -130 -168 -192 -272 -11 -19 -23 -52 -27 -72 -6
-31 -4 -38 9 -38 9 0 19 8 22 18 16 50 43 102 73 142 72 94 150 213 145 222
-6 10 -15 10 -30 0z"/>
<path d="M4881 3273 c-15 -30 -78 -186 -83 -210 -7 -27 14 -49 30 -31 13 16
92 226 92 244 0 20 -28 17 -39 -3z"/>
<path d="M4516 3268 c-2 -7 -13 -40 -25 -74 -22 -63 -28 -148 -12 -173 16 -25
31 -1 31 49 0 27 9 74 21 105 12 33 18 66 15 81 -7 25 -24 32 -30 12z"/>
<path d="M4314 3199 c-10 -16 -20 -279 -12 -292 16 -27 26 14 31 128 3 66 9
132 13 148 5 21 3 27 -9 27 -9 0 -19 -5 -23 -11z"/>
<path d="M5349 3068 c-58 -74 -68 -97 -46 -112 15 -12 15 -15 1 -35 -9 -12
-14 -25 -11 -27 8 -8 49 55 42 66 -6 10 36 83 55 95 22 13 30 43 16 55 -12 9
-23 1 -57 -42z"/>
<path d="M4588 2933 c-63 -137 -103 -302 -78 -318 17 -10 28 11 36 65 3 25 15
65 27 90 30 66 75 204 70 213 -12 19 -31 2 -55 -50z"/>
<path d="M5556 2974 c-18 -17 -21 -50 -7 -59 12 -7 54 52 46 65 -9 14 -21 12
-39 -6z"/>
<path d="M5439 2753 c-60 -108 -100 -196 -95 -209 6 -15 26 -19 26 -6 0 4 27
56 60 115 33 60 60 117 60 127 0 39 -19 28 -51 -27z"/>
<path d="M5146 2728 c-9 -12 -16 -28 -16 -34 0 -6 -6 -17 -14 -23 -15 -13 -76
-171 -76 -197 0 -37 34 -5 55 51 28 74 39 99 70 150 14 22 25 48 25 58 0 24
-26 21 -44 -5z"/>
<path d="M6906 3781 c-4 -5 -39 -15 -79 -22 -69 -12 -117 -32 -117 -49 0 -20
40 -17 143 9 62 17 123 31 137 33 14 2 26 11 28 21 3 14 -5 17 -52 17 -30 0
-57 -4 -60 -9z"/>
<path d="M6460 3644 c-16 -19 -128 -104 -137 -104 -8 0 -122 -53 -173 -80 -19
-11 -35 -25 -35 -32 0 -28 45 -17 151 36 130 65 224 137 224 172 0 28 -12 31
-30 8z"/>
<path d="M6890 3601 c-8 -5 -60 -21 -115 -36 -171 -46 -386 -170 -332 -191 8
-3 39 10 69 29 30 19 72 43 94 52 95 42 163 67 219 81 33 9 76 22 95 31 33 14
34 15 16 29 -23 16 -26 16 -46 5z"/>
<path d="M7081 3596 c-18 -22 -1 -27 100 -29 105 -2 121 17 22 28 -37 3 -77 9
-89 11 -11 3 -26 -1 -33 -10z"/>
<path d="M7190 3396 c-136 -29 -150 -34 -150 -53 0 -12 12 -14 78 -8 42 4 95
11 117 17 22 6 60 12 84 14 49 3 71 18 55 34 -20 20 -79 19 -184 -4z"/>
<path d="M6276 3331 c-3 -4 -18 -11 -33 -14 -16 -3 -55 -30 -88 -59 -34 -29
-78 -64 -98 -78 -37 -25 -50 -60 -22 -60 20 0 90 44 136 85 19 17 61 51 93 74
31 23 54 46 51 52 -8 11 -32 12 -39 0z"/>
<path d="M6739 3244 c-53 -16 -81 -41 -60 -53 14 -9 146 23 167 40 36 30 -28
38 -107 13z"/>
<path d="M6340 3097 c-76 -43 -164 -100 -277 -181 -35 -24 -68 -46 -74 -48
-16 -5 -1 -48 16 -48 8 0 32 12 53 28 188 132 236 164 279 186 63 34 126 78
127 91 2 25 -54 12 -124 -28z"/>
<path d="M7568 2993 c-22 -50 -116 -191 -143 -213 -17 -14 -20 -40 -5 -40 11
0 74 62 117 117 44 56 83 131 83 159 0 41 -30 28 -52 -23z"/>
<path d="M7322 2950 c-14 -18 -44 -36 -85 -50 -34 -11 -80 -34 -101 -50 -22
-17 -45 -30 -52 -30 -20 0 -39 -29 -27 -41 15 -15 43 -4 104 38 28 19 72 42
98 50 64 22 113 60 109 86 -4 30 -20 29 -46 -3z"/>
<path d="M6790 2667 c-47 -32 -83 -44 -165 -57 -38 -6 -91 -18 -117 -26 -26
-8 -53 -14 -60 -13 -17 4 -177 -11 -194 -18 -8 -3 -14 -14 -14 -25 0 -19 4
-20 48 -14 26 3 90 10 142 16 190 20 440 99 448 143 5 25 -46 22 -88 -6z"/>
<path d="M7261 2646 c-6 -8 -24 -16 -39 -19 -52 -9 -158 -54 -169 -71 -16 -25
29 -21 115 10 100 35 122 48 122 70 0 20 -16 25 -29 10z"/>
<path d="M6780 2445 c-86 -33 -151 -47 -237 -54 -90 -6 -122 -18 -109 -40 12
-19 203 -2 281 25 95 33 115 44 115 66 0 21 -2 21 -50 3z"/>
<path d="M8648 9103 c7 -3 16 -2 19 1 4 3 -2 6 -13 5 -11 0 -14 -3 -6 -6z"/>
<path d="M8510 8175 c-19 -7 -69 -18 -110 -25 -41 -6 -100 -18 -130 -25 -30
-8 -64 -14 -75 -14 -65 2 -195 -15 -192 -25 6 -18 228 -9 357 14 135 24 142
26 187 53 25 15 31 22 21 28 -16 10 -14 10 -58 -6z"/>
<path d="M7282 7863 c-76 -3 -102 -7 -99 -16 6 -19 130 -27 210 -14 80 14 106
38 35 35 -23 -1 -89 -4 -146 -5z"/>
<path d="M5580 7436 c-30 -13 -125 -57 -212 -99 -86 -43 -162 -77 -168 -77 -7
0 -26 -6 -43 -14 -87 -40 -188 -76 -339 -121 -57 -17 -91 -32 -98 -45 -15 -29
-13 -30 33 -15 23 7 85 25 137 40 111 30 453 166 524 208 27 15 85 46 130 68
82 40 116 61 116 73 0 10 -22 5 -80 -18z"/>
<path d="M11000 5015 c-36 -8 -92 -29 -125 -46 -33 -17 -91 -47 -130 -67 -127
-63 -249 -213 -270 -331 -3 -19 -10 -42 -16 -53 -5 -10 -9 -58 -9 -106 1 -48
1 -92 1 -98 -1 -7 -17 -15 -36 -18 -19 -4 -53 -17 -75 -30 l-41 -23 24 -29
c69 -84 130 -215 142 -305 8 -55 -7 -35 -35 47 -11 30 -28 68 -40 83 -11 16
-20 32 -20 36 0 19 -68 89 -128 132 -108 78 -173 93 -406 98 -143 3 -173 1
-195 -13 -115 -72 -221 -144 -221 -152 0 -5 -9 -12 -20 -15 -23 -7 -90 -73
-90 -88 0 -6 -8 -20 -18 -31 -22 -26 -107 -173 -116 -202 -4 -12 -8 -50 -11
-83 -7 -112 68 -270 157 -332 18 -12 47 -37 64 -54 49 -49 171 -94 289 -107
172 -18 251 -5 468 81 34 13 138 79 152 96 5 7 15 14 20 16 33 12 235 140 272
173 38 33 133 161 133 179 0 3 5 18 12 34 6 15 12 31 13 36 2 4 4 10 5 15 1 4
2 11 1 16 -1 4 3 14 8 20 6 7 12 34 13 60 3 52 -1 51 87 29 19 -5 77 -5 130
-1 227 19 392 79 503 184 10 10 24 14 34 10 9 -4 33 -2 53 4 96 29 146 45 151
50 3 3 17 11 32 17 52 23 163 102 205 146 87 90 149 235 137 320 -9 64 -36
149 -55 172 -9 11 -28 32 -40 48 -29 34 -112 50 -174 34 -19 -5 -78 -13 -155
-21 -43 -5 -87 -24 -94 -42 -3 -7 8 -37 24 -66 39 -72 57 -177 43 -249 l-11
-54 0 50 c2 105 -35 189 -108 250 -27 22 -64 56 -84 76 -19 20 -70 53 -114 75
-73 35 -86 39 -175 41 -57 1 -122 -3 -161 -12z m-1030 -779 c54 -3 100 -11
126 -23 39 -17 41 -20 28 -38 -11 -15 -13 -37 -8 -90 l6 -71 -45 -40 c-88 -78
-198 -114 -348 -114 -135 0 -212 53 -225 157 -4 35 -2 64 5 81 20 43 71 102
105 119 36 19 126 30 211 26 33 -1 98 -5 145 -7z"/>
<path d="M11550 4030 c0 -5 7 -7 15 -4 8 4 15 8 15 10 0 2 -7 4 -15 4 -8 0
-15 -4 -15 -10z"/>
<path d="M11475 4020 c-33 -8 -145 -60 -131 -60 15 0 171 50 186 60 12 8 12
10 -5 9 -11 -1 -33 -5 -50 -9z"/>
<path d="M11235 3918 c-22 -23 -33 -37 -24 -30 9 7 41 26 70 42 51 28 52 30
24 30 -23 0 -41 -10 -70 -42z"/>
</g>
</svg>
