<svg width="36" height="33" viewBox="0 0 36 33" fill="none" xmlns="http://www.w3.org/2000/svg">
<path d="M3.5 3.5293C3.1875 3.5293 3 3.7793 3 4.0293V9.0293C3 9.9043 2.3125 10.5293 1.5 10.5293C0.625 10.5293 0 9.9043 0 9.0293V4.0293C0 2.1543 1.5625 0.529297 3.5 0.529297H8.5C9.3125 0.529297 10 1.2168 10 2.0293C10 2.9043 9.3125 3.5293 8.5 3.5293H3.5ZM7.5 8.5293C8.3125 8.5293 9 9.2168 9 10.0293V23.0293C9 23.9043 8.3125 24.5293 7.5 24.5293C6.625 24.5293 6 23.9043 6 23.0293V10.0293C6 9.2168 6.625 8.5293 7.5 8.5293ZM11 9.5293C11 9.0293 11.4375 8.5293 12 8.5293C12.5 8.5293 13 9.0293 13 9.5293V23.5293C13 24.0918 12.5 24.5293 12 24.5293C11.4375 24.5293 11 24.0918 11 23.5293V9.5293ZM28 9.5293C28 9.0293 28.4375 8.5293 29 8.5293C29.5 8.5293 30 9.0293 30 9.5293V23.5293C30 24.0918 29.5 24.5293 29 24.5293C28.4375 24.5293 28 24.0918 28 23.5293V9.5293ZM15 10.0293C15 9.2168 15.625 8.5293 16.5 8.5293C17.3125 8.5293 18 9.2168 18 10.0293V23.0293C18 23.9043 17.3125 24.5293 16.5 24.5293C15.625 24.5293 15 23.9043 15 23.0293V10.0293ZM24.5 8.5293C25.3125 8.5293 26 9.2168 26 10.0293V23.0293C26 23.9043 25.3125 24.5293 24.5 24.5293C23.625 24.5293 23 23.9043 23 23.0293V10.0293C23 9.2168 23.625 8.5293 24.5 8.5293ZM33 4.0293C33 3.7793 32.75 3.5293 32.5 3.5293H27.5C26.625 3.5293 26 2.9043 26 2.0293C26 1.2168 26.625 0.529297 27.5 0.529297H32.5C34.375 0.529297 36 2.1543 36 4.0293V9.0293C36 9.9043 35.3125 10.5293 34.5 10.5293C33.625 10.5293 33 9.9043 33 9.0293V4.0293ZM3.5 29.5293H8.5C9.3125 29.5293 10 30.2168 10 31.0293C10 31.9043 9.3125 32.5293 8.5 32.5293H3.5C1.5625 32.5293 0 30.9668 0 29.0293V24.0293C0 23.2168 0.625 22.5293 1.5 22.5293C2.3125 22.5293 3 23.2168 3 24.0293V29.0293C3 29.3418 3.1875 29.5293 3.5 29.5293ZM33 29.0293V24.0293C33 23.2168 33.625 22.5293 34.5 22.5293C35.3125 22.5293 36 23.2168 36 24.0293V29.0293C36 30.9668 34.375 32.5293 32.5 32.5293H27.5C26.625 32.5293 26 31.9043 26 31.0293C26 30.2168 26.625 29.5293 27.5 29.5293H32.5C32.75 29.5293 33 29.3418 33 29.0293Z" fill="#97BF60"/>
</svg>
