<svg width="17" height="17" viewBox="0 0 17 17" fill="none" xmlns="http://www.w3.org/2000/svg">
<path d="M6.53125 15.9688C5.96875 16.5312 5 16.5312 4.4375 15.9688L1.53125 13.0625C0.96875 12.5 0.96875 11.5312 1.53125 10.9375L3.125 9.375L4.625 10.875C4.8125 11.0625 5.15625 11.0625 5.34375 10.875C5.53125 10.6875 5.53125 10.3438 5.34375 10.1562L3.84375 8.65625L5.125 7.375L6.625 8.875C6.8125 9.0625 7.15625 9.0625 7.34375 8.875C7.53125 8.6875 7.53125 8.34375 7.34375 8.15625L5.84375 6.65625L7.125 5.375L8.625 6.875C8.8125 7.0625 9.15625 7.0625 9.34375 6.875C9.53125 6.6875 9.53125 6.34375 9.34375 6.15625L7.84375 4.65625L9.125 3.375L10.625 4.875C10.8125 5.0625 11.1562 5.0625 11.3438 4.875C11.5312 4.6875 11.5312 4.34375 11.3438 4.15625L9.84375 2.65625L11.4062 1.0625C12 0.5 12.9688 0.5 13.5312 1.0625L16.4062 3.96875C17 4.53125 17 5.5 16.4062 6.0625L6.53125 15.9688Z" fill="#75A042"/>
</svg>
