<svg width="17" height="17" viewBox="0 0 17 17" fill="none" xmlns="http://www.w3.org/2000/svg">
<path d="M12 3.09375L11.9688 2.8125C11.875 2.15625 11.3438 1.65625 10.6875 1.5625L10.4062 1.5C10.1562 1.46875 9.96875 1.21875 10 0.9375C10.0312 0.6875 10.2812 0.46875 10.5625 0.53125L10.8125 0.5625C11.9375 0.71875 12.7812 1.59375 12.9375 2.6875L12.9688 2.9375C13.0312 3.21875 12.8438 3.46875 12.5625 3.5C12.2812 3.5625 12.0312 3.375 12 3.09375ZM6.78125 2.71875C6.375 2.34375 6.375 1.6875 6.78125 1.3125C7.15625 0.90625 7.8125 0.90625 8.1875 1.3125L14.1875 7.3125C14.3125 7.40625 14.5 7.34375 14.5 7.1875V4.75C14.5 4.0625 15.0625 3.5 15.75 3.5C16.4375 3.5 17 4.0625 17 4.75V10.2812C17 12.1562 16.125 13.9375 14.625 15.0625C13.0312 16.3125 11.0312 16.625 9.21875 16.0938C8.3125 15.875 7.46875 15.4062 6.78125 14.7188L6.625 14.5625L3.28125 11.2188L2.28125 10.2188C1.875 9.84375 1.875 9.1875 2.28125 8.8125C2.65625 8.40625 3.3125 8.40625 3.6875 8.8125L4.6875 9.8125L6.15625 11.25C6.3125 11.4375 6.5625 11.4375 6.75 11.25C6.90625 11.0938 6.90625 10.8438 6.75 10.6875L2.78125 6.71875C2.375 6.34375 2.375 5.6875 2.78125 5.3125C3.15625 4.90625 3.8125 4.90625 4.1875 5.3125L8.15625 9.25C8.3125 9.4375 8.5625 9.4375 8.75 9.25C8.90625 9.09375 8.90625 8.84375 8.75 8.6875L4.28125 4.21875C3.875 3.84375 3.875 3.1875 4.28125 2.8125C4.65625 2.40625 5.3125 2.40625 5.6875 2.8125L10.1562 7.25C10.3125 7.4375 10.5625 7.4375 10.75 7.25C10.9062 7.09375 10.9062 6.84375 10.75 6.6875L6.78125 2.71875ZM1.40625 11.5312C1.6875 11.4688 1.9375 11.6562 1.96875 11.9375L2.03125 12.2188C2.125 12.875 2.625 13.375 3.28125 13.4688L3.5625 13.5312C3.8125 13.5625 4.03125 13.8125 3.96875 14.0938C3.9375 14.3438 3.6875 14.5625 3.40625 14.5L3.15625 14.4688C2.0625 14.3125 1.1875 13.4375 1.03125 12.3438L1 12.0938C0.96875 11.8125 1.15625 11.5625 1.40625 11.5312Z" fill="#75A042"/>
</svg>
