<svg width="20" height="15" viewBox="0 0 20 15" fill="none" xmlns="http://www.w3.org/2000/svg">
<path d="M3 1.5C3 0.96875 3.4375 0.5 4 0.5H5C5.53125 0.5 6 0.96875 6 1.5V6.5V8.5V13.5C6 14.0625 5.53125 14.5 5 14.5H4C3.4375 14.5 3 14.0625 3 13.5V11.5H2C1.4375 11.5 1 11.0625 1 10.5V8.5C0.4375 8.5 0 8.0625 0 7.5C0 6.96875 0.4375 6.5 1 6.5V4.5C1 3.96875 1.4375 3.5 2 3.5H3V1.5ZM17 1.5V3.5H18C18.5312 3.5 19 3.96875 19 4.5V6.5C19.5312 6.5 20 6.96875 20 7.5C20 8.0625 19.5312 8.5 19 8.5V10.5C19 11.0625 18.5312 11.5 18 11.5H17V13.5C17 14.0625 16.5312 14.5 16 14.5H15C14.4375 14.5 14 14.0625 14 13.5V8.5V6.5V1.5C14 0.96875 14.4375 0.5 15 0.5H16C16.5312 0.5 17 0.96875 17 1.5ZM13 6.5V8.5H7V6.5H13Z" fill="#75A042"/>
</svg>
