<svg width="14" height="17" viewBox="0 0 14 17" fill="none" xmlns="http://www.w3.org/2000/svg">
<path d="M4 0.5C4.53125 0.5 5 0.96875 5 1.5V2.5H9V1.5C9 0.96875 9.4375 0.5 10 0.5C10.5312 0.5 11 0.96875 11 1.5V2.5H12.5C13.3125 2.5 14 3.1875 14 4V5.5H0V4C0 3.1875 0.65625 2.5 1.5 2.5H3V1.5C3 0.96875 3.4375 0.5 4 0.5ZM0 6.5H14V15C14 15.8438 13.3125 16.5 12.5 16.5H1.5C0.65625 16.5 0 15.8438 0 15V6.5ZM2 9V10C2 10.2812 2.21875 10.5 2.5 10.5H3.5C3.75 10.5 4 10.2812 4 10V9C4 8.75 3.75 8.5 3.5 8.5H2.5C2.21875 8.5 2 8.75 2 9ZM6 9V10C6 10.2812 6.21875 10.5 6.5 10.5H7.5C7.75 10.5 8 10.2812 8 10V9C8 8.75 7.75 8.5 7.5 8.5H6.5C6.21875 8.5 6 8.75 6 9ZM10.5 8.5C10.2188 8.5 10 8.75 10 9V10C10 10.2812 10.2188 10.5 10.5 10.5H11.5C11.75 10.5 12 10.2812 12 10V9C12 8.75 11.75 8.5 11.5 8.5H10.5ZM2 13V14C2 14.2812 2.21875 14.5 2.5 14.5H3.5C3.75 14.5 4 14.2812 4 14V13C4 12.75 3.75 12.5 3.5 12.5H2.5C2.21875 12.5 2 12.75 2 13ZM6.5 12.5C6.21875 12.5 6 12.75 6 13V14C6 14.2812 6.21875 14.5 6.5 14.5H7.5C7.75 14.5 8 14.2812 8 14V13C8 12.75 7.75 12.5 7.5 12.5H6.5ZM10 13V14C10 14.2812 10.2188 14.5 10.5 14.5H11.5C11.75 14.5 12 14.2812 12 14V13C12 12.75 11.75 12.5 11.5 12.5H10.5C10.2188 12.5 10 12.75 10 13Z" fill="#75A042"/>
</svg>
