<svg width="16" height="17" viewBox="0 0 16 17" fill="none" xmlns="http://www.w3.org/2000/svg">
<path d="M10.2188 3.1875L12 2.5L12.6562 0.75C12.6875 0.59375 12.8438 0.5 13 0.5C13.125 0.5 13.2812 0.59375 13.3125 0.75L14 2.5L15.75 3.1875C15.9062 3.21875 16 3.375 16 3.5C16 3.65625 15.9062 3.8125 15.75 3.84375L14 4.5L13.3125 6.28125C13.2812 6.40625 13.125 6.5 13 6.5C12.8438 6.5 12.6875 6.40625 12.6562 6.28125L12 4.5L10.2188 3.84375C10.0938 3.8125 10 3.65625 10 3.5C10 3.375 10.0938 3.21875 10.2188 3.1875ZM6.40625 2.8125L8.03125 6.375L11.5938 8C11.7812 8.09375 11.9062 8.28125 11.9062 8.46875C11.9062 8.65625 11.7812 8.84375 11.5938 8.90625L8.03125 10.5625L6.40625 14.125C6.3125 14.3125 6.125 14.4375 5.9375 14.4375C5.75 14.4375 5.5625 14.3125 5.5 14.125L3.84375 10.5625L0.28125 8.9375C0.09375 8.84375 0 8.65625 0 8.46875C0 8.28125 0.09375 8.09375 0.28125 8L3.84375 6.375L5.5 2.8125C5.5625 2.625 5.75 2.5 5.9375 2.5C6.125 2.5 6.3125 2.625 6.40625 2.8125ZM12 12.5L12.6562 10.75C12.6875 10.5938 12.8438 10.5 13 10.5C13.125 10.5 13.2812 10.5938 13.3125 10.75L14 12.5L15.75 13.1875C15.9062 13.2188 16 13.375 16 13.5C16 13.6562 15.9062 13.8125 15.75 13.8438L14 14.5L13.3125 16.2812C13.2812 16.4062 13.125 16.5 13 16.5C12.8438 16.5 12.6875 16.4062 12.6562 16.2812L12 14.5L10.2188 13.8438C10.0938 13.8125 10 13.6562 10 13.5C10 13.375 10.0938 13.2188 10.2188 13.1875L12 12.5Z" fill="#75A042"/>
</svg>
