<svg width="18" height="17" viewBox="0 0 18 17" fill="none" xmlns="http://www.w3.org/2000/svg">
<path d="M1.75 2C1.59375 2 1.5 2.125 1.5 2.25V4.75C1.5 5.1875 1.15625 5.5 0.75 5.5C0.3125 5.5 0 5.1875 0 4.75V2.25C0 1.3125 0.78125 0.5 1.75 0.5H4.25C4.65625 0.5 5 0.84375 5 1.25C5 1.6875 4.65625 2 4.25 2H1.75ZM4.75 4.5H5.25C5.65625 4.5 6 4.84375 6 5.25V11.75C6 12.1875 5.65625 12.5 5.25 12.5H4.75C4.3125 12.5 4 12.1875 4 11.75V5.25C4 4.84375 4.3125 4.5 4.75 4.5ZM9.75 4.5H10.25C10.6562 4.5 11 4.84375 11 5.25V11.75C11 12.1875 10.6562 12.5 10.25 12.5H9.75C9.3125 12.5 9 12.1875 9 11.75V5.25C9 4.84375 9.3125 4.5 9.75 4.5ZM12 5.25C12 4.84375 12.3125 4.5 12.75 4.5H13.25C13.6562 4.5 14 4.84375 14 5.25V11.75C14 12.1875 13.6562 12.5 13.25 12.5H12.75C12.3125 12.5 12 12.1875 12 11.75V5.25ZM7.5 4.5C7.75 4.5 8 4.75 8 5V12C8 12.2812 7.75 12.5 7.5 12.5C7.21875 12.5 7 12.2812 7 12V5C7 4.75 7.21875 4.5 7.5 4.5ZM16.5 2.25C16.5 2.125 16.375 2 16.25 2H13.75C13.3125 2 13 1.6875 13 1.25C13 0.84375 13.3125 0.5 13.75 0.5H16.25C17.1875 0.5 18 1.3125 18 2.25V4.75C18 5.1875 17.6562 5.5 17.25 5.5C16.8125 5.5 16.5 5.1875 16.5 4.75V2.25ZM1.75 15H4.25C4.65625 15 5 15.3438 5 15.75C5 16.1875 4.65625 16.5 4.25 16.5H1.75C0.78125 16.5 0 15.7188 0 14.75V12.25C0 11.8438 0.3125 11.5 0.75 11.5C1.15625 11.5 1.5 11.8438 1.5 12.25V14.75C1.5 14.9062 1.59375 15 1.75 15ZM16.5 14.75V12.25C16.5 11.8438 16.8125 11.5 17.25 11.5C17.6562 11.5 18 11.8438 18 12.25V14.75C18 15.7188 17.1875 16.5 16.25 16.5H13.75C13.3125 16.5 13 16.1875 13 15.75C13 15.3438 13.3125 15 13.75 15H16.25C16.375 15 16.5 14.9062 16.5 14.75Z" fill="#75A042"/>
</svg>
