<svg width="20" height="21" viewBox="0 0 20 21" fill="none" xmlns="http://www.w3.org/2000/svg">
<path d="M18.125 10.5294C18.125 7.63879 16.5625 4.98254 14.0625 3.49817C11.5234 2.05286 8.4375 2.05286 5.9375 3.49817C3.39844 4.98254 1.875 7.63879 1.875 10.5294C1.875 13.4591 3.39844 16.1154 5.9375 17.5997C8.4375 19.045 11.5234 19.045 14.0625 17.5997C16.5625 16.1154 18.125 13.4591 18.125 10.5294ZM0 10.5294C0 6.97473 1.875 3.69348 5 1.89661C8.08594 0.0997314 11.875 0.0997314 15 1.89661C18.0859 3.69348 20 6.97473 20 10.5294C20 14.1232 18.0859 17.4044 15 19.2013C11.875 20.9982 8.08594 20.9982 5 19.2013C1.875 17.4044 0 14.1232 0 10.5294ZM9.0625 5.21692C9.0625 4.70911 9.45312 4.27942 10 4.27942C10.5078 4.27942 10.9375 4.70911 10.9375 5.21692V10.0607L14.2578 12.2482C14.6875 12.5607 14.8047 13.1466 14.5312 13.5763C14.2188 14.006 13.6328 14.1232 13.2031 13.8107L9.45312 11.3107C9.21875 11.1544 9.0625 10.8419 9.0625 10.5294V5.21692Z" fill="#BCDF84"/>
</svg>
