<svg width="30" height="30" viewBox="0 0 30 30" fill="none" xmlns="http://www.w3.org/2000/svg">
<path d="M24.7266 15.6641L19.7266 20.6641C19.3359 21.0547 18.75 21.0547 18.3984 20.6641C18.0078 20.3125 18.0078 19.7266 18.3984 19.3359L21.7969 15.9375H12.1875C11.6406 15.9375 11.25 15.5469 11.25 15C11.25 14.4922 11.6406 14.0625 12.1875 14.0625H21.7969L18.3984 10.6641C18.0078 10.3125 18.0078 9.72656 18.3984 9.33594C18.75 8.98438 19.3359 8.98438 19.7266 9.33594L24.7266 14.375C25.0781 14.7266 25.0781 15.3125 24.7266 15.6641ZM11.5625 8.125H8.4375C7.53906 8.125 6.875 8.82812 6.875 9.6875V20.3125C6.875 21.2109 7.53906 21.875 8.4375 21.875H11.5625C12.0703 21.875 12.5 22.3047 12.5 22.8125C12.5 23.3594 12.0703 23.75 11.5625 23.75H8.4375C6.52344 23.75 5 22.2266 5 20.3125V9.6875C5 7.8125 6.52344 6.25 8.4375 6.25H11.5625C12.0703 6.25 12.5 6.67969 12.5 7.1875C12.5 7.73438 12.0703 8.125 11.5625 8.125Z" fill="#97BF60"/>
</svg>
