<svg width="30" height="30" viewBox="0 0 30 30" fill="none" xmlns="http://www.w3.org/2000/svg">
<path d="M18.2031 7.5C18.8672 7.5 19.5312 7.77344 20 8.24219L25.8594 14.1406C26.0938 14.375 26.25 14.6875 26.25 15C26.25 15.3516 26.0938 15.6641 25.8594 15.8984L20 21.7969C19.5312 22.2656 18.8672 22.5 18.2031 22.5H6.25C4.84375 22.5 3.75 21.4062 3.75 20V10C3.75 8.63281 4.84375 7.5 6.25 7.5H18.2031ZM5.625 10V20C5.625 20.3516 5.89844 20.625 6.25 20.625H18.2031C18.3594 20.625 18.5547 20.5859 18.6719 20.4688L24.1016 15L18.6719 9.57031C18.5547 9.45312 18.3984 9.375 18.2031 9.375H6.25C5.89844 9.375 5.625 9.6875 5.625 10ZM9.33594 11.8359C9.6875 11.4844 10.2734 11.4844 10.625 11.8359L12.4609 13.6719L14.2969 11.8359C14.6875 11.4844 15.2734 11.4844 15.625 11.8359C16.0156 12.2266 16.0156 12.8125 15.625 13.1641L13.7891 15L15.625 16.8359C16.0156 17.2266 16.0156 17.8125 15.625 18.1641C15.2734 18.5547 14.6875 18.5547 14.2969 18.1641L12.4609 16.3281L10.625 18.1641C10.2734 18.5547 9.6875 18.5547 9.33594 18.1641C8.94531 17.8125 8.94531 17.2266 9.33594 16.8359L11.1719 15L9.33594 13.1641C8.94531 12.8125 8.94531 12.2266 9.33594 11.8359Z" fill="#97BF60"/>
</svg>
