<svg width="24" height="21" viewBox="0 0 24 21" fill="none" xmlns="http://www.w3.org/2000/svg">
<path d="M12.4609 0.734375L22.7734 9.48438C23.1641 9.83594 23.2031 10.4219 22.8906 10.8125C22.5391 11.2031 21.9531 11.2422 21.5625 10.9297L20.625 10.1094V17.375C20.625 19.1328 19.2188 20.5 17.5 20.5H6.25C4.49219 20.5 3.125 19.1328 3.125 17.375V10.1094L2.14844 10.9297C1.75781 11.2422 1.17188 11.2031 0.820312 10.8125C0.507812 10.4219 0.546875 9.83594 0.9375 9.48438L11.25 0.734375C11.6016 0.460938 12.1094 0.460938 12.4609 0.734375ZM18.75 8.50781L11.875 2.6875L5 8.50781V17.375C5 18.0781 5.54688 18.625 6.25 18.625H17.5C18.1641 18.625 18.75 18.0781 18.75 17.375V8.50781Z" fill="#808080"/>
</svg>
