<svg width="30" height="30" viewBox="0 0 30 30" fill="none" xmlns="http://www.w3.org/2000/svg">
<path d="M15 6.875C13.2422 6.875 11.875 8.28125 11.875 10V12.5H21.25C22.6172 12.5 23.75 13.6328 23.75 15V22.5C23.75 23.9062 22.6172 25 21.25 25H8.75C7.34375 25 6.25 23.9062 6.25 22.5V15C6.25 13.6328 7.34375 12.5 8.75 12.5H10V10C10 7.26562 12.2266 5 15 5C17.2266 5 19.1016 6.48438 19.7266 8.47656C19.8828 8.98438 19.6484 9.49219 19.1406 9.64844C18.6328 9.80469 18.125 9.53125 17.9688 9.0625C17.5391 7.8125 16.3672 6.875 15 6.875ZM8.75 14.375C8.39844 14.375 8.125 14.6875 8.125 15V22.5C8.125 22.8516 8.39844 23.125 8.75 23.125H21.25C21.5625 23.125 21.875 22.8516 21.875 22.5V15C21.875 14.6875 21.5625 14.375 21.25 14.375H8.75ZM16.25 19.6875H13.75C13.2031 19.6875 12.8125 19.2969 12.8125 18.75C12.8125 18.2422 13.2031 17.8125 13.75 17.8125H16.25C16.7578 17.8125 17.1875 18.2422 17.1875 18.75C17.1875 19.2969 16.7578 19.6875 16.25 19.6875Z" fill="#97BF60"/>
</svg>
