<svg width="30" height="30" viewBox="0 0 30 30" fill="none" xmlns="http://www.w3.org/2000/svg">
<path d="M9.29688 5.625C9.49219 6.09375 9.21875 6.64062 8.75 6.83594L7.07031 7.46094C6.95312 7.5 6.875 7.61719 6.875 7.77344V12.8125C6.875 15.0781 8.67188 16.875 10.9375 16.875H11.25H11.5625C13.7891 16.875 15.625 15.0781 15.625 12.8125V7.77344C15.625 7.61719 15.5078 7.5 15.3906 7.46094L13.7109 6.83594C13.2422 6.64062 12.9688 6.09375 13.1641 5.625C13.3594 5.15625 13.9062 4.88281 14.375 5.07812L16.0547 5.70312C16.9141 6.01562 17.5 6.83594 17.5 7.77344V12.8125C17.5 15.8984 15.1562 18.4375 12.1875 18.75C12.3047 21.2109 14.375 23.125 16.875 23.125C19.4531 23.125 21.5625 21.0547 21.5625 18.4375V15.5078C20.2734 15.1172 19.375 13.9062 19.375 12.5C19.375 10.7812 20.7422 9.375 22.5 9.375C24.2188 9.375 25.625 10.7812 25.625 12.5C25.625 13.9062 24.6875 15.1172 23.4375 15.5078V18.4375C23.4375 22.0703 20.4688 25 16.875 25C13.3203 25 10.4297 22.2266 10.3125 18.75C7.30469 18.4375 5 15.8984 5 12.8125V7.77344C5 6.83594 5.54688 6.01562 6.40625 5.70312L8.08594 5.07812C8.59375 4.88281 9.10156 5.15625 9.29688 5.625ZM22.5 11.25C21.7969 11.25 21.25 11.8359 21.25 12.5C21.25 13.2031 21.7969 13.75 22.5 13.75C23.1641 13.75 23.75 13.2031 23.75 12.5C23.75 11.8359 23.1641 11.25 22.5 11.25Z" fill="#97BF60"/>
</svg>
