<svg width="30" height="30" viewBox="0 0 30 30" fill="none" xmlns="http://www.w3.org/2000/svg">
<path d="M15 5C15.6641 5 16.25 5.58594 16.25 6.25V7.03125C19.1016 7.57812 21.25 10.1172 21.25 13.125V14.1406C21.25 15.8984 21.8359 17.6172 22.9297 19.0234L23.5156 19.7266C23.75 20.0391 23.7891 20.4297 23.6328 20.7422C23.4766 21.0547 23.1641 21.25 22.8125 21.25H7.1875C6.79688 21.25 6.48438 21.0547 6.32812 20.7422C6.17188 20.4297 6.21094 20.0391 6.44531 19.7266L7.03125 19.0234C8.125 17.6172 8.75 15.8984 8.75 14.1406V13.125C8.75 10.1172 10.8984 7.57812 13.75 7.03125V6.25C13.75 5.58594 14.2969 5 15 5ZM15 8.75C12.5781 8.75 10.625 10.7422 10.625 13.125V14.1406C10.625 16.0156 10.0781 17.8125 9.0625 19.375H20.8984C19.8828 17.8125 19.375 16.0156 19.375 14.1406V13.125C19.375 10.7422 17.3828 8.75 15 8.75ZM17.5 22.5C17.5 23.1641 17.2266 23.8281 16.7578 24.2969C16.2891 24.7656 15.6641 25 15 25C14.3359 25 13.6719 24.7656 13.2031 24.2969C12.7344 23.8281 12.5 23.1641 12.5 22.5H15H17.5Z" fill="#97BF60"/>
</svg>
