<svg width="19" height="21" viewBox="0 0 19 21" fill="none" xmlns="http://www.w3.org/2000/svg">
<path d="M11.25 5.5C10.8984 5.5 10.625 5.22656 10.625 4.875V4.25C10.625 4.09375 10.625 3.9375 10.625 3.74219C10.2344 3.66406 9.80469 3.625 9.375 3.625C5.23438 3.625 1.875 6.98438 1.875 11.125C1.875 15.2656 5.23438 18.625 9.375 18.625C13.5156 18.625 16.875 15.2656 16.875 11.125C16.875 9.48438 16.2891 7.92188 15.3906 6.67188C16.0156 6.51562 16.6016 6.28125 17.1484 5.92969C18.1641 7.41406 18.75 9.21094 18.75 11.125C18.75 16.3203 14.5312 20.5 9.375 20.5C4.17969 20.5 0 16.3203 0 11.125C0 5.96875 4.17969 1.75 9.375 1.75C10.0391 1.75 10.7422 1.82812 11.3672 1.98438C12.0703 1.08594 13.1641 0.5 14.375 0.5H17.5C17.8125 0.5 18.125 0.8125 18.125 1.125V1.75C18.125 3.82031 16.4453 5.5 14.375 5.5H11.25Z" fill="#808080"/>
</svg>
