<svg width="13" height="12" viewBox="0 0 13 12" fill="none" xmlns="http://www.w3.org/2000/svg">
<path d="M5.2978 1.64375L5.76655 2.4125L6.21655 1.64375C6.51655 1.11875 7.0603 0.799997 7.6603 0.799997H7.71655C8.61655 0.799997 9.36655 1.55 9.36655 2.45C9.36655 2.73125 9.29155 2.975 9.17905 3.2H9.66655C10.1541 3.2 10.5666 3.6125 10.5666 4.1V5.3C10.5666 5.69375 10.3041 6.03125 9.96655 6.1625V6.2V9.2C9.96655 9.875 9.4228 10.4 8.76655 10.4H2.76655C2.09155 10.4 1.56655 9.875 1.56655 9.2V6.2V6.1625C1.2103 6.03125 0.966553 5.69375 0.966553 5.3V4.1C0.966553 3.6125 1.3603 3.2 1.86655 3.2H2.3353C2.2228 2.975 2.16655 2.73125 2.16655 2.45C2.16655 1.55 2.8978 0.799997 3.81655 0.799997H3.85405C4.45405 0.799997 4.9978 1.11875 5.2978 1.64375ZM9.66655 4.1H7.71655H6.36655V5.3H9.06655H9.66655V4.1ZM5.16655 4.1H3.81655H1.86655V5.3H2.46655H5.16655V4.1ZM5.16655 6.2H2.46655V9.2C2.46655 9.36875 2.5978 9.5 2.76655 9.5H5.16655V6.2ZM6.36655 9.5H8.76655C8.91655 9.5 9.06655 9.36875 9.06655 9.2V6.2H6.36655V9.5ZM7.71655 3.2C8.12905 3.2 8.46655 2.88125 8.46655 2.45C8.46655 2.0375 8.12905 1.7 7.71655 1.7H7.6603C7.37905 1.7 7.1353 1.85 6.9853 2.09375L6.32905 3.2H6.36655H7.71655ZM5.16655 3.2H5.1853L4.52905 2.09375C4.3978 1.85 4.1353 1.7 3.85405 1.7H3.81655C3.3853 1.7 3.06655 2.0375 3.06655 2.45C3.06655 2.88125 3.3853 3.2 3.81655 3.2H5.16655Z" fill="#75A042"/>
</svg>
