<svg width="25" height="21" viewBox="0 0 25 21" fill="none" xmlns="http://www.w3.org/2000/svg">
<path d="M12.6172 2.99036C12.3438 3.06848 12.1094 3.14661 11.875 3.18567V5.09973C13.2031 5.41223 14.1406 5.95911 14.9609 6.38879V6.42786C16.0156 7.01379 16.7578 7.40442 18.125 7.40442C19.1016 7.40442 20.5469 7.28723 21.7188 6.85754C22.8906 6.38879 23.125 5.92004 23.125 5.52942C23.125 5.09973 22.7344 4.31848 21.1719 3.53723C19.7266 2.83411 17.8516 2.40442 16.25 2.40442C15.2344 2.40442 13.8672 2.67786 12.6172 2.99036ZM10 6.77942V4.90442V1.77942C10 1.77942 13.75 0.529419 16.25 0.529419C20 0.529419 25 2.40442 25 5.52942C25 8.65442 20.3125 9.27942 18.125 9.27942C16.25 9.27942 15.1562 8.65442 14.0625 8.02942C12.9688 7.40442 11.875 6.77942 10 6.77942ZM5 4.27942C5 2.91223 6.09375 1.77942 7.5 1.77942H8.75V6.77942H7.5C6.09375 6.77942 5 5.68567 5 4.27942ZM7.61719 18.1075C8.86719 18.42 10.2344 18.6544 11.25 18.6544C12.8516 18.6544 14.7266 18.2638 16.1719 17.5607C17.7344 16.7794 18.125 15.9982 18.125 15.5294C18.125 15.1779 17.8906 14.7091 16.7188 14.2404C15.5469 13.8107 14.1016 13.6544 13.125 13.6544C11.7578 13.6544 11.0156 14.0841 9.96094 14.67V14.7091C9.14062 15.1388 8.20312 15.6857 6.875 15.9982V17.9122C7.10938 17.9513 7.34375 18.0294 7.61719 18.1075ZM5 14.2794C6.875 14.2794 7.96875 13.6544 9.0625 13.0294C10.1562 12.4044 11.25 11.7794 13.125 11.7794C15.3125 11.7794 20 12.4044 20 15.5294C20 18.6544 15 20.5294 11.25 20.5294C8.75 20.5294 5 19.2794 5 19.2794V16.1544V14.2794ZM0 16.7794C0 15.4122 1.09375 14.2794 2.5 14.2794H3.75V19.2794H2.5C1.09375 19.2794 0 18.1857 0 16.7794Z" fill="#BCDF84"/>
</svg>
