<svg width="18" height="19" viewBox="0 0 18 19" fill="none" xmlns="http://www.w3.org/2000/svg">
<path d="M9.75 2.625H8.5V16.375H9.75V2.625ZM8.5 0.75H9.75C10.7656 0.75 11.625 1.60938 11.625 2.625V16.375C11.625 17.4297 10.7656 18.25 9.75 18.25H8.5C7.44531 18.25 6.625 17.4297 6.625 16.375V2.625C6.625 1.60938 7.44531 0.75 8.5 0.75ZM3.5 10.125H2.25V16.375H3.5V10.125ZM2.25 8.25H3.5C4.51562 8.25 5.375 9.10938 5.375 10.125V16.375C5.375 17.4297 4.51562 18.25 3.5 18.25H2.25C1.19531 18.25 0.375 17.4297 0.375 16.375V10.125C0.375 9.10938 1.19531 8.25 2.25 8.25ZM14.75 5.125V16.375H16V5.125H14.75ZM12.875 5.125C12.875 4.10938 13.6953 3.25 14.75 3.25H16C17.0156 3.25 17.875 4.10938 17.875 5.125V16.375C17.875 17.4297 17.0156 18.25 16 18.25H14.75C13.6953 18.25 12.875 17.4297 12.875 16.375V5.125Z" fill="#808080"/>
</svg>
