<svg width="30" height="30" viewBox="0 0 30 30" fill="none" xmlns="http://www.w3.org/2000/svg">
<path d="M20.625 6.875H17.5V9.76562C17.5 9.92188 17.3828 10 17.2266 10C17.1875 10 17.1484 10 17.1094 10L15.3125 8.94531C15.1172 8.82812 14.8828 8.82812 14.6875 8.94531L12.8516 10C12.8125 10 12.7734 10 12.7344 10C12.5781 10 12.5 9.92188 12.5 9.76562V6.875H9.375V13.125H20.625V6.875ZM20.625 5C21.6406 5 22.5 5.85938 22.5 6.875V13.125C22.5 14.1797 21.6406 15 20.625 15H9.375C8.32031 15 7.5 14.1797 7.5 13.125V6.875C7.5 5.85938 8.32031 5 9.375 5H12.5H17.5H20.625ZM11.0547 18.75C10.7422 18.75 10.4297 18.8672 10.1953 19.0234L7.07031 21.0938C6.91406 21.2109 6.71875 21.25 6.5625 21.25H4.6875C4.14062 21.25 3.75 20.8594 3.75 20.3125C3.75 19.8047 4.14062 19.375 4.6875 19.375H6.25L9.14062 17.4609C9.72656 17.1094 10.3906 16.875 11.0547 16.875H17.1875C18.5547 16.875 19.6875 18.0078 19.6875 19.375C19.6875 19.4141 19.6875 19.4531 19.6875 19.4531L22.1875 17.8906C22.6172 17.6562 23.0859 17.5 23.5938 17.5H23.8672C25.1953 17.5 26.25 18.5547 26.25 19.8828C26.25 20.6641 25.8203 21.4062 25.1562 21.8359L21.4453 24.2578C20.6641 24.7656 19.7656 25.0391 18.8672 25.0391L4.6875 25C4.14062 25 3.75 24.6094 3.75 24.0625C3.75 23.5547 4.14062 23.125 4.6875 23.125H18.8672C19.4141 23.125 19.9609 22.9688 20.3906 22.6953L24.1406 20.2734C24.2578 20.1953 24.375 20.0391 24.375 19.8828C24.375 19.6094 24.1406 19.375 23.8672 19.375H23.5938C23.4375 19.375 23.3203 19.4141 23.2031 19.4922L19.5312 21.7578C19.375 21.8359 19.2188 21.875 19.0234 21.875H17.1484H16.2109H13.7109C13.2031 21.875 12.7734 21.4844 12.7734 20.9375C12.7734 20.4297 13.2031 20 13.7109 20H16.2109H17.1484C17.5 20 17.7734 19.7266 17.7734 19.375C17.7734 19.0625 17.5 18.75 17.1484 18.75H11.0547Z" fill="#97BF60"/>
</svg>
