<svg width="30" height="30" viewBox="0 0 30 30" fill="none" xmlns="http://www.w3.org/2000/svg">
<path d="M6.25 8.4375C6.25 6.5625 7.77344 5 9.6875 5H21.5625C22.7344 5 23.75 6.01562 23.75 7.1875V18.4375C23.75 19.3359 23.2031 20.0781 22.5 20.4297V23.125H22.8125C23.3203 23.125 23.75 23.5547 23.75 24.0625C23.75 24.6094 23.3203 25 22.8125 25H9.375C7.61719 25 6.25 23.6328 6.25 21.875C6.25 21.7969 6.25 21.6797 6.25 21.5625V8.4375ZM9.375 20.625C8.67188 20.625 8.125 21.2109 8.125 21.875C8.125 22.5781 8.67188 23.125 9.375 23.125H20.625V20.625H9.375ZM8.125 19.0234C8.47656 18.8672 8.90625 18.75 9.375 18.75H21.5625C21.7188 18.75 21.875 18.6328 21.875 18.4375V7.1875C21.875 7.03125 21.7188 6.875 21.5625 6.875H9.6875C8.78906 6.875 8.125 7.57812 8.125 8.4375V19.0234ZM12.1875 9.375H19.0625C19.5703 9.375 20 9.80469 20 10.3125C20 10.8594 19.5703 11.25 19.0625 11.25H12.1875C11.6406 11.25 11.25 10.8594 11.25 10.3125C11.25 9.80469 11.6406 9.375 12.1875 9.375ZM12.1875 12.5H19.0625C19.5703 12.5 20 12.9297 20 13.4375C20 13.9844 19.5703 14.375 19.0625 14.375H12.1875C11.6406 14.375 11.25 13.9844 11.25 13.4375C11.25 12.9297 11.6406 12.5 12.1875 12.5Z" fill="#97BF60"/>
</svg>
