<svg width="20" height="15" viewBox="0 0 20 15" fill="none" xmlns="http://www.w3.org/2000/svg">
<path d="M0.75 0C1.15625 0 1.5 0.34375 1.5 0.75V4.75C1.5 4.90625 1.59375 5 1.75 5H2V0.75C2 0.34375 2.3125 0 2.75 0C3.15625 0 3.5 0.34375 3.5 0.75V5H3.75C3.875 5 4 4.90625 4 4.75V0.75C4 0.34375 4.3125 0 4.75 0C5.15625 0 5.5 0.34375 5.5 0.75V4.75C5.5 5.71875 4.6875 6.5 3.75 6.5H3.5V14.25C3.5 14.6875 3.15625 15 2.75 15C2.3125 15 2 14.6875 2 14.25V6.5H1.75C0.78125 6.5 0 5.71875 0 4.75V0.75C0 0.34375 0.3125 0 0.75 0ZM17.5 4.5V8H18.5V6.25V2.1875C17.9688 2.65625 17.5 3.40625 17.5 4.5ZM18.5 9.5H17C16.4375 9.5 16 9.0625 16 8.5V4.5C16 1.375 18.625 0.25 19.1562 0.03125C19.2188 0.03125 19.2812 0 19.3438 0C19.6875 0 20 0.3125 20 0.65625V6.25V8V9.5V14.25C20 14.6875 19.6562 15 19.25 15C18.8125 15 18.5 14.6875 18.5 14.25V9.5ZM10.5 14.5C7.9375 14.5 5.71875 13.1562 4.5 11.125V7.40625C4.65625 7.34375 4.84375 7.28125 5 7.21875C5 7.3125 5 7.40625 5 7.5C5 10.5625 7.4375 13 10.5 13C12.6875 13 14.5938 11.7188 15.4688 9.8125C15.8125 10.2188 16.2812 10.4688 16.8125 10.5C15.6875 12.875 13.2812 14.5 10.5 14.5ZM6.5 1.78125C7.625 0.96875 9 0.5 10.5 0.5C12.375 0.5 14.0938 1.25 15.3438 2.46875C15.125 3 15 3.625 15 4.34375C14 2.9375 12.3438 2 10.5 2C8.90625 2 7.5 2.6875 6.5 3.75V1.78125ZM13 7.5C13 6.625 12.5 5.8125 11.75 5.34375C10.9688 4.90625 10 4.90625 9.25 5.34375C8.46875 5.8125 8 6.625 8 7.5C8 8.40625 8.46875 9.21875 9.25 9.6875C10 10.125 10.9688 10.125 11.75 9.6875C12.5 9.21875 13 8.40625 13 7.5ZM6.5 7.5C6.5 6.09375 7.25 4.78125 8.5 4.0625C9.71875 3.34375 11.25 3.34375 12.5 4.0625C13.7188 4.78125 14.5 6.09375 14.5 7.5C14.5 8.9375 13.7188 10.25 12.5 10.9688C11.25 11.6875 9.71875 11.6875 8.5 10.9688C7.25 10.25 6.5 8.9375 6.5 7.5Z" fill="#131313"/>
</svg>
